<svg width="999" height="361" viewBox="0 0 999 361" fill="none" xmlns="http://www.w3.org/2000/svg">
<path d="M164.095 180.451H281" stroke="#CFD7D6" stroke-width="2" stroke-dasharray="4 4"/>
<rect x="22.4739" y="145.201" width="180.5" height="70.5" rx="5.25" fill="#15252D"/>
<rect x="22.4739" y="145.201" width="180.5" height="70.5" rx="5.25" stroke="#CFD7D6" stroke-width="1.5"/>
<path d="M40.4972 164.597C41.1061 164.597 41.6172 164.675 42.0305 164.831C42.4483 164.986 42.8394 165.213 43.2039 165.511L42.4905 166.351C42.2061 166.115 41.9039 165.944 41.5839 165.837C41.2639 165.726 40.9283 165.671 40.5772 165.671C40.0928 165.671 39.6461 165.788 39.2372 166.024C38.8283 166.26 38.4994 166.646 38.2505 167.184C38.0017 167.722 37.8772 168.444 37.8772 169.351C37.8772 170.235 37.995 170.946 38.2305 171.484C38.4705 172.017 38.7928 172.406 39.1972 172.651C39.6061 172.891 40.0617 173.011 40.5639 173.011C41.0661 173.011 41.4817 172.933 41.8105 172.777C42.1439 172.617 42.4328 172.435 42.6772 172.231L43.3372 173.077C43.0483 173.362 42.6728 173.606 42.2105 173.811C41.7528 174.015 41.1928 174.117 40.5305 174.117C39.7705 174.117 39.0861 173.935 38.4772 173.571C37.8728 173.206 37.3928 172.671 37.0372 171.964C36.6817 171.253 36.5039 170.382 36.5039 169.351C36.5039 168.32 36.6839 167.451 37.0439 166.744C37.4083 166.037 37.8928 165.504 38.4972 165.144C39.1061 164.78 39.7728 164.597 40.4972 164.597ZM45.4353 173.951V164.764H46.7619V172.804H50.9219L50.7753 173.951H45.4353ZM58.4066 164.764V165.797H56.3866V172.911H58.4066V173.951H53.0333V172.911H55.0533V165.797H53.0333V164.764H58.4066ZM62.6447 165.804V168.757H66.018V169.804H62.6447V172.917H66.7714V173.951H61.318V164.764H66.6714L66.518 165.804H62.6447ZM72.8827 173.951L69.7827 165.984C69.7916 166.14 69.8094 166.406 69.8361 166.784C69.8672 167.157 69.8961 167.588 69.9227 168.077C69.9494 168.562 69.9627 169.046 69.9627 169.531V173.951H68.7627V164.764H70.5161L73.6494 172.751C73.6405 172.6 73.6205 172.348 73.5894 171.997C73.5583 171.642 73.5294 171.222 73.5027 170.737C73.4805 170.253 73.4694 169.735 73.4694 169.184V164.764H74.6694V173.951H72.8827ZM80.3541 165.864V173.951H79.0341V165.864H76.2074V164.764H83.2274L83.0874 165.864H80.3541ZM97.4169 171.664H93.9369L93.2435 173.951H91.9169L94.8769 164.764H96.5435L99.5102 173.951H98.1102L97.4169 171.664ZM94.2435 170.604H97.1102L95.6835 165.831L94.2435 170.604ZM107.175 167.611C107.175 168.326 107.022 168.904 106.715 169.344C106.413 169.78 105.993 170.097 105.455 170.297C104.917 170.497 104.302 170.597 103.608 170.597H102.462V173.951H101.135V164.764H103.568C104.688 164.764 105.568 164.997 106.208 165.464C106.853 165.926 107.175 166.642 107.175 167.611ZM105.775 167.624C105.775 166.948 105.579 166.473 105.188 166.197C104.802 165.922 104.304 165.784 103.695 165.784H102.462V169.557H103.675C104.084 169.557 104.446 169.5 104.762 169.384C105.077 169.268 105.324 169.071 105.502 168.791C105.684 168.511 105.775 168.122 105.775 167.624ZM115.173 167.611C115.173 168.326 115.02 168.904 114.713 169.344C114.411 169.78 113.991 170.097 113.453 170.297C112.915 170.497 112.3 170.597 111.606 170.597H110.46V173.951H109.133V164.764H111.566C112.686 164.764 113.566 164.997 114.206 165.464C114.851 165.926 115.173 166.642 115.173 167.611ZM113.773 167.624C113.773 166.948 113.577 166.473 113.186 166.197C112.8 165.922 112.302 165.784 111.693 165.784H110.46V169.557H111.673C112.082 169.557 112.444 169.5 112.76 169.384C113.075 169.268 113.322 169.071 113.5 168.791C113.682 168.511 113.773 168.122 113.773 167.624ZM117.418 173.951V164.764H118.744V172.804H122.904L122.758 173.951H117.418ZM130.389 164.764V165.797H128.369V172.911H130.389V173.951H125.016V172.911H127.036V165.797H125.016V164.764H130.389ZM136.474 164.597C137.083 164.597 137.594 164.675 138.007 164.831C138.425 164.986 138.816 165.213 139.18 165.511L138.467 166.351C138.183 166.115 137.88 165.944 137.56 165.837C137.24 165.726 136.905 165.671 136.554 165.671C136.069 165.671 135.623 165.788 135.214 166.024C134.805 166.26 134.476 166.646 134.227 167.184C133.978 167.722 133.854 168.444 133.854 169.351C133.854 170.235 133.972 170.946 134.207 171.484C134.447 172.017 134.769 172.406 135.174 172.651C135.583 172.891 136.038 173.011 136.54 173.011C137.043 173.011 137.458 172.933 137.787 172.777C138.12 172.617 138.409 172.435 138.654 172.231L139.314 173.077C139.025 173.362 138.649 173.606 138.187 173.811C137.729 174.015 137.169 174.117 136.507 174.117C135.747 174.117 135.063 173.935 134.454 173.571C133.849 173.206 133.369 172.671 133.014 171.964C132.658 171.253 132.48 170.382 132.48 169.351C132.48 168.32 132.66 167.451 133.02 166.744C133.385 166.037 133.869 165.504 134.474 165.144C135.083 164.78 135.749 164.597 136.474 164.597ZM145.405 171.664H141.925L141.232 173.951H139.905L142.865 164.764H144.532L147.498 173.951H146.098L145.405 171.664ZM142.232 170.604H145.098L143.672 165.831L142.232 170.604ZM152.337 165.864V173.951H151.017V165.864H148.19V164.764H155.21L155.07 165.864H152.337ZM162.381 164.764V165.797H160.361V172.911H162.381V173.951H157.008V172.911H159.028V165.797H157.008V164.764H162.381ZM171.126 169.364C171.126 170.297 170.997 171.122 170.739 171.837C170.482 172.553 170.097 173.113 169.586 173.517C169.079 173.917 168.448 174.117 167.693 174.117C166.937 174.117 166.304 173.922 165.793 173.531C165.286 173.135 164.904 172.582 164.646 171.871C164.388 171.16 164.259 170.328 164.259 169.377C164.259 168.44 164.388 167.613 164.646 166.897C164.904 166.177 165.286 165.615 165.793 165.211C166.304 164.802 166.937 164.597 167.693 164.597C168.448 164.597 169.079 164.795 169.586 165.191C170.097 165.586 170.482 166.142 170.739 166.857C170.997 167.573 171.126 168.408 171.126 169.364ZM169.746 169.364C169.746 168.155 169.586 167.237 169.266 166.611C168.95 165.984 168.426 165.671 167.693 165.671C166.959 165.671 166.433 165.986 166.113 166.617C165.797 167.248 165.639 168.168 165.639 169.377C165.639 170.582 165.802 171.495 166.126 172.117C166.455 172.735 166.977 173.044 167.693 173.044C168.426 173.044 168.95 172.733 169.266 172.111C169.586 171.484 169.746 170.568 169.746 169.364ZM176.857 173.951L173.757 165.984C173.766 166.14 173.784 166.406 173.811 166.784C173.842 167.157 173.871 167.588 173.897 168.077C173.924 168.562 173.937 169.046 173.937 169.531V173.951H172.737V164.764H174.491L177.624 172.751C177.615 172.6 177.595 172.348 177.564 171.997C177.533 171.642 177.504 171.222 177.477 170.737C177.455 170.253 177.444 169.735 177.444 169.184V164.764H178.644V173.951H176.857ZM186.909 171.384C186.909 171.917 186.773 172.391 186.502 172.804C186.235 173.213 185.846 173.535 185.335 173.771C184.829 174.002 184.213 174.117 183.489 174.117C182.786 174.117 182.16 174.011 181.609 173.797C181.058 173.584 180.589 173.291 180.202 172.917L180.955 172.071C181.275 172.368 181.642 172.604 182.055 172.777C182.469 172.951 182.951 173.037 183.502 173.037C183.862 173.037 184.195 172.98 184.502 172.864C184.813 172.744 185.062 172.566 185.249 172.331C185.44 172.091 185.535 171.791 185.535 171.431C185.535 171.146 185.478 170.904 185.362 170.704C185.251 170.5 185.053 170.32 184.769 170.164C184.484 170.008 184.086 169.855 183.575 169.704C182.953 169.522 182.42 169.315 181.975 169.084C181.535 168.848 181.198 168.566 180.962 168.237C180.731 167.904 180.615 167.495 180.615 167.011C180.615 166.535 180.746 166.117 181.009 165.757C181.271 165.393 181.631 165.108 182.089 164.904C182.546 164.7 183.073 164.597 183.669 164.597C184.313 164.597 184.875 164.691 185.355 164.877C185.84 165.064 186.275 165.328 186.662 165.671L185.929 166.497C185.6 166.208 185.246 166 184.869 165.871C184.495 165.737 184.115 165.671 183.729 165.671C183.24 165.671 182.824 165.777 182.482 165.991C182.14 166.2 181.969 166.52 181.969 166.951C181.969 167.208 182.038 167.428 182.175 167.611C182.313 167.788 182.544 167.953 182.869 168.104C183.198 168.255 183.646 168.415 184.215 168.584C184.709 168.731 185.158 168.911 185.562 169.124C185.971 169.333 186.298 169.617 186.542 169.977C186.786 170.333 186.909 170.802 186.909 171.384Z" fill="white"/>
<g clip-path="url(#clip0_451_391)">
<path d="M46.9951 189.865C47.3827 190.675 47.6882 191.521 47.907 192.392C49.647 191.88 50.7551 191.039 50.7551 190.017C50.7551 188.975 49.6051 188.12 47.8057 187.612" stroke="white" stroke-linecap="round" stroke-linejoin="round"/>
<path d="M40.4445 189.865C40.1073 189.141 39.8354 188.388 39.632 187.615C37.8376 188.123 36.6945 188.977 36.6945 190.017C36.6945 191.037 37.7989 191.877 39.5339 192.392" stroke="white" stroke-linecap="round" stroke-linejoin="round"/>
<path d="M41.9895 187.19C42.4976 186.45 43.0787 185.762 43.7239 185.138C42.4114 183.888 41.1282 183.349 40.2432 183.859C39.3407 184.38 39.1751 185.804 39.6351 187.616" stroke="white" stroke-linecap="round" stroke-linejoin="round"/>
<path d="M45.2651 192.863C44.8066 193.517 44.2908 194.129 43.7239 194.691C45.0614 195.991 46.3739 196.556 47.2745 196.036C48.1576 195.526 48.3333 194.15 47.9089 192.392" stroke="white" stroke-linecap="round" stroke-linejoin="round"/>
<path d="M42.1757 192.863C41.2808 192.794 40.3951 192.635 39.532 192.389C39.1045 194.152 39.282 195.532 40.1645 196.043C41.0663 196.564 42.382 195.996 43.722 194.691" stroke="white" stroke-linecap="round" stroke-linejoin="round"/>
<path d="M45.4514 187.189C46.2472 187.26 47.0351 187.401 47.8058 187.612C48.2626 185.804 48.0964 184.384 47.1958 183.862C46.312 183.354 45.0326 183.888 43.7239 185.138" stroke="white" stroke-linecap="round" stroke-linejoin="round"/>
<path d="M45.4514 187.189C44.9001 187.137 44.3264 187.106 43.7239 187.106C43.1214 187.106 42.5433 187.137 41.9895 187.19C41.7051 187.599 41.427 188.035 41.1589 188.498C40.8908 188.961 40.6589 189.416 40.4445 189.865C40.6745 190.369 40.9358 190.883 41.2358 191.403C41.5358 191.923 41.8533 192.41 42.1733 192.863C43.2012 192.95 44.2347 192.951 45.2626 192.863C45.9359 191.923 46.5157 190.918 46.9939 189.865C46.5574 188.931 46.0414 188.035 45.4514 187.189Z" stroke="white" stroke-linecap="round" stroke-linejoin="round"/>
<path d="M42.7864 190.017C42.7864 190.265 42.8851 190.504 43.061 190.68C43.2368 190.856 43.4752 190.954 43.7239 190.954C43.9725 190.954 44.211 190.856 44.3868 190.68C44.5626 190.504 44.6614 190.265 44.6614 190.017C44.6614 189.768 44.5626 189.53 44.3868 189.354C44.211 189.178 43.9725 189.079 43.7239 189.079C43.4752 189.079 43.2368 189.178 43.061 189.354C42.8851 189.53 42.7864 189.768 42.7864 190.017Z" stroke="white" stroke-linecap="round" stroke-linejoin="round"/>
</g>
<g clip-path="url(#clip1_451_391)">
<path d="M59.1979 184.092V195.81L70.9166 184.092H59.1979Z" stroke="white" stroke-linecap="round" stroke-linejoin="round"/>
<path d="M65.0573 189.951L70.9166 195.81H59.1979" stroke="white" stroke-linecap="round" stroke-linejoin="round"/>
<path d="M65.0573 184.092L59.3229 189.826" stroke="white" stroke-linecap="round" stroke-linejoin="round"/>
</g>
<g clip-path="url(#clip2_451_391)">
<path d="M87.4176 189.326C84.9739 187.807 82.8051 184.426 82.8051 184.426C82.8051 184.426 84.5989 189.144 87.8926 192.244C86.8316 192.303 85.7705 192.128 84.7845 191.732C83.7985 191.336 82.9115 190.727 82.1864 189.951C81.7276 189.492 81.3229 188.983 80.9801 188.432C80.9581 188.405 80.9268 188.387 80.8923 188.381C80.8578 188.375 80.8223 188.382 80.7926 188.401C80.7584 188.419 80.7308 188.447 80.7139 188.482C80.697 188.517 80.6918 188.556 80.6989 188.594C81.1317 190.148 81.9659 191.56 83.1176 192.688C85.7801 195.351 89.4489 196.088 91.7801 194.563C92.23 194.701 92.6929 194.791 93.1614 194.832C94.3739 195.457 94.3739 195.744 94.3739 195.744C94.5499 195.538 94.6704 195.29 94.724 195.025C94.7776 194.759 94.7625 194.484 94.6801 194.226C94.7449 193.94 94.7196 193.641 94.6077 193.37C94.4958 193.099 94.3028 192.87 94.0551 192.713L93.4989 192.369C94.3426 190.069 93.4989 186.957 91.1551 184.619C90.9989 184.457 90.8364 184.307 90.6676 184.163C90.6391 184.138 90.6025 184.124 90.5645 184.124C90.5266 184.124 90.4899 184.138 90.4614 184.163C90.4323 184.186 90.412 184.219 90.4041 184.255C90.3961 184.292 90.4009 184.33 90.4176 184.363C91.7364 186.457 91.9301 188.851 90.8551 190.476C88.8418 188.735 87.109 186.694 85.7176 184.426" stroke="white" stroke-linecap="round" stroke-linejoin="round"/>
</g>
<rect x="-1" y="1" width="753.207" height="316.235" rx="7" transform="matrix(-1 0 0 1 993 21.3333)" stroke="#FC5200" stroke-width="2"/>
<rect x="804.147" y="42.0833" width="170.103" height="71.2449" rx="5.25" fill="#15252D"/>
<rect x="804.147" y="42.0833" width="170.103" height="71.2449" rx="5.25" stroke="#FAD000" stroke-width="1.5"/>
<path d="M839.068 77.7058V81.7058C839.068 81.7058 839.068 83.7058 843.734 83.7058C848.401 83.7058 848.401 81.7058 848.401 81.7058V77.7058" stroke="#FAD000"/>
<path d="M839.068 73.7058V77.7058C839.068 77.7058 839.068 79.7058 843.734 79.7058C848.401 79.7058 848.401 77.7058 848.401 77.7058V73.7058" stroke="#FAD000"/>
<path d="M843.734 71.7058C848.401 71.7058 848.401 73.7058 848.401 73.7058C848.401 73.7058 848.401 75.7058 843.734 75.7058C839.068 75.7058 839.068 73.7058 839.068 73.7058C839.068 73.7058 839.068 71.7058 843.734 71.7058Z" stroke="#FAD000"/>
<path d="M869.762 72.5191V78.7125C869.762 79.3347 869.636 79.8836 869.382 80.3591C869.133 80.8347 868.776 81.2058 868.309 81.4725C867.847 81.7391 867.293 81.8725 866.649 81.8725C866 81.8725 865.444 81.7391 864.982 81.4725C864.52 81.2058 864.167 80.8347 863.922 80.3591C863.682 79.8836 863.562 79.3347 863.562 78.7125V72.5191H864.882V78.6125C864.882 80.0525 865.471 80.7725 866.649 80.7725C867.836 80.7725 868.429 80.0525 868.429 78.6125V72.5191H869.762ZM877.88 79.1391C877.88 79.6725 877.745 80.1458 877.474 80.5591C877.207 80.968 876.818 81.2903 876.307 81.5258C875.8 81.7569 875.185 81.8725 874.46 81.8725C873.758 81.8725 873.131 81.7658 872.58 81.5525C872.029 81.3391 871.56 81.0458 871.174 80.6725L871.927 79.8258C872.247 80.1236 872.614 80.3591 873.027 80.5325C873.44 80.7058 873.923 80.7925 874.474 80.7925C874.834 80.7925 875.167 80.7347 875.474 80.6191C875.785 80.4991 876.034 80.3214 876.22 80.0858C876.411 79.8458 876.507 79.5458 876.507 79.1858C876.507 78.9014 876.449 78.6591 876.334 78.4591C876.223 78.2547 876.025 78.0747 875.74 77.9191C875.456 77.7636 875.058 77.6103 874.547 77.4591C873.925 77.2769 873.391 77.0703 872.947 76.8391C872.507 76.6036 872.169 76.3214 871.934 75.9925C871.703 75.6591 871.587 75.2503 871.587 74.7658C871.587 74.2903 871.718 73.8725 871.98 73.5125C872.243 73.148 872.603 72.8636 873.06 72.6591C873.518 72.4547 874.045 72.3525 874.64 72.3525C875.285 72.3525 875.847 72.4458 876.327 72.6325C876.811 72.8191 877.247 73.0836 877.634 73.4258L876.9 74.2525C876.571 73.9636 876.218 73.7547 875.84 73.6258C875.467 73.4925 875.087 73.4258 874.7 73.4258C874.211 73.4258 873.796 73.5325 873.454 73.7458C873.111 73.9547 872.94 74.2747 872.94 74.7058C872.94 74.9636 873.009 75.1836 873.147 75.3658C873.285 75.5436 873.516 75.708 873.84 75.8591C874.169 76.0103 874.618 76.1703 875.187 76.3391C875.68 76.4858 876.129 76.6658 876.534 76.8791C876.943 77.088 877.269 77.3725 877.514 77.7325C877.758 78.088 877.88 78.5569 877.88 79.1391ZM881.585 73.5591V76.5125H884.958V77.5591H881.585V80.6725H885.712V81.7058H880.258V72.5191H885.612L885.458 73.5591H881.585ZM893.876 75.1258C893.876 75.8147 893.665 76.3703 893.243 76.7925C892.825 77.2103 892.31 77.4991 891.696 77.6591L894.37 81.7058H892.803L890.383 77.8325H889.243V81.7058H887.916V72.5191H890.363C891.514 72.5191 892.388 72.7391 892.983 73.1791C893.579 73.6147 893.876 74.2636 893.876 75.1258ZM892.47 75.1258C892.47 74.5614 892.305 74.1547 891.976 73.9058C891.652 73.6569 891.152 73.5325 890.476 73.5325H889.243V76.8258H890.49C891.121 76.8258 891.608 76.6969 891.95 76.4391C892.296 76.1769 892.47 75.7391 892.47 75.1258ZM901.874 79.1391C901.874 79.6725 901.739 80.1458 901.468 80.5591C901.201 80.968 900.812 81.2903 900.301 81.5258C899.794 81.7569 899.179 81.8725 898.454 81.8725C897.752 81.8725 897.126 81.7658 896.574 81.5525C896.023 81.3391 895.554 81.0458 895.168 80.6725L895.921 79.8258C896.241 80.1236 896.608 80.3591 897.021 80.5325C897.434 80.7058 897.917 80.7925 898.468 80.7925C898.828 80.7925 899.161 80.7347 899.468 80.6191C899.779 80.4991 900.028 80.3214 900.214 80.0858C900.406 79.8458 900.501 79.5458 900.501 79.1858C900.501 78.9014 900.443 78.6591 900.328 78.4591C900.217 78.2547 900.019 78.0747 899.734 77.9191C899.45 77.7636 899.052 77.6103 898.541 77.4591C897.919 77.2769 897.386 77.0703 896.941 76.8391C896.501 76.6036 896.163 76.3214 895.928 75.9925C895.697 75.6591 895.581 75.2503 895.581 74.7658C895.581 74.2903 895.712 73.8725 895.974 73.5125C896.237 73.148 896.597 72.8636 897.054 72.6591C897.512 72.4547 898.039 72.3525 898.634 72.3525C899.279 72.3525 899.841 72.4458 900.321 72.6325C900.806 72.8191 901.241 73.0836 901.628 73.4258L900.894 74.2525C900.566 73.9636 900.212 73.7547 899.834 73.6258C899.461 73.4925 899.081 73.4258 898.694 73.4258C898.206 73.4258 897.79 73.5325 897.448 73.7458C897.106 73.9547 896.934 74.2747 896.934 74.7058C896.934 74.9636 897.003 75.1836 897.141 75.3658C897.279 75.5436 897.51 75.708 897.834 75.8591C898.163 76.0103 898.612 76.1703 899.181 76.3391C899.674 76.4858 900.123 76.6658 900.528 76.8791C900.937 77.088 901.263 77.3725 901.508 77.7325C901.752 78.088 901.874 78.5569 901.874 79.1391ZM918.064 77.0658C918.064 78.0214 917.939 78.8036 917.691 79.4125C917.442 80.0214 917.111 80.4925 916.697 80.8258C916.288 81.1547 915.837 81.3836 915.344 81.5125C914.851 81.6414 914.357 81.7058 913.864 81.7058H911.697V72.5191H913.717C914.264 72.5191 914.795 72.5791 915.311 72.6991C915.826 72.8191 916.291 73.0414 916.704 73.3658C917.122 73.6858 917.453 74.1436 917.697 74.7391C917.942 75.3347 918.064 76.1103 918.064 77.0658ZM916.664 77.0658C916.664 76.2969 916.584 75.6791 916.424 75.2125C916.268 74.7458 916.059 74.3947 915.797 74.1591C915.535 73.9236 915.246 73.7658 914.931 73.6858C914.619 73.6058 914.308 73.5658 913.997 73.5658H913.017V80.6725H914.011C914.335 80.6725 914.655 80.6214 914.971 80.5191C915.286 80.4169 915.571 80.2347 915.824 79.9725C916.082 79.7103 916.286 79.3436 916.437 78.8725C916.588 78.4014 916.664 77.7991 916.664 77.0658ZM924.355 79.4191H920.875L920.182 81.7058H918.855L921.815 72.5191H923.482L926.449 81.7058H925.049L924.355 79.4191ZM921.182 78.3591H924.049L922.622 73.5858L921.182 78.3591ZM931.287 73.6191V81.7058H929.967V73.6191H927.14V72.5191H934.16L934.02 73.6191H931.287ZM940.351 79.4191H936.871L936.178 81.7058H934.851L937.811 72.5191H939.478L942.445 81.7058H941.045L940.351 79.4191ZM937.178 78.3591H940.045L938.618 73.5858L937.178 78.3591Z" fill="#FAD000"/>
<path d="M803.397 77.7058H743.397" stroke="#FAD000" stroke-width="2"/>
<rect x="572.543" y="42.0833" width="170.103" height="71.2449" rx="5.25" fill="#15252D"/>
<rect x="572.543" y="42.0833" width="170.103" height="71.2449" rx="5.25" stroke="#FAD000" stroke-width="1.5"/>
<g clip-path="url(#clip3_451_391)">
<path d="M620.203 80.3621H612.052M620.353 81.0846L617.061 83.0796M610.975 79.4246C611.265 79.4246 611.543 79.5398 611.748 79.7449C611.953 79.95 612.069 80.2282 612.069 80.5183C612.069 80.8084 611.953 81.0866 611.748 81.2917C611.543 81.4968 611.265 81.6121 610.975 81.6121C610.685 81.6121 610.407 81.4968 610.201 81.2917C609.996 81.0866 609.881 80.8084 609.881 80.5183C609.881 80.2282 609.996 79.95 610.201 79.7449C610.407 79.5398 610.685 79.4246 610.975 79.4246ZM610.975 79.4246V75.9852M621.287 79.4246C621.577 79.4246 621.856 79.5398 622.061 79.7449C622.266 79.95 622.381 80.2282 622.381 80.5183C622.381 80.8084 622.266 81.0866 622.061 81.2917C621.856 81.4968 621.577 81.6121 621.287 81.6121C620.997 81.6121 620.719 81.4968 620.514 81.2917C620.309 81.0866 620.194 80.8084 620.194 80.5183C620.194 80.2282 620.309 79.95 620.514 79.7449C620.719 79.5398 620.997 79.4246 621.287 79.4246ZM621.287 79.4246V75.9852M615.724 72.7777L611.678 79.6933M616.539 72.7777L620.584 79.6939M615.195 72.3352L611.909 74.3271M611.909 81.0846L615.201 83.0796M617.067 72.3352L620.353 74.3271M616.131 72.8621C616.421 72.8621 616.699 72.7468 616.905 72.5417C617.11 72.3366 617.225 72.0584 617.225 71.7683C617.225 71.4782 617.11 71.2 616.905 70.9949C616.699 70.7898 616.421 70.6746 616.131 70.6746C615.841 70.6746 615.563 70.7898 615.358 70.9949C615.153 71.2 615.037 71.4782 615.037 71.7683C615.037 72.0584 615.153 72.3366 615.358 72.5417C615.563 72.7468 615.841 72.8621 616.131 72.8621ZM610.975 75.9871C611.265 75.9871 611.543 75.8718 611.748 75.6667C611.953 75.4616 612.069 75.1834 612.069 74.8933C612.069 74.6032 611.953 74.325 611.748 74.1199C611.543 73.9148 611.265 73.7996 610.975 73.7996C610.685 73.7996 610.407 73.9148 610.201 74.1199C609.996 74.325 609.881 74.6032 609.881 74.8933C609.881 75.1834 609.996 75.4616 610.201 75.6667C610.407 75.8718 610.685 75.9871 610.975 75.9871ZM621.287 75.9871C621.577 75.9871 621.856 75.8718 622.061 75.6667C622.266 75.4616 622.381 75.1834 622.381 74.8933C622.381 74.6032 622.266 74.325 622.061 74.1199C621.856 73.9148 621.577 73.7996 621.287 73.7996C620.997 73.7996 620.719 73.9148 620.514 74.1199C620.309 74.325 620.194 74.6032 620.194 74.8933C620.194 75.1834 620.309 75.4616 620.514 75.6667C620.719 75.8718 620.997 75.9871 621.287 75.9871ZM616.131 84.7371C616.421 84.7371 616.699 84.6218 616.905 84.4167C617.11 84.2116 617.225 83.9334 617.225 83.6433C617.225 83.3532 617.11 83.075 616.905 82.8699C616.699 82.6648 616.421 82.5496 616.131 82.5496C615.841 82.5496 615.563 82.6648 615.358 82.8699C615.153 83.075 615.037 83.3532 615.037 83.6433C615.037 83.9334 615.153 84.2116 615.358 84.4167C615.563 84.6218 615.841 84.7371 616.131 84.7371Z" stroke="#FAD000" stroke-linecap="round" stroke-linejoin="round"/>
</g>
<path d="M642.159 72.5191V78.7125C642.159 79.3347 642.032 79.8836 641.779 80.3591C641.53 80.8347 641.172 81.2058 640.706 81.4725C640.243 81.7391 639.69 81.8725 639.046 81.8725C638.397 81.8725 637.841 81.7391 637.379 81.4725C636.917 81.2058 636.563 80.8347 636.319 80.3591C636.079 79.8836 635.959 79.3347 635.959 78.7125V72.5191H637.279V78.6125C637.279 80.0525 637.868 80.7725 639.046 80.7725C640.232 80.7725 640.826 80.0525 640.826 78.6125V72.5191H642.159ZM650.277 79.1391C650.277 79.6725 650.141 80.1458 649.87 80.5591C649.604 80.968 649.215 81.2903 648.704 81.5258C648.197 81.7569 647.581 81.8725 646.857 81.8725C646.155 81.8725 645.528 81.7658 644.977 81.5525C644.426 81.3391 643.957 81.0458 643.57 80.6725L644.324 79.8258C644.644 80.1236 645.01 80.3591 645.424 80.5325C645.837 80.7058 646.319 80.7925 646.87 80.7925C647.23 80.7925 647.564 80.7347 647.87 80.6191C648.181 80.4991 648.43 80.3214 648.617 80.0858C648.808 79.8458 648.904 79.5458 648.904 79.1858C648.904 78.9014 648.846 78.6591 648.73 78.4591C648.619 78.2547 648.421 78.0747 648.137 77.9191C647.853 77.7636 647.455 77.6103 646.944 77.4591C646.321 77.2769 645.788 77.0703 645.344 76.8391C644.904 76.6036 644.566 76.3214 644.33 75.9925C644.099 75.6591 643.984 75.2503 643.984 74.7658C643.984 74.2903 644.115 73.8725 644.377 73.5125C644.639 73.148 644.999 72.8636 645.457 72.6591C645.915 72.4547 646.441 72.3525 647.037 72.3525C647.681 72.3525 648.244 72.4458 648.724 72.6325C649.208 72.8191 649.644 73.0836 650.03 73.4258L649.297 74.2525C648.968 73.9636 648.615 73.7547 648.237 73.6258C647.864 73.4925 647.484 73.4258 647.097 73.4258C646.608 73.4258 646.193 73.5325 645.85 73.7458C645.508 73.9547 645.337 74.2747 645.337 74.7058C645.337 74.9636 645.406 75.1836 645.544 75.3658C645.681 75.5436 645.913 75.708 646.237 75.8591C646.566 76.0103 647.015 76.1703 647.584 76.3391C648.077 76.4858 648.526 76.6658 648.93 76.8791C649.339 77.088 649.666 77.3725 649.91 77.7325C650.155 78.088 650.277 78.5569 650.277 79.1391ZM653.982 73.5591V76.5125H657.355V77.5591H653.982V80.6725H658.108V81.7058H652.655V72.5191H658.008L657.855 73.5591H653.982ZM666.273 75.1258C666.273 75.8147 666.062 76.3703 665.64 76.7925C665.222 77.2103 664.706 77.4991 664.093 77.6591L666.766 81.7058H665.2L662.78 77.8325H661.64V81.7058H660.313V72.5191H662.76C663.911 72.5191 664.784 72.7391 665.38 73.1791C665.975 73.6147 666.273 74.2636 666.273 75.1258ZM664.866 75.1258C664.866 74.5614 664.702 74.1547 664.373 73.9058C664.049 73.6569 663.549 73.5325 662.873 73.5325H661.64V76.8258H662.886C663.518 76.8258 664.004 76.6969 664.346 76.4391C664.693 76.1769 664.866 75.7391 664.866 75.1258ZM674.271 79.1391C674.271 79.6725 674.136 80.1458 673.864 80.5591C673.598 80.968 673.209 81.2903 672.698 81.5258C672.191 81.7569 671.576 81.8725 670.851 81.8725C670.149 81.8725 669.522 81.7658 668.971 81.5525C668.42 81.3391 667.951 81.0458 667.564 80.6725L668.318 79.8258C668.638 80.1236 669.004 80.3591 669.418 80.5325C669.831 80.7058 670.313 80.7925 670.864 80.7925C671.224 80.7925 671.558 80.7347 671.864 80.6191C672.176 80.4991 672.424 80.3214 672.611 80.0858C672.802 79.8458 672.898 79.5458 672.898 79.1858C672.898 78.9014 672.84 78.6591 672.724 78.4591C672.613 78.2547 672.416 78.0747 672.131 77.9191C671.847 77.7636 671.449 77.6103 670.938 77.4591C670.316 77.2769 669.782 77.0703 669.338 76.8391C668.898 76.6036 668.56 76.3214 668.324 75.9925C668.093 75.6591 667.978 75.2503 667.978 74.7658C667.978 74.2903 668.109 73.8725 668.371 73.5125C668.633 73.148 668.993 72.8636 669.451 72.6591C669.909 72.4547 670.436 72.3525 671.031 72.3525C671.676 72.3525 672.238 72.4458 672.718 72.6325C673.202 72.8191 673.638 73.0836 674.024 73.4258L673.291 74.2525C672.962 73.9636 672.609 73.7547 672.231 73.6258C671.858 73.4925 671.478 73.4258 671.091 73.4258C670.602 73.4258 670.187 73.5325 669.844 73.7458C669.502 73.9547 669.331 74.2747 669.331 74.7058C669.331 74.9636 669.4 75.1836 669.538 75.3658C669.676 75.5436 669.907 75.708 670.231 75.8591C670.56 76.0103 671.009 76.1703 671.578 76.3391C672.071 76.4858 672.52 76.6658 672.924 76.8791C673.333 77.088 673.66 77.3725 673.904 77.7325C674.149 78.088 674.271 78.5569 674.271 79.1391ZM688.754 79.4191H685.274L684.581 81.7058H683.254L686.214 72.5191H687.881L690.847 81.7058H689.447L688.754 79.4191ZM685.581 78.3591H688.447L687.021 73.5858L685.581 78.3591ZM698.512 75.3658C698.512 76.0814 698.359 76.6591 698.052 77.0991C697.75 77.5347 697.33 77.8525 696.792 78.0525C696.254 78.2525 695.639 78.3525 694.945 78.3525H693.799V81.7058H692.472V72.5191H694.905C696.025 72.5191 696.905 72.7525 697.545 73.2191C698.19 73.6814 698.512 74.3969 698.512 75.3658ZM697.112 75.3791C697.112 74.7036 696.916 74.228 696.525 73.9525C696.139 73.6769 695.641 73.5391 695.032 73.5391H693.799V77.3125H695.012C695.421 77.3125 695.783 77.2547 696.099 77.1391C696.414 77.0236 696.661 76.8258 696.839 76.5458C697.021 76.2658 697.112 75.8769 697.112 75.3791ZM705.73 72.5191V73.5525H703.71V80.6658H705.73V81.7058H700.357V80.6658H702.377V73.5525H700.357V72.5191H705.73Z" fill="#FAD000"/>
<rect x="804.147" y="144.828" width="170.103" height="71.2449" rx="5.25" fill="#15252D"/>
<rect x="804.147" y="144.828" width="170.103" height="71.2449" rx="5.25" stroke="#00FAB3" stroke-width="1.5"/>
<path d="M835.068 180.451V184.451C835.068 184.451 835.068 186.451 839.734 186.451C844.401 186.451 844.401 184.451 844.401 184.451V180.451" stroke="#00FAB3"/>
<path d="M835.068 176.451V180.451C835.068 180.451 835.068 182.451 839.734 182.451C844.401 182.451 844.401 180.451 844.401 180.451V176.451" stroke="#00FAB3"/>
<path d="M839.734 174.451C844.401 174.451 844.401 176.451 844.401 176.451C844.401 176.451 844.401 178.451 839.734 178.451C835.068 178.451 835.068 176.451 835.068 176.451C835.068 176.451 835.068 174.451 839.734 174.451Z" stroke="#00FAB3"/>
<path d="M861.762 176.304V179.397H865.302V180.431H861.762V184.451H860.442V175.264H865.956L865.802 176.304H861.762ZM868.374 184.451V175.264H869.7V183.304H873.86L873.714 184.451H868.374ZM881.345 175.264V176.297H879.325V183.411H881.345V184.451H875.972V183.411H877.992V176.297H875.972V175.264H881.345ZM886.863 184.617C885.739 184.617 884.85 184.22 884.196 183.424C883.543 182.628 883.216 181.437 883.216 179.851C883.216 179.06 883.323 178.368 883.536 177.777C883.75 177.182 884.039 176.686 884.403 176.291C884.772 175.891 885.19 175.593 885.656 175.397C886.128 175.197 886.619 175.097 887.13 175.097C887.739 175.097 888.245 175.186 888.65 175.364C889.059 175.542 889.443 175.797 889.803 176.131L889.03 176.931C888.483 176.424 887.856 176.171 887.15 176.171C886.714 176.171 886.303 176.286 885.916 176.517C885.53 176.748 885.216 177.133 884.976 177.671C884.736 178.208 884.616 178.935 884.616 179.851C884.616 181.162 884.814 182.106 885.21 182.684C885.605 183.257 886.188 183.544 886.956 183.544C887.543 183.544 888.092 183.404 888.603 183.124V180.437H886.903L886.75 179.384H889.903V183.797C889.481 184.033 889.03 184.228 888.55 184.384C888.074 184.54 887.512 184.617 886.863 184.617ZM896.288 184.451V180.171H893.021V184.451H891.701V175.264H893.021V179.084H896.288V175.264H897.608V184.451H896.288ZM903.293 176.364V184.451H901.973V176.364H899.146V175.264H906.166L906.026 176.364H903.293ZM922.062 179.811C922.062 180.766 921.937 181.548 921.689 182.157C921.44 182.766 921.109 183.237 920.695 183.571C920.286 183.9 919.835 184.128 919.342 184.257C918.849 184.386 918.355 184.451 917.862 184.451H915.695V175.264H917.715C918.262 175.264 918.793 175.324 919.309 175.444C919.824 175.564 920.289 175.786 920.702 176.111C921.12 176.431 921.451 176.888 921.695 177.484C921.94 178.08 922.062 178.855 922.062 179.811ZM920.662 179.811C920.662 179.042 920.582 178.424 920.422 177.957C920.266 177.491 920.057 177.14 919.795 176.904C919.533 176.668 919.244 176.511 918.929 176.431C918.617 176.351 918.306 176.311 917.995 176.311H917.015V183.417H918.009C918.333 183.417 918.653 183.366 918.969 183.264C919.284 183.162 919.569 182.98 919.822 182.717C920.08 182.455 920.284 182.088 920.435 181.617C920.586 181.146 920.662 180.544 920.662 179.811ZM928.353 182.164H924.873L924.18 184.451H922.853L925.813 175.264H927.48L930.447 184.451H929.047L928.353 182.164ZM925.18 181.104H928.047L926.62 176.331L925.18 181.104ZM935.285 176.364V184.451H933.965V176.364H931.138V175.264H938.158L938.018 176.364H935.285ZM944.349 182.164H940.869L940.176 184.451H938.849L941.809 175.264H943.476L946.443 184.451H945.043L944.349 182.164ZM941.176 181.104H944.043L942.616 176.331L941.176 181.104Z" fill="#00FAB3"/>
<path d="M803.397 180.451H743.397" stroke="#00FAB3" stroke-width="2"/>
<rect x="572.543" y="144.828" width="170.103" height="71.2449" rx="5.25" fill="#15252D"/>
<rect x="572.543" y="144.828" width="170.103" height="71.2449" rx="5.25" stroke="#00FAB3" stroke-width="1.5"/>
<g clip-path="url(#clip4_451_391)">
<path d="M616.203 183.107H608.052M616.353 183.829L613.061 185.824M606.975 182.169C607.265 182.169 607.543 182.285 607.748 182.49C607.953 182.695 608.069 182.973 608.069 183.263C608.069 183.553 607.953 183.831 607.748 184.037C607.543 184.242 607.265 184.357 606.975 184.357C606.685 184.357 606.407 184.242 606.201 184.037C605.996 183.831 605.881 183.553 605.881 183.263C605.881 182.973 605.996 182.695 606.201 182.49C606.407 182.285 606.685 182.169 606.975 182.169ZM606.975 182.169V178.73M617.287 182.169C617.577 182.169 617.856 182.285 618.061 182.49C618.266 182.695 618.381 182.973 618.381 183.263C618.381 183.553 618.266 183.831 618.061 184.037C617.856 184.242 617.577 184.357 617.287 184.357C616.997 184.357 616.719 184.242 616.514 184.037C616.309 183.831 616.194 183.553 616.194 183.263C616.194 182.973 616.309 182.695 616.514 182.49C616.719 182.285 616.997 182.169 617.287 182.169ZM617.287 182.169V178.73M611.724 175.523L607.678 182.438M612.539 175.523L616.584 182.439M611.195 175.08L607.909 177.072M607.909 183.829L611.201 185.824M613.067 175.08L616.353 177.072M612.131 175.607C612.421 175.607 612.699 175.492 612.905 175.287C613.11 175.081 613.225 174.803 613.225 174.513C613.225 174.223 613.11 173.945 612.905 173.74C612.699 173.535 612.421 173.419 612.131 173.419C611.841 173.419 611.563 173.535 611.358 173.74C611.153 173.945 611.037 174.223 611.037 174.513C611.037 174.803 611.153 175.081 611.358 175.287C611.563 175.492 611.841 175.607 612.131 175.607ZM606.975 178.732C607.265 178.732 607.543 178.617 607.748 178.412C607.953 178.206 608.069 177.928 608.069 177.638C608.069 177.348 607.953 177.07 607.748 176.865C607.543 176.66 607.265 176.544 606.975 176.544C606.685 176.544 606.407 176.66 606.201 176.865C605.996 177.07 605.881 177.348 605.881 177.638C605.881 177.928 605.996 178.206 606.201 178.412C606.407 178.617 606.685 178.732 606.975 178.732ZM617.287 178.732C617.577 178.732 617.856 178.617 618.061 178.412C618.266 178.206 618.381 177.928 618.381 177.638C618.381 177.348 618.266 177.07 618.061 176.865C617.856 176.66 617.577 176.544 617.287 176.544C616.997 176.544 616.719 176.66 616.514 176.865C616.309 177.07 616.194 177.348 616.194 177.638C616.194 177.928 616.309 178.206 616.514 178.412C616.719 178.617 616.997 178.732 617.287 178.732ZM612.131 187.482C612.421 187.482 612.699 187.367 612.905 187.162C613.11 186.956 613.225 186.678 613.225 186.388C613.225 186.098 613.11 185.82 612.905 185.615C612.699 185.41 612.421 185.294 612.131 185.294C611.841 185.294 611.563 185.41 611.358 185.615C611.153 185.82 611.037 186.098 611.037 186.388C611.037 186.678 611.153 186.956 611.358 187.162C611.563 187.367 611.841 187.482 612.131 187.482Z" stroke="#00FAB3" stroke-linecap="round" stroke-linejoin="round"/>
</g>
<path d="M634.159 176.304V179.397H637.699V180.431H634.159V184.451H632.839V175.264H638.352L638.199 176.304H634.159ZM640.77 184.451V175.264H642.097V183.304H646.257L646.11 184.451H640.77ZM653.742 175.264V176.297H651.722V183.411H653.742V184.451H648.368V183.411H650.388V176.297H648.368V175.264H653.742ZM659.26 184.617C658.135 184.617 657.246 184.22 656.593 183.424C655.94 182.628 655.613 181.437 655.613 179.851C655.613 179.06 655.72 178.368 655.933 177.777C656.146 177.182 656.435 176.686 656.8 176.291C657.169 175.891 657.586 175.593 658.053 175.397C658.524 175.197 659.015 175.097 659.526 175.097C660.135 175.097 660.642 175.186 661.046 175.364C661.455 175.542 661.84 175.797 662.2 176.131L661.426 176.931C660.88 176.424 660.253 176.171 659.546 176.171C659.111 176.171 658.7 176.286 658.313 176.517C657.926 176.748 657.613 177.133 657.373 177.671C657.133 178.208 657.013 178.935 657.013 179.851C657.013 181.162 657.211 182.106 657.606 182.684C658.002 183.257 658.584 183.544 659.353 183.544C659.94 183.544 660.489 183.404 661 183.124V180.437H659.3L659.146 179.384H662.3V183.797C661.878 184.033 661.426 184.228 660.946 184.384C660.471 184.54 659.909 184.617 659.26 184.617ZM668.684 184.451V180.171H665.418V184.451H664.098V175.264H665.418V179.084H668.684V175.264H670.004V184.451H668.684ZM675.689 176.364V184.451H674.369V176.364H671.543V175.264H678.563L678.423 176.364H675.689ZM692.752 182.164H689.272L688.579 184.451H687.252L690.212 175.264H691.879L694.845 184.451H693.445L692.752 182.164ZM689.579 181.104H692.445L691.019 176.331L689.579 181.104ZM702.51 178.111C702.51 178.826 702.357 179.404 702.05 179.844C701.748 180.28 701.328 180.597 700.79 180.797C700.252 180.997 699.637 181.097 698.943 181.097H697.797V184.451H696.47V175.264H698.903C700.023 175.264 700.903 175.497 701.543 175.964C702.188 176.426 702.51 177.142 702.51 178.111ZM701.11 178.124C701.11 177.448 700.914 176.973 700.523 176.697C700.137 176.422 699.639 176.284 699.03 176.284H697.797V180.057H699.01C699.419 180.057 699.781 180 700.097 179.884C700.412 179.768 700.659 179.571 700.837 179.291C701.019 179.011 701.11 178.622 701.11 178.124ZM709.728 175.264V176.297H707.708V183.411H709.728V184.451H704.355V183.411H706.375V176.297H704.355V175.264H709.728Z" fill="#00FAB3"/>
<rect x="804.147" y="247.573" width="170.103" height="71.2449" rx="5.25" fill="#15252D"/>
<rect x="804.147" y="247.573" width="170.103" height="71.2449" rx="5.25" stroke="#C363FF" stroke-width="1.5"/>
<path d="M835.068 283.196V287.196C835.068 287.196 835.068 289.196 839.734 289.196C844.401 289.196 844.401 287.196 844.401 287.196V283.196" stroke="#C363FF"/>
<path d="M835.068 279.196V283.196C835.068 283.196 835.068 285.196 839.734 285.196C844.401 285.196 844.401 283.196 844.401 283.196V279.196" stroke="#C363FF"/>
<path d="M839.734 277.196C844.401 277.196 844.401 279.196 844.401 279.196C844.401 279.196 844.401 281.196 839.734 281.196C835.068 281.196 835.068 279.196 835.068 279.196C835.068 279.196 835.068 277.196 839.734 277.196Z" stroke="#C363FF"/>
<path d="M864.296 287.196V282.916H861.029V287.196H859.709V278.009H861.029V281.829H864.296V278.009H865.616V287.196H864.296ZM874.094 282.609C874.094 283.542 873.965 284.367 873.707 285.082C873.449 285.798 873.065 286.358 872.554 286.762C872.047 287.162 871.416 287.362 870.66 287.362C869.905 287.362 869.271 287.167 868.76 286.776C868.254 286.38 867.871 285.827 867.614 285.116C867.356 284.404 867.227 283.573 867.227 282.622C867.227 281.684 867.356 280.858 867.614 280.142C867.871 279.422 868.254 278.86 868.76 278.456C869.271 278.047 869.905 277.842 870.66 277.842C871.416 277.842 872.047 278.04 872.554 278.436C873.065 278.831 873.449 279.387 873.707 280.102C873.965 280.818 874.094 281.653 874.094 282.609ZM872.714 282.609C872.714 281.4 872.554 280.482 872.234 279.856C871.918 279.229 871.394 278.916 870.66 278.916C869.927 278.916 869.4 279.231 869.08 279.862C868.765 280.493 868.607 281.413 868.607 282.622C868.607 283.827 868.769 284.74 869.094 285.362C869.423 285.98 869.945 286.289 870.66 286.289C871.394 286.289 871.918 285.978 872.234 285.356C872.554 284.729 872.714 283.813 872.714 282.609ZM879.298 279.109V287.196H877.978V279.109H875.152V278.009H882.172L882.032 279.109H879.298ZM885.583 279.049V282.002H888.956V283.049H885.583V286.162H889.71V287.196H884.256V278.009H889.61L889.456 279.049H885.583ZM892.368 287.196V278.009H893.694V286.049H897.854L897.708 287.196H892.368ZM905.873 284.629C905.873 285.162 905.737 285.636 905.466 286.049C905.199 286.458 904.81 286.78 904.299 287.016C903.793 287.247 903.177 287.362 902.453 287.362C901.75 287.362 901.124 287.256 900.573 287.042C900.021 286.829 899.553 286.536 899.166 286.162L899.919 285.316C900.239 285.613 900.606 285.849 901.019 286.022C901.433 286.196 901.915 286.282 902.466 286.282C902.826 286.282 903.159 286.224 903.466 286.109C903.777 285.989 904.026 285.811 904.213 285.576C904.404 285.336 904.499 285.036 904.499 284.676C904.499 284.391 904.441 284.149 904.326 283.949C904.215 283.744 904.017 283.564 903.733 283.409C903.448 283.253 903.05 283.1 902.539 282.949C901.917 282.767 901.384 282.56 900.939 282.329C900.499 282.093 900.161 281.811 899.926 281.482C899.695 281.149 899.579 280.74 899.579 280.256C899.579 279.78 899.71 279.362 899.973 279.002C900.235 278.638 900.595 278.353 901.053 278.149C901.51 277.944 902.037 277.842 902.633 277.842C903.277 277.842 903.839 277.936 904.319 278.122C904.804 278.309 905.239 278.573 905.626 278.916L904.893 279.742C904.564 279.453 904.21 279.244 903.833 279.116C903.459 278.982 903.079 278.916 902.693 278.916C902.204 278.916 901.788 279.022 901.446 279.236C901.104 279.444 900.933 279.764 900.933 280.196C900.933 280.453 901.001 280.673 901.139 280.856C901.277 281.033 901.508 281.198 901.833 281.349C902.161 281.5 902.61 281.66 903.179 281.829C903.673 281.976 904.121 282.156 904.526 282.369C904.935 282.578 905.261 282.862 905.506 283.222C905.75 283.578 905.873 284.047 905.873 284.629ZM922.062 282.556C922.062 283.511 921.937 284.293 921.689 284.902C921.44 285.511 921.109 285.982 920.695 286.316C920.286 286.644 919.835 286.873 919.342 287.002C918.849 287.131 918.355 287.196 917.862 287.196H915.695V278.009H917.715C918.262 278.009 918.793 278.069 919.309 278.189C919.824 278.309 920.289 278.531 920.702 278.856C921.12 279.176 921.451 279.633 921.695 280.229C921.94 280.824 922.062 281.6 922.062 282.556ZM920.662 282.556C920.662 281.787 920.582 281.169 920.422 280.702C920.266 280.236 920.057 279.884 919.795 279.649C919.533 279.413 919.244 279.256 918.929 279.176C918.617 279.096 918.306 279.056 917.995 279.056H917.015V286.162H918.009C918.333 286.162 918.653 286.111 918.969 286.009C919.284 285.907 919.569 285.724 919.822 285.462C920.08 285.2 920.284 284.833 920.435 284.362C920.586 283.891 920.662 283.289 920.662 282.556ZM928.353 284.909H924.873L924.18 287.196H922.853L925.813 278.009H927.48L930.447 287.196H929.047L928.353 284.909ZM925.18 283.849H928.047L926.62 279.076L925.18 283.849ZM935.285 279.109V287.196H933.965V279.109H931.138V278.009H938.158L938.018 279.109H935.285ZM944.349 284.909H940.869L940.176 287.196H938.849L941.809 278.009H943.476L946.443 287.196H945.043L944.349 284.909ZM941.176 283.849H944.043L942.616 279.076L941.176 283.849Z" fill="#C363FF"/>
<path d="M803.397 283.196H743.397" stroke="#C363FF" stroke-width="2"/>
<rect x="572.543" y="247.573" width="170.103" height="71.2449" rx="5.25" fill="#15252D"/>
<rect x="572.543" y="247.573" width="170.103" height="71.2449" rx="5.25" stroke="#C363FF" stroke-width="1.5"/>
<g clip-path="url(#clip5_451_391)">
<path d="M616.203 285.852H608.052M616.353 286.574L613.061 288.569M606.975 284.914C607.265 284.914 607.543 285.03 607.748 285.235C607.953 285.44 608.069 285.718 608.069 286.008C608.069 286.298 607.953 286.576 607.748 286.781C607.543 286.987 607.265 287.102 606.975 287.102C606.685 287.102 606.407 286.987 606.201 286.781C605.996 286.576 605.881 286.298 605.881 286.008C605.881 285.718 605.996 285.44 606.201 285.235C606.407 285.03 606.685 284.914 606.975 284.914ZM606.975 284.914V281.475M617.287 284.914C617.577 284.914 617.856 285.03 618.061 285.235C618.266 285.44 618.381 285.718 618.381 286.008C618.381 286.298 618.266 286.576 618.061 286.781C617.856 286.987 617.577 287.102 617.287 287.102C616.997 287.102 616.719 286.987 616.514 286.781C616.309 286.576 616.194 286.298 616.194 286.008C616.194 285.718 616.309 285.44 616.514 285.235C616.719 285.03 616.997 284.914 617.287 284.914ZM617.287 284.914V281.475M611.724 278.267L607.678 285.183M612.539 278.267L616.584 285.184M611.195 277.825L607.909 279.817M607.909 286.574L611.201 288.569M613.067 277.825L616.353 279.817M612.131 278.352C612.421 278.352 612.699 278.237 612.905 278.031C613.11 277.826 613.225 277.548 613.225 277.258C613.225 276.968 613.11 276.69 612.905 276.485C612.699 276.28 612.421 276.164 612.131 276.164C611.841 276.164 611.563 276.28 611.358 276.485C611.153 276.69 611.037 276.968 611.037 277.258C611.037 277.548 611.153 277.826 611.358 278.031C611.563 278.237 611.841 278.352 612.131 278.352ZM606.975 281.477C607.265 281.477 607.543 281.362 607.748 281.156C607.953 280.951 608.069 280.673 608.069 280.383C608.069 280.093 607.953 279.815 607.748 279.61C607.543 279.405 607.265 279.289 606.975 279.289C606.685 279.289 606.407 279.405 606.201 279.61C605.996 279.815 605.881 280.093 605.881 280.383C605.881 280.673 605.996 280.951 606.201 281.156C606.407 281.362 606.685 281.477 606.975 281.477ZM617.287 281.477C617.577 281.477 617.856 281.362 618.061 281.156C618.266 280.951 618.381 280.673 618.381 280.383C618.381 280.093 618.266 279.815 618.061 279.61C617.856 279.405 617.577 279.289 617.287 279.289C616.997 279.289 616.719 279.405 616.514 279.61C616.309 279.815 616.194 280.093 616.194 280.383C616.194 280.673 616.309 280.951 616.514 281.156C616.719 281.362 616.997 281.477 617.287 281.477ZM612.131 290.227C612.421 290.227 612.699 290.112 612.905 289.906C613.11 289.701 613.225 289.423 613.225 289.133C613.225 288.843 613.11 288.565 612.905 288.36C612.699 288.155 612.421 288.039 612.131 288.039C611.841 288.039 611.563 288.155 611.358 288.36C611.153 288.565 611.037 288.843 611.037 289.133C611.037 289.423 611.153 289.701 611.358 289.906C611.563 290.112 611.841 290.227 612.131 290.227Z" stroke="#C363FF" stroke-linecap="round" stroke-linejoin="round"/>
</g>
<path d="M636.692 287.196V282.916H633.426V287.196H632.106V278.009H633.426V281.829H636.692V278.009H638.012V287.196H636.692ZM646.49 282.609C646.49 283.542 646.361 284.367 646.104 285.082C645.846 285.798 645.461 286.358 644.95 286.762C644.444 287.162 643.813 287.362 643.057 287.362C642.301 287.362 641.668 287.167 641.157 286.776C640.65 286.38 640.268 285.827 640.01 285.116C639.753 284.404 639.624 283.573 639.624 282.622C639.624 281.684 639.753 280.858 640.01 280.142C640.268 279.422 640.65 278.86 641.157 278.456C641.668 278.047 642.301 277.842 643.057 277.842C643.813 277.842 644.444 278.04 644.95 278.436C645.461 278.831 645.846 279.387 646.104 280.102C646.361 280.818 646.49 281.653 646.49 282.609ZM645.11 282.609C645.11 281.4 644.95 280.482 644.63 279.856C644.315 279.229 643.79 278.916 643.057 278.916C642.324 278.916 641.797 279.231 641.477 279.862C641.161 280.493 641.004 281.413 641.004 282.622C641.004 283.827 641.166 284.74 641.49 285.362C641.819 285.98 642.341 286.289 643.057 286.289C643.79 286.289 644.315 285.978 644.63 285.356C644.95 284.729 645.11 283.813 645.11 282.609ZM651.695 279.109V287.196H650.375V279.109H647.548V278.009H654.568L654.428 279.109H651.695ZM657.98 279.049V282.002H661.353V283.049H657.98V286.162H662.106V287.196H656.653V278.009H662.006L661.853 279.049H657.98ZM664.764 287.196V278.009H666.091V286.049H670.251L670.104 287.196H664.764ZM678.269 284.629C678.269 285.162 678.134 285.636 677.863 286.049C677.596 286.458 677.207 286.78 676.696 287.016C676.189 287.247 675.574 287.362 674.849 287.362C674.147 287.362 673.52 287.256 672.969 287.042C672.418 286.829 671.949 286.536 671.563 286.162L672.316 285.316C672.636 285.613 673.003 285.849 673.416 286.022C673.829 286.196 674.311 286.282 674.863 286.282C675.223 286.282 675.556 286.224 675.863 286.109C676.174 285.989 676.423 285.811 676.609 285.576C676.8 285.336 676.896 285.036 676.896 284.676C676.896 284.391 676.838 284.149 676.723 283.949C676.611 283.744 676.414 283.564 676.129 283.409C675.845 283.253 675.447 283.1 674.936 282.949C674.314 282.767 673.78 282.56 673.336 282.329C672.896 282.093 672.558 281.811 672.323 281.482C672.091 281.149 671.976 280.74 671.976 280.256C671.976 279.78 672.107 279.362 672.369 279.002C672.631 278.638 672.991 278.353 673.449 278.149C673.907 277.944 674.434 277.842 675.029 277.842C675.674 277.842 676.236 277.936 676.716 278.122C677.2 278.309 677.636 278.573 678.023 278.916L677.289 279.742C676.96 279.453 676.607 279.244 676.229 279.116C675.856 278.982 675.476 278.916 675.089 278.916C674.6 278.916 674.185 279.022 673.843 279.236C673.5 279.444 673.329 279.764 673.329 280.196C673.329 280.453 673.398 280.673 673.536 280.856C673.674 281.033 673.905 281.198 674.229 281.349C674.558 281.5 675.007 281.66 675.576 281.829C676.069 281.976 676.518 282.156 676.923 282.369C677.331 282.578 677.658 282.862 677.903 283.222C678.147 283.578 678.269 284.047 678.269 284.629ZM692.752 284.909H689.272L688.579 287.196H687.252L690.212 278.009H691.879L694.845 287.196H693.445L692.752 284.909ZM689.579 283.849H692.445L691.019 279.076L689.579 283.849ZM702.51 280.856C702.51 281.571 702.357 282.149 702.05 282.589C701.748 283.024 701.328 283.342 700.79 283.542C700.252 283.742 699.637 283.842 698.943 283.842H697.797V287.196H696.47V278.009H698.903C700.023 278.009 700.903 278.242 701.543 278.709C702.188 279.171 702.51 279.887 702.51 280.856ZM701.11 280.869C701.11 280.193 700.914 279.718 700.523 279.442C700.137 279.167 699.639 279.029 699.03 279.029H697.797V282.802H699.01C699.419 282.802 699.781 282.744 700.097 282.629C700.412 282.513 700.659 282.316 700.837 282.036C701.019 281.756 701.11 281.367 701.11 280.869ZM709.728 278.009V279.042H707.708V286.156H709.728V287.196H704.355V286.156H706.375V279.042H704.355V278.009H709.728Z" fill="#C363FF"/>
<g clip-path="url(#clip6_451_391)">
<path d="M572.793 182.81H437.752" stroke="#00FAB3" stroke-width="2"/>
<path d="M572.216 77.3718H528.385C517.339 77.3718 508.385 86.3261 508.385 97.3718V151.051C508.385 162.097 499.43 171.051 488.385 171.051H437.304" stroke="#FAD000" stroke-width="2"/>
<path d="M572.216 283.53H528.385C517.339 283.53 508.385 274.575 508.385 263.53V214.149C508.385 203.103 499.43 194.149 488.385 194.149H437.304" stroke="#C363FF" stroke-width="2"/>
</g>
<rect x="280.543" y="145.201" width="170.5" height="70.5" rx="35.25" fill="#15252D"/>
<rect x="280.543" y="145.201" width="170.5" height="70.5" rx="35.25" stroke="#FC5200" stroke-width="1.5"/>
<g clip-path="url(#clip7_451_391)">
<path d="M332.192 181.346C334.785 182.158 336.329 183.721 336.329 186.67M336.329 186.67V187.483M336.329 186.67C336.329 183.721 337.874 182.158 340.467 181.346M336.329 186.67V176.701M334.861 176.701C334.8 176.701 334.741 176.685 334.688 176.654C334.635 176.623 334.591 176.579 334.561 176.526C334.531 176.473 334.515 176.414 334.516 176.353C334.516 176.292 334.533 176.232 334.564 176.179L336.032 173.576C336.062 173.524 336.106 173.481 336.158 173.451C336.21 173.422 336.269 173.406 336.329 173.406C336.389 173.406 336.448 173.422 336.501 173.451C336.553 173.481 336.596 173.524 336.627 173.576L338.096 176.179C338.127 176.231 338.143 176.291 338.144 176.352C338.144 176.413 338.128 176.473 338.098 176.526C338.068 176.579 338.024 176.623 337.971 176.654C337.918 176.684 337.859 176.701 337.798 176.701H334.861ZM332.837 179.788C332.86 179.732 332.868 179.67 332.86 179.61C332.852 179.549 332.828 179.492 332.79 179.444C332.753 179.396 332.704 179.358 332.647 179.335C332.591 179.312 332.529 179.304 332.469 179.313L329.594 179.717C329.534 179.725 329.477 179.749 329.43 179.786C329.382 179.823 329.345 179.871 329.322 179.927C329.299 179.983 329.291 180.044 329.298 180.104C329.306 180.163 329.329 180.22 329.366 180.268L331.111 182.585C331.148 182.634 331.197 182.672 331.253 182.695C331.309 182.719 331.371 182.728 331.431 182.72C331.492 182.712 331.549 182.688 331.598 182.651C331.646 182.614 331.684 182.565 331.708 182.509L332.27 181.149L332.837 179.788ZM339.822 179.788C339.799 179.732 339.791 179.67 339.799 179.61C339.807 179.549 339.831 179.492 339.868 179.444C339.906 179.396 339.955 179.358 340.012 179.335C340.068 179.312 340.13 179.304 340.19 179.313L343.065 179.717C343.125 179.725 343.181 179.749 343.229 179.786C343.277 179.823 343.314 179.871 343.337 179.927C343.36 179.983 343.368 180.044 343.361 180.104C343.353 180.163 343.33 180.22 343.293 180.268L341.548 182.585C341.511 182.634 341.462 182.672 341.406 182.695C341.35 182.719 341.288 182.728 341.228 182.72C341.167 182.712 341.11 182.688 341.061 182.651C341.013 182.614 340.975 182.565 340.951 182.509L340.389 181.149L339.822 179.788Z" stroke="#FC5200" stroke-linecap="round" stroke-linejoin="round"/>
</g>
<path d="M362.483 178.371C362.483 179.06 362.272 179.615 361.85 180.037C361.432 180.455 360.916 180.744 360.303 180.904L362.976 184.951H361.41L358.99 181.077H357.85V184.951H356.523V175.764H358.97C360.121 175.764 360.994 175.984 361.59 176.424C362.185 176.86 362.483 177.508 362.483 178.371ZM361.076 178.371C361.076 177.806 360.912 177.4 360.583 177.151C360.259 176.902 359.759 176.777 359.083 176.777H357.85V180.071H359.096C359.728 180.071 360.214 179.942 360.556 179.684C360.903 179.422 361.076 178.984 361.076 178.371ZM370.695 180.364C370.695 181.297 370.566 182.122 370.308 182.837C370.05 183.553 369.666 184.113 369.155 184.517C368.648 184.917 368.017 185.117 367.261 185.117C366.506 185.117 365.872 184.922 365.361 184.531C364.855 184.135 364.472 183.582 364.215 182.871C363.957 182.16 363.828 181.328 363.828 180.377C363.828 179.44 363.957 178.613 364.215 177.897C364.472 177.177 364.855 176.615 365.361 176.211C365.872 175.802 366.506 175.597 367.261 175.597C368.017 175.597 368.648 175.795 369.155 176.191C369.666 176.586 370.05 177.142 370.308 177.857C370.566 178.573 370.695 179.408 370.695 180.364ZM369.315 180.364C369.315 179.155 369.155 178.237 368.835 177.611C368.519 176.984 367.995 176.671 367.261 176.671C366.528 176.671 366.001 176.986 365.681 177.617C365.366 178.248 365.208 179.168 365.208 180.377C365.208 181.582 365.37 182.495 365.695 183.117C366.023 183.735 366.546 184.044 367.261 184.044C367.995 184.044 368.519 183.733 368.835 183.111C369.155 182.484 369.315 181.568 369.315 180.364ZM378.359 175.764V181.957C378.359 182.58 378.233 183.128 377.979 183.604C377.73 184.08 377.373 184.451 376.906 184.717C376.444 184.984 375.89 185.117 375.246 185.117C374.597 185.117 374.041 184.984 373.579 184.717C373.117 184.451 372.764 184.08 372.519 183.604C372.279 183.128 372.159 182.58 372.159 181.957V175.764H373.479V181.857C373.479 183.297 374.068 184.017 375.246 184.017C376.433 184.017 377.026 183.297 377.026 181.857V175.764H378.359ZM383.897 176.864V184.951H382.577V176.864H379.751V175.764H386.771L386.631 176.864H383.897ZM390.182 176.804V179.757H393.555V180.804H390.182V183.917H394.309V184.951H388.855V175.764H394.209L394.055 176.804H390.182ZM402.473 178.371C402.473 179.06 402.262 179.615 401.84 180.037C401.422 180.455 400.907 180.744 400.293 180.904L402.967 184.951H401.4L398.98 181.077H397.84V184.951H396.513V175.764H398.96C400.111 175.764 400.984 175.984 401.58 176.424C402.176 176.86 402.473 177.508 402.473 178.371ZM401.067 178.371C401.067 177.806 400.902 177.4 400.573 177.151C400.249 176.902 399.749 176.777 399.073 176.777H397.84V180.071H399.087C399.718 180.071 400.204 179.942 400.547 179.684C400.893 179.422 401.067 178.984 401.067 178.371Z" fill="#FC5200"/>
<defs>
<clipPath id="clip0_451_391">
<rect width="16" height="16" fill="white" transform="translate(35.7239 181.951)"/>
</clipPath>
<clipPath id="clip1_451_391">
<rect width="13.3333" height="13.3333" fill="white" transform="translate(58.3906 183.284)"/>
</clipPath>
<clipPath id="clip2_451_391">
<rect width="16" height="16" fill="white" transform="translate(79.7239 181.951)"/>
</clipPath>
<clipPath id="clip3_451_391">
<rect width="16" height="16" fill="white" transform="translate(608.131 69.7058)"/>
</clipPath>
<clipPath id="clip4_451_391">
<rect width="16" height="16" fill="white" transform="translate(604.131 172.451)"/>
</clipPath>
<clipPath id="clip5_451_391">
<rect width="16" height="16" fill="white" transform="translate(604.131 275.196)"/>
</clipPath>
<clipPath id="clip6_451_391">
<rect width="128" height="244" fill="white" transform="matrix(-1 0 0 1 575.793 58.4507)"/>
</clipPath>
<clipPath id="clip7_451_391">
<rect width="16" height="16" fill="white" transform="translate(328.329 172.451)"/>
</clipPath>
</defs>
</svg>
