<svg width="707" height="198" viewBox="0 0 707 198" fill="none" xmlns="http://www.w3.org/2000/svg">
<path d="M51.4036 17.3198H93.3729C102.69 17.3198 110.242 24.8725 110.242 34.1892V34.1892C110.242 43.5058 117.795 51.0585 127.112 51.0585H198.884" stroke="#CFD7D6" stroke-width="1.5" stroke-dasharray="3 3"/>
<path d="M51.4036 163.752H93.3729C102.69 163.752 110.242 156.199 110.242 146.883V146.883C110.242 137.566 117.795 130.013 127.112 130.013H198.884" stroke="#CFD7D6" stroke-width="1.5" stroke-dasharray="3 3"/>
<path d="M51.4036 114.752H83.3729C86.0621 114.752 88.2422 112.572 88.2422 109.883V109.883C88.2422 107.193 90.4223 105.013 93.1115 105.013H198.884" stroke="#CFD7D6" stroke-width="1.5" stroke-dasharray="3 3"/>
<path d="M51.4036 68.752H84.3729C87.0621 68.752 89.2422 70.932 89.2422 73.6213V73.6213C89.2422 76.3105 91.4223 78.4906 94.1115 78.4906H198.884" stroke="#CFD7D6" stroke-width="1.5" stroke-dasharray="3 3"/>
<path d="M125.669 98.877C125.105 98.877 124.619 98.7453 124.209 98.482C123.802 98.2153 123.487 97.817 123.264 97.287C123.044 96.757 122.934 96.0953 122.934 95.302C122.934 94.7086 123.014 94.1903 123.174 93.747C123.334 93.3003 123.55 92.9286 123.824 92.632C124.1 92.3353 124.414 92.112 124.764 91.962C125.117 91.812 125.485 91.737 125.869 91.737C126.329 91.737 126.71 91.8036 127.014 91.937C127.317 92.0703 127.604 92.262 127.874 92.512L127.294 93.112C127.084 92.9153 126.865 92.772 126.639 92.682C126.415 92.5886 126.164 92.542 125.884 92.542C125.637 92.542 125.4 92.5903 125.174 92.687C124.947 92.7836 124.744 92.9386 124.564 93.152C124.387 93.3653 124.245 93.6486 124.139 94.002C124.035 94.352 123.984 94.7853 123.984 95.302C123.984 95.9553 124.049 96.487 124.179 96.897C124.312 97.3036 124.509 97.602 124.769 97.792C125.032 97.9786 125.355 98.072 125.739 98.072C125.965 98.072 126.18 98.0453 126.384 97.992C126.587 97.9386 126.784 97.8603 126.974 97.757V95.742H125.699L125.584 94.952H127.949V98.262C127.632 98.4353 127.294 98.582 126.934 98.702C126.577 98.8186 126.155 98.877 125.669 98.877ZM133.925 93.817C133.925 94.1603 133.851 94.4586 133.705 94.712C133.561 94.9653 133.366 95.177 133.12 95.347C132.873 95.5136 132.596 95.637 132.29 95.717L134.295 98.752H133.12L131.305 95.847H130.45V98.752H129.455V91.862H131.29C132.156 91.862 132.811 92.027 133.255 92.357C133.701 92.6836 133.925 93.1703 133.925 93.817ZM132.87 93.817C132.87 93.3936 132.746 93.0886 132.5 92.902C132.256 92.7153 131.881 92.622 131.375 92.622H130.45V95.092H131.385C131.858 95.092 132.223 94.9953 132.48 94.802C132.74 94.6053 132.87 94.277 132.87 93.817ZM138.786 97.037H136.176L135.656 98.752H134.661L136.881 91.862H138.131L140.356 98.752H139.306L138.786 97.037ZM136.406 96.242H138.556L137.486 92.662L136.406 96.242ZM145.052 94.007C145.052 93.667 144.985 93.397 144.852 93.197C144.719 92.9936 144.535 92.8486 144.302 92.762C144.069 92.672 143.799 92.627 143.492 92.627H142.567V95.457H143.477C143.784 95.457 144.055 95.4136 144.292 95.327C144.529 95.2403 144.714 95.092 144.847 94.882C144.984 94.6686 145.052 94.377 145.052 94.007ZM146.102 93.997C146.102 94.5336 145.987 94.967 145.757 95.297C145.53 95.6236 145.215 95.862 144.812 96.012C144.412 96.162 143.95 96.237 143.427 96.237H142.567V98.752H141.572V91.862H143.397C144.237 91.862 144.897 92.037 145.377 92.387C145.86 92.7336 146.102 93.2703 146.102 93.997ZM150.723 98.752V95.542H148.273V98.752H147.283V91.862H148.273V94.727H150.723V91.862H151.713V98.752H150.723ZM158.064 95.312C158.064 95.792 158.017 96.2353 157.924 96.642C157.834 97.0486 157.684 97.407 157.474 97.717C157.267 98.0236 156.987 98.2736 156.634 98.467C156.964 98.5303 157.246 98.6253 157.479 98.752C157.712 98.8753 157.909 99.0453 158.069 99.262C158.232 99.482 158.371 99.7636 158.484 100.107L157.504 100.482C157.364 100.129 157.206 99.8303 157.029 99.587C156.856 99.347 156.639 99.1636 156.379 99.037C156.119 98.9136 155.791 98.852 155.394 98.852C154.857 98.852 154.406 98.707 154.039 98.417C153.672 98.127 153.396 97.717 153.209 97.187C153.022 96.657 152.929 96.0353 152.929 95.322C152.929 94.6186 153.024 93.9986 153.214 93.462C153.407 92.922 153.694 92.5003 154.074 92.197C154.457 91.8903 154.931 91.737 155.494 91.737C156.064 91.737 156.539 91.8853 156.919 92.182C157.299 92.4786 157.584 92.8953 157.774 93.432C157.967 93.9653 158.064 94.592 158.064 95.312ZM157.034 95.312C157.034 94.4053 156.916 93.717 156.679 93.247C156.442 92.777 156.047 92.542 155.494 92.542C154.944 92.542 154.551 92.7786 154.314 93.252C154.077 93.722 153.959 94.412 153.959 95.322C153.959 96.2253 154.081 96.9103 154.324 97.377C154.571 97.8403 154.961 98.072 155.494 98.072C156.044 98.072 156.437 97.8386 156.674 97.372C156.914 96.9053 157.034 96.2186 157.034 95.312ZM159.775 98.752V91.862H160.77V97.892H163.89L163.78 98.752H159.775ZM119.095 115.312C119.095 116.012 118.998 116.63 118.805 117.167C118.611 117.704 118.323 118.124 117.94 118.427C117.56 118.727 117.086 118.877 116.52 118.877C115.956 118.877 115.483 118.73 115.1 118.437C114.716 118.14 114.428 117.725 114.235 117.192C114.041 116.659 113.945 116.035 113.945 115.322C113.945 114.619 114.041 113.999 114.235 113.462C114.428 112.922 114.716 112.5 115.1 112.197C115.483 111.89 115.956 111.737 116.52 111.737C117.086 111.737 117.56 111.885 117.94 112.182C118.323 112.479 118.611 112.895 118.805 113.432C118.998 113.965 119.095 114.592 119.095 115.312ZM118.06 115.312C118.06 114.405 117.94 113.717 117.7 113.247C117.463 112.777 117.07 112.542 116.52 112.542C115.97 112.542 115.575 112.779 115.335 113.252C115.098 113.725 114.98 114.415 114.98 115.322C114.98 116.225 115.103 116.91 115.35 117.377C115.596 117.84 115.986 118.072 116.52 118.072C117.07 118.072 117.463 117.839 117.7 117.372C117.94 116.905 118.06 116.219 118.06 115.312ZM124.066 114.007C124.066 113.667 123.999 113.397 123.866 113.197C123.732 112.994 123.549 112.849 123.316 112.762C123.082 112.672 122.812 112.627 122.506 112.627H121.581V115.457H122.491C122.797 115.457 123.069 115.414 123.306 115.327C123.542 115.24 123.727 115.092 123.861 114.882C123.997 114.669 124.066 114.377 124.066 114.007ZM125.116 113.997C125.116 114.534 125.001 114.967 124.771 115.297C124.544 115.624 124.229 115.862 123.826 116.012C123.426 116.162 122.964 116.237 122.441 116.237H121.581V118.752H120.586V111.862H122.411C123.251 111.862 123.911 112.037 124.391 112.387C124.874 112.734 125.116 113.27 125.116 113.997ZM127.707 112.642V114.857H130.237V115.642H127.707V117.977H130.802V118.752H126.712V111.862H130.727L130.612 112.642H127.707ZM136.923 113.817C136.923 114.16 136.849 114.459 136.703 114.712C136.559 114.965 136.364 115.177 136.118 115.347C135.871 115.514 135.594 115.637 135.288 115.717L137.293 118.752H136.118L134.303 115.847H133.448V118.752H132.453V111.862H134.288C135.154 111.862 135.809 112.027 136.253 112.357C136.699 112.684 136.923 113.17 136.923 113.817ZM135.868 113.817C135.868 113.394 135.744 113.089 135.498 112.902C135.254 112.715 134.879 112.622 134.373 112.622H133.448V115.092H134.383C134.856 115.092 135.221 114.995 135.478 114.802C135.738 114.605 135.868 114.277 135.868 113.817ZM141.784 117.037H139.174L138.654 118.752H137.659L139.879 111.862H141.129L143.354 118.752H142.304L141.784 117.037ZM139.404 116.242H141.554L140.484 112.662L139.404 116.242ZM146.98 112.687V118.752H145.99V112.687H143.87V111.862H149.135L149.03 112.687H146.98ZM154.511 111.862V112.637H152.996V117.972H154.511V118.752H150.481V117.972H151.996V112.637H150.481V111.862H154.511ZM161.067 115.312C161.067 116.012 160.971 116.63 160.777 117.167C160.584 117.704 160.296 118.124 159.912 118.427C159.532 118.727 159.059 118.877 158.492 118.877C157.929 118.877 157.456 118.73 157.072 118.437C156.689 118.14 156.401 117.725 156.207 117.192C156.014 116.659 155.917 116.035 155.917 115.322C155.917 114.619 156.014 113.999 156.207 113.462C156.401 112.922 156.689 112.5 157.072 112.197C157.456 111.89 157.929 111.737 158.492 111.737C159.059 111.737 159.532 111.885 159.912 112.182C160.296 112.479 160.584 112.895 160.777 113.432C160.971 113.965 161.067 114.592 161.067 115.312ZM160.032 115.312C160.032 114.405 159.912 113.717 159.672 113.247C159.436 112.777 159.042 112.542 158.492 112.542C157.942 112.542 157.547 112.779 157.307 113.252C157.071 113.725 156.952 114.415 156.952 115.322C156.952 116.225 157.076 116.91 157.322 117.377C157.569 117.84 157.959 118.072 158.492 118.072C159.042 118.072 159.436 117.839 159.672 117.372C159.912 116.905 160.032 116.219 160.032 115.312ZM165.363 118.752L163.038 112.777C163.045 112.864 163.055 112.999 163.068 113.182C163.082 113.365 163.097 113.58 163.113 113.827C163.13 114.074 163.143 114.335 163.153 114.612C163.167 114.889 163.173 115.164 163.173 115.437V118.752H162.273V111.862H163.588L165.938 117.852C165.932 117.739 165.917 117.55 165.893 117.287C165.87 117.02 165.848 116.705 165.828 116.342C165.812 115.975 165.803 115.587 165.803 115.177V111.862H166.703V118.752H165.363ZM172.899 116.827C172.899 117.227 172.798 117.582 172.594 117.892C172.394 118.199 172.104 118.44 171.724 118.617C171.344 118.79 170.881 118.877 170.334 118.877C169.808 118.877 169.338 118.797 168.924 118.637C168.511 118.477 168.159 118.257 167.869 117.977L168.434 117.342C168.674 117.565 168.949 117.742 169.259 117.872C169.569 118.002 169.931 118.067 170.344 118.067C170.614 118.067 170.864 118.024 171.094 117.937C171.328 117.847 171.514 117.714 171.654 117.537C171.798 117.357 171.869 117.132 171.869 116.862C171.869 116.645 171.826 116.462 171.739 116.312C171.656 116.162 171.508 116.029 171.294 115.912C171.081 115.795 170.783 115.68 170.399 115.567C169.933 115.427 169.533 115.272 169.199 115.102C168.869 114.929 168.616 114.717 168.439 114.467C168.266 114.217 168.179 113.91 168.179 113.547C168.179 113.19 168.278 112.877 168.474 112.607C168.671 112.334 168.941 112.12 169.284 111.967C169.631 111.814 170.026 111.737 170.469 111.737C170.953 111.737 171.374 111.807 171.734 111.947C172.098 112.084 172.424 112.282 172.714 112.542L172.164 113.162C171.921 112.945 171.658 112.789 171.374 112.692C171.091 112.592 170.804 112.542 170.514 112.542C170.271 112.542 170.049 112.579 169.849 112.652C169.649 112.722 169.489 112.827 169.369 112.967C169.253 113.107 169.194 113.285 169.194 113.502C169.194 113.692 169.246 113.855 169.349 113.992C169.453 114.125 169.628 114.25 169.874 114.367C170.121 114.48 170.456 114.6 170.879 114.727C171.249 114.834 171.588 114.967 171.894 115.127C172.201 115.287 172.444 115.502 172.624 115.772C172.808 116.039 172.899 116.39 172.899 116.827Z" fill="#CFD7D6"/>
<path d="M3.58 185.547C4.03667 185.547 4.42 185.605 4.73 185.722C5.04333 185.839 5.33667 186.009 5.61 186.232L5.075 186.862C4.86167 186.685 4.635 186.557 4.395 186.477C4.15833 186.394 3.90667 186.352 3.64 186.352C3.28 186.352 2.945 186.44 2.635 186.617C2.32833 186.794 2.08167 187.084 1.895 187.487C1.70833 187.89 1.615 188.432 1.615 189.112C1.615 189.775 1.70333 190.309 1.88 190.712C2.06 191.112 2.30167 191.404 2.605 191.587C2.91167 191.767 3.25333 191.857 3.63 191.857C4.01 191.857 4.32167 191.799 4.565 191.682C4.81167 191.562 5.02833 191.425 5.215 191.272L5.71 191.907C5.49333 192.117 5.21167 192.3 4.865 192.457C4.52167 192.61 4.10167 192.687 3.605 192.687C3.035 192.687 2.52167 192.55 2.065 192.277C1.60833 192.004 1.24667 191.602 0.98 191.072C0.716667 190.539 0.585 189.885 0.585 189.112C0.585 188.339 0.72 187.687 0.99 187.157C1.26333 186.627 1.62667 186.227 2.08 185.957C2.53667 185.684 3.03667 185.547 3.58 185.547ZM7.28109 192.562V185.672H8.27609V191.702H11.3961L11.2861 192.562H7.28109ZM17.0072 185.672V186.447H15.4922V191.782H17.0072V192.562H12.9772V191.782H14.4922V186.447H12.9772V185.672H17.0072ZM20.1833 186.452V188.667H22.7133V189.452H20.1833V191.787H23.2783V192.562H19.1883V185.672H23.2033L23.0883 186.452H20.1833ZM27.8594 192.562L25.5344 186.587C25.541 186.674 25.551 186.809 25.5644 186.992C25.5777 187.175 25.5927 187.39 25.6094 187.637C25.626 187.884 25.6394 188.145 25.6494 188.422C25.6627 188.699 25.6694 188.974 25.6694 189.247V192.562H24.7694V185.672H26.0844L28.4344 191.662C28.4277 191.549 28.4127 191.36 28.3894 191.097C28.366 190.83 28.3444 190.515 28.3244 190.152C28.3077 189.785 28.2994 189.397 28.2994 188.987V185.672H29.1994V192.562H27.8594ZM33.4605 186.497V192.562H32.4705V186.497H30.3505V185.672H35.6155L35.5105 186.497H33.4605ZM46.2527 190.847H43.6427L43.1227 192.562H42.1277L44.3477 185.672H45.5977L47.8227 192.562H46.7727L46.2527 190.847ZM43.8727 190.052H46.0227L44.9527 186.472L43.8727 190.052ZM52.5188 187.817C52.5188 187.477 52.4521 187.207 52.3188 187.007C52.1854 186.804 52.0021 186.659 51.7688 186.572C51.5354 186.482 51.2654 186.437 50.9588 186.437H50.0338V189.267H50.9438C51.2504 189.267 51.5221 189.224 51.7588 189.137C51.9954 189.05 52.1804 188.902 52.3138 188.692C52.4504 188.479 52.5188 188.187 52.5188 187.817ZM53.5688 187.807C53.5688 188.344 53.4538 188.777 53.2237 189.107C52.9971 189.434 52.6821 189.672 52.2788 189.822C51.8788 189.972 51.4171 190.047 50.8938 190.047H50.0338V192.562H49.0388V185.672H50.8638C51.7038 185.672 52.3638 185.847 52.8438 186.197C53.3271 186.544 53.5688 187.08 53.5688 187.807ZM58.5148 187.817C58.5148 187.477 58.4482 187.207 58.3148 187.007C58.1815 186.804 57.9982 186.659 57.7648 186.572C57.5315 186.482 57.2615 186.437 56.9548 186.437H56.0298V189.267H56.9398C57.2465 189.267 57.5182 189.224 57.7548 189.137C57.9915 189.05 58.1765 188.902 58.3098 188.692C58.4465 188.479 58.5148 188.187 58.5148 187.817ZM59.5648 187.807C59.5648 188.344 59.4498 188.777 59.2198 189.107C58.9932 189.434 58.6782 189.672 58.2748 189.822C57.8748 189.972 57.4132 190.047 56.8898 190.047H56.0298V192.562H55.0348V185.672H56.8598C57.6998 185.672 58.3598 185.847 58.8398 186.197C59.3232 186.544 59.5648 187.08 59.5648 187.807ZM65.3759 190.637C65.3759 191.037 65.2743 191.392 65.0709 191.702C64.8709 192.009 64.5809 192.25 64.2009 192.427C63.8209 192.6 63.3576 192.687 62.8109 192.687C62.2843 192.687 61.8143 192.607 61.4009 192.447C60.9876 192.287 60.6359 192.067 60.3459 191.787L60.9109 191.152C61.1509 191.375 61.4259 191.552 61.7359 191.682C62.0459 191.812 62.4076 191.877 62.8209 191.877C63.0909 191.877 63.3409 191.834 63.5709 191.747C63.8043 191.657 63.9909 191.524 64.1309 191.347C64.2743 191.167 64.3459 190.942 64.3459 190.672C64.3459 190.455 64.3026 190.272 64.2159 190.122C64.1326 189.972 63.9843 189.839 63.7709 189.722C63.5576 189.605 63.2593 189.49 62.8759 189.377C62.4093 189.237 62.0093 189.082 61.6759 188.912C61.3459 188.739 61.0926 188.527 60.9159 188.277C60.7426 188.027 60.6559 187.72 60.6559 187.357C60.6559 187 60.7543 186.687 60.9509 186.417C61.1476 186.144 61.4176 185.93 61.7609 185.777C62.1076 185.624 62.5026 185.547 62.9459 185.547C63.4293 185.547 63.8509 185.617 64.2109 185.757C64.5743 185.894 64.9009 186.092 65.1909 186.352L64.6409 186.972C64.3976 186.755 64.1343 186.599 63.8509 186.502C63.5676 186.402 63.2809 186.352 62.9909 186.352C62.7476 186.352 62.5259 186.389 62.3259 186.462C62.1259 186.532 61.9659 186.637 61.8459 186.777C61.7293 186.917 61.6709 187.095 61.6709 187.312C61.6709 187.502 61.7226 187.665 61.8259 187.802C61.9293 187.935 62.1043 188.06 62.3509 188.177C62.5976 188.29 62.9326 188.41 63.3559 188.537C63.7259 188.644 64.0643 188.777 64.3709 188.937C64.6776 189.097 64.9209 189.312 65.1009 189.582C65.2843 189.849 65.3759 190.2 65.3759 190.637Z" fill="#CFD7D6"/>
<path d="M21.2271 115.538V103.636C21.2271 102.717 21.9723 101.972 22.8916 101.972H39.0979C40.0172 101.972 40.7624 102.717 40.7624 103.636V115.538M21.2271 115.538H40.7624M21.2271 115.538L19.3841 122.054C19.0836 123.116 19.8818 124.171 20.9858 124.171H41.0036C42.1077 124.171 42.9058 123.116 42.6053 122.054L40.7624 115.538" stroke="#CFD7D6" stroke-width="1.2484"/>
<path d="M29.8845 120.841L32.1044 120.841" stroke="#CFD7D6" stroke-width="1.2484" stroke-linecap="round" stroke-linejoin="round"/>
<g clip-path="url(#clip0_709_2529)">
<path d="M24.1101 73.6424V55.6065C24.1101 54.4114 25.0789 53.4426 26.274 53.4426H35.5124C36.7075 53.4426 37.6763 54.4114 37.6763 55.6065V73.6424C37.6763 74.8375 36.7075 75.8063 35.5124 75.8063H26.274C25.0789 75.8063 24.1101 74.8375 24.1101 73.6424Z" stroke="#CFD7D6" stroke-width="1.2484"/>
<path d="M29.7856 54.8018L32.0056 54.8018" stroke="#CFD7D6" stroke-width="2.4968" stroke-linecap="round" stroke-linejoin="round"/>
<path d="M28.0044 73.2253H33.7912" stroke="#CFD7D6" stroke-width="1.2484" stroke-linecap="round" stroke-linejoin="round"/>
</g>
<path d="M34.9421 22.0039V25.4847C34.9421 26.0081 34.7342 26.51 34.3642 26.88C33.9941 27.2501 33.4922 27.458 32.9689 27.458H29.0223C28.499 27.458 27.9971 27.2501 27.627 26.88C27.257 26.51 27.0491 26.0081 27.0491 25.4847V22.0039M27.0491 13.1794V9.69861C27.0491 9.17526 27.257 8.67336 27.627 8.3033C27.9971 7.93324 28.499 7.72534 29.0223 7.72534H32.9689C33.4922 7.72534 33.9941 7.93324 34.3642 8.3033C34.7342 8.67336 34.9421 9.17526 34.9421 9.69861V13.1794" stroke="#CFD7D6" stroke-width="1.2484" stroke-linecap="round" stroke-linejoin="round"/>
<rect x="26.2426" y="13.2109" width="9.50532" height="8.76149" rx="1.04034" stroke="#CFD7D6" stroke-width="1.2484"/>
<path d="M302 106H587" stroke="#00FAB3" stroke-width="1.5"/>
<path d="M302 176.752L407 176.752" stroke="#C363FF" stroke-width="1.5"/>
<path d="M499.475 176.725L587.475 176.725" stroke="#C363FF" stroke-width="1.5" stroke-dasharray="3 3"/>
<rect x="587.75" y="152.23" width="118.5" height="44.5" rx="5.25" fill="#13222A"/>
<rect x="587.75" y="152.23" width="118.5" height="44.5" rx="5.25" stroke="#C363FF" stroke-width="1.5"/>
<path d="M633.237 171.48V168.27H630.787V171.48H629.797V164.59H630.787V167.455H633.237V164.59H634.227V171.48H633.237ZM640.583 168.04C640.583 168.74 640.486 169.359 640.293 169.895C640.099 170.432 639.811 170.852 639.428 171.155C639.048 171.455 638.574 171.605 638.008 171.605C637.444 171.605 636.971 171.459 636.588 171.165C636.204 170.869 635.916 170.454 635.723 169.92C635.529 169.387 635.433 168.764 635.433 168.05C635.433 167.347 635.529 166.727 635.723 166.19C635.916 165.65 636.204 165.229 636.588 164.925C636.971 164.619 637.444 164.465 638.008 164.465C638.574 164.465 639.048 164.614 639.428 164.91C639.811 165.207 640.099 165.624 640.293 166.16C640.486 166.694 640.583 167.32 640.583 168.04ZM639.548 168.04C639.548 167.134 639.428 166.445 639.188 165.975C638.951 165.505 638.558 165.27 638.008 165.27C637.458 165.27 637.063 165.507 636.823 165.98C636.586 166.454 636.468 167.144 636.468 168.05C636.468 168.954 636.591 169.639 636.838 170.105C637.084 170.569 637.474 170.8 638.008 170.8C638.558 170.8 638.951 170.567 639.188 170.1C639.428 169.634 639.548 168.947 639.548 168.04ZM644.484 165.415V171.48H643.494V165.415H641.374V164.59H646.639L646.534 165.415H644.484ZM649.195 165.37V167.585H651.725V168.37H649.195V170.705H652.29V171.48H648.2V164.59H652.215L652.1 165.37H649.195ZM654.281 171.48V164.59H655.276V170.62H658.396L658.286 171.48H654.281ZM664.407 169.555C664.407 169.955 664.306 170.31 664.102 170.62C663.902 170.927 663.612 171.169 663.232 171.345C662.852 171.519 662.389 171.605 661.842 171.605C661.316 171.605 660.846 171.525 660.432 171.365C660.019 171.205 659.667 170.985 659.377 170.705L659.942 170.07C660.182 170.294 660.457 170.47 660.767 170.6C661.077 170.73 661.439 170.795 661.852 170.795C662.122 170.795 662.372 170.752 662.602 170.665C662.836 170.575 663.022 170.442 663.162 170.265C663.306 170.085 663.377 169.86 663.377 169.59C663.377 169.374 663.334 169.19 663.247 169.04C663.164 168.89 663.016 168.757 662.802 168.64C662.589 168.524 662.291 168.409 661.907 168.295C661.441 168.155 661.041 168 660.707 167.83C660.377 167.657 660.124 167.445 659.947 167.195C659.774 166.945 659.687 166.639 659.687 166.275C659.687 165.919 659.786 165.605 659.982 165.335C660.179 165.062 660.449 164.849 660.792 164.695C661.139 164.542 661.534 164.465 661.977 164.465C662.461 164.465 662.882 164.535 663.242 164.675C663.606 164.812 663.932 165.01 664.222 165.27L663.672 165.89C663.429 165.674 663.166 165.517 662.882 165.42C662.599 165.32 662.312 165.27 662.022 165.27C661.779 165.27 661.557 165.307 661.357 165.38C661.157 165.45 660.997 165.555 660.877 165.695C660.761 165.835 660.702 166.014 660.702 166.23C660.702 166.42 660.754 166.584 660.857 166.72C660.961 166.854 661.136 166.979 661.382 167.095C661.629 167.209 661.964 167.329 662.387 167.455C662.757 167.562 663.096 167.695 663.402 167.855C663.709 168.015 663.952 168.23 664.132 168.5C664.316 168.767 664.407 169.119 664.407 169.555ZM626.171 184.605C625.607 184.605 625.121 184.474 624.711 184.21C624.304 183.944 623.989 183.545 623.766 183.015C623.546 182.485 623.436 181.824 623.436 181.03C623.436 180.437 623.516 179.919 623.676 179.475C623.836 179.029 624.052 178.657 624.326 178.36C624.602 178.064 624.916 177.84 625.266 177.69C625.619 177.54 625.987 177.465 626.371 177.465C626.831 177.465 627.212 177.532 627.516 177.665C627.819 177.799 628.106 177.99 628.376 178.24L627.796 178.84C627.586 178.644 627.367 178.5 627.141 178.41C626.917 178.317 626.666 178.27 626.386 178.27C626.139 178.27 625.902 178.319 625.676 178.415C625.449 178.512 625.246 178.667 625.066 178.88C624.889 179.094 624.747 179.377 624.641 179.73C624.537 180.08 624.486 180.514 624.486 181.03C624.486 181.684 624.551 182.215 624.681 182.625C624.814 183.032 625.011 183.33 625.271 183.52C625.534 183.707 625.857 183.8 626.241 183.8C626.467 183.8 626.682 183.774 626.886 183.72C627.089 183.667 627.286 183.589 627.476 183.485V181.47H626.201L626.086 180.68H628.451V183.99C628.134 184.164 627.796 184.31 627.436 184.43C627.079 184.547 626.657 184.605 626.171 184.605ZM634.427 179.545C634.427 179.889 634.353 180.187 634.207 180.44C634.063 180.694 633.868 180.905 633.622 181.075C633.375 181.242 633.098 181.365 632.792 181.445L634.797 184.48H633.622L631.807 181.575H630.952V184.48H629.957V177.59H631.792C632.658 177.59 633.313 177.755 633.757 178.085C634.203 178.412 634.427 178.899 634.427 179.545ZM633.372 179.545C633.372 179.122 633.248 178.817 633.002 178.63C632.758 178.444 632.383 178.35 631.877 178.35H630.952V180.82H631.887C632.36 180.82 632.725 180.724 632.982 180.53C633.242 180.334 633.372 180.005 633.372 179.545ZM639.558 179.735C639.558 179.395 639.491 179.125 639.358 178.925C639.224 178.722 639.041 178.577 638.808 178.49C638.574 178.4 638.304 178.355 637.998 178.355H637.073V181.185H637.983C638.289 181.185 638.561 181.142 638.798 181.055C639.034 180.969 639.219 180.82 639.353 180.61C639.489 180.397 639.558 180.105 639.558 179.735ZM640.608 179.725C640.608 180.262 640.493 180.695 640.263 181.025C640.036 181.352 639.721 181.59 639.318 181.74C638.918 181.89 638.456 181.965 637.933 181.965H637.073V184.48H636.078V177.59H637.903C638.743 177.59 639.403 177.765 639.883 178.115C640.366 178.462 640.608 178.999 640.608 179.725ZM644.584 177.465C645.041 177.465 645.424 177.524 645.734 177.64C646.047 177.757 646.341 177.927 646.614 178.15L646.079 178.78C645.866 178.604 645.639 178.475 645.399 178.395C645.162 178.312 644.911 178.27 644.644 178.27C644.284 178.27 643.949 178.359 643.639 178.535C643.332 178.712 643.086 179.002 642.899 179.405C642.712 179.809 642.619 180.35 642.619 181.03C642.619 181.694 642.707 182.227 642.884 182.63C643.064 183.03 643.306 183.322 643.609 183.505C643.916 183.685 644.257 183.775 644.634 183.775C645.014 183.775 645.326 183.717 645.569 183.6C645.816 183.48 646.032 183.344 646.219 183.19L646.714 183.825C646.497 184.035 646.216 184.219 645.869 184.375C645.526 184.529 645.106 184.605 644.609 184.605C644.039 184.605 643.526 184.469 643.069 184.195C642.612 183.922 642.251 183.52 641.984 182.99C641.721 182.457 641.589 181.804 641.589 181.03C641.589 180.257 641.724 179.605 641.994 179.075C642.267 178.545 642.631 178.145 643.084 177.875C643.541 177.602 644.041 177.465 644.584 177.465ZM657.276 182.765H654.666L654.146 184.48H653.151L655.371 177.59H656.621L658.846 184.48H657.796L657.276 182.765ZM654.896 181.97H657.046L655.976 178.39L654.896 181.97ZM663.542 179.735C663.542 179.395 663.476 179.125 663.342 178.925C663.209 178.722 663.026 178.577 662.792 178.49C662.559 178.4 662.289 178.355 661.982 178.355H661.057V181.185H661.967C662.274 181.185 662.546 181.142 662.782 181.055C663.019 180.969 663.204 180.82 663.337 180.61C663.474 180.397 663.542 180.105 663.542 179.735ZM664.592 179.725C664.592 180.262 664.477 180.695 664.247 181.025C664.021 181.352 663.706 181.59 663.302 181.74C662.902 181.89 662.441 181.965 661.917 181.965H661.057V184.48H660.062V177.59H661.887C662.727 177.59 663.387 177.765 663.867 178.115C664.351 178.462 664.592 178.999 664.592 179.725ZM670.003 177.59V178.365H668.488V183.7H670.003V184.48H665.973V183.7H667.488V178.365H665.973V177.59H670.003Z" fill="#C363FF"/>
<circle cx="30.284" cy="163.075" r="12.7013" stroke="#CFD7D6" stroke-width="1.24349"/>
<mask id="mask0_709_2529" style="mask-type:alpha" maskUnits="userSpaceOnUse" x="16" y="149" width="28" height="28">
<path d="M42.9854 163.075C42.9854 170.09 37.2988 175.776 30.284 175.776C23.2693 175.776 17.5827 170.09 17.5827 163.075C17.5827 156.06 23.2693 150.374 30.284 150.374C37.2988 150.374 42.9854 156.06 42.9854 163.075Z" fill="#FFEADB" stroke="#15252D" stroke-width="1.24349"/>
</mask>
<g mask="url(#mask0_709_2529)">
<circle cx="36.2529" cy="155.827" r="1.81194" stroke="#CFD7D6" stroke-width="1.24349"/>
<circle cx="22.1838" cy="163.928" r="1.81194" stroke="#CFD7D6" stroke-width="1.24349"/>
<circle cx="33.6945" cy="165.846" r="1.81194" stroke="#CFD7D6" stroke-width="1.24349"/>
<circle cx="27.5129" cy="154.761" r="1.81194" stroke="#CFD7D6" stroke-width="1.24349"/>
<circle cx="27.5129" cy="170.323" r="1.81194" stroke="#CFD7D6" stroke-width="1.24349"/>
<path d="M25.701 154.122C23.5693 153.376 23.5693 152.523 23.2495 151.99M34.4409 156.04C34.4409 156.04 32.7389 156.106 31.6697 155.934C30.7326 155.783 29.3248 155.294 29.3248 155.294" stroke="#CFD7D6" stroke-width="1.24349"/>
<path d="M26.5535 156.36C26.5535 156.36 25.0186 157.32 23.9954 159.025C23.5071 159.839 22.823 162.222 22.823 162.222" stroke="#CFD7D6" stroke-width="1.24349"/>
<path d="M27.9393 156.573C27.9393 156.573 27.4867 159.505 28.3656 161.263C29.3249 163.182 31.9895 165.1 31.9895 165.1" stroke="#CFD7D6" stroke-width="1.24349"/>
<path d="M36.0394 157.639C36.0394 157.639 36.3993 159.607 35.7196 161.476C35.2933 162.649 34.1208 164.141 34.1208 164.141" stroke="#CFD7D6" stroke-width="1.24349"/>
<path d="M43.6071 160.197C43.6071 160.197 42.6372 157.603 41.113 156.605C39.1716 155.334 38.0647 155.807 38.0647 155.807" stroke="#CFD7D6" stroke-width="1.24349"/>
<path d="M20.1585 163.608C20.1585 163.608 19.4401 163.608 18.5164 164.602C17.6669 165.516 17.2808 165.633 17.2808 165.633" stroke="#CFD7D6" stroke-width="1.24349"/>
<path d="M34.4408 167.552C34.4408 167.552 34.66 169.168 35.7392 171.006C36.4162 172.159 38.2778 173.627 38.2778 173.627" stroke="#CFD7D6" stroke-width="1.24349"/>
<path d="M32.7356 167.445C32.7356 167.445 32.1169 168.245 31.35 168.724C30.4973 169.257 29.2183 169.577 29.2183 169.577" stroke="#CFD7D6" stroke-width="1.24349"/>
<path d="M22.9297 165.74C22.9297 165.74 23.1938 167.185 23.7824 167.871C24.4219 168.618 25.9141 169.257 25.9141 169.257" stroke="#CFD7D6" stroke-width="1.24349"/>
<path d="M27.6194 172.135C27.6194 172.135 27.726 173.307 27.1931 174.053C26.6975 174.747 25.9141 175.545 25.9141 175.545" stroke="#CFD7D6" stroke-width="1.24349"/>
<path d="M34.8303 157C34.8303 157 29.553 157.786 27.2996 160.304C25.2039 162.646 24.1021 163.928 24.1021 163.928" stroke="#CFD7D6" stroke-width="1.24349"/>
</g>
<path d="M432.02 101.125C431.457 101.125 430.97 100.993 430.56 100.73C430.153 100.463 429.838 100.065 429.615 99.535C429.395 99.005 429.285 98.3433 429.285 97.55C429.285 96.9567 429.365 96.4383 429.525 95.995C429.685 95.5483 429.902 95.1767 430.175 94.88C430.452 94.5833 430.765 94.36 431.115 94.21C431.468 94.06 431.837 93.985 432.22 93.985C432.68 93.985 433.062 94.0517 433.365 94.185C433.668 94.3183 433.955 94.51 434.225 94.76L433.645 95.36C433.435 95.1633 433.217 95.02 432.99 94.93C432.767 94.8367 432.515 94.79 432.235 94.79C431.988 94.79 431.752 94.8383 431.525 94.935C431.298 95.0317 431.095 95.1867 430.915 95.4C430.738 95.6133 430.597 95.8967 430.49 96.25C430.387 96.6 430.335 97.0333 430.335 97.55C430.335 98.2033 430.4 98.735 430.53 99.145C430.663 99.5517 430.86 99.85 431.12 100.04C431.383 100.227 431.707 100.32 432.09 100.32C432.317 100.32 432.532 100.293 432.735 100.24C432.938 100.187 433.135 100.108 433.325 100.005V97.99H432.05L431.935 97.2H434.3V100.51C433.983 100.683 433.645 100.83 433.285 100.95C432.928 101.067 432.507 101.125 432.02 101.125ZM440.276 96.065C440.276 96.4083 440.203 96.7067 440.056 96.96C439.913 97.2133 439.718 97.425 439.471 97.595C439.224 97.7617 438.948 97.885 438.641 97.965L440.646 101H439.471L437.656 98.095H436.801V101H435.806V94.11H437.641C438.508 94.11 439.163 94.275 439.606 94.605C440.053 94.9317 440.276 95.4183 440.276 96.065ZM439.221 96.065C439.221 95.6417 439.098 95.3367 438.851 95.15C438.608 94.9633 438.233 94.87 437.726 94.87H436.801V97.34H437.736C438.209 97.34 438.574 97.2433 438.831 97.05C439.091 96.8533 439.221 96.525 439.221 96.065ZM445.137 99.285H442.527L442.007 101H441.012L443.232 94.11H444.482L446.707 101H445.657L445.137 99.285ZM442.757 98.49H444.907L443.837 94.91L442.757 98.49ZM451.403 96.255C451.403 95.915 451.337 95.645 451.203 95.445C451.07 95.2417 450.887 95.0967 450.653 95.01C450.42 94.92 450.15 94.875 449.843 94.875H448.918V97.705H449.828C450.135 97.705 450.407 97.6617 450.643 97.575C450.88 97.4883 451.065 97.34 451.198 97.13C451.335 96.9167 451.403 96.625 451.403 96.255ZM452.453 96.245C452.453 96.7817 452.338 97.215 452.108 97.545C451.882 97.8717 451.567 98.11 451.163 98.26C450.763 98.41 450.302 98.485 449.778 98.485H448.918V101H447.923V94.11H449.748C450.588 94.11 451.248 94.285 451.728 94.635C452.212 94.9817 452.453 95.5183 452.453 96.245ZM457.074 101V97.79H454.624V101H453.634V94.11H454.624V96.975H457.074V94.11H458.064V101H457.074ZM464.415 97.56C464.415 98.04 464.369 98.4833 464.275 98.89C464.185 99.2967 464.035 99.655 463.825 99.965C463.619 100.272 463.339 100.522 462.985 100.715C463.315 100.778 463.597 100.873 463.83 101C464.064 101.123 464.26 101.293 464.42 101.51C464.584 101.73 464.722 102.012 464.835 102.355L463.855 102.73C463.715 102.377 463.557 102.078 463.38 101.835C463.207 101.595 462.99 101.412 462.73 101.285C462.47 101.162 462.142 101.1 461.745 101.1C461.209 101.1 460.757 100.955 460.39 100.665C460.024 100.375 459.747 99.965 459.56 99.435C459.374 98.905 459.28 98.2833 459.28 97.57C459.28 96.8667 459.375 96.2467 459.565 95.71C459.759 95.17 460.045 94.7483 460.425 94.445C460.809 94.1383 461.282 93.985 461.845 93.985C462.415 93.985 462.89 94.1333 463.27 94.43C463.65 94.7267 463.935 95.1433 464.125 95.68C464.319 96.2133 464.415 96.84 464.415 97.56ZM463.385 97.56C463.385 96.6533 463.267 95.965 463.03 95.495C462.794 95.025 462.399 94.79 461.845 94.79C461.295 94.79 460.902 95.0267 460.665 95.5C460.429 95.97 460.31 96.66 460.31 97.57C460.31 98.4733 460.432 99.1583 460.675 99.625C460.922 100.088 461.312 100.32 461.845 100.32C462.395 100.32 462.789 100.087 463.025 99.62C463.265 99.1533 463.385 98.4667 463.385 97.56ZM466.127 101V94.11H467.122V100.14H470.242L470.132 101H466.127Z" fill="#00FAB3"/>
<path d="M443.274 27.441C443.274 27.7843 443.201 28.0826 443.054 28.336C442.911 28.5893 442.716 28.801 442.469 28.971C442.222 29.1376 441.946 29.261 441.639 29.341L443.644 32.376H442.469L440.654 29.471H439.799V32.376H438.804V25.486H440.639C441.506 25.486 442.161 25.651 442.604 25.981C443.051 26.3076 443.274 26.7943 443.274 27.441ZM442.219 27.441C442.219 27.0176 442.096 26.7126 441.849 26.526C441.606 26.3393 441.231 26.246 440.724 26.246H439.799V28.716H440.734C441.207 28.716 441.572 28.6193 441.829 28.426C442.089 28.2293 442.219 27.901 442.219 27.441ZM446.05 26.266V28.481H448.58V29.266H446.05V31.601H449.145V32.376H445.055V25.486H449.07L448.955 26.266H446.05ZM455.266 30.451C455.266 30.851 455.165 31.206 454.961 31.516C454.761 31.8226 454.471 32.0643 454.091 32.241C453.711 32.4143 453.248 32.501 452.701 32.501C452.175 32.501 451.705 32.421 451.291 32.261C450.878 32.101 450.526 31.881 450.236 31.601L450.801 30.966C451.041 31.1893 451.316 31.366 451.626 31.496C451.936 31.626 452.298 31.691 452.711 31.691C452.981 31.691 453.231 31.6476 453.461 31.561C453.695 31.471 453.881 31.3376 454.021 31.161C454.165 30.981 454.236 30.756 454.236 30.486C454.236 30.2693 454.193 30.086 454.106 29.936C454.023 29.786 453.875 29.6526 453.661 29.536C453.448 29.4193 453.15 29.3043 452.766 29.191C452.3 29.051 451.9 28.896 451.566 28.726C451.236 28.5526 450.983 28.341 450.806 28.091C450.633 27.841 450.546 27.5343 450.546 27.171C450.546 26.8143 450.645 26.501 450.841 26.231C451.038 25.9576 451.308 25.7443 451.651 25.591C451.998 25.4376 452.393 25.361 452.836 25.361C453.32 25.361 453.741 25.431 454.101 25.571C454.465 25.7076 454.791 25.906 455.081 26.166L454.531 26.786C454.288 26.5693 454.025 26.4126 453.741 26.316C453.458 26.216 453.171 26.166 452.881 26.166C452.638 26.166 452.416 26.2026 452.216 26.276C452.016 26.346 451.856 26.451 451.736 26.591C451.62 26.731 451.561 26.9093 451.561 27.126C451.561 27.316 451.613 27.4793 451.716 27.616C451.82 27.7493 451.995 27.8743 452.241 27.991C452.488 28.1043 452.823 28.2243 453.246 28.351C453.616 28.4576 453.955 28.591 454.261 28.751C454.568 28.911 454.811 29.126 454.991 29.396C455.175 29.6626 455.266 30.0143 455.266 30.451ZM459.327 26.311V32.376H458.337V26.311H456.217V25.486H461.482L461.377 26.311H459.327Z" fill="#FAD000"/>
<path d="M336.648 173.566C336.085 173.566 335.598 173.434 335.188 173.171C334.781 172.904 334.466 172.506 334.243 171.976C334.023 171.446 333.913 170.784 333.913 169.991C333.913 169.398 333.993 168.879 334.153 168.436C334.313 167.989 334.53 167.618 334.803 167.321C335.08 167.024 335.393 166.801 335.743 166.651C336.096 166.501 336.465 166.426 336.848 166.426C337.308 166.426 337.69 166.493 337.993 166.626C338.296 166.759 338.583 166.951 338.853 167.201L338.273 167.801C338.063 167.604 337.845 167.461 337.618 167.371C337.395 167.278 337.143 167.231 336.863 167.231C336.616 167.231 336.38 167.279 336.153 167.376C335.926 167.473 335.723 167.628 335.543 167.841C335.366 168.054 335.225 168.338 335.118 168.691C335.015 169.041 334.963 169.474 334.963 169.991C334.963 170.644 335.028 171.176 335.158 171.586C335.291 171.993 335.488 172.291 335.748 172.481C336.011 172.668 336.335 172.761 336.718 172.761C336.945 172.761 337.16 172.734 337.363 172.681C337.566 172.628 337.763 172.549 337.953 172.446V170.431H336.678L336.563 169.641H338.928V172.951C338.611 173.124 338.273 173.271 337.913 173.391C337.556 173.508 337.135 173.566 336.648 173.566ZM344.904 168.506C344.904 168.849 344.831 169.148 344.684 169.401C344.541 169.654 344.346 169.866 344.099 170.036C343.852 170.203 343.576 170.326 343.269 170.406L345.274 173.441H344.099L342.284 170.536H341.429V173.441H340.434V166.551H342.269C343.136 166.551 343.791 166.716 344.234 167.046C344.681 167.373 344.904 167.859 344.904 168.506ZM343.849 168.506C343.849 168.083 343.726 167.778 343.479 167.591C343.236 167.404 342.861 167.311 342.354 167.311H341.429V169.781H342.364C342.837 169.781 343.202 169.684 343.459 169.491C343.719 169.294 343.849 168.966 343.849 168.506ZM349.765 171.726H347.155L346.635 173.441H345.64L347.86 166.551H349.11L351.335 173.441H350.285L349.765 171.726ZM347.385 170.931H349.535L348.465 167.351L347.385 170.931ZM356.031 168.696C356.031 168.356 355.965 168.086 355.831 167.886C355.698 167.683 355.515 167.538 355.281 167.451C355.048 167.361 354.778 167.316 354.471 167.316H353.546V170.146H354.456C354.763 170.146 355.035 170.103 355.271 170.016C355.508 169.929 355.693 169.781 355.826 169.571C355.963 169.358 356.031 169.066 356.031 168.696ZM357.081 168.686C357.081 169.223 356.966 169.656 356.736 169.986C356.51 170.313 356.195 170.551 355.791 170.701C355.391 170.851 354.93 170.926 354.406 170.926H353.546V173.441H352.551V166.551H354.376C355.216 166.551 355.876 166.726 356.356 167.076C356.84 167.423 357.081 167.959 357.081 168.686ZM361.702 173.441V170.231H359.252V173.441H358.262V166.551H359.252V169.416H361.702V166.551H362.692V173.441H361.702ZM369.043 170.001C369.043 170.481 368.997 170.924 368.903 171.331C368.813 171.738 368.663 172.096 368.453 172.406C368.247 172.713 367.967 172.963 367.613 173.156C367.943 173.219 368.225 173.314 368.458 173.441C368.692 173.564 368.888 173.734 369.048 173.951C369.212 174.171 369.35 174.453 369.463 174.796L368.483 175.171C368.343 174.818 368.185 174.519 368.008 174.276C367.835 174.036 367.618 173.853 367.358 173.726C367.098 173.603 366.77 173.541 366.373 173.541C365.837 173.541 365.385 173.396 365.018 173.106C364.652 172.816 364.375 172.406 364.188 171.876C364.002 171.346 363.908 170.724 363.908 170.011C363.908 169.308 364.003 168.688 364.193 168.151C364.387 167.611 364.673 167.189 365.053 166.886C365.437 166.579 365.91 166.426 366.473 166.426C367.043 166.426 367.518 166.574 367.898 166.871C368.278 167.168 368.563 167.584 368.753 168.121C368.947 168.654 369.043 169.281 369.043 170.001ZM368.013 170.001C368.013 169.094 367.895 168.406 367.658 167.936C367.422 167.466 367.027 167.231 366.473 167.231C365.923 167.231 365.53 167.468 365.293 167.941C365.057 168.411 364.938 169.101 364.938 170.011C364.938 170.914 365.06 171.599 365.303 172.066C365.55 172.529 365.94 172.761 366.473 172.761C367.023 172.761 367.417 172.528 367.653 172.061C367.893 171.594 368.013 170.908 368.013 170.001ZM370.754 173.441V166.551H371.749V172.581H374.869L374.759 173.441H370.754Z" fill="#C363FF"/>
<path d="M543.275 167.561L543.555 168.411C543.335 168.481 543.099 168.526 542.845 168.546C542.595 168.566 542.319 168.576 542.015 168.576C542.325 168.716 542.559 168.896 542.715 169.116C542.872 169.336 542.95 169.599 542.95 169.906C542.95 170.253 542.869 170.561 542.705 170.831C542.545 171.101 542.314 171.313 542.01 171.466C541.71 171.619 541.349 171.696 540.925 171.696C540.759 171.696 540.617 171.689 540.5 171.676C540.387 171.659 540.275 171.634 540.165 171.601C540.092 171.651 540.03 171.719 539.98 171.806C539.934 171.893 539.91 171.984 539.91 172.081C539.91 172.198 539.957 172.298 540.05 172.381C540.144 172.461 540.325 172.501 540.595 172.501H541.53C541.894 172.501 542.217 172.564 542.5 172.691C542.787 172.818 543.012 172.989 543.175 173.206C543.339 173.423 543.42 173.669 543.42 173.946C543.42 174.469 543.197 174.871 542.75 175.151C542.304 175.434 541.67 175.576 540.85 175.576C540.27 175.576 539.814 175.516 539.48 175.396C539.15 175.276 538.915 175.098 538.775 174.861C538.639 174.624 538.57 174.328 538.57 173.971H539.435C539.435 174.168 539.474 174.329 539.55 174.456C539.627 174.583 539.767 174.678 539.97 174.741C540.174 174.804 540.467 174.836 540.85 174.836C541.23 174.836 541.537 174.804 541.77 174.741C542.004 174.678 542.175 174.584 542.285 174.461C542.395 174.338 542.45 174.188 542.45 174.011C542.45 173.778 542.345 173.599 542.135 173.476C541.925 173.353 541.657 173.291 541.33 173.291H540.405C539.932 173.291 539.584 173.191 539.36 172.991C539.14 172.788 539.03 172.554 539.03 172.291C539.03 172.118 539.079 171.949 539.175 171.786C539.275 171.623 539.42 171.479 539.61 171.356C539.304 171.193 539.077 170.993 538.93 170.756C538.787 170.519 538.715 170.231 538.715 169.891C538.715 169.528 538.805 169.208 538.985 168.931C539.169 168.654 539.422 168.438 539.745 168.281C540.069 168.124 540.44 168.046 540.86 168.046C541.297 168.046 541.654 168.026 541.93 167.986C542.21 167.943 542.452 167.886 542.655 167.816C542.862 167.743 543.069 167.658 543.275 167.561ZM540.865 168.726C540.472 168.726 540.179 168.836 539.985 169.056C539.792 169.273 539.695 169.551 539.695 169.891C539.695 170.234 539.794 170.516 539.99 170.736C540.187 170.953 540.485 171.061 540.885 171.061C541.239 171.061 541.509 170.959 541.695 170.756C541.882 170.549 541.975 170.258 541.975 169.881C541.975 169.501 541.882 169.214 541.695 169.021C541.509 168.824 541.232 168.726 540.865 168.726ZM549.382 168.506C549.382 168.849 549.308 169.148 549.162 169.401C549.018 169.654 548.823 169.866 548.577 170.036C548.33 170.203 548.053 170.326 547.747 170.406L549.752 173.441H548.577L546.762 170.536H545.907V173.441H544.912V166.551H546.747C547.613 166.551 548.268 166.716 548.712 167.046C549.158 167.373 549.382 167.859 549.382 168.506ZM548.327 168.506C548.327 168.083 548.203 167.778 547.957 167.591C547.713 167.404 547.338 167.311 546.832 167.311H545.907V169.781H546.842C547.315 169.781 547.68 169.684 547.937 169.491C548.197 169.294 548.327 168.966 548.327 168.506ZM554.513 168.696C554.513 168.356 554.446 168.086 554.313 167.886C554.179 167.683 553.996 167.538 553.763 167.451C553.529 167.361 553.259 167.316 552.953 167.316H552.028V170.146H552.938C553.244 170.146 553.516 170.103 553.753 170.016C553.989 169.929 554.174 169.781 554.308 169.571C554.444 169.358 554.513 169.066 554.513 168.696ZM555.563 168.686C555.563 169.223 555.448 169.656 555.218 169.986C554.991 170.313 554.676 170.551 554.273 170.701C553.873 170.851 553.411 170.926 552.888 170.926H552.028V173.441H551.033V166.551H552.858C553.698 166.551 554.358 166.726 554.838 167.076C555.321 167.423 555.563 167.959 555.563 168.686ZM559.539 166.426C559.995 166.426 560.379 166.484 560.689 166.601C561.002 166.718 561.295 166.888 561.569 167.111L561.034 167.741C560.82 167.564 560.594 167.436 560.354 167.356C560.117 167.273 559.865 167.231 559.599 167.231C559.239 167.231 558.904 167.319 558.594 167.496C558.287 167.673 558.04 167.963 557.854 168.366C557.667 168.769 557.574 169.311 557.574 169.991C557.574 170.654 557.662 171.188 557.839 171.591C558.019 171.991 558.26 172.283 558.564 172.466C558.87 172.646 559.212 172.736 559.589 172.736C559.969 172.736 560.28 172.678 560.524 172.561C560.77 172.441 560.987 172.304 561.174 172.151L561.669 172.786C561.452 172.996 561.17 173.179 560.824 173.336C560.48 173.489 560.06 173.566 559.564 173.566C558.994 173.566 558.48 173.429 558.024 173.156C557.567 172.883 557.205 172.481 556.939 171.951C556.675 171.418 556.544 170.764 556.544 169.991C556.544 169.218 556.679 168.566 556.949 168.036C557.222 167.506 557.585 167.106 558.039 166.836C558.495 166.563 558.995 166.426 559.539 166.426Z" fill="#C363FF"/>
<rect x="192.312" y="1.31396" width="118.5" height="195.386" rx="5.25" fill="#13222A" stroke="#FC5200" stroke-width="1.5"/>
<path d="M257.604 120.633L256.801 118.351L255.743 115.346L254.978 113.171L253.976 110.324L252.813 107.018H247.169L246.268 109.578L245.465 111.861L241.476 123.196H245.198L246.366 119.887H252.011L251.009 117.041H247.363L248.129 114.866L249.727 110.324L249.991 109.572L250.255 110.324L254.782 123.193L254.783 123.196H258.505L257.604 120.633Z" fill="#FC5200"/>
<path d="M265.335 107.156C265.241 106.99 265.086 106.868 264.902 106.817C264.719 106.766 264.523 106.79 264.357 106.883C264.191 106.977 264.069 107.132 264.018 107.316C263.967 107.499 263.991 107.695 264.084 107.861C265.988 111.246 266.609 115.204 265.833 119.009C265.058 122.814 262.938 126.213 259.861 128.583C256.784 130.953 252.957 132.136 249.08 131.914C245.203 131.693 241.535 130.083 238.748 127.379C235.961 124.674 234.241 121.056 233.903 117.187C233.565 113.319 234.632 109.458 236.908 106.311C239.185 103.165 242.518 100.943 246.298 100.053C250.079 99.1638 254.053 99.6653 257.494 101.466C257.383 101.974 257.457 102.504 257.7 102.963C257.944 103.422 258.342 103.779 258.824 103.972C259.306 104.165 259.841 104.181 260.334 104.017C260.827 103.853 261.246 103.519 261.516 103.076C261.786 102.632 261.891 102.107 261.811 101.594C261.731 101.081 261.472 100.613 261.079 100.273C260.687 99.9324 260.186 99.7423 259.667 99.736C259.148 99.7296 258.643 99.9075 258.242 100.238C254.503 98.2551 250.173 97.6868 246.049 98.6374C241.924 99.588 238.28 101.994 235.785 105.413C233.291 108.833 232.113 113.037 232.467 117.256C232.821 121.474 234.684 125.423 237.714 128.378C240.744 131.334 244.739 133.098 248.964 133.347C253.19 133.596 257.363 132.314 260.72 129.735C264.076 127.156 266.391 123.453 267.238 119.306C268.086 115.159 267.41 110.845 265.335 107.156V107.156Z" fill="#FC5200"/>
<path d="M211.182 150.503C210.619 150.503 210.132 150.371 209.722 150.108C209.316 149.841 209.001 149.443 208.777 148.913C208.557 148.383 208.447 147.721 208.447 146.928C208.447 146.334 208.527 145.816 208.687 145.373C208.847 144.926 209.064 144.554 209.337 144.258C209.614 143.961 209.927 143.738 210.277 143.588C210.631 143.438 210.999 143.363 211.382 143.363C211.842 143.363 212.224 143.429 212.527 143.563C212.831 143.696 213.117 143.888 213.387 144.138L212.807 144.738C212.597 144.541 212.379 144.398 212.152 144.308C211.929 144.214 211.677 144.168 211.397 144.168C211.151 144.168 210.914 144.216 210.687 144.313C210.461 144.409 210.257 144.564 210.077 144.778C209.901 144.991 209.759 145.274 209.652 145.628C209.549 145.978 209.497 146.411 209.497 146.928C209.497 147.581 209.562 148.113 209.692 148.523C209.826 148.929 210.022 149.228 210.282 149.418C210.546 149.604 210.869 149.698 211.252 149.698C211.479 149.698 211.694 149.671 211.897 149.618C212.101 149.564 212.297 149.486 212.487 149.383V147.368H211.212L211.097 146.578H213.462V149.888C213.146 150.061 212.807 150.208 212.447 150.328C212.091 150.444 211.669 150.503 211.182 150.503ZM219.438 145.443C219.438 145.786 219.365 146.084 219.218 146.338C219.075 146.591 218.88 146.803 218.633 146.973C218.387 147.139 218.11 147.263 217.803 147.343L219.808 150.378H218.633L216.818 147.473H215.963V150.378H214.968V143.488H216.803C217.67 143.488 218.325 143.653 218.768 143.983C219.215 144.309 219.438 144.796 219.438 145.443ZM218.383 145.443C218.383 145.019 218.26 144.714 218.013 144.528C217.77 144.341 217.395 144.248 216.888 144.248H215.963V146.718H216.898C217.372 146.718 217.737 146.621 217.993 146.428C218.253 146.231 218.383 145.903 218.383 145.443ZM224.3 148.663H221.69L221.17 150.378H220.175L222.395 143.488H223.645L225.87 150.378H224.82L224.3 148.663ZM221.92 147.868H224.07L223 144.288L221.92 147.868ZM230.566 145.633C230.566 145.293 230.499 145.023 230.366 144.823C230.232 144.619 230.049 144.474 229.816 144.388C229.582 144.298 229.312 144.253 229.006 144.253H228.081V147.083H228.991C229.297 147.083 229.569 147.039 229.806 146.953C230.042 146.866 230.227 146.718 230.361 146.508C230.497 146.294 230.566 146.003 230.566 145.633ZM231.616 145.623C231.616 146.159 231.501 146.593 231.271 146.923C231.044 147.249 230.729 147.488 230.326 147.638C229.926 147.788 229.464 147.863 228.941 147.863H228.081V150.378H227.086V143.488H228.911C229.751 143.488 230.411 143.663 230.891 144.013C231.374 144.359 231.616 144.896 231.616 145.623ZM236.237 150.378V147.168H233.787V150.378H232.797V143.488H233.787V146.353H236.237V143.488H237.227V150.378H236.237ZM243.583 146.938C243.583 147.638 243.486 148.256 243.293 148.793C243.099 149.329 242.811 149.749 242.428 150.053C242.048 150.353 241.574 150.503 241.008 150.503C240.444 150.503 239.971 150.356 239.588 150.063C239.204 149.766 238.916 149.351 238.723 148.818C238.529 148.284 238.433 147.661 238.433 146.948C238.433 146.244 238.529 145.624 238.723 145.088C238.916 144.548 239.204 144.126 239.588 143.823C239.971 143.516 240.444 143.363 241.008 143.363C241.574 143.363 242.048 143.511 242.428 143.808C242.811 144.104 243.099 144.521 243.293 145.058C243.486 145.591 243.583 146.218 243.583 146.938ZM242.548 146.938C242.548 146.031 242.428 145.343 242.188 144.873C241.951 144.403 241.558 144.168 241.008 144.168C240.458 144.168 240.063 144.404 239.823 144.878C239.586 145.351 239.468 146.041 239.468 146.948C239.468 147.851 239.591 148.536 239.838 149.003C240.084 149.466 240.474 149.698 241.008 149.698C241.558 149.698 241.951 149.464 242.188 148.998C242.428 148.531 242.548 147.844 242.548 146.938ZM249.419 148.453C249.419 148.853 249.317 149.208 249.114 149.518C248.914 149.824 248.624 150.066 248.244 150.243C247.864 150.416 247.401 150.503 246.854 150.503C246.327 150.503 245.857 150.423 245.444 150.263C245.031 150.103 244.679 149.883 244.389 149.603L244.954 148.968C245.194 149.191 245.469 149.368 245.779 149.498C246.089 149.628 246.451 149.693 246.864 149.693C247.134 149.693 247.384 149.649 247.614 149.563C247.847 149.473 248.034 149.339 248.174 149.163C248.317 148.983 248.389 148.758 248.389 148.488C248.389 148.271 248.346 148.088 248.259 147.938C248.176 147.788 248.027 147.654 247.814 147.538C247.601 147.421 247.302 147.306 246.919 147.193C246.452 147.053 246.052 146.898 245.719 146.728C245.389 146.554 245.136 146.343 244.959 146.093C244.786 145.843 244.699 145.536 244.699 145.173C244.699 144.816 244.797 144.503 244.994 144.233C245.191 143.959 245.461 143.746 245.804 143.593C246.151 143.439 246.546 143.363 246.989 143.363C247.472 143.363 247.894 143.433 248.254 143.573C248.617 143.709 248.944 143.908 249.234 144.168L248.684 144.788C248.441 144.571 248.177 144.414 247.894 144.318C247.611 144.218 247.324 144.168 247.034 144.168C246.791 144.168 246.569 144.204 246.369 144.278C246.169 144.348 246.009 144.453 245.889 144.593C245.772 144.733 245.714 144.911 245.714 145.128C245.714 145.318 245.766 145.481 245.869 145.618C245.972 145.751 246.147 145.876 246.394 145.993C246.641 146.106 246.976 146.226 247.399 146.353C247.769 146.459 248.107 146.593 248.414 146.753C248.721 146.913 248.964 147.128 249.144 147.398C249.327 147.664 249.419 148.016 249.419 148.453ZM261.411 145.443C261.411 145.786 261.338 146.084 261.191 146.338C261.048 146.591 260.853 146.803 260.606 146.973C260.359 147.139 260.083 147.263 259.776 147.343L261.781 150.378H260.606L258.791 147.473H257.936V150.378H256.941V143.488H258.776C259.643 143.488 260.298 143.653 260.741 143.983C261.188 144.309 261.411 144.796 261.411 145.443ZM260.356 145.443C260.356 145.019 260.233 144.714 259.986 144.528C259.743 144.341 259.368 144.248 258.861 144.248H257.936V146.718H258.871C259.344 146.718 259.709 146.621 259.966 146.428C260.226 146.231 260.356 145.903 260.356 145.443ZM267.567 146.938C267.567 147.638 267.471 148.256 267.277 148.793C267.084 149.329 266.796 149.749 266.412 150.053C266.032 150.353 265.559 150.503 264.992 150.503C264.429 150.503 263.956 150.356 263.572 150.063C263.189 149.766 262.901 149.351 262.707 148.818C262.514 148.284 262.417 147.661 262.417 146.948C262.417 146.244 262.514 145.624 262.707 145.088C262.901 144.548 263.189 144.126 263.572 143.823C263.956 143.516 264.429 143.363 264.992 143.363C265.559 143.363 266.032 143.511 266.412 143.808C266.796 144.104 267.084 144.521 267.277 145.058C267.471 145.591 267.567 146.218 267.567 146.938ZM266.532 146.938C266.532 146.031 266.412 145.343 266.172 144.873C265.936 144.403 265.542 144.168 264.992 144.168C264.442 144.168 264.047 144.404 263.807 144.878C263.571 145.351 263.452 146.041 263.452 146.948C263.452 147.851 263.576 148.536 263.822 149.003C264.069 149.466 264.459 149.698 264.992 149.698C265.542 149.698 265.936 149.464 266.172 148.998C266.412 148.531 266.532 147.844 266.532 146.938ZM273.313 143.488V148.133C273.313 148.599 273.218 149.011 273.028 149.368C272.842 149.721 272.573 149.999 272.223 150.203C271.877 150.403 271.462 150.503 270.978 150.503C270.492 150.503 270.075 150.403 269.728 150.203C269.382 150.003 269.117 149.724 268.933 149.368C268.753 149.011 268.663 148.599 268.663 148.133V143.488H269.653V148.058C269.653 148.598 269.765 149.003 269.988 149.273C270.212 149.543 270.542 149.678 270.978 149.678C271.422 149.678 271.755 149.543 271.978 149.273C272.202 149.003 272.313 148.598 272.313 148.058V143.488H273.313ZM277.464 144.313V150.378H276.474V144.313H274.354V143.488H279.619L279.514 144.313H277.464ZM282.175 144.268V146.483H284.705V147.268H282.175V149.603H285.27V150.378H281.18V143.488H285.195L285.08 144.268H282.175ZM291.392 145.443C291.392 145.786 291.318 146.084 291.172 146.338C291.028 146.591 290.833 146.803 290.587 146.973C290.34 147.139 290.063 147.263 289.757 147.343L291.762 150.378H290.587L288.772 147.473H287.917V150.378H286.922V143.488H288.757C289.623 143.488 290.278 143.653 290.722 143.983C291.168 144.309 291.392 144.796 291.392 145.443ZM290.337 145.443C290.337 145.019 290.213 144.714 289.967 144.528C289.723 144.341 289.348 144.248 288.842 144.248H287.917V146.718H288.852C289.325 146.718 289.69 146.621 289.947 146.428C290.207 146.231 290.337 145.903 290.337 145.443Z" fill="#FC5200"/>
<path d="M302 38.188H587" stroke="#FAD000" stroke-width="1.5"/>
<rect x="587.5" y="12.876" width="119" height="45" rx="5.5" fill="#13222A"/>
<rect x="587.5" y="12.876" width="119" height="45" rx="5.5" stroke="#FAD000"/>
<path d="M637.335 26.486V31.131C637.335 31.5976 637.24 32.0093 637.05 32.366C636.863 32.7193 636.595 32.9976 636.245 33.201C635.898 33.401 635.483 33.501 635 33.501C634.513 33.501 634.096 33.401 633.75 33.201C633.403 33.001 633.138 32.7226 632.955 32.366C632.775 32.0093 632.685 31.5976 632.685 31.131V26.486H633.675V31.056C633.675 31.596 633.786 32.001 634.01 32.271C634.233 32.541 634.563 32.676 635 32.676C635.443 32.676 635.776 32.541 636 32.271C636.223 32.001 636.335 31.596 636.335 31.056V26.486H637.335ZM643.421 31.451C643.421 31.851 643.319 32.206 643.116 32.516C642.916 32.8226 642.626 33.0643 642.246 33.241C641.866 33.4143 641.403 33.501 640.856 33.501C640.329 33.501 639.859 33.421 639.446 33.261C639.033 33.101 638.681 32.881 638.391 32.601L638.956 31.966C639.196 32.1893 639.471 32.366 639.781 32.496C640.091 32.626 640.453 32.691 640.866 32.691C641.136 32.691 641.386 32.6476 641.616 32.561C641.849 32.471 642.036 32.3376 642.176 32.161C642.319 31.981 642.391 31.756 642.391 31.486C642.391 31.2693 642.348 31.086 642.261 30.936C642.178 30.786 642.029 30.6526 641.816 30.536C641.603 30.4193 641.304 30.3043 640.921 30.191C640.454 30.051 640.054 29.896 639.721 29.726C639.391 29.5526 639.138 29.341 638.961 29.091C638.788 28.841 638.701 28.5343 638.701 28.171C638.701 27.8143 638.799 27.501 638.996 27.231C639.193 26.9576 639.463 26.7443 639.806 26.591C640.153 26.4376 640.548 26.361 640.991 26.361C641.474 26.361 641.896 26.431 642.256 26.571C642.619 26.7076 642.946 26.906 643.236 27.166L642.686 27.786C642.443 27.5693 642.179 27.4126 641.896 27.316C641.613 27.216 641.326 27.166 641.036 27.166C640.793 27.166 640.571 27.2026 640.371 27.276C640.171 27.346 640.011 27.451 639.891 27.591C639.774 27.731 639.716 27.9093 639.716 28.126C639.716 28.316 639.768 28.4793 639.871 28.616C639.974 28.7493 640.149 28.8743 640.396 28.991C640.643 29.1043 640.978 29.2243 641.401 29.351C641.771 29.4576 642.109 29.591 642.416 29.751C642.723 29.911 642.966 30.126 643.146 30.396C643.329 30.6626 643.421 31.0143 643.421 31.451ZM646.197 27.266V29.481H648.727V30.266H646.197V32.601H649.292V33.376H645.202V26.486H649.217L649.102 27.266H646.197ZM655.413 28.441C655.413 28.7843 655.34 29.0826 655.193 29.336C655.05 29.5893 654.855 29.801 654.608 29.971C654.361 30.1376 654.085 30.261 653.778 30.341L655.783 33.376H654.608L652.793 30.471H651.938V33.376H650.943V26.486H652.778C653.645 26.486 654.3 26.651 654.743 26.981C655.19 27.3076 655.413 27.7943 655.413 28.441ZM654.358 28.441C654.358 28.0176 654.235 27.7126 653.988 27.526C653.745 27.3393 653.37 27.246 652.863 27.246H651.938V29.716H652.873C653.346 29.716 653.711 29.6193 653.968 29.426C654.228 29.2293 654.358 28.901 654.358 28.441ZM661.409 31.451C661.409 31.851 661.307 32.206 661.104 32.516C660.904 32.8226 660.614 33.0643 660.234 33.241C659.854 33.4143 659.391 33.501 658.844 33.501C658.317 33.501 657.847 33.421 657.434 33.261C657.021 33.101 656.669 32.881 656.379 32.601L656.944 31.966C657.184 32.1893 657.459 32.366 657.769 32.496C658.079 32.626 658.441 32.691 658.854 32.691C659.124 32.691 659.374 32.6476 659.604 32.561C659.837 32.471 660.024 32.3376 660.164 32.161C660.307 31.981 660.379 31.756 660.379 31.486C660.379 31.2693 660.336 31.086 660.249 30.936C660.166 30.786 660.017 30.6526 659.804 30.536C659.591 30.4193 659.292 30.3043 658.909 30.191C658.442 30.051 658.042 29.896 657.709 29.726C657.379 29.5526 657.126 29.341 656.949 29.091C656.776 28.841 656.689 28.5343 656.689 28.171C656.689 27.8143 656.787 27.501 656.984 27.231C657.181 26.9576 657.451 26.7443 657.794 26.591C658.141 26.4376 658.536 26.361 658.979 26.361C659.462 26.361 659.884 26.431 660.244 26.571C660.607 26.7076 660.934 26.906 661.224 27.166L660.674 27.786C660.431 27.5693 660.167 27.4126 659.884 27.316C659.601 27.216 659.314 27.166 659.024 27.166C658.781 27.166 658.559 27.2026 658.359 27.276C658.159 27.346 657.999 27.451 657.879 27.591C657.762 27.731 657.704 27.9093 657.704 28.126C657.704 28.316 657.756 28.4793 657.859 28.616C657.962 28.7493 658.137 28.8743 658.384 28.991C658.631 29.1043 658.966 29.2243 659.389 29.351C659.759 29.4576 660.097 29.591 660.404 29.751C660.711 29.911 660.954 30.126 661.134 30.396C661.317 30.6626 661.409 31.0143 661.409 31.451ZM628.431 39.441C628.431 39.7843 628.357 40.0826 628.211 40.336C628.067 40.5893 627.872 40.801 627.626 40.971C627.379 41.1376 627.102 41.261 626.796 41.341L628.801 44.376H627.626L625.811 41.471H624.956V44.376H623.961V37.486H625.796C626.662 37.486 627.317 37.651 627.761 37.981C628.207 38.3076 628.431 38.7943 628.431 39.441ZM627.376 39.441C627.376 39.0176 627.252 38.7126 627.006 38.526C626.762 38.3393 626.387 38.246 625.881 38.246H624.956V40.716H625.891C626.364 40.716 626.729 40.6193 626.986 40.426C627.246 40.2293 627.376 39.901 627.376 39.441ZM631.207 38.266V40.481H633.737V41.266H631.207V43.601H634.302V44.376H630.212V37.486H634.227L634.112 38.266H631.207ZM640.423 42.451C640.423 42.851 640.321 43.206 640.118 43.516C639.918 43.8226 639.628 44.0643 639.248 44.241C638.868 44.4143 638.404 44.501 637.858 44.501C637.331 44.501 636.861 44.421 636.448 44.261C636.034 44.101 635.683 43.881 635.393 43.601L635.958 42.966C636.198 43.1893 636.473 43.366 636.783 43.496C637.093 43.626 637.454 43.691 637.868 43.691C638.138 43.691 638.388 43.6476 638.618 43.561C638.851 43.471 639.038 43.3376 639.178 43.161C639.321 42.981 639.393 42.756 639.393 42.486C639.393 42.2693 639.349 42.086 639.263 41.936C639.179 41.786 639.031 41.6526 638.818 41.536C638.604 41.4193 638.306 41.3043 637.923 41.191C637.456 41.051 637.056 40.896 636.723 40.726C636.393 40.5526 636.139 40.341 635.963 40.091C635.789 39.841 635.703 39.5343 635.703 39.171C635.703 38.8143 635.801 38.501 635.998 38.231C636.194 37.9576 636.464 37.7443 636.808 37.591C637.154 37.4376 637.549 37.361 637.993 37.361C638.476 37.361 638.898 37.431 639.258 37.571C639.621 37.7076 639.948 37.906 640.238 38.166L639.688 38.786C639.444 38.5693 639.181 38.4126 638.898 38.316C638.614 38.216 638.328 38.166 638.038 38.166C637.794 38.166 637.573 38.2026 637.373 38.276C637.173 38.346 637.013 38.451 636.893 38.591C636.776 38.731 636.718 38.9093 636.718 39.126C636.718 39.316 636.769 39.4793 636.873 39.616C636.976 39.7493 637.151 39.8743 637.398 39.991C637.644 40.1043 637.979 40.2243 638.403 40.351C638.773 40.4576 639.111 40.591 639.418 40.751C639.724 40.911 639.968 41.126 640.148 41.396C640.331 41.6626 640.423 42.0143 640.423 42.451ZM644.484 38.311V44.376H643.494V38.311H641.374V37.486H646.639L646.534 38.311H644.484ZM657.276 42.661H654.666L654.146 44.376H653.151L655.371 37.486H656.621L658.846 44.376H657.796L657.276 42.661ZM654.896 41.866H657.046L655.976 38.286L654.896 41.866ZM663.542 39.631C663.542 39.291 663.476 39.021 663.342 38.821C663.209 38.6176 663.026 38.4726 662.792 38.386C662.559 38.296 662.289 38.251 661.982 38.251H661.057V41.081H661.967C662.274 41.081 662.546 41.0376 662.782 40.951C663.019 40.8643 663.204 40.716 663.337 40.506C663.474 40.2926 663.542 40.001 663.542 39.631ZM664.592 39.621C664.592 40.1576 664.477 40.591 664.247 40.921C664.021 41.2476 663.706 41.486 663.302 41.636C662.902 41.786 662.441 41.861 661.917 41.861H661.057V44.376H660.062V37.486H661.887C662.727 37.486 663.387 37.661 663.867 38.011C664.351 38.3576 664.592 38.8943 664.592 39.621ZM670.003 37.486V38.261H668.488V43.596H670.003V44.376H665.973V43.596H667.488V38.261H665.973V37.486H670.003Z" fill="#FAD000"/>
<rect x="394.75" y="152.502" width="118.5" height="44.5" rx="5.25" fill="#13222A"/>
<rect x="394.75" y="152.502" width="118.5" height="44.5" rx="5.25" stroke="#C363FF" stroke-width="1.5"/>
<path d="M440.237 172.752V169.542H437.787V172.752H436.797V165.862H437.787V168.727H440.237V165.862H441.227V172.752H440.237ZM447.583 169.312C447.583 170.012 447.486 170.63 447.293 171.167C447.099 171.704 446.811 172.124 446.428 172.427C446.048 172.727 445.574 172.877 445.008 172.877C444.444 172.877 443.971 172.73 443.588 172.437C443.204 172.14 442.916 171.725 442.723 171.192C442.529 170.659 442.433 170.035 442.433 169.322C442.433 168.619 442.529 167.999 442.723 167.462C442.916 166.922 443.204 166.5 443.588 166.197C443.971 165.89 444.444 165.737 445.008 165.737C445.574 165.737 446.048 165.885 446.428 166.182C446.811 166.479 447.099 166.895 447.293 167.432C447.486 167.965 447.583 168.592 447.583 169.312ZM446.548 169.312C446.548 168.405 446.428 167.717 446.188 167.247C445.951 166.777 445.558 166.542 445.008 166.542C444.458 166.542 444.063 166.779 443.823 167.252C443.586 167.725 443.468 168.415 443.468 169.322C443.468 170.225 443.591 170.91 443.838 171.377C444.084 171.84 444.474 172.072 445.008 172.072C445.558 172.072 445.951 171.839 446.188 171.372C446.428 170.905 446.548 170.219 446.548 169.312ZM451.484 166.687V172.752H450.494V166.687H448.374V165.862H453.639L453.534 166.687H451.484ZM456.195 166.642V168.857H458.725V169.642H456.195V171.977H459.29V172.752H455.2V165.862H459.215L459.1 166.642H456.195ZM461.281 172.752V165.862H462.276V171.892H465.396L465.286 172.752H461.281ZM471.407 170.827C471.407 171.227 471.306 171.582 471.102 171.892C470.902 172.199 470.612 172.44 470.232 172.617C469.852 172.79 469.389 172.877 468.842 172.877C468.316 172.877 467.846 172.797 467.432 172.637C467.019 172.477 466.667 172.257 466.377 171.977L466.942 171.342C467.182 171.565 467.457 171.742 467.767 171.872C468.077 172.002 468.439 172.067 468.852 172.067C469.122 172.067 469.372 172.024 469.602 171.937C469.836 171.847 470.022 171.714 470.162 171.537C470.306 171.357 470.377 171.132 470.377 170.862C470.377 170.645 470.334 170.462 470.247 170.312C470.164 170.162 470.016 170.029 469.802 169.912C469.589 169.795 469.291 169.68 468.907 169.567C468.441 169.427 468.041 169.272 467.707 169.102C467.377 168.929 467.124 168.717 466.947 168.467C466.774 168.217 466.687 167.91 466.687 167.547C466.687 167.19 466.786 166.877 466.982 166.607C467.179 166.334 467.449 166.12 467.792 165.967C468.139 165.814 468.534 165.737 468.977 165.737C469.461 165.737 469.882 165.807 470.242 165.947C470.606 166.084 470.932 166.282 471.222 166.542L470.672 167.162C470.429 166.945 470.166 166.789 469.882 166.692C469.599 166.592 469.312 166.542 469.022 166.542C468.779 166.542 468.557 166.579 468.357 166.652C468.157 166.722 467.997 166.827 467.877 166.967C467.761 167.107 467.702 167.285 467.702 167.502C467.702 167.692 467.754 167.855 467.857 167.992C467.961 168.125 468.136 168.25 468.382 168.367C468.629 168.48 468.964 168.6 469.387 168.727C469.757 168.834 470.096 168.967 470.402 169.127C470.709 169.287 470.952 169.502 471.132 169.772C471.316 170.039 471.407 170.39 471.407 170.827ZM424.176 183.877C423.613 183.877 423.126 183.745 422.716 183.482C422.31 183.215 421.995 182.817 421.771 182.287C421.551 181.757 421.441 181.095 421.441 180.302C421.441 179.709 421.521 179.19 421.681 178.747C421.841 178.3 422.058 177.929 422.331 177.632C422.608 177.335 422.921 177.112 423.271 176.962C423.625 176.812 423.993 176.737 424.376 176.737C424.836 176.737 425.218 176.804 425.521 176.937C425.825 177.07 426.111 177.262 426.381 177.512L425.801 178.112C425.591 177.915 425.373 177.772 425.146 177.682C424.923 177.589 424.671 177.542 424.391 177.542C424.145 177.542 423.908 177.59 423.681 177.687C423.455 177.784 423.251 177.939 423.071 178.152C422.895 178.365 422.753 178.649 422.646 179.002C422.543 179.352 422.491 179.785 422.491 180.302C422.491 180.955 422.556 181.487 422.686 181.897C422.82 182.304 423.016 182.602 423.276 182.792C423.54 182.979 423.863 183.072 424.246 183.072C424.473 183.072 424.688 183.045 424.891 182.992C425.095 182.939 425.291 182.86 425.481 182.757V180.742H424.206L424.091 179.952H426.456V183.262C426.14 183.435 425.801 183.582 425.441 183.702C425.085 183.819 424.663 183.877 424.176 183.877ZM432.433 178.817C432.433 179.16 432.359 179.459 432.213 179.712C432.069 179.965 431.874 180.177 431.628 180.347C431.381 180.514 431.104 180.637 430.798 180.717L432.803 183.752H431.628L429.813 180.847H428.958V183.752H427.963V176.862H429.798C430.664 176.862 431.319 177.027 431.763 177.357C432.209 177.684 432.433 178.17 432.433 178.817ZM431.378 178.817C431.378 178.394 431.254 178.089 431.008 177.902C430.764 177.715 430.389 177.622 429.883 177.622H428.958V180.092H429.893C430.366 180.092 430.731 179.995 430.988 179.802C431.248 179.605 431.378 179.277 431.378 178.817ZM437.294 182.037H434.684L434.164 183.752H433.169L435.389 176.862H436.639L438.864 183.752H437.814L437.294 182.037ZM434.914 181.242H437.064L435.994 177.662L434.914 181.242ZM443.56 179.007C443.56 178.667 443.493 178.397 443.36 178.197C443.226 177.994 443.043 177.849 442.81 177.762C442.576 177.672 442.306 177.627 442 177.627H441.075V180.457H441.985C442.291 180.457 442.563 180.414 442.8 180.327C443.036 180.24 443.221 180.092 443.355 179.882C443.491 179.669 443.56 179.377 443.56 179.007ZM444.61 178.997C444.61 179.534 444.495 179.967 444.265 180.297C444.038 180.624 443.723 180.862 443.32 181.012C442.92 181.162 442.458 181.237 441.935 181.237H441.075V183.752H440.08V176.862H441.905C442.745 176.862 443.405 177.037 443.885 177.387C444.368 177.734 444.61 178.27 444.61 178.997ZM449.231 183.752V180.542H446.781V183.752H445.791V176.862H446.781V179.727H449.231V176.862H450.221V183.752H449.231ZM456.572 180.312C456.572 180.792 456.525 181.235 456.432 181.642C456.342 182.049 456.192 182.407 455.982 182.717C455.775 183.024 455.495 183.274 455.142 183.467C455.472 183.53 455.754 183.625 455.987 183.752C456.22 183.875 456.417 184.045 456.577 184.262C456.74 184.482 456.879 184.764 456.992 185.107L456.012 185.482C455.872 185.129 455.714 184.83 455.537 184.587C455.364 184.347 455.147 184.164 454.887 184.037C454.627 183.914 454.299 183.852 453.902 183.852C453.365 183.852 452.914 183.707 452.547 183.417C452.18 183.127 451.904 182.717 451.717 182.187C451.53 181.657 451.437 181.035 451.437 180.322C451.437 179.619 451.532 178.999 451.722 178.462C451.915 177.922 452.202 177.5 452.582 177.197C452.965 176.89 453.439 176.737 454.002 176.737C454.572 176.737 455.047 176.885 455.427 177.182C455.807 177.479 456.092 177.895 456.282 178.432C456.475 178.965 456.572 179.592 456.572 180.312ZM455.542 180.312C455.542 179.405 455.424 178.717 455.187 178.247C454.95 177.777 454.555 177.542 454.002 177.542C453.452 177.542 453.059 177.779 452.822 178.252C452.585 178.722 452.467 179.412 452.467 180.322C452.467 181.225 452.589 181.91 452.832 182.377C453.079 182.84 453.469 183.072 454.002 183.072C454.552 183.072 454.945 182.839 455.182 182.372C455.422 181.905 455.542 181.219 455.542 180.312ZM458.283 183.752V176.862H459.278V182.892H462.398L462.288 183.752H458.283ZM473.27 182.037H470.66L470.14 183.752H469.145L471.365 176.862H472.615L474.84 183.752H473.79L473.27 182.037ZM470.89 181.242H473.04L471.97 177.662L470.89 181.242ZM479.536 179.007C479.536 178.667 479.47 178.397 479.336 178.197C479.203 177.994 479.02 177.849 478.786 177.762C478.553 177.672 478.283 177.627 477.976 177.627H477.051V180.457H477.961C478.268 180.457 478.54 180.414 478.776 180.327C479.013 180.24 479.198 180.092 479.331 179.882C479.468 179.669 479.536 179.377 479.536 179.007ZM480.586 178.997C480.586 179.534 480.471 179.967 480.241 180.297C480.015 180.624 479.7 180.862 479.296 181.012C478.896 181.162 478.435 181.237 477.911 181.237H477.051V183.752H476.056V176.862H477.881C478.721 176.862 479.381 177.037 479.861 177.387C480.345 177.734 480.586 178.27 480.586 178.997ZM485.997 176.862V177.637H484.482V182.972H485.997V183.752H481.967V182.972H483.482V177.637H481.967V176.862H485.997Z" fill="#C363FF"/>
<rect x="587.75" y="83.75" width="118.5" height="44.5" rx="5.25" fill="#13222A"/>
<rect x="587.75" y="83.75" width="118.5" height="44.5" rx="5.25" stroke="#00FAB3" stroke-width="1.5"/>
<path d="M628.339 97.89V100.21H630.994V100.985H628.339V104H627.349V97.11H631.484L631.369 97.89H628.339ZM633.295 104V97.11H634.29V103.14H637.41L637.3 104H633.295ZM643.021 97.11V97.885H641.506V103.22H643.021V104H638.991V103.22H640.506V97.885H638.991V97.11H643.021ZM647.157 104.125C646.594 104.125 646.107 103.993 645.697 103.73C645.29 103.463 644.975 103.065 644.752 102.535C644.532 102.005 644.422 101.343 644.422 100.55C644.422 99.9567 644.502 99.4383 644.662 98.995C644.822 98.5483 645.039 98.1767 645.312 97.88C645.589 97.5833 645.902 97.36 646.252 97.21C646.605 97.06 646.974 96.985 647.357 96.985C647.817 96.985 648.199 97.0517 648.502 97.185C648.805 97.3183 649.092 97.51 649.362 97.76L648.782 98.36C648.572 98.1633 648.354 98.02 648.127 97.93C647.904 97.8367 647.652 97.79 647.372 97.79C647.125 97.79 646.889 97.8383 646.662 97.935C646.435 98.0317 646.232 98.1867 646.052 98.4C645.875 98.6133 645.734 98.8967 645.627 99.25C645.524 99.6 645.472 100.033 645.472 100.55C645.472 101.203 645.537 101.735 645.667 102.145C645.8 102.552 645.997 102.85 646.257 103.04C646.52 103.227 646.844 103.32 647.227 103.32C647.454 103.32 647.669 103.293 647.872 103.24C648.075 103.187 648.272 103.108 648.462 103.005V100.99H647.187L647.072 100.2H649.437V103.51C649.12 103.683 648.782 103.83 648.422 103.95C648.065 104.067 647.644 104.125 647.157 104.125ZM654.223 104V100.79H651.773V104H650.783V97.11H651.773V99.975H654.223V97.11H655.213V104H654.223ZM659.474 97.935V104H658.484V97.935H656.364V97.11H661.629L661.524 97.935H659.474ZM667.405 102.075C667.405 102.475 667.304 102.83 667.1 103.14C666.9 103.447 666.61 103.688 666.23 103.865C665.85 104.038 665.387 104.125 664.84 104.125C664.314 104.125 663.844 104.045 663.43 103.885C663.017 103.725 662.665 103.505 662.375 103.225L662.94 102.59C663.18 102.813 663.455 102.99 663.765 103.12C664.075 103.25 664.437 103.315 664.85 103.315C665.12 103.315 665.37 103.272 665.6 103.185C665.834 103.095 666.02 102.962 666.16 102.785C666.304 102.605 666.375 102.38 666.375 102.11C666.375 101.893 666.332 101.71 666.245 101.56C666.162 101.41 666.014 101.277 665.8 101.16C665.587 101.043 665.289 100.928 664.905 100.815C664.439 100.675 664.039 100.52 663.705 100.35C663.375 100.177 663.122 99.965 662.945 99.715C662.772 99.465 662.685 99.1583 662.685 98.795C662.685 98.4383 662.784 98.125 662.98 97.855C663.177 97.5817 663.447 97.3683 663.79 97.215C664.137 97.0617 664.532 96.985 664.975 96.985C665.459 96.985 665.88 97.055 666.24 97.195C666.604 97.3317 666.93 97.53 667.22 97.79L666.67 98.41C666.427 98.1933 666.164 98.0367 665.88 97.94C665.597 97.84 665.31 97.79 665.02 97.79C664.777 97.79 664.555 97.8267 664.355 97.9C664.155 97.97 663.995 98.075 663.875 98.215C663.759 98.355 663.7 98.5333 663.7 98.75C663.7 98.94 663.752 99.1033 663.855 99.24C663.959 99.3733 664.134 99.4983 664.38 99.615C664.627 99.7283 664.962 99.8483 665.385 99.975C665.755 100.082 666.094 100.215 666.4 100.375C666.707 100.535 666.95 100.75 667.13 101.02C667.314 101.287 667.405 101.638 667.405 102.075ZM617.176 115.125C616.613 115.125 616.126 114.993 615.716 114.73C615.31 114.463 614.995 114.065 614.771 113.535C614.551 113.005 614.441 112.343 614.441 111.55C614.441 110.957 614.521 110.438 614.681 109.995C614.841 109.548 615.058 109.177 615.331 108.88C615.608 108.583 615.921 108.36 616.271 108.21C616.625 108.06 616.993 107.985 617.376 107.985C617.836 107.985 618.218 108.052 618.521 108.185C618.825 108.318 619.111 108.51 619.381 108.76L618.801 109.36C618.591 109.163 618.373 109.02 618.146 108.93C617.923 108.837 617.671 108.79 617.391 108.79C617.145 108.79 616.908 108.838 616.681 108.935C616.455 109.032 616.251 109.187 616.071 109.4C615.895 109.613 615.753 109.897 615.646 110.25C615.543 110.6 615.491 111.033 615.491 111.55C615.491 112.203 615.556 112.735 615.686 113.145C615.82 113.552 616.016 113.85 616.276 114.04C616.54 114.227 616.863 114.32 617.246 114.32C617.473 114.32 617.688 114.293 617.891 114.24C618.095 114.187 618.291 114.108 618.481 114.005V111.99H617.206L617.091 111.2H619.456V114.51C619.14 114.683 618.801 114.83 618.441 114.95C618.085 115.067 617.663 115.125 617.176 115.125ZM625.433 110.065C625.433 110.408 625.359 110.707 625.213 110.96C625.069 111.213 624.874 111.425 624.628 111.595C624.381 111.762 624.104 111.885 623.798 111.965L625.803 115H624.628L622.813 112.095H621.958V115H620.963V108.11H622.798C623.664 108.11 624.319 108.275 624.763 108.605C625.209 108.932 625.433 109.418 625.433 110.065ZM624.378 110.065C624.378 109.642 624.254 109.337 624.008 109.15C623.764 108.963 623.389 108.87 622.883 108.87H621.958V111.34H622.893C623.366 111.34 623.731 111.243 623.988 111.05C624.248 110.853 624.378 110.525 624.378 110.065ZM630.294 113.285H627.684L627.164 115H626.169L628.389 108.11H629.639L631.864 115H630.814L630.294 113.285ZM627.914 112.49H630.064L628.994 108.91L627.914 112.49ZM636.56 110.255C636.56 109.915 636.493 109.645 636.36 109.445C636.226 109.242 636.043 109.097 635.81 109.01C635.576 108.92 635.306 108.875 635 108.875H634.075V111.705H634.985C635.291 111.705 635.563 111.662 635.8 111.575C636.036 111.488 636.221 111.34 636.355 111.13C636.491 110.917 636.56 110.625 636.56 110.255ZM637.61 110.245C637.61 110.782 637.495 111.215 637.265 111.545C637.038 111.872 636.723 112.11 636.32 112.26C635.92 112.41 635.458 112.485 634.935 112.485H634.075V115H633.08V108.11H634.905C635.745 108.11 636.405 108.285 636.885 108.635C637.368 108.982 637.61 109.518 637.61 110.245ZM642.231 115V111.79H639.781V115H638.791V108.11H639.781V110.975H642.231V108.11H643.221V115H642.231ZM649.572 111.56C649.572 112.04 649.525 112.483 649.432 112.89C649.342 113.297 649.192 113.655 648.982 113.965C648.775 114.272 648.495 114.522 648.142 114.715C648.472 114.778 648.754 114.873 648.987 115C649.22 115.123 649.417 115.293 649.577 115.51C649.74 115.73 649.879 116.012 649.992 116.355L649.012 116.73C648.872 116.377 648.714 116.078 648.537 115.835C648.364 115.595 648.147 115.412 647.887 115.285C647.627 115.162 647.299 115.1 646.902 115.1C646.365 115.1 645.914 114.955 645.547 114.665C645.18 114.375 644.904 113.965 644.717 113.435C644.53 112.905 644.437 112.283 644.437 111.57C644.437 110.867 644.532 110.247 644.722 109.71C644.915 109.17 645.202 108.748 645.582 108.445C645.965 108.138 646.439 107.985 647.002 107.985C647.572 107.985 648.047 108.133 648.427 108.43C648.807 108.727 649.092 109.143 649.282 109.68C649.475 110.213 649.572 110.84 649.572 111.56ZM648.542 111.56C648.542 110.653 648.424 109.965 648.187 109.495C647.95 109.025 647.555 108.79 647.002 108.79C646.452 108.79 646.059 109.027 645.822 109.5C645.585 109.97 645.467 110.66 645.467 111.57C645.467 112.473 645.589 113.158 645.832 113.625C646.079 114.088 646.469 114.32 647.002 114.32C647.552 114.32 647.945 114.087 648.182 113.62C648.422 113.153 648.542 112.467 648.542 111.56ZM651.283 115V108.11H652.278V114.14H655.398L655.288 115H651.283ZM666.27 113.285H663.66L663.14 115H662.145L664.365 108.11H665.615L667.84 115H666.79L666.27 113.285ZM663.89 112.49H666.04L664.97 108.91L663.89 112.49ZM672.536 110.255C672.536 109.915 672.47 109.645 672.336 109.445C672.203 109.242 672.02 109.097 671.786 109.01C671.553 108.92 671.283 108.875 670.976 108.875H670.051V111.705H670.961C671.268 111.705 671.54 111.662 671.776 111.575C672.013 111.488 672.198 111.34 672.331 111.13C672.468 110.917 672.536 110.625 672.536 110.255ZM673.586 110.245C673.586 110.782 673.471 111.215 673.241 111.545C673.015 111.872 672.7 112.11 672.296 112.26C671.896 112.41 671.435 112.485 670.911 112.485H670.051V115H669.056V108.11H670.881C671.721 108.11 672.381 108.285 672.861 108.635C673.345 108.982 673.586 109.518 673.586 110.245ZM678.997 108.11V108.885H677.482V114.22H678.997V115H674.967V114.22H676.482V108.885H674.967V108.11H678.997Z" fill="#00FAB3"/>
<rect x="205.75" y="15.938" width="95.5" height="44.5" rx="5.25" fill="#13222A"/>
<rect x="205.75" y="15.938" width="95.5" height="44.5" rx="5.25" stroke="#B03900" stroke-width="1.5"/>
<g clip-path="url(#clip1_709_2529)">
<path d="M215.536 34.688H222.536M215.536 37.688H218.036M215.536 40.688H218.036M218.036 43.688H214.536C214.271 43.688 214.017 43.5826 213.829 43.3951C213.641 43.2076 213.536 42.9532 213.536 42.688V31.688C213.536 31.4228 213.641 31.1684 213.829 30.9809C214.017 30.7933 214.271 30.688 214.536 30.688H221.622C221.887 30.688 222.141 30.7933 222.329 30.9807L224.243 32.8953C224.431 33.0828 224.536 33.337 224.536 33.602V34.688M223.536 41.188C223.536 41.4532 223.641 41.7076 223.829 41.8951C224.017 42.0826 224.271 42.188 224.536 42.188C224.801 42.188 225.056 42.0826 225.243 41.8951C225.431 41.7076 225.536 41.4532 225.536 41.188C225.536 40.9228 225.431 40.6684 225.243 40.4809C225.056 40.2933 224.801 40.188 224.536 40.188C224.271 40.188 224.017 40.2933 223.829 40.4809C223.641 40.6684 223.536 40.9228 223.536 41.188ZM225.385 37.3213L225.68 38.29C225.729 38.4508 225.837 38.5871 225.982 38.6714C226.127 38.7556 226.299 38.7816 226.463 38.744L227.444 38.5167C227.63 38.4747 227.825 38.4935 227.999 38.5701C228.174 38.6468 228.319 38.7773 228.414 38.9426C228.509 39.1079 228.549 39.2993 228.527 39.4887C228.506 39.6782 228.424 39.8557 228.294 39.9953L227.607 40.736C227.492 40.8593 227.428 41.0215 227.428 41.19C227.428 41.3584 227.492 41.5206 227.607 41.644L228.294 42.3847C228.424 42.5243 228.506 42.7018 228.527 42.8913C228.549 43.0807 228.509 43.2721 228.414 43.4374C228.319 43.6027 228.174 43.7332 227.999 43.8099C227.825 43.8865 227.63 43.9052 227.444 43.8633L226.463 43.636C226.299 43.5984 226.127 43.6243 225.982 43.7086C225.837 43.7929 225.729 43.9292 225.68 44.09L225.385 45.0547C225.331 45.2373 225.218 45.3975 225.065 45.5114C224.912 45.6252 224.727 45.6867 224.536 45.6867C224.345 45.6867 224.16 45.6252 224.007 45.5114C223.854 45.3975 223.742 45.2373 223.687 45.0547L223.392 44.086C223.344 43.9252 223.236 43.7889 223.09 43.7046C222.945 43.6203 222.773 43.5944 222.609 43.632L221.628 43.8593C221.442 43.9012 221.248 43.8825 221.073 43.8059C220.898 43.7292 220.753 43.5987 220.658 43.4334C220.563 43.2681 220.523 43.0767 220.545 42.8873C220.567 42.6978 220.648 42.5203 220.778 42.3807L221.465 41.64C221.58 41.5166 221.644 41.3544 221.644 41.186C221.644 41.0175 221.58 40.8553 221.465 40.732L220.778 39.9913C220.648 39.8517 220.567 39.6742 220.545 39.4847C220.523 39.2953 220.563 39.1039 220.658 38.9386C220.753 38.7733 220.898 38.6428 221.073 38.5661C221.248 38.4895 221.442 38.4707 221.628 38.5127L222.609 38.74C222.773 38.7776 222.945 38.7516 223.09 38.6674C223.236 38.5831 223.344 38.4468 223.392 38.286L223.687 37.3173C223.742 37.1348 223.855 36.9749 224.008 36.8613C224.161 36.7478 224.347 36.6868 224.538 36.6872C224.728 36.6877 224.914 36.7496 225.067 36.8638C225.219 36.9781 225.331 37.1385 225.385 37.3213Z" stroke="#FC5200" stroke-linecap="round" stroke-linejoin="round"/>
</g>
<path d="M244.244 34.473H241.634L241.114 36.188H240.119L242.339 29.298H243.589L245.814 36.188H244.764L244.244 34.473ZM241.864 33.678H244.014L242.944 30.098L241.864 33.678ZM250.51 31.443C250.51 31.103 250.443 30.833 250.31 30.633C250.177 30.4297 249.993 30.2847 249.76 30.198C249.527 30.108 249.257 30.063 248.95 30.063H248.025V32.893H248.935C249.242 32.893 249.513 32.8497 249.75 32.763C249.987 32.6763 250.172 32.528 250.305 32.318C250.442 32.1047 250.51 31.813 250.51 31.443ZM251.56 31.433C251.56 31.9697 251.445 32.403 251.215 32.733C250.988 33.0597 250.673 33.298 250.27 33.448C249.87 33.598 249.408 33.673 248.885 33.673H248.025V36.188H247.03V29.298H248.855C249.695 29.298 250.355 29.473 250.835 29.823C251.318 30.1697 251.56 30.7063 251.56 31.433ZM257.531 32.748C257.531 33.448 257.434 34.0663 257.241 34.603C257.048 35.1397 256.759 35.5597 256.376 35.863C255.996 36.163 255.523 36.313 254.956 36.313C254.393 36.313 253.919 36.1663 253.536 35.873C253.153 35.5763 252.864 35.1613 252.671 34.628C252.478 34.0947 252.381 33.4713 252.381 32.758C252.381 32.0547 252.478 31.4347 252.671 30.898C252.864 30.358 253.153 29.9363 253.536 29.633C253.919 29.3263 254.393 29.173 254.956 29.173C255.523 29.173 255.996 29.3213 256.376 29.618C256.759 29.9147 257.048 30.3313 257.241 30.868C257.434 31.4013 257.531 32.028 257.531 32.748ZM256.496 32.748C256.496 31.8413 256.376 31.153 256.136 30.683C255.899 30.213 255.506 29.978 254.956 29.978C254.406 29.978 254.011 30.2147 253.771 30.688C253.534 31.1613 253.416 31.8513 253.416 32.758C253.416 33.6613 253.539 34.3463 253.786 34.813C254.033 35.2763 254.423 35.508 254.956 35.508C255.506 35.508 255.899 35.2747 256.136 34.808C256.376 34.3413 256.496 33.6547 256.496 32.748ZM259.237 36.188V29.298H260.232V35.328H263.352L263.242 36.188H259.237ZM265.233 36.188V29.298H266.228V35.328H269.348L269.238 36.188H265.233ZM275.519 32.748C275.519 33.448 275.423 34.0663 275.229 34.603C275.036 35.1397 274.748 35.5597 274.364 35.863C273.984 36.163 273.511 36.313 272.944 36.313C272.381 36.313 271.908 36.1663 271.524 35.873C271.141 35.5763 270.853 35.1613 270.659 34.628C270.466 34.0947 270.369 33.4713 270.369 32.758C270.369 32.0547 270.466 31.4347 270.659 30.898C270.853 30.358 271.141 29.9363 271.524 29.633C271.908 29.3263 272.381 29.173 272.944 29.173C273.511 29.173 273.984 29.3213 274.364 29.618C274.748 29.9147 275.036 30.3313 275.229 30.868C275.423 31.4013 275.519 32.028 275.519 32.748ZM274.484 32.748C274.484 31.8413 274.364 31.153 274.124 30.683C273.888 30.213 273.494 29.978 272.944 29.978C272.394 29.978 271.999 30.2147 271.759 30.688C271.523 31.1613 271.404 31.8513 271.404 32.758C271.404 33.6613 271.528 34.3463 271.774 34.813C272.021 35.2763 272.411 35.508 272.944 35.508C273.494 35.508 273.888 35.2747 274.124 34.808C274.364 34.3413 274.484 33.6547 274.484 32.748ZM243.544 40.173C244.001 40.173 244.384 40.2313 244.694 40.348C245.007 40.4647 245.301 40.6347 245.574 40.858L245.039 41.488C244.826 41.3113 244.599 41.183 244.359 41.103C244.122 41.0197 243.871 40.978 243.604 40.978C243.244 40.978 242.909 41.0663 242.599 41.243C242.292 41.4197 242.046 41.7097 241.859 42.113C241.672 42.5163 241.579 43.058 241.579 43.738C241.579 44.4013 241.667 44.9347 241.844 45.338C242.024 45.738 242.266 46.0297 242.569 46.213C242.876 46.393 243.217 46.483 243.594 46.483C243.974 46.483 244.286 46.4247 244.529 46.308C244.776 46.188 244.992 46.0513 245.179 45.898L245.674 46.533C245.457 46.743 245.176 46.9263 244.829 47.083C244.486 47.2363 244.066 47.313 243.569 47.313C242.999 47.313 242.486 47.1763 242.029 46.903C241.572 46.6297 241.211 46.228 240.944 45.698C240.681 45.1647 240.549 44.5113 240.549 43.738C240.549 42.9647 240.684 42.313 240.954 41.783C241.227 41.253 241.591 40.853 242.044 40.583C242.501 40.3097 243.001 40.173 243.544 40.173ZM251.535 43.748C251.535 44.448 251.438 45.0663 251.245 45.603C251.052 46.1397 250.763 46.5597 250.38 46.863C250 47.163 249.527 47.313 248.96 47.313C248.397 47.313 247.923 47.1663 247.54 46.873C247.157 46.5763 246.868 46.1613 246.675 45.628C246.482 45.0947 246.385 44.4713 246.385 43.758C246.385 43.0547 246.482 42.4347 246.675 41.898C246.868 41.358 247.157 40.9363 247.54 40.633C247.923 40.3263 248.397 40.173 248.96 40.173C249.527 40.173 250 40.3213 250.38 40.618C250.763 40.9147 251.052 41.3313 251.245 41.868C251.438 42.4013 251.535 43.028 251.535 43.748ZM250.5 43.748C250.5 42.8413 250.38 42.153 250.14 41.683C249.903 41.213 249.51 40.978 248.96 40.978C248.41 40.978 248.015 41.2147 247.775 41.688C247.538 42.1613 247.42 42.8513 247.42 43.758C247.42 44.6613 247.543 45.3463 247.79 45.813C248.037 46.2763 248.427 46.508 248.96 46.508C249.51 46.508 249.903 46.2747 250.14 45.808C250.38 45.3413 250.5 44.6547 250.5 43.748ZM255.831 47.188L253.506 41.213C253.513 41.2997 253.523 41.4347 253.536 41.618C253.549 41.8013 253.564 42.0163 253.581 42.263C253.598 42.5097 253.611 42.7713 253.621 43.048C253.634 43.3247 253.641 43.5997 253.641 43.873V47.188H252.741V40.298H254.056L256.406 46.288C256.399 46.1747 256.384 45.9863 256.361 45.723C256.338 45.4563 256.316 45.1413 256.296 44.778C256.279 44.4113 256.271 44.023 256.271 43.613V40.298H257.171V47.188H255.831ZM261.827 47.188L259.502 41.213C259.509 41.2997 259.519 41.4347 259.532 41.618C259.545 41.8013 259.56 42.0163 259.577 42.263C259.594 42.5097 259.607 42.7713 259.617 43.048C259.63 43.3247 259.637 43.5997 259.637 43.873V47.188H258.737V40.298H260.052L262.402 46.288C262.395 46.1747 262.38 45.9863 262.357 45.723C262.334 45.4563 262.312 45.1413 262.292 44.778C262.275 44.4113 262.267 44.023 262.267 43.613V40.298H263.167V47.188H261.827ZM266.143 41.078V43.293H268.673V44.078H266.143V46.413H269.238V47.188H265.148V40.298H269.163L269.048 41.078H266.143ZM273.524 40.173C273.981 40.173 274.364 40.2313 274.674 40.348C274.988 40.4647 275.281 40.6347 275.554 40.858L275.019 41.488C274.806 41.3113 274.579 41.183 274.339 41.103C274.103 41.0197 273.851 40.978 273.584 40.978C273.224 40.978 272.889 41.0663 272.579 41.243C272.273 41.4197 272.026 41.7097 271.839 42.113C271.653 42.5163 271.559 43.058 271.559 43.738C271.559 44.4013 271.648 44.9347 271.824 45.338C272.004 45.738 272.246 46.0297 272.549 46.213C272.856 46.393 273.198 46.483 273.574 46.483C273.954 46.483 274.266 46.4247 274.509 46.308C274.756 46.188 274.973 46.0513 275.159 45.898L275.654 46.533C275.438 46.743 275.156 46.9263 274.809 47.083C274.466 47.2363 274.046 47.313 273.549 47.313C272.979 47.313 272.466 47.1763 272.009 46.903C271.553 46.6297 271.191 46.228 270.924 45.698C270.661 45.1647 270.529 44.5113 270.529 43.738C270.529 42.9647 270.664 42.313 270.934 41.783C271.208 41.253 271.571 40.853 272.024 40.583C272.481 40.3097 272.981 40.173 273.524 40.173ZM279.42 41.123V47.188H278.43V41.123H276.31V40.298H281.575L281.47 41.123H279.42ZM287.512 43.748C287.512 44.448 287.415 45.0663 287.222 45.603C287.028 46.1397 286.74 46.5597 286.357 46.863C285.977 47.163 285.503 47.313 284.937 47.313C284.373 47.313 283.9 47.1663 283.517 46.873C283.133 46.5763 282.845 46.1613 282.652 45.628C282.458 45.0947 282.362 44.4713 282.362 43.758C282.362 43.0547 282.458 42.4347 282.652 41.898C282.845 41.358 283.133 40.9363 283.517 40.633C283.9 40.3263 284.373 40.173 284.937 40.173C285.503 40.173 285.977 40.3213 286.357 40.618C286.74 40.9147 287.028 41.3313 287.222 41.868C287.415 42.4013 287.512 43.028 287.512 43.748ZM286.477 43.748C286.477 42.8413 286.357 42.153 286.117 41.683C285.88 41.213 285.487 40.978 284.937 40.978C284.387 40.978 283.992 41.2147 283.752 41.688C283.515 42.1613 283.397 42.8513 283.397 43.758C283.397 44.6613 283.52 45.3463 283.767 45.813C284.013 46.2763 284.403 46.508 284.937 46.508C285.487 46.508 285.88 46.2747 286.117 45.808C286.357 45.3413 286.477 44.6547 286.477 43.748ZM293.348 42.253C293.348 42.5963 293.274 42.8947 293.128 43.148C292.984 43.4013 292.789 43.613 292.543 43.783C292.296 43.9497 292.019 44.073 291.713 44.153L293.718 47.188H292.543L290.728 44.283H289.873V47.188H288.878V40.298H290.713C291.579 40.298 292.234 40.463 292.678 40.793C293.124 41.1197 293.348 41.6063 293.348 42.253ZM292.293 42.253C292.293 41.8297 292.169 41.5247 291.923 41.338C291.679 41.1513 291.304 41.058 290.798 41.058H289.873V43.528H290.808C291.281 43.528 291.646 43.4313 291.903 43.238C292.163 43.0413 292.293 42.713 292.293 42.253Z" fill="#FC5200"/>
<defs>
<clipPath id="clip0_709_2529">
<rect width="23.6792" height="23.6792" fill="white" transform="translate(19.1572 52.752)"/>
</clipPath>
<clipPath id="clip1_709_2529">
<rect width="16" height="16" fill="white" transform="translate(213.036 30.188)"/>
</clipPath>
</defs>
</svg>
