<svg width="800" height="286" viewBox="0 0 800 286" fill="none" xmlns="http://www.w3.org/2000/svg">
<path d="M627.727 144.451H461.188" stroke="#00FAB3" stroke-width="2"/>
<path d="M631.648 50.5298H566.762C555.717 50.5298 546.762 59.4841 546.762 70.5298V107.981C546.762 119.026 537.808 127.981 526.762 127.981H452.237" stroke="#FAD000" stroke-width="2"/>
<path d="M631.648 235.196H566.762C555.717 235.196 546.762 226.242 546.762 215.196V180.333C546.762 169.288 537.808 160.333 526.762 160.333H452.237" stroke="#C363FF" stroke-width="2"/>
<path d="M180.159 144.451H300.276" stroke="#CFD7D6" stroke-width="2" stroke-dasharray="4 4"/>
<rect x="292.027" y="107.75" width="170.5" height="70.5" rx="35.25" fill="#15252D"/>
<rect x="292.027" y="107.75" width="170.5" height="70.5" rx="35.25" stroke="#FC5200" stroke-width="1.5"/>
<g clip-path="url(#clip0_451_211)">
<path d="M343.676 143.895C346.269 144.708 347.813 146.27 347.813 149.219M347.813 149.219V150.032M347.813 149.219C347.813 146.27 349.357 144.708 351.951 143.895M347.813 149.219V139.25M346.345 139.25C346.284 139.25 346.224 139.234 346.172 139.203C346.119 139.173 346.075 139.129 346.045 139.076C346.015 139.023 345.999 138.963 346 138.902C346 138.841 346.017 138.781 346.047 138.729L347.516 136.125C347.546 136.073 347.59 136.03 347.642 136.001C347.694 135.971 347.753 135.955 347.813 135.955C347.873 135.955 347.932 135.971 347.984 136.001C348.037 136.03 348.08 136.073 348.111 136.125L349.579 138.728C349.61 138.781 349.627 138.841 349.627 138.902C349.628 138.963 349.612 139.023 349.582 139.076C349.551 139.128 349.508 139.173 349.455 139.203C349.402 139.234 349.342 139.25 349.281 139.25H346.345ZM344.321 142.338C344.344 142.281 344.352 142.22 344.344 142.159C344.335 142.099 344.311 142.041 344.274 141.993C344.237 141.945 344.187 141.907 344.131 141.884C344.074 141.861 344.013 141.854 343.952 141.862L341.077 142.266C341.018 142.275 340.961 142.298 340.913 142.335C340.866 142.372 340.828 142.421 340.805 142.476C340.782 142.532 340.774 142.593 340.782 142.653C340.79 142.713 340.813 142.769 340.849 142.818L342.594 145.134C342.631 145.183 342.68 145.221 342.737 145.245C342.793 145.268 342.854 145.277 342.915 145.269C342.975 145.261 343.033 145.238 343.081 145.201C343.13 145.164 343.168 145.115 343.191 145.058L343.754 143.698L344.321 142.338ZM351.306 142.338C351.282 142.281 351.274 142.22 351.283 142.159C351.291 142.099 351.315 142.041 351.352 141.993C351.389 141.945 351.439 141.907 351.495 141.884C351.552 141.861 351.613 141.854 351.674 141.862L354.549 142.266C354.608 142.275 354.665 142.298 354.713 142.335C354.761 142.372 354.798 142.421 354.821 142.476C354.844 142.532 354.852 142.593 354.844 142.653C354.837 142.713 354.813 142.769 354.777 142.818L353.032 145.134C352.995 145.183 352.946 145.221 352.89 145.245C352.833 145.268 352.772 145.277 352.711 145.269C352.651 145.261 352.593 145.238 352.545 145.201C352.496 145.164 352.458 145.115 352.435 145.058L351.872 143.698L351.306 142.338Z" stroke="#FC5200" stroke-linecap="round" stroke-linejoin="round"/>
</g>
<path d="M373.967 140.92C373.967 141.609 373.756 142.164 373.333 142.587C372.916 143.004 372.4 143.293 371.787 143.453L374.46 147.5H372.893L370.473 143.627H369.333V147.5H368.007V138.313H370.453C371.605 138.313 372.478 138.533 373.073 138.973C373.669 139.409 373.967 140.058 373.967 140.92ZM372.56 140.92C372.56 140.356 372.396 139.949 372.067 139.7C371.742 139.451 371.242 139.327 370.567 139.327H369.333V142.62H370.58C371.211 142.62 371.698 142.491 372.04 142.233C372.387 141.971 372.56 141.533 372.56 140.92ZM382.178 142.913C382.178 143.847 382.049 144.671 381.792 145.387C381.534 146.102 381.149 146.662 380.638 147.067C380.132 147.467 379.5 147.667 378.745 147.667C377.989 147.667 377.356 147.471 376.845 147.08C376.338 146.684 375.956 146.131 375.698 145.42C375.44 144.709 375.312 143.878 375.312 142.927C375.312 141.989 375.44 141.162 375.698 140.447C375.956 139.727 376.338 139.164 376.845 138.76C377.356 138.351 377.989 138.147 378.745 138.147C379.5 138.147 380.132 138.344 380.638 138.74C381.149 139.136 381.534 139.691 381.792 140.407C382.049 141.122 382.178 141.958 382.178 142.913ZM380.798 142.913C380.798 141.704 380.638 140.787 380.318 140.16C380.003 139.533 379.478 139.22 378.745 139.22C378.012 139.22 377.485 139.536 377.165 140.167C376.849 140.798 376.692 141.718 376.692 142.927C376.692 144.131 376.854 145.044 377.178 145.667C377.507 146.284 378.029 146.593 378.745 146.593C379.478 146.593 380.003 146.282 380.318 145.66C380.638 145.033 380.798 144.118 380.798 142.913ZM389.843 138.313V144.507C389.843 145.129 389.716 145.678 389.463 146.153C389.214 146.629 388.856 147 388.39 147.267C387.927 147.533 387.374 147.667 386.73 147.667C386.081 147.667 385.525 147.533 385.063 147.267C384.601 147 384.247 146.629 384.003 146.153C383.763 145.678 383.643 145.129 383.643 144.507V138.313H384.963V144.407C384.963 145.847 385.552 146.567 386.73 146.567C387.916 146.567 388.51 145.847 388.51 144.407V138.313H389.843ZM395.381 139.413V147.5H394.061V139.413H391.234V138.313H398.254L398.114 139.413H395.381ZM401.666 139.353V142.307H405.039V143.353H401.666V146.467H405.792V147.5H400.339V138.313H405.692L405.539 139.353H401.666ZM413.957 140.92C413.957 141.609 413.746 142.164 413.324 142.587C412.906 143.004 412.39 143.293 411.777 143.453L414.45 147.5H412.884L410.464 143.627H409.324V147.5H407.997V138.313H410.444C411.595 138.313 412.468 138.533 413.064 138.973C413.659 139.409 413.957 140.058 413.957 140.92ZM412.55 140.92C412.55 140.356 412.386 139.949 412.057 139.7C411.733 139.451 411.233 139.327 410.557 139.327H409.324V142.62H410.57C411.202 142.62 411.688 142.491 412.03 142.233C412.377 141.971 412.55 141.533 412.55 140.92Z" fill="#FC5200"/>
<rect x="628.027" y="13.1823" width="170.103" height="71.2449" rx="5.25" fill="#15252D"/>
<rect x="628.027" y="13.1823" width="170.103" height="71.2449" rx="5.25" stroke="#FAD000" stroke-width="1.5"/>
<g clip-path="url(#clip1_451_211)">
<path d="M660.687 51.4609H652.535M660.837 52.1834L657.545 54.1784M651.459 50.5234C651.749 50.5234 652.027 50.6387 652.232 50.8438C652.437 51.0489 652.552 51.3271 652.552 51.6172C652.552 51.9073 652.437 52.1855 652.232 52.3906C652.027 52.5957 651.749 52.7109 651.459 52.7109C651.168 52.7109 650.89 52.5957 650.685 52.3906C650.48 52.1855 650.365 51.9073 650.365 51.6172C650.365 51.3271 650.48 51.0489 650.685 50.8438C650.89 50.6387 651.168 50.5234 651.459 50.5234ZM651.459 50.5234V47.0841M661.771 50.5234C662.061 50.5234 662.339 50.6387 662.544 50.8438C662.75 51.0489 662.865 51.3271 662.865 51.6172C662.865 51.9073 662.75 52.1855 662.544 52.3906C662.339 52.5957 662.061 52.7109 661.771 52.7109C661.481 52.7109 661.203 52.5957 660.998 52.3906C660.793 52.1855 660.677 51.9073 660.677 51.6172C660.677 51.3271 660.793 51.0489 660.998 50.8438C661.203 50.6387 661.481 50.5234 661.771 50.5234ZM661.771 50.5234V47.0841M656.207 43.8766L652.162 50.7922M657.022 43.8766L661.068 50.7928M655.679 43.4341L652.393 45.4259M652.393 52.1834L655.685 54.1784M657.55 43.4341L660.837 45.4259M656.615 43.9609C656.905 43.9609 657.183 43.8457 657.388 43.6406C657.593 43.4355 657.709 43.1573 657.709 42.8672C657.709 42.5771 657.593 42.2989 657.388 42.0938C657.183 41.8887 656.905 41.7734 656.615 41.7734C656.325 41.7734 656.046 41.8887 655.841 42.0938C655.636 42.2989 655.521 42.5771 655.521 42.8672C655.521 43.1573 655.636 43.4355 655.841 43.6406C656.046 43.8457 656.325 43.9609 656.615 43.9609ZM651.459 47.0859C651.749 47.0859 652.027 46.9707 652.232 46.7656C652.437 46.5605 652.552 46.2823 652.552 45.9922C652.552 45.7021 652.437 45.4239 652.232 45.2188C652.027 45.0137 651.749 44.8984 651.459 44.8984C651.168 44.8984 650.89 45.0137 650.685 45.2188C650.48 45.4239 650.365 45.7021 650.365 45.9922C650.365 46.2823 650.48 46.5605 650.685 46.7656C650.89 46.9707 651.168 47.0859 651.459 47.0859ZM661.771 47.0859C662.061 47.0859 662.339 46.9707 662.544 46.7656C662.75 46.5605 662.865 46.2823 662.865 45.9922C662.865 45.7021 662.75 45.4239 662.544 45.2188C662.339 45.0137 662.061 44.8984 661.771 44.8984C661.481 44.8984 661.203 45.0137 660.998 45.2188C660.793 45.4239 660.677 45.7021 660.677 45.9922C660.677 46.2823 660.793 46.5605 660.998 46.7656C661.203 46.9707 661.481 47.0859 661.771 47.0859ZM656.615 55.8359C656.905 55.8359 657.183 55.7207 657.388 55.5156C657.593 55.3105 657.709 55.0323 657.709 54.7422C657.709 54.4521 657.593 54.1739 657.388 53.9688C657.183 53.7637 656.905 53.6484 656.615 53.6484C656.325 53.6484 656.046 53.7637 655.841 53.9688C655.636 54.1739 655.521 54.4521 655.521 54.7422C655.521 55.0323 655.636 55.3105 655.841 55.5156C656.046 55.7207 656.325 55.8359 656.615 55.8359Z" stroke="#FAD000" stroke-linecap="round" stroke-linejoin="round"/>
</g>
<path d="M679.644 52.9672C678.912 52.9672 678.279 52.796 677.746 52.4537C677.217 52.107 676.808 51.5892 676.518 50.9002C676.232 50.2112 676.089 49.351 676.089 48.3197C676.089 47.5484 676.193 46.8745 676.401 46.2982C676.609 45.7175 676.89 45.2344 677.246 44.8487C677.605 44.463 678.013 44.1727 678.468 43.9777C678.927 43.7827 679.406 43.6852 679.904 43.6852C680.502 43.6852 680.998 43.7719 681.393 43.9452C681.787 44.1185 682.16 44.3677 682.511 44.6927L681.757 45.4727C681.484 45.217 681.2 45.0307 680.905 44.9137C680.615 44.7924 680.288 44.7317 679.924 44.7317C679.603 44.7317 679.295 44.7945 679.001 44.9202C678.706 45.0459 678.442 45.2474 678.208 45.5247C677.978 45.802 677.794 46.1704 677.655 46.6297C677.521 47.0847 677.454 47.648 677.454 48.3197C677.454 49.169 677.538 49.8602 677.707 50.3932C677.88 50.9219 678.136 51.3097 678.474 51.5567C678.816 51.7994 679.237 51.9207 679.735 51.9207C680.03 51.9207 680.309 51.886 680.574 51.8167C680.838 51.7474 681.094 51.6455 681.341 51.5112V48.8917H679.683L679.534 47.8647H682.608V52.1677C682.196 52.393 681.757 52.5837 681.289 52.7397C680.825 52.8914 680.277 52.9672 679.644 52.9672ZM690.377 46.3892C690.377 46.8355 690.282 47.2234 690.091 47.5527C689.905 47.882 689.651 48.1572 689.331 48.3782C689.01 48.5949 688.65 48.7552 688.252 48.8592L690.858 52.8047H689.331L686.971 49.0282H685.86V52.8047H684.566V43.8477H686.952C688.078 43.8477 688.93 44.0622 689.506 44.4912C690.087 44.9159 690.377 45.5485 690.377 46.3892ZM689.006 46.3892C689.006 45.8389 688.845 45.4424 688.525 45.1997C688.208 44.957 687.721 44.8357 687.062 44.8357H685.86V48.0467H687.075C687.69 48.0467 688.165 47.921 688.499 47.6697C688.837 47.414 689.006 46.9872 689.006 46.3892ZM696.696 50.5752H693.303L692.627 52.8047H691.334L694.22 43.8477H695.845L698.737 52.8047H697.372L696.696 50.5752ZM693.602 49.5417H696.397L695.006 44.8877L693.602 49.5417ZM704.842 46.6362C704.842 46.1942 704.756 45.8432 704.582 45.5832C704.409 45.3189 704.171 45.1304 703.867 45.0177C703.564 44.9007 703.213 44.8422 702.814 44.8422H701.612V48.5212H702.795C703.194 48.5212 703.547 48.4649 703.854 48.3522C704.162 48.2395 704.403 48.0467 704.576 47.7737C704.754 47.4964 704.842 47.1172 704.842 46.6362ZM706.207 46.6232C706.207 47.3209 706.058 47.8842 705.759 48.3132C705.464 48.7379 705.055 49.0477 704.53 49.2427C704.01 49.4377 703.41 49.5352 702.73 49.5352H701.612V52.8047H700.318V43.8477H702.691C703.783 43.8477 704.641 44.0752 705.265 44.5302C705.893 44.9809 706.207 45.6785 706.207 46.6232ZM712.215 52.8047V48.6317H709.03V52.8047H707.743V43.8477H709.03V47.5722H712.215V43.8477H713.502V52.8047H712.215ZM721.758 48.3327C721.758 48.9567 721.698 49.533 721.576 50.0617C721.459 50.5904 721.264 51.0562 720.991 51.4592C720.723 51.8579 720.359 52.1829 719.899 52.4342C720.328 52.5165 720.694 52.64 720.998 52.8047C721.301 52.965 721.557 53.186 721.765 53.4677C721.977 53.7537 722.157 54.1199 722.304 54.5662L721.03 55.0537C720.848 54.5944 720.642 54.2065 720.413 53.8902C720.187 53.5782 719.906 53.3399 719.568 53.1752C719.23 53.0149 718.803 52.9347 718.287 52.9347C717.59 52.9347 717.002 52.7462 716.526 52.3692C716.049 51.9922 715.689 51.4592 715.447 50.7702C715.204 50.0812 715.083 49.273 715.083 48.3457C715.083 47.4314 715.206 46.6254 715.453 45.9277C715.705 45.2257 716.077 44.6775 716.571 44.2832C717.07 43.8845 717.685 43.6852 718.417 43.6852C719.158 43.6852 719.776 43.878 720.27 44.2637C720.764 44.6494 721.134 45.191 721.381 45.8887C721.633 46.582 721.758 47.3967 721.758 48.3327ZM720.419 48.3327C720.419 47.154 720.265 46.2592 719.958 45.6482C719.65 45.0372 719.137 44.7317 718.417 44.7317C717.702 44.7317 717.191 45.0394 716.883 45.6547C716.576 46.2657 716.422 47.1627 716.422 48.3457C716.422 49.52 716.58 50.4105 716.896 51.0172C717.217 51.6195 717.724 51.9207 718.417 51.9207C719.132 51.9207 719.644 51.6174 719.951 51.0107C720.263 50.404 720.419 49.5114 720.419 48.3327ZM723.983 52.8047V43.8477H725.276V51.6867H729.332L729.189 52.8047H723.983ZM743.466 50.5752H740.073L739.397 52.8047H738.104L740.99 43.8477H742.615L745.507 52.8047H744.142L743.466 50.5752ZM740.372 49.5417H743.167L741.776 44.8877L740.372 49.5417ZM751.612 46.6362C751.612 46.1942 751.525 45.8432 751.352 45.5832C751.179 45.3189 750.94 45.1304 750.637 45.0177C750.334 44.9007 749.983 44.8422 749.584 44.8422H748.381V48.5212H749.564C749.963 48.5212 750.316 48.4649 750.624 48.3522C750.932 48.2395 751.172 48.0467 751.345 47.7737C751.523 47.4964 751.612 47.1172 751.612 46.6362ZM752.977 46.6232C752.977 47.3209 752.827 47.8842 752.528 48.3132C752.234 48.7379 751.824 49.0477 751.3 49.2427C750.78 49.4377 750.18 49.5352 749.499 49.5352H748.381V52.8047H747.088V43.8477H749.46C750.552 43.8477 751.41 44.0752 752.034 44.5302C752.663 44.9809 752.977 45.6785 752.977 46.6232ZM760.011 43.8477V44.8552H758.042V51.7907H760.011V52.8047H754.772V51.7907H756.742V44.8552H754.772V43.8477H760.011ZM774.646 50.5752H771.253L770.577 52.8047H769.283L772.169 43.8477H773.794L776.687 52.8047H775.322L774.646 50.5752ZM771.552 49.5417H774.347L772.956 44.8877L771.552 49.5417Z" fill="#FAD000"/>
<rect x="628.027" y="107.378" width="170.103" height="71.2449" rx="5.25" fill="#15252D"/>
<rect x="628.027" y="107.378" width="170.103" height="71.2449" rx="5.25" stroke="#00FAB3" stroke-width="1.5"/>
<path d="M660.687 145.656H652.535M660.837 146.379L657.545 148.374M651.459 144.719C651.749 144.719 652.027 144.834 652.232 145.039C652.437 145.244 652.552 145.522 652.552 145.812C652.552 146.103 652.437 146.381 652.232 146.586C652.027 146.791 651.749 146.906 651.459 146.906C651.168 146.906 650.89 146.791 650.685 146.586C650.48 146.381 650.365 146.103 650.365 145.812C650.365 145.522 650.48 145.244 650.685 145.039C650.89 144.834 651.168 144.719 651.459 144.719ZM651.459 144.719V141.279M661.771 144.719C662.061 144.719 662.339 144.834 662.544 145.039C662.75 145.244 662.865 145.522 662.865 145.812C662.865 146.103 662.75 146.381 662.544 146.586C662.339 146.791 662.061 146.906 661.771 146.906C661.481 146.906 661.203 146.791 660.998 146.586C660.793 146.381 660.677 146.103 660.677 145.812C660.677 145.522 660.793 145.244 660.998 145.039C661.203 144.834 661.481 144.719 661.771 144.719ZM661.771 144.719V141.279M656.207 138.072L652.162 144.987M657.022 138.072L661.068 144.988M655.679 137.629L652.393 139.621M652.393 146.379L655.685 148.374M657.55 137.629L660.837 139.621M656.615 138.156C656.905 138.156 657.183 138.041 657.388 137.836C657.593 137.631 657.709 137.353 657.709 137.062C657.709 136.772 657.593 136.494 657.388 136.289C657.183 136.084 656.905 135.969 656.615 135.969C656.325 135.969 656.046 136.084 655.841 136.289C655.636 136.494 655.521 136.772 655.521 137.062C655.521 137.353 655.636 137.631 655.841 137.836C656.046 138.041 656.325 138.156 656.615 138.156ZM651.459 141.281C651.749 141.281 652.027 141.166 652.232 140.961C652.437 140.756 652.552 140.478 652.552 140.188C652.552 139.897 652.437 139.619 652.232 139.414C652.027 139.209 651.749 139.094 651.459 139.094C651.168 139.094 650.89 139.209 650.685 139.414C650.48 139.619 650.365 139.897 650.365 140.188C650.365 140.478 650.48 140.756 650.685 140.961C650.89 141.166 651.168 141.281 651.459 141.281ZM661.771 141.281C662.061 141.281 662.339 141.166 662.544 140.961C662.75 140.756 662.865 140.478 662.865 140.188C662.865 139.897 662.75 139.619 662.544 139.414C662.339 139.209 662.061 139.094 661.771 139.094C661.481 139.094 661.203 139.209 660.998 139.414C660.793 139.619 660.677 139.897 660.677 140.188C660.677 140.478 660.793 140.756 660.998 140.961C661.203 141.166 661.481 141.281 661.771 141.281ZM656.615 150.031C656.905 150.031 657.183 149.916 657.388 149.711C657.593 149.506 657.709 149.228 657.709 148.938C657.709 148.647 657.593 148.369 657.388 148.164C657.183 147.959 656.905 147.844 656.615 147.844C656.325 147.844 656.046 147.959 655.841 148.164C655.636 148.369 655.521 148.647 655.521 148.938C655.521 149.228 655.636 149.506 655.841 149.711C656.046 149.916 656.325 150.031 656.615 150.031Z" stroke="#00FAB3" stroke-linecap="round" stroke-linejoin="round"/>
<path d="M679.644 147.163C678.912 147.163 678.279 146.991 677.746 146.649C677.217 146.302 676.808 145.784 676.518 145.095C676.232 144.406 676.089 143.546 676.089 142.515C676.089 141.744 676.193 141.07 676.401 140.493C676.609 139.913 676.89 139.43 677.246 139.044C677.605 138.658 678.013 138.368 678.468 138.173C678.927 137.978 679.406 137.88 679.904 137.88C680.502 137.88 680.998 137.967 681.393 138.14C681.787 138.314 682.16 138.563 682.511 138.888L681.757 139.668C681.484 139.412 681.2 139.226 680.905 139.109C680.615 138.988 680.288 138.927 679.924 138.927C679.603 138.927 679.295 138.99 679.001 139.115C678.706 139.241 678.442 139.443 678.208 139.72C677.978 139.997 677.794 140.366 677.655 140.825C677.521 141.28 677.454 141.843 677.454 142.515C677.454 143.364 677.538 144.055 677.707 144.588C677.88 145.117 678.136 145.505 678.474 145.752C678.816 145.995 679.237 146.116 679.735 146.116C680.03 146.116 680.309 146.081 680.574 146.012C680.838 145.943 681.094 145.841 681.341 145.706V143.087H679.683L679.534 142.06H682.608V146.363C682.196 146.588 681.757 146.779 681.289 146.935C680.825 147.087 680.277 147.163 679.644 147.163ZM690.377 140.584C690.377 141.031 690.282 141.419 690.091 141.748C689.905 142.077 689.651 142.352 689.331 142.573C689.01 142.79 688.65 142.95 688.252 143.054L690.858 147H689.331L686.971 143.223H685.86V147H684.566V138.043H686.952C688.078 138.043 688.93 138.257 689.506 138.686C690.087 139.111 690.377 139.744 690.377 140.584ZM689.006 140.584C689.006 140.034 688.845 139.638 688.525 139.395C688.208 139.152 687.721 139.031 687.062 139.031H685.86V142.242H687.075C687.69 142.242 688.165 142.116 688.499 141.865C688.837 141.609 689.006 141.182 689.006 140.584ZM696.696 144.77H693.303L692.627 147H691.334L694.22 138.043H695.845L698.737 147H697.372L696.696 144.77ZM693.602 143.737H696.397L695.006 139.083L693.602 143.737ZM704.842 140.831C704.842 140.389 704.756 140.038 704.582 139.778C704.409 139.514 704.171 139.326 703.867 139.213C703.564 139.096 703.213 139.037 702.814 139.037H701.612V142.716H702.795C703.194 142.716 703.547 142.66 703.854 142.547C704.162 142.435 704.403 142.242 704.576 141.969C704.754 141.692 704.842 141.312 704.842 140.831ZM706.207 140.818C706.207 141.516 706.058 142.079 705.759 142.508C705.464 142.933 705.055 143.243 704.53 143.438C704.01 143.633 703.41 143.73 702.73 143.73H701.612V147H700.318V138.043H702.691C703.783 138.043 704.641 138.27 705.265 138.725C705.893 139.176 706.207 139.874 706.207 140.818ZM712.215 147V142.827H709.03V147H707.743V138.043H709.03V141.767H712.215V138.043H713.502V147H712.215ZM721.758 142.528C721.758 143.152 721.698 143.728 721.576 144.257C721.459 144.786 721.264 145.251 720.991 145.654C720.723 146.053 720.359 146.378 719.899 146.629C720.328 146.712 720.694 146.835 720.998 147C721.301 147.16 721.557 147.381 721.765 147.663C721.977 147.949 722.157 148.315 722.304 148.762L721.03 149.249C720.848 148.79 720.642 148.402 720.413 148.086C720.187 147.774 719.906 147.535 719.568 147.371C719.23 147.21 718.803 147.13 718.287 147.13C717.59 147.13 717.002 146.942 716.526 146.564C716.049 146.187 715.689 145.654 715.447 144.965C715.204 144.276 715.083 143.468 715.083 142.541C715.083 141.627 715.206 140.821 715.453 140.123C715.705 139.421 716.077 138.873 716.571 138.478C717.07 138.08 717.685 137.88 718.417 137.88C719.158 137.88 719.776 138.073 720.27 138.459C720.764 138.845 721.134 139.386 721.381 140.084C721.633 140.777 721.758 141.592 721.758 142.528ZM720.419 142.528C720.419 141.349 720.265 140.454 719.958 139.843C719.65 139.232 719.137 138.927 718.417 138.927C717.702 138.927 717.191 139.235 716.883 139.85C716.576 140.461 716.422 141.358 716.422 142.541C716.422 143.715 716.58 144.606 716.896 145.212C717.217 145.815 717.724 146.116 718.417 146.116C719.132 146.116 719.644 145.813 719.951 145.206C720.263 144.599 720.419 143.707 720.419 142.528ZM723.983 147V138.043H725.276V145.882H729.332L729.189 147H723.983ZM743.466 144.77H740.073L739.397 147H738.104L740.99 138.043H742.615L745.507 147H744.142L743.466 144.77ZM740.372 143.737H743.167L741.776 139.083L740.372 143.737ZM751.612 140.831C751.612 140.389 751.525 140.038 751.352 139.778C751.179 139.514 750.94 139.326 750.637 139.213C750.334 139.096 749.983 139.037 749.584 139.037H748.381V142.716H749.564C749.963 142.716 750.316 142.66 750.624 142.547C750.932 142.435 751.172 142.242 751.345 141.969C751.523 141.692 751.612 141.312 751.612 140.831ZM752.977 140.818C752.977 141.516 752.827 142.079 752.528 142.508C752.234 142.933 751.824 143.243 751.3 143.438C750.78 143.633 750.18 143.73 749.499 143.73H748.381V147H747.088V138.043H749.46C750.552 138.043 751.41 138.27 752.034 138.725C752.663 139.176 752.977 139.874 752.977 140.818ZM760.011 138.043V139.05H758.042V145.986H760.011V147H754.772V145.986H756.742V139.05H754.772V138.043H760.011ZM774.808 144.452C774.808 144.023 774.724 143.691 774.555 143.457C774.39 143.219 774.167 143.054 773.885 142.963C773.608 142.872 773.3 142.827 772.962 142.827H771.539V145.966H772.904C773.12 145.966 773.339 145.947 773.56 145.908C773.786 145.869 773.991 145.795 774.178 145.687C774.368 145.579 774.52 145.425 774.633 145.225C774.75 145.026 774.808 144.768 774.808 144.452ZM774.457 140.389C774.457 139.904 774.306 139.56 774.002 139.356C773.703 139.148 773.289 139.044 772.761 139.044H771.539V141.813H772.865C773.385 141.813 773.779 141.7 774.048 141.475C774.321 141.25 774.457 140.888 774.457 140.389ZM776.16 144.432C776.16 144.926 776.063 145.338 775.868 145.667C775.677 145.997 775.417 146.259 775.088 146.454C774.763 146.649 774.397 146.79 773.989 146.876C773.586 146.959 773.172 147 772.748 147H770.252V138.043H772.559C772.962 138.043 773.354 138.08 773.736 138.153C774.117 138.223 774.459 138.344 774.763 138.517C775.07 138.686 775.315 138.918 775.497 139.213C775.679 139.503 775.77 139.867 775.77 140.305C775.77 140.682 775.69 141.005 775.53 141.273C775.374 141.538 775.17 141.752 774.919 141.917C774.667 142.077 774.399 142.19 774.113 142.255C774.442 142.311 774.763 142.415 775.075 142.567C775.391 142.714 775.651 142.937 775.855 143.236C776.058 143.531 776.16 143.93 776.16 144.432Z" fill="#00FAB3"/>
<rect x="628.027" y="201.573" width="170.103" height="71.2449" rx="5.25" fill="#15252D"/>
<rect x="628.027" y="201.573" width="170.103" height="71.2449" rx="5.25" stroke="#C363FF" stroke-width="1.5"/>
<g clip-path="url(#clip2_451_211)">
<path d="M660.687 239.852H652.535M660.837 240.574L657.545 242.569M651.459 238.914C651.749 238.914 652.027 239.029 652.232 239.234C652.437 239.44 652.552 239.718 652.552 240.008C652.552 240.298 652.437 240.576 652.232 240.781C652.027 240.986 651.749 241.102 651.459 241.102C651.168 241.102 650.89 240.986 650.685 240.781C650.48 240.576 650.365 240.298 650.365 240.008C650.365 239.718 650.48 239.44 650.685 239.234C650.89 239.029 651.168 238.914 651.459 238.914ZM651.459 238.914V235.475M661.771 238.914C662.061 238.914 662.339 239.029 662.544 239.234C662.75 239.44 662.865 239.718 662.865 240.008C662.865 240.298 662.75 240.576 662.544 240.781C662.339 240.986 662.061 241.102 661.771 241.102C661.481 241.102 661.203 240.986 660.998 240.781C660.793 240.576 660.677 240.298 660.677 240.008C660.677 239.718 660.793 239.44 660.998 239.234C661.203 239.029 661.481 238.914 661.771 238.914ZM661.771 238.914V235.475M656.207 232.267L652.162 239.183M657.022 232.267L661.068 239.183M655.679 231.825L652.393 233.817M652.393 240.574L655.685 242.569M657.55 231.825L660.837 233.817M656.615 232.352C656.905 232.352 657.183 232.236 657.388 232.031C657.593 231.826 657.709 231.548 657.709 231.258C657.709 230.968 657.593 230.69 657.388 230.484C657.183 230.279 656.905 230.164 656.615 230.164C656.325 230.164 656.046 230.279 655.841 230.484C655.636 230.69 655.521 230.968 655.521 231.258C655.521 231.548 655.636 231.826 655.841 232.031C656.046 232.236 656.325 232.352 656.615 232.352ZM651.459 235.477C651.749 235.477 652.027 235.361 652.232 235.156C652.437 234.951 652.552 234.673 652.552 234.383C652.552 234.093 652.437 233.815 652.232 233.609C652.027 233.404 651.749 233.289 651.459 233.289C651.168 233.289 650.89 233.404 650.685 233.609C650.48 233.815 650.365 234.093 650.365 234.383C650.365 234.673 650.48 234.951 650.685 235.156C650.89 235.361 651.168 235.477 651.459 235.477ZM661.771 235.477C662.061 235.477 662.339 235.361 662.544 235.156C662.75 234.951 662.865 234.673 662.865 234.383C662.865 234.093 662.75 233.815 662.544 233.609C662.339 233.404 662.061 233.289 661.771 233.289C661.481 233.289 661.203 233.404 660.998 233.609C660.793 233.815 660.677 234.093 660.677 234.383C660.677 234.673 660.793 234.951 660.998 235.156C661.203 235.361 661.481 235.477 661.771 235.477ZM656.615 244.227C656.905 244.227 657.183 244.111 657.388 243.906C657.593 243.701 657.709 243.423 657.709 243.133C657.709 242.843 657.593 242.565 657.388 242.359C657.183 242.154 656.905 242.039 656.615 242.039C656.325 242.039 656.046 242.154 655.841 242.359C655.636 242.565 655.521 242.843 655.521 243.133C655.521 243.423 655.636 243.701 655.841 243.906C656.046 244.111 656.325 244.227 656.615 244.227Z" stroke="#C363FF" stroke-linecap="round" stroke-linejoin="round"/>
</g>
<path d="M679.644 241.358C678.912 241.358 678.279 241.187 677.746 240.844C677.217 240.498 676.808 239.98 676.518 239.291C676.232 238.602 676.089 237.742 676.089 236.71C676.089 235.939 676.193 235.265 676.401 234.689C676.609 234.108 676.89 233.625 677.246 233.239C677.605 232.854 678.013 232.563 678.468 232.368C678.927 232.173 679.406 232.076 679.904 232.076C680.502 232.076 680.998 232.162 681.393 232.336C681.787 232.509 682.16 232.758 682.511 233.083L681.757 233.863C681.484 233.608 681.2 233.421 680.905 233.304C680.615 233.183 680.288 233.122 679.924 233.122C679.603 233.122 679.295 233.185 679.001 233.311C678.706 233.436 678.442 233.638 678.208 233.915C677.978 234.193 677.794 234.561 677.655 235.02C677.521 235.475 677.454 236.039 677.454 236.71C677.454 237.56 677.538 238.251 677.707 238.784C677.88 239.312 678.136 239.7 678.474 239.947C678.816 240.19 679.237 240.311 679.735 240.311C680.03 240.311 680.309 240.277 680.574 240.207C680.838 240.138 681.094 240.036 681.341 239.902V237.282H679.683L679.534 236.255H682.608V240.558C682.196 240.784 681.757 240.974 681.289 241.13C680.825 241.282 680.277 241.358 679.644 241.358ZM690.377 234.78C690.377 235.226 690.282 235.614 690.091 235.943C689.905 236.273 689.651 236.548 689.331 236.769C689.01 236.985 688.65 237.146 688.252 237.25L690.858 241.195H689.331L686.971 237.419H685.86V241.195H684.566V232.238H686.952C688.078 232.238 688.93 232.453 689.506 232.882C690.087 233.306 690.377 233.939 690.377 234.78ZM689.006 234.78C689.006 234.229 688.845 233.833 688.525 233.59C688.208 233.348 687.721 233.226 687.062 233.226H685.86V236.437H687.075C687.69 236.437 688.165 236.312 688.499 236.06C688.837 235.805 689.006 235.378 689.006 234.78ZM696.696 238.966H693.303L692.627 241.195H691.334L694.22 232.238H695.845L698.737 241.195H697.372L696.696 238.966ZM693.602 237.932H696.397L695.006 233.278L693.602 237.932ZM704.842 235.027C704.842 234.585 704.756 234.234 704.582 233.974C704.409 233.709 704.171 233.521 703.867 233.408C703.564 233.291 703.213 233.233 702.814 233.233H701.612V236.912H702.795C703.194 236.912 703.547 236.855 703.854 236.743C704.162 236.63 704.403 236.437 704.576 236.164C704.754 235.887 704.842 235.508 704.842 235.027ZM706.207 235.014C706.207 235.711 706.058 236.275 705.759 236.704C705.464 237.128 705.055 237.438 704.53 237.633C704.01 237.828 703.41 237.926 702.73 237.926H701.612V241.195H700.318V232.238H702.691C703.783 232.238 704.641 232.466 705.265 232.921C705.893 233.371 706.207 234.069 706.207 235.014ZM712.215 241.195V237.022H709.03V241.195H707.743V232.238H709.03V235.963H712.215V232.238H713.502V241.195H712.215ZM721.758 236.723C721.758 237.347 721.698 237.924 721.576 238.452C721.459 238.981 721.264 239.447 720.991 239.85C720.723 240.248 720.359 240.573 719.899 240.825C720.328 240.907 720.694 241.031 720.998 241.195C721.301 241.356 721.557 241.577 721.765 241.858C721.977 242.144 722.157 242.51 722.304 242.957L721.03 243.444C720.848 242.985 720.642 242.597 720.413 242.281C720.187 241.969 719.906 241.73 719.568 241.566C719.23 241.405 718.803 241.325 718.287 241.325C717.59 241.325 717.002 241.137 716.526 240.76C716.049 240.383 715.689 239.85 715.447 239.161C715.204 238.472 715.083 237.664 715.083 236.736C715.083 235.822 715.206 235.016 715.453 234.318C715.705 233.616 716.077 233.068 716.571 232.674C717.07 232.275 717.685 232.076 718.417 232.076C719.158 232.076 719.776 232.269 720.27 232.654C720.764 233.04 721.134 233.582 721.381 234.279C721.633 234.973 721.758 235.787 721.758 236.723ZM720.419 236.723C720.419 235.545 720.265 234.65 719.958 234.039C719.65 233.428 719.137 233.122 718.417 233.122C717.702 233.122 717.191 233.43 716.883 234.045C716.576 234.656 716.422 235.553 716.422 236.736C716.422 237.911 716.58 238.801 716.896 239.408C717.217 240.01 717.724 240.311 718.417 240.311C719.132 240.311 719.644 240.008 719.951 239.401C720.263 238.795 720.419 237.902 720.419 236.723ZM723.983 241.195V232.238H725.276V240.077H729.332L729.189 241.195H723.983ZM743.466 238.966H740.073L739.397 241.195H738.104L740.99 232.238H742.615L745.507 241.195H744.142L743.466 238.966ZM740.372 237.932H743.167L741.776 233.278L740.372 237.932ZM751.612 235.027C751.612 234.585 751.525 234.234 751.352 233.974C751.179 233.709 750.94 233.521 750.637 233.408C750.334 233.291 749.983 233.233 749.584 233.233H748.381V236.912H749.564C749.963 236.912 750.316 236.855 750.624 236.743C750.932 236.63 751.172 236.437 751.345 236.164C751.523 235.887 751.612 235.508 751.612 235.027ZM752.977 235.014C752.977 235.711 752.827 236.275 752.528 236.704C752.234 237.128 751.824 237.438 751.3 237.633C750.78 237.828 750.18 237.926 749.499 237.926H748.381V241.195H747.088V232.238H749.46C750.552 232.238 751.41 232.466 752.034 232.921C752.663 233.371 752.977 234.069 752.977 235.014ZM760.011 232.238V233.246H758.042V240.181H760.011V241.195H754.772V240.181H756.742V233.246H754.772V232.238H760.011ZM773.736 232.076C774.329 232.076 774.828 232.152 775.231 232.303C775.638 232.455 776.019 232.676 776.375 232.966L775.679 233.785C775.402 233.556 775.107 233.389 774.795 233.285C774.488 233.176 774.16 233.122 773.814 233.122C773.346 233.122 772.91 233.237 772.507 233.467C772.109 233.696 771.788 234.073 771.545 234.598C771.303 235.122 771.181 235.826 771.181 236.71C771.181 237.573 771.296 238.266 771.526 238.79C771.76 239.31 772.074 239.689 772.468 239.928C772.867 240.162 773.311 240.279 773.801 240.279C774.295 240.279 774.7 240.203 775.016 240.051C775.337 239.895 775.619 239.718 775.861 239.518L776.505 240.344C776.223 240.617 775.857 240.855 775.406 241.059C774.96 241.258 774.414 241.358 773.768 241.358C773.027 241.358 772.36 241.18 771.766 240.825C771.173 240.469 770.702 239.947 770.356 239.258C770.013 238.565 769.842 237.716 769.842 236.71C769.842 235.705 770.018 234.858 770.369 234.169C770.724 233.48 771.196 232.96 771.786 232.609C772.379 232.253 773.029 232.076 773.736 232.076Z" fill="#C363FF"/>
<rect x="0.75" y="107.75" width="180.5" height="70.5" rx="5.25" fill="#15252D"/>
<rect x="0.75" y="107.75" width="180.5" height="70.5" rx="5.25" stroke="#CFD7D6" stroke-width="1.5"/>
<path d="M18.7733 127.147C19.3822 127.147 19.8933 127.224 20.3067 127.38C20.7244 127.536 21.1156 127.762 21.48 128.06L20.7667 128.9C20.4822 128.664 20.18 128.493 19.86 128.387C19.54 128.276 19.2044 128.22 18.8533 128.22C18.3689 128.22 17.9222 128.338 17.5133 128.573C17.1044 128.809 16.7756 129.196 16.5267 129.733C16.2778 130.271 16.1533 130.993 16.1533 131.9C16.1533 132.784 16.2711 133.496 16.5067 134.033C16.7467 134.567 17.0689 134.956 17.4733 135.2C17.8822 135.44 18.3378 135.56 18.84 135.56C19.3422 135.56 19.7578 135.482 20.0867 135.327C20.42 135.167 20.7089 134.984 20.9533 134.78L21.6133 135.627C21.3244 135.911 20.9489 136.156 20.4867 136.36C20.0289 136.564 19.4689 136.667 18.8067 136.667C18.0467 136.667 17.3622 136.484 16.7533 136.12C16.1489 135.756 15.6689 135.22 15.3133 134.513C14.9578 133.802 14.78 132.931 14.78 131.9C14.78 130.869 14.96 130 15.32 129.293C15.6844 128.587 16.1689 128.053 16.7733 127.693C17.3822 127.329 18.0489 127.147 18.7733 127.147ZM23.7114 136.5V127.313H25.038V135.353H29.198L29.0514 136.5H23.7114ZM36.6828 127.313V128.347H34.6628V135.46H36.6828V136.5H31.3094V135.46H33.3294V128.347H31.3094V127.313H36.6828ZM40.9208 128.353V131.307H44.2941V132.353H40.9208V135.467H45.0475V136.5H39.5941V127.313H44.9475L44.7941 128.353H40.9208ZM51.1589 136.5L48.0589 128.533C48.0677 128.689 48.0855 128.956 48.1122 129.333C48.1433 129.707 48.1722 130.138 48.1989 130.627C48.2255 131.111 48.2389 131.596 48.2389 132.08V136.5H47.0389V127.313H48.7922L51.9255 135.3C51.9166 135.149 51.8966 134.898 51.8655 134.547C51.8344 134.191 51.8055 133.771 51.7789 133.287C51.7566 132.802 51.7455 132.284 51.7455 131.733V127.313H52.9455V136.5H51.1589ZM58.6302 128.413V136.5H57.3102V128.413H54.4836V127.313H61.5036L61.3636 128.413H58.6302ZM75.693 134.213H72.213L71.5197 136.5H70.193L73.153 127.313H74.8197L77.7863 136.5H76.3863L75.693 134.213ZM72.5197 133.153H75.3863L73.9597 128.38L72.5197 133.153ZM85.451 130.16C85.451 130.876 85.2977 131.453 84.991 131.893C84.6888 132.329 84.2688 132.647 83.731 132.847C83.1933 133.047 82.5777 133.147 81.8844 133.147H80.7377V136.5H79.411V127.313H81.8444C82.9644 127.313 83.8444 127.547 84.4844 128.013C85.1288 128.476 85.451 129.191 85.451 130.16ZM84.051 130.173C84.051 129.498 83.8555 129.022 83.4644 128.747C83.0777 128.471 82.5799 128.333 81.971 128.333H80.7377V132.107H81.951C82.3599 132.107 82.7222 132.049 83.0377 131.933C83.3533 131.818 83.5999 131.62 83.7777 131.34C83.9599 131.06 84.051 130.671 84.051 130.173ZM93.4491 130.16C93.4491 130.876 93.2958 131.453 92.9891 131.893C92.6869 132.329 92.2669 132.647 91.7291 132.847C91.1913 133.047 90.5758 133.147 89.8824 133.147H88.7358V136.5H87.4091V127.313H89.8424C90.9624 127.313 91.8424 127.547 92.4824 128.013C93.1269 128.476 93.4491 129.191 93.4491 130.16ZM92.0491 130.173C92.0491 129.498 91.8535 129.022 91.4624 128.747C91.0758 128.471 90.578 128.333 89.9691 128.333H88.7358V132.107H89.9491C90.358 132.107 90.7202 132.049 91.0358 131.933C91.3513 131.818 91.598 131.62 91.7758 131.34C91.958 131.06 92.0491 130.671 92.0491 130.173ZM95.6938 136.5V127.313H97.0205V135.353H101.18L101.034 136.5H95.6938ZM108.665 127.313V128.347H106.645V135.46H108.665V136.5H103.292V135.46H105.312V128.347H103.292V127.313H108.665ZM114.75 127.147C115.359 127.147 115.87 127.224 116.283 127.38C116.701 127.536 117.092 127.762 117.457 128.06L116.743 128.9C116.459 128.664 116.157 128.493 115.837 128.387C115.517 128.276 115.181 128.22 114.83 128.22C114.345 128.22 113.899 128.338 113.49 128.573C113.081 128.809 112.752 129.196 112.503 129.733C112.254 130.271 112.13 130.993 112.13 131.9C112.13 132.784 112.248 133.496 112.483 134.033C112.723 134.567 113.045 134.956 113.45 135.2C113.859 135.44 114.314 135.56 114.817 135.56C115.319 135.56 115.734 135.482 116.063 135.327C116.397 135.167 116.685 134.984 116.93 134.78L117.59 135.627C117.301 135.911 116.925 136.156 116.463 136.36C116.005 136.564 115.445 136.667 114.783 136.667C114.023 136.667 113.339 136.484 112.73 136.12C112.125 135.756 111.645 135.22 111.29 134.513C110.934 133.802 110.757 132.931 110.757 131.9C110.757 130.869 110.937 130 111.297 129.293C111.661 128.587 112.145 128.053 112.75 127.693C113.359 127.329 114.025 127.147 114.75 127.147ZM123.681 134.213H120.201L119.508 136.5H118.181L121.141 127.313H122.808L125.775 136.5H124.375L123.681 134.213ZM120.508 133.153H123.375L121.948 128.38L120.508 133.153ZM130.613 128.413V136.5H129.293V128.413H126.466V127.313H133.486L133.346 128.413H130.613ZM140.657 127.313V128.347H138.637V135.46H140.657V136.5H135.284V135.46H137.304V128.347H135.284V127.313H140.657ZM149.402 131.913C149.402 132.847 149.273 133.671 149.015 134.387C148.758 135.102 148.373 135.662 147.862 136.067C147.355 136.467 146.724 136.667 145.969 136.667C145.213 136.667 144.58 136.471 144.069 136.08C143.562 135.684 143.18 135.131 142.922 134.42C142.664 133.709 142.535 132.878 142.535 131.927C142.535 130.989 142.664 130.162 142.922 129.447C143.18 128.727 143.562 128.164 144.069 127.76C144.58 127.351 145.213 127.147 145.969 127.147C146.724 127.147 147.355 127.344 147.862 127.74C148.373 128.136 148.758 128.691 149.015 129.407C149.273 130.122 149.402 130.958 149.402 131.913ZM148.022 131.913C148.022 130.704 147.862 129.787 147.542 129.16C147.227 128.533 146.702 128.22 145.969 128.22C145.235 128.22 144.709 128.536 144.389 129.167C144.073 129.798 143.915 130.718 143.915 131.927C143.915 133.131 144.078 134.044 144.402 134.667C144.731 135.284 145.253 135.593 145.969 135.593C146.702 135.593 147.227 135.282 147.542 134.66C147.862 134.033 148.022 133.118 148.022 131.913ZM155.133 136.5L152.033 128.533C152.042 128.689 152.06 128.956 152.087 129.333C152.118 129.707 152.147 130.138 152.173 130.627C152.2 131.111 152.213 131.596 152.213 132.08V136.5H151.013V127.313H152.767L155.9 135.3C155.891 135.149 155.871 134.898 155.84 134.547C155.809 134.191 155.78 133.771 155.753 133.287C155.731 132.802 155.72 132.284 155.72 131.733V127.313H156.92V136.5H155.133ZM165.185 133.933C165.185 134.467 165.049 134.94 164.778 135.353C164.512 135.762 164.123 136.084 163.612 136.32C163.105 136.551 162.489 136.667 161.765 136.667C161.063 136.667 160.436 136.56 159.885 136.347C159.334 136.133 158.865 135.84 158.478 135.467L159.232 134.62C159.552 134.918 159.918 135.153 160.332 135.327C160.745 135.5 161.227 135.587 161.778 135.587C162.138 135.587 162.472 135.529 162.778 135.413C163.089 135.293 163.338 135.116 163.525 134.88C163.716 134.64 163.812 134.34 163.812 133.98C163.812 133.696 163.754 133.453 163.638 133.253C163.527 133.049 163.329 132.869 163.045 132.713C162.76 132.558 162.363 132.404 161.852 132.253C161.229 132.071 160.696 131.864 160.252 131.633C159.812 131.398 159.474 131.116 159.238 130.787C159.007 130.453 158.892 130.044 158.892 129.56C158.892 129.084 159.023 128.667 159.285 128.307C159.547 127.942 159.907 127.658 160.365 127.453C160.823 127.249 161.349 127.147 161.945 127.147C162.589 127.147 163.152 127.24 163.632 127.427C164.116 127.613 164.552 127.878 164.938 128.22L164.205 129.047C163.876 128.758 163.523 128.549 163.145 128.42C162.772 128.287 162.392 128.22 162.005 128.22C161.516 128.22 161.1 128.327 160.758 128.54C160.416 128.749 160.245 129.069 160.245 129.5C160.245 129.758 160.314 129.978 160.452 130.16C160.589 130.338 160.82 130.502 161.145 130.653C161.474 130.804 161.923 130.964 162.492 131.133C162.985 131.28 163.434 131.46 163.838 131.673C164.247 131.882 164.574 132.167 164.818 132.527C165.063 132.882 165.185 133.351 165.185 133.933Z" fill="white"/>
<path d="M25.2712 152.414C25.6588 153.224 25.9643 154.071 26.1831 154.941C27.9231 154.429 29.0312 153.588 29.0312 152.566C29.0312 151.524 27.8812 150.669 26.0819 150.161" stroke="white" stroke-linecap="round" stroke-linejoin="round"/>
<path d="M18.7206 152.414C18.3834 151.69 18.1115 150.937 17.9081 150.164C16.1138 150.672 14.9706 151.526 14.9706 152.566C14.9706 153.586 16.075 154.427 17.81 154.941" stroke="white" stroke-linecap="round" stroke-linejoin="round"/>
<path d="M20.2656 149.739C20.7738 148.999 21.3548 148.312 22 147.687C20.6875 146.437 19.4044 145.898 18.5194 146.409C17.6169 146.929 17.4512 148.353 17.9112 150.166" stroke="white" stroke-linecap="round" stroke-linejoin="round"/>
<path d="M23.5413 155.413C23.0827 156.066 22.5669 156.678 22 157.241C23.3375 158.54 24.65 159.106 25.5506 158.586C26.4337 158.076 26.6094 156.699 26.185 154.941" stroke="white" stroke-linecap="round" stroke-linejoin="round"/>
<path d="M20.4518 155.412C19.557 155.343 18.6713 155.184 17.8081 154.938C17.3806 156.701 17.5581 158.081 18.4406 158.592C19.3425 159.113 20.6581 158.545 21.9981 157.241" stroke="white" stroke-linecap="round" stroke-linejoin="round"/>
<path d="M23.7275 149.739C24.5233 149.809 25.3112 149.951 26.0819 150.161C26.5387 148.353 26.3725 146.934 25.4719 146.411C24.5881 145.904 23.3088 146.437 22 147.687" stroke="white" stroke-linecap="round" stroke-linejoin="round"/>
<path d="M23.7275 149.739C23.1763 149.686 22.6025 149.655 22 149.655C21.3975 149.655 20.8194 149.686 20.2656 149.739C19.9813 150.149 19.7031 150.584 19.435 151.048C19.1669 151.511 18.935 151.966 18.7206 152.414C18.9506 152.918 19.2119 153.433 19.5119 153.953C19.8119 154.473 20.1294 154.959 20.4494 155.412C21.4773 155.5 22.5108 155.5 23.5388 155.413C24.212 154.472 24.7918 153.468 25.27 152.414C24.8336 151.48 24.3175 150.585 23.7275 149.739Z" stroke="white" stroke-linecap="round" stroke-linejoin="round"/>
<path d="M21.0625 152.566C21.0625 152.815 21.1613 153.053 21.3371 153.229C21.5129 153.405 21.7514 153.504 22 153.504C22.2486 153.504 22.4871 153.405 22.6629 153.229C22.8387 153.053 22.9375 152.815 22.9375 152.566C22.9375 152.318 22.8387 152.079 22.6629 151.903C22.4871 151.728 22.2486 151.629 22 151.629C21.7514 151.629 21.5129 151.728 21.3371 151.903C21.1613 152.079 21.0625 152.318 21.0625 152.566Z" stroke="white" stroke-linecap="round" stroke-linejoin="round"/>
<g clip-path="url(#clip3_451_211)">
<path d="M37.474 146.641V158.359L49.1927 146.641H37.474Z" stroke="white" stroke-linecap="round" stroke-linejoin="round"/>
<path d="M43.3334 152.5L49.1927 158.359H37.474" stroke="white" stroke-linecap="round" stroke-linejoin="round"/>
<path d="M43.3334 146.641L37.599 152.375" stroke="white" stroke-linecap="round" stroke-linejoin="round"/>
</g>
<path d="M65.6938 151.875C63.25 150.356 61.0813 146.975 61.0813 146.975C61.0813 146.975 62.875 151.694 66.1688 154.794C65.1077 154.853 64.0466 154.678 63.0606 154.281C62.0746 153.885 61.1877 153.277 60.4625 152.5C60.0037 152.041 59.599 151.532 59.2563 150.981C59.2342 150.954 59.2029 150.936 59.1684 150.93C59.1339 150.924 59.0985 150.931 59.0688 150.95C59.0345 150.968 59.0069 150.997 58.99 151.031C58.9731 151.066 58.9679 151.106 58.975 151.144C59.4078 152.697 60.242 154.109 61.3938 155.237C64.0563 157.9 67.725 158.637 70.0563 157.112C70.5061 157.25 70.969 157.34 71.4375 157.381C72.65 158.006 72.65 158.294 72.65 158.294C72.826 158.087 72.9465 157.84 73.0001 157.574C73.0537 157.308 73.0386 157.033 72.9563 156.775C73.021 156.489 72.9957 156.19 72.8838 155.919C72.7719 155.649 72.5789 155.419 72.3313 155.262L71.775 154.919C72.6188 152.619 71.775 149.506 69.4313 147.169C69.275 147.006 69.1125 146.856 68.9438 146.712C68.9153 146.687 68.8786 146.674 68.8406 146.674C68.8027 146.674 68.766 146.687 68.7375 146.712C68.7084 146.736 68.6882 146.768 68.6802 146.805C68.6722 146.841 68.677 146.879 68.6938 146.912C70.0125 149.006 70.2063 151.4 69.1313 153.025C67.118 151.284 65.3851 149.244 63.9938 146.975" stroke="white" stroke-linecap="round" stroke-linejoin="round"/>
<defs>
<clipPath id="clip0_451_211">
<rect width="16" height="16" fill="white" transform="translate(339.813 135)"/>
</clipPath>
<clipPath id="clip1_451_211">
<rect width="16" height="16" fill="white" transform="translate(648.615 40.8047)"/>
</clipPath>
<clipPath id="clip2_451_211">
<rect width="16" height="16" fill="white" transform="translate(648.615 229.195)"/>
</clipPath>
<clipPath id="clip3_451_211">
<rect width="13.3333" height="13.3333" fill="white" transform="translate(36.6667 145.833)"/>
</clipPath>
</defs>
</svg>
