<svg width="750" height="437" viewBox="0 0 750 437" fill="none" xmlns="http://www.w3.org/2000/svg">
<path d="M204.095 218.118H321" stroke="#CFD7D6" stroke-width="2" stroke-dasharray="4 4"/>
<rect x="22.4739" y="183.534" width="180.5" height="70.5" rx="5.25" fill="#15252D"/>
<rect x="22.4739" y="183.534" width="180.5" height="70.5" rx="5.25" stroke="#CFD7D6" stroke-width="1.5"/>
<path d="M40.4972 202.931C41.1061 202.931 41.6172 203.009 42.0305 203.164C42.4483 203.32 42.8394 203.546 43.2039 203.844L42.4905 204.684C42.2061 204.449 41.9039 204.278 41.5839 204.171C41.2639 204.06 40.9283 204.004 40.5772 204.004C40.0928 204.004 39.6461 204.122 39.2372 204.358C38.8283 204.593 38.4994 204.98 38.2505 205.518C38.0017 206.055 37.8772 206.778 37.8772 207.684C37.8772 208.569 37.995 209.28 38.2305 209.818C38.4705 210.351 38.7928 210.74 39.1972 210.984C39.6061 211.224 40.0617 211.344 40.5639 211.344C41.0661 211.344 41.4817 211.266 41.8105 211.111C42.1439 210.951 42.4328 210.769 42.6772 210.564L43.3372 211.411C43.0483 211.695 42.6728 211.94 42.2105 212.144C41.7528 212.349 41.1928 212.451 40.5305 212.451C39.7705 212.451 39.0861 212.269 38.4772 211.904C37.8728 211.54 37.3928 211.004 37.0372 210.298C36.6817 209.586 36.5039 208.715 36.5039 207.684C36.5039 206.653 36.6839 205.784 37.0439 205.078C37.4083 204.371 37.8928 203.838 38.4972 203.478C39.1061 203.113 39.7728 202.931 40.4972 202.931ZM45.4353 212.284V203.098H46.7619V211.138H50.9219L50.7753 212.284H45.4353ZM58.4066 203.098V204.131H56.3866V211.244H58.4066V212.284H53.0333V211.244H55.0533V204.131H53.0333V203.098H58.4066ZM62.6447 204.138V207.091H66.018V208.138H62.6447V211.251H66.7714V212.284H61.318V203.098H66.6714L66.518 204.138H62.6447ZM72.8827 212.284L69.7827 204.318C69.7916 204.473 69.8094 204.74 69.8361 205.118C69.8672 205.491 69.8961 205.922 69.9227 206.411C69.9494 206.895 69.9627 207.38 69.9627 207.864V212.284H68.7627V203.098H70.5161L73.6494 211.084C73.6405 210.933 73.6205 210.682 73.5894 210.331C73.5583 209.975 73.5294 209.555 73.5027 209.071C73.4805 208.586 73.4694 208.069 73.4694 207.518V203.098H74.6694V212.284H72.8827ZM80.3541 204.198V212.284H79.0341V204.198H76.2074V203.098H83.2274L83.0874 204.198H80.3541ZM97.4169 209.998H93.9369L93.2435 212.284H91.9169L94.8769 203.098H96.5435L99.5102 212.284H98.1102L97.4169 209.998ZM94.2435 208.938H97.1102L95.6835 204.164L94.2435 208.938ZM107.175 205.944C107.175 206.66 107.022 207.238 106.715 207.678C106.413 208.113 105.993 208.431 105.455 208.631C104.917 208.831 104.302 208.931 103.608 208.931H102.462V212.284H101.135V203.098H103.568C104.688 203.098 105.568 203.331 106.208 203.798C106.853 204.26 107.175 204.975 107.175 205.944ZM105.775 205.958C105.775 205.282 105.579 204.806 105.188 204.531C104.802 204.255 104.304 204.118 103.695 204.118H102.462V207.891H103.675C104.084 207.891 104.446 207.833 104.762 207.718C105.077 207.602 105.324 207.404 105.502 207.124C105.684 206.844 105.775 206.455 105.775 205.958ZM115.173 205.944C115.173 206.66 115.02 207.238 114.713 207.678C114.411 208.113 113.991 208.431 113.453 208.631C112.915 208.831 112.3 208.931 111.606 208.931H110.46V212.284H109.133V203.098H111.566C112.686 203.098 113.566 203.331 114.206 203.798C114.851 204.26 115.173 204.975 115.173 205.944ZM113.773 205.958C113.773 205.282 113.577 204.806 113.186 204.531C112.8 204.255 112.302 204.118 111.693 204.118H110.46V207.891H111.673C112.082 207.891 112.444 207.833 112.76 207.718C113.075 207.602 113.322 207.404 113.5 207.124C113.682 206.844 113.773 206.455 113.773 205.958ZM117.418 212.284V203.098H118.744V211.138H122.904L122.758 212.284H117.418ZM130.389 203.098V204.131H128.369V211.244H130.389V212.284H125.016V211.244H127.036V204.131H125.016V203.098H130.389ZM136.474 202.931C137.083 202.931 137.594 203.009 138.007 203.164C138.425 203.32 138.816 203.546 139.18 203.844L138.467 204.684C138.183 204.449 137.88 204.278 137.56 204.171C137.24 204.06 136.905 204.004 136.554 204.004C136.069 204.004 135.623 204.122 135.214 204.358C134.805 204.593 134.476 204.98 134.227 205.518C133.978 206.055 133.854 206.778 133.854 207.684C133.854 208.569 133.972 209.28 134.207 209.818C134.447 210.351 134.769 210.74 135.174 210.984C135.583 211.224 136.038 211.344 136.54 211.344C137.043 211.344 137.458 211.266 137.787 211.111C138.12 210.951 138.409 210.769 138.654 210.564L139.314 211.411C139.025 211.695 138.649 211.94 138.187 212.144C137.729 212.349 137.169 212.451 136.507 212.451C135.747 212.451 135.063 212.269 134.454 211.904C133.849 211.54 133.369 211.004 133.014 210.298C132.658 209.586 132.48 208.715 132.48 207.684C132.48 206.653 132.66 205.784 133.02 205.078C133.385 204.371 133.869 203.838 134.474 203.478C135.083 203.113 135.749 202.931 136.474 202.931ZM145.405 209.998H141.925L141.232 212.284H139.905L142.865 203.098H144.532L147.498 212.284H146.098L145.405 209.998ZM142.232 208.938H145.098L143.672 204.164L142.232 208.938ZM152.337 204.198V212.284H151.017V204.198H148.19V203.098H155.21L155.07 204.198H152.337ZM162.381 203.098V204.131H160.361V211.244H162.381V212.284H157.008V211.244H159.028V204.131H157.008V203.098H162.381ZM171.126 207.698C171.126 208.631 170.997 209.455 170.739 210.171C170.482 210.886 170.097 211.446 169.586 211.851C169.079 212.251 168.448 212.451 167.693 212.451C166.937 212.451 166.304 212.255 165.793 211.864C165.286 211.469 164.904 210.915 164.646 210.204C164.388 209.493 164.259 208.662 164.259 207.711C164.259 206.773 164.388 205.946 164.646 205.231C164.904 204.511 165.286 203.949 165.793 203.544C166.304 203.135 166.937 202.931 167.693 202.931C168.448 202.931 169.079 203.129 169.586 203.524C170.097 203.92 170.482 204.475 170.739 205.191C170.997 205.906 171.126 206.742 171.126 207.698ZM169.746 207.698C169.746 206.489 169.586 205.571 169.266 204.944C168.95 204.318 168.426 204.004 167.693 204.004C166.959 204.004 166.433 204.32 166.113 204.951C165.797 205.582 165.639 206.502 165.639 207.711C165.639 208.915 165.802 209.829 166.126 210.451C166.455 211.069 166.977 211.378 167.693 211.378C168.426 211.378 168.95 211.066 169.266 210.444C169.586 209.818 169.746 208.902 169.746 207.698ZM176.857 212.284L173.757 204.318C173.766 204.473 173.784 204.74 173.811 205.118C173.842 205.491 173.871 205.922 173.897 206.411C173.924 206.895 173.937 207.38 173.937 207.864V212.284H172.737V203.098H174.491L177.624 211.084C177.615 210.933 177.595 210.682 177.564 210.331C177.533 209.975 177.504 209.555 177.477 209.071C177.455 208.586 177.444 208.069 177.444 207.518V203.098H178.644V212.284H176.857ZM186.909 209.718C186.909 210.251 186.773 210.724 186.502 211.138C186.235 211.546 185.846 211.869 185.335 212.104C184.829 212.335 184.213 212.451 183.489 212.451C182.786 212.451 182.16 212.344 181.609 212.131C181.058 211.918 180.589 211.624 180.202 211.251L180.955 210.404C181.275 210.702 181.642 210.938 182.055 211.111C182.469 211.284 182.951 211.371 183.502 211.371C183.862 211.371 184.195 211.313 184.502 211.198C184.813 211.078 185.062 210.9 185.249 210.664C185.44 210.424 185.535 210.124 185.535 209.764C185.535 209.48 185.478 209.238 185.362 209.038C185.251 208.833 185.053 208.653 184.769 208.498C184.484 208.342 184.086 208.189 183.575 208.038C182.953 207.855 182.42 207.649 181.975 207.418C181.535 207.182 181.198 206.9 180.962 206.571C180.731 206.238 180.615 205.829 180.615 205.344C180.615 204.869 180.746 204.451 181.009 204.091C181.271 203.726 181.631 203.442 182.089 203.238C182.546 203.033 183.073 202.931 183.669 202.931C184.313 202.931 184.875 203.024 185.355 203.211C185.84 203.398 186.275 203.662 186.662 204.004L185.929 204.831C185.6 204.542 185.246 204.333 184.869 204.204C184.495 204.071 184.115 204.004 183.729 204.004C183.24 204.004 182.824 204.111 182.482 204.324C182.14 204.533 181.969 204.853 181.969 205.284C181.969 205.542 182.038 205.762 182.175 205.944C182.313 206.122 182.544 206.286 182.869 206.438C183.198 206.589 183.646 206.749 184.215 206.918C184.709 207.064 185.158 207.244 185.562 207.458C185.971 207.666 186.298 207.951 186.542 208.311C186.786 208.666 186.909 209.135 186.909 209.718Z" fill="white"/>
<g clip-path="url(#clip0_451_319)">
<path d="M46.9951 228.198C47.3827 229.008 47.6882 229.855 47.907 230.725C49.647 230.213 50.7551 229.372 50.7551 228.35C50.7551 227.308 49.6051 226.453 47.8057 225.945" stroke="white" stroke-linecap="round" stroke-linejoin="round"/>
<path d="M40.4445 228.198C40.1073 227.474 39.8354 226.721 39.632 225.948C37.8376 226.457 36.6945 227.31 36.6945 228.35C36.6945 229.37 37.7989 230.211 39.5339 230.725" stroke="white" stroke-linecap="round" stroke-linejoin="round"/>
<path d="M41.9895 225.524C42.4976 224.783 43.0787 224.096 43.7239 223.472C42.4114 222.222 41.1282 221.682 40.2432 222.193C39.3407 222.714 39.1751 224.137 39.6351 225.95" stroke="white" stroke-linecap="round" stroke-linejoin="round"/>
<path d="M45.2651 231.197C44.8066 231.85 44.2908 232.462 43.7239 233.025C45.0614 234.324 46.3739 234.89 47.2745 234.37C48.1576 233.86 48.3333 232.483 47.9089 230.725" stroke="white" stroke-linecap="round" stroke-linejoin="round"/>
<path d="M42.1757 231.196C41.2808 231.127 40.3951 230.968 39.532 230.722C39.1045 232.486 39.282 233.866 40.1645 234.377C41.0663 234.897 42.382 234.329 43.722 233.025" stroke="white" stroke-linecap="round" stroke-linejoin="round"/>
<path d="M45.4514 225.523C46.2472 225.593 47.0351 225.735 47.8058 225.945C48.2626 224.137 48.0964 222.718 47.1958 222.195C46.312 221.688 45.0326 222.222 43.7239 223.472" stroke="white" stroke-linecap="round" stroke-linejoin="round"/>
<path d="M45.4514 225.523C44.9001 225.47 44.3264 225.439 43.7239 225.439C43.1214 225.439 42.5433 225.47 41.9895 225.524C41.7051 225.933 41.427 226.369 41.1589 226.832C40.8908 227.295 40.6589 227.75 40.4445 228.199C40.6745 228.702 40.9358 229.217 41.2358 229.737C41.5358 230.257 41.8533 230.744 42.1733 231.196C43.2012 231.284 44.2347 231.284 45.2626 231.197C45.9359 230.256 46.5157 229.252 46.9939 228.199C46.5574 227.264 46.0414 226.369 45.4514 225.523Z" stroke="white" stroke-linecap="round" stroke-linejoin="round"/>
<path d="M42.7864 228.35C42.7864 228.599 42.8851 228.837 43.061 229.013C43.2368 229.189 43.4752 229.288 43.7239 229.288C43.9725 229.288 44.211 229.189 44.3868 229.013C44.5626 228.837 44.6614 228.599 44.6614 228.35C44.6614 228.102 44.5626 227.863 44.3868 227.687C44.211 227.512 43.9725 227.413 43.7239 227.413C43.4752 227.413 43.2368 227.512 43.061 227.687C42.8851 227.863 42.7864 228.102 42.7864 228.35Z" stroke="white" stroke-linecap="round" stroke-linejoin="round"/>
</g>
<g clip-path="url(#clip1_451_319)">
<path d="M59.1979 222.425V234.144L70.9166 222.425H59.1979Z" stroke="white" stroke-linecap="round" stroke-linejoin="round"/>
<path d="M65.0573 228.284L70.9166 234.144H59.1979" stroke="white" stroke-linecap="round" stroke-linejoin="round"/>
<path d="M65.0573 222.425L59.3229 228.159" stroke="white" stroke-linecap="round" stroke-linejoin="round"/>
</g>
<g clip-path="url(#clip2_451_319)">
<path d="M87.4176 227.659C84.9739 226.14 82.8051 222.759 82.8051 222.759C82.8051 222.759 84.5989 227.478 87.8926 230.578C86.8316 230.637 85.7705 230.462 84.7845 230.065C83.7985 229.669 82.9115 229.061 82.1864 228.284C81.7276 227.826 81.3229 227.316 80.9801 226.765C80.9581 226.738 80.9268 226.72 80.8923 226.714C80.8578 226.709 80.8223 226.716 80.7926 226.734C80.7584 226.752 80.7308 226.781 80.7139 226.816C80.697 226.85 80.6918 226.89 80.6989 226.928C81.1317 228.481 81.9659 229.893 83.1176 231.022C85.7801 233.684 89.4489 234.422 91.7801 232.897C92.23 233.034 92.6929 233.124 93.1614 233.165C94.3739 233.79 94.3739 234.078 94.3739 234.078C94.5499 233.872 94.6704 233.624 94.724 233.358C94.7776 233.092 94.7625 232.817 94.6801 232.559C94.7449 232.273 94.7196 231.975 94.6077 231.704C94.4958 231.433 94.3028 231.203 94.0551 231.047L93.4989 230.703C94.3426 228.403 93.4989 225.29 91.1551 222.953C90.9989 222.79 90.8364 222.64 90.6676 222.497C90.6391 222.472 90.6025 222.458 90.5645 222.458C90.5266 222.458 90.4899 222.472 90.4614 222.497C90.4323 222.52 90.412 222.552 90.4041 222.589C90.3961 222.625 90.4009 222.663 90.4176 222.697C91.7364 224.79 91.9301 227.184 90.8551 228.809C88.8418 227.069 87.109 225.028 85.7176 222.759" stroke="white" stroke-linecap="round" stroke-linejoin="round"/>
</g>
<rect x="-1" y="1" width="441.207" height="110.745" rx="7" transform="matrix(-1 0 0 1 744 21.6667)" fill="#FAD000" fill-opacity="0.1"/>
<rect x="-1" y="1" width="441.207" height="110.745" rx="7" transform="matrix(-1 0 0 1 744 21.6667)" stroke="#FAD000" stroke-width="2"/>
<rect x="555.147" y="42.4167" width="170.103" height="71.2449" rx="5.25" fill="#15252D"/>
<rect x="555.147" y="42.4167" width="170.103" height="71.2449" rx="5.25" stroke="#FAD000" stroke-width="1.5"/>
<path d="M590.068 78.0392V82.0392C590.068 82.0392 590.068 84.0392 594.734 84.0392C599.401 84.0392 599.401 82.0392 599.401 82.0392V78.0392" stroke="#FAD000"/>
<path d="M590.068 74.0392V78.0392C590.068 78.0392 590.068 80.0392 594.734 80.0392C599.401 80.0392 599.401 78.0392 599.401 78.0392V74.0392" stroke="#FAD000"/>
<path d="M594.734 72.0392C599.401 72.0392 599.401 74.0392 599.401 74.0392C599.401 74.0392 599.401 76.0392 594.734 76.0392C590.068 76.0392 590.068 74.0392 590.068 74.0392C590.068 74.0392 590.068 72.0392 594.734 72.0392Z" stroke="#FAD000"/>
<path d="M620.762 72.8525V79.0459C620.762 79.6681 620.636 80.217 620.382 80.6925C620.133 81.1681 619.776 81.5392 619.309 81.8059C618.847 82.0725 618.293 82.2059 617.649 82.2059C617 82.2059 616.444 82.0725 615.982 81.8059C615.52 81.5392 615.167 81.1681 614.922 80.6925C614.682 80.217 614.562 79.6681 614.562 79.0459V72.8525H615.882V78.9459C615.882 80.3859 616.471 81.1059 617.649 81.1059C618.836 81.1059 619.429 80.3859 619.429 78.9459V72.8525H620.762ZM628.88 79.4725C628.88 80.0059 628.745 80.4792 628.474 80.8925C628.207 81.3014 627.818 81.6236 627.307 81.8592C626.8 82.0903 626.185 82.2059 625.46 82.2059C624.758 82.2059 624.131 82.0992 623.58 81.8859C623.029 81.6725 622.56 81.3792 622.174 81.0059L622.927 80.1592C623.247 80.457 623.614 80.6925 624.027 80.8659C624.44 81.0392 624.923 81.1259 625.474 81.1259C625.834 81.1259 626.167 81.0681 626.474 80.9525C626.785 80.8325 627.034 80.6547 627.22 80.4192C627.411 80.1792 627.507 79.8792 627.507 79.5192C627.507 79.2347 627.449 78.9925 627.334 78.7925C627.223 78.5881 627.025 78.4081 626.74 78.2525C626.456 78.097 626.058 77.9436 625.547 77.7925C624.925 77.6103 624.391 77.4036 623.947 77.1725C623.507 76.937 623.169 76.6547 622.934 76.3259C622.703 75.9925 622.587 75.5836 622.587 75.0992C622.587 74.6236 622.718 74.2059 622.98 73.8459C623.243 73.4814 623.603 73.197 624.06 72.9925C624.518 72.7881 625.045 72.6859 625.64 72.6859C626.285 72.6859 626.847 72.7792 627.327 72.9659C627.811 73.1525 628.247 73.417 628.634 73.7592L627.9 74.5859C627.571 74.297 627.218 74.0881 626.84 73.9592C626.467 73.8259 626.087 73.7592 625.7 73.7592C625.211 73.7592 624.796 73.8659 624.454 74.0792C624.111 74.2881 623.94 74.6081 623.94 75.0392C623.94 75.297 624.009 75.517 624.147 75.6992C624.285 75.877 624.516 76.0414 624.84 76.1925C625.169 76.3436 625.618 76.5036 626.187 76.6725C626.68 76.8192 627.129 76.9992 627.534 77.2125C627.943 77.4214 628.269 77.7059 628.514 78.0659C628.758 78.4214 628.88 78.8903 628.88 79.4725ZM632.585 73.8925V76.8459H635.958V77.8925H632.585V81.0059H636.712V82.0392H631.258V72.8525H636.612L636.458 73.8925H632.585ZM644.876 75.4592C644.876 76.1481 644.665 76.7036 644.243 77.1259C643.825 77.5436 643.31 77.8325 642.696 77.9925L645.37 82.0392H643.803L641.383 78.1659H640.243V82.0392H638.916V72.8525H641.363C642.514 72.8525 643.388 73.0725 643.983 73.5125C644.579 73.9481 644.876 74.597 644.876 75.4592ZM643.47 75.4592C643.47 74.8947 643.305 74.4881 642.976 74.2392C642.652 73.9903 642.152 73.8659 641.476 73.8659H640.243V77.1592H641.49C642.121 77.1592 642.608 77.0303 642.95 76.7725C643.296 76.5103 643.47 76.0725 643.47 75.4592ZM652.874 79.4725C652.874 80.0059 652.739 80.4792 652.468 80.8925C652.201 81.3014 651.812 81.6236 651.301 81.8592C650.794 82.0903 650.179 82.2059 649.454 82.2059C648.752 82.2059 648.126 82.0992 647.574 81.8859C647.023 81.6725 646.554 81.3792 646.168 81.0059L646.921 80.1592C647.241 80.457 647.608 80.6925 648.021 80.8659C648.434 81.0392 648.917 81.1259 649.468 81.1259C649.828 81.1259 650.161 81.0681 650.468 80.9525C650.779 80.8325 651.028 80.6547 651.214 80.4192C651.406 80.1792 651.501 79.8792 651.501 79.5192C651.501 79.2347 651.443 78.9925 651.328 78.7925C651.217 78.5881 651.019 78.4081 650.734 78.2525C650.45 78.097 650.052 77.9436 649.541 77.7925C648.919 77.6103 648.386 77.4036 647.941 77.1725C647.501 76.937 647.163 76.6547 646.928 76.3259C646.697 75.9925 646.581 75.5836 646.581 75.0992C646.581 74.6236 646.712 74.2059 646.974 73.8459C647.237 73.4814 647.597 73.197 648.054 72.9925C648.512 72.7881 649.039 72.6859 649.634 72.6859C650.279 72.6859 650.841 72.7792 651.321 72.9659C651.806 73.1525 652.241 73.417 652.628 73.7592L651.894 74.5859C651.566 74.297 651.212 74.0881 650.834 73.9592C650.461 73.8259 650.081 73.7592 649.694 73.7592C649.206 73.7592 648.79 73.8659 648.448 74.0792C648.106 74.2881 647.934 74.6081 647.934 75.0392C647.934 75.297 648.003 75.517 648.141 75.6992C648.279 75.877 648.51 76.0414 648.834 76.1925C649.163 76.3436 649.612 76.5036 650.181 76.6725C650.674 76.8192 651.123 76.9992 651.528 77.2125C651.937 77.4214 652.263 77.7059 652.508 78.0659C652.752 78.4214 652.874 78.8903 652.874 79.4725ZM669.064 77.3992C669.064 78.3547 668.939 79.137 668.691 79.7459C668.442 80.3547 668.111 80.8259 667.697 81.1592C667.288 81.4881 666.837 81.717 666.344 81.8459C665.851 81.9747 665.357 82.0392 664.864 82.0392H662.697V72.8525H664.717C665.264 72.8525 665.795 72.9125 666.311 73.0325C666.826 73.1525 667.291 73.3747 667.704 73.6992C668.122 74.0192 668.453 74.477 668.697 75.0725C668.942 75.6681 669.064 76.4436 669.064 77.3992ZM667.664 77.3992C667.664 76.6303 667.584 76.0125 667.424 75.5459C667.268 75.0792 667.059 74.7281 666.797 74.4925C666.535 74.257 666.246 74.0992 665.931 74.0192C665.619 73.9392 665.308 73.8992 664.997 73.8992H664.017V81.0059H665.011C665.335 81.0059 665.655 80.9547 665.971 80.8525C666.286 80.7503 666.571 80.5681 666.824 80.3059C667.082 80.0436 667.286 79.677 667.437 79.2059C667.588 78.7347 667.664 78.1325 667.664 77.3992ZM675.355 79.7525H671.875L671.182 82.0392H669.855L672.815 72.8525H674.482L677.449 82.0392H676.049L675.355 79.7525ZM672.182 78.6925H675.049L673.622 73.9192L672.182 78.6925ZM682.287 73.9525V82.0392H680.967V73.9525H678.14V72.8525H685.16L685.02 73.9525H682.287ZM691.351 79.7525H687.871L687.178 82.0392H685.851L688.811 72.8525H690.478L693.445 82.0392H692.045L691.351 79.7525ZM688.178 78.6925H691.045L689.618 73.9192L688.178 78.6925Z" fill="#FAD000"/>
<path d="M554.397 78.0392H494.397" stroke="#FAD000" stroke-width="2"/>
<rect x="323.543" y="42.4167" width="170.103" height="71.2449" rx="5.25" fill="#15252D"/>
<rect x="323.543" y="42.4167" width="170.103" height="71.2449" rx="5.25" stroke="#FAD000" stroke-width="1.5"/>
<g clip-path="url(#clip3_451_319)">
<path d="M371.203 80.6954H363.052M371.353 81.4179L368.061 83.4129M361.975 79.7579C362.265 79.7579 362.543 79.8732 362.748 80.0783C362.953 80.2834 363.069 80.5616 363.069 80.8517C363.069 81.1418 362.953 81.42 362.748 81.6251C362.543 81.8302 362.265 81.9454 361.975 81.9454C361.685 81.9454 361.407 81.8302 361.201 81.6251C360.996 81.42 360.881 81.1418 360.881 80.8517C360.881 80.5616 360.996 80.2834 361.201 80.0783C361.407 79.8732 361.685 79.7579 361.975 79.7579ZM361.975 79.7579V76.3186M372.287 79.7579C372.577 79.7579 372.856 79.8732 373.061 80.0783C373.266 80.2834 373.381 80.5616 373.381 80.8517C373.381 81.1418 373.266 81.42 373.061 81.6251C372.856 81.8302 372.577 81.9454 372.287 81.9454C371.997 81.9454 371.719 81.8302 371.514 81.6251C371.309 81.42 371.194 81.1418 371.194 80.8517C371.194 80.5616 371.309 80.2834 371.514 80.0783C371.719 79.8732 371.997 79.7579 372.287 79.7579ZM372.287 79.7579V76.3186M366.724 73.1111L362.678 80.0267M367.539 73.1111L371.584 80.0273M366.195 72.6686L362.909 74.6604M362.909 81.4179L366.201 83.4129M368.067 72.6686L371.353 74.6604M367.131 73.1954C367.421 73.1954 367.699 73.0802 367.904 72.8751C368.11 72.67 368.225 72.3918 368.225 72.1017C368.225 71.8116 368.11 71.5334 367.904 71.3283C367.699 71.1232 367.421 71.0079 367.131 71.0079C366.841 71.0079 366.563 71.1232 366.358 71.3283C366.153 71.5334 366.037 71.8116 366.037 72.1017C366.037 72.3918 366.153 72.67 366.358 72.8751C366.563 73.0802 366.841 73.1954 367.131 73.1954ZM361.975 76.3204C362.265 76.3204 362.543 76.2052 362.748 76.0001C362.953 75.795 363.069 75.5168 363.069 75.2267C363.069 74.9366 362.953 74.6584 362.748 74.4533C362.543 74.2482 362.265 74.1329 361.975 74.1329C361.685 74.1329 361.407 74.2482 361.201 74.4533C360.996 74.6584 360.881 74.9366 360.881 75.2267C360.881 75.5168 360.996 75.795 361.201 76.0001C361.407 76.2052 361.685 76.3204 361.975 76.3204ZM372.287 76.3204C372.577 76.3204 372.856 76.2052 373.061 76.0001C373.266 75.795 373.381 75.5168 373.381 75.2267C373.381 74.9366 373.266 74.6584 373.061 74.4533C372.856 74.2482 372.577 74.1329 372.287 74.1329C371.997 74.1329 371.719 74.2482 371.514 74.4533C371.309 74.6584 371.194 74.9366 371.194 75.2267C371.194 75.5168 371.309 75.795 371.514 76.0001C371.719 76.2052 371.997 76.3204 372.287 76.3204ZM367.131 85.0704C367.421 85.0704 367.699 84.9552 367.904 84.7501C368.11 84.545 368.225 84.2668 368.225 83.9767C368.225 83.6866 368.11 83.4084 367.904 83.2033C367.699 82.9982 367.421 82.8829 367.131 82.8829C366.841 82.8829 366.563 82.9982 366.358 83.2033C366.153 83.4084 366.037 83.6866 366.037 83.9767C366.037 84.2668 366.153 84.545 366.358 84.7501C366.563 84.9552 366.841 85.0704 367.131 85.0704Z" stroke="#FAD000" stroke-linecap="round" stroke-linejoin="round"/>
</g>
<path d="M393.159 72.8525V79.0459C393.159 79.6681 393.032 80.217 392.779 80.6925C392.53 81.1681 392.172 81.5392 391.706 81.8059C391.243 82.0725 390.69 82.2059 390.046 82.2059C389.397 82.2059 388.841 82.0725 388.379 81.8059C387.917 81.5392 387.563 81.1681 387.319 80.6925C387.079 80.217 386.959 79.6681 386.959 79.0459V72.8525H388.279V78.9459C388.279 80.3859 388.868 81.1059 390.046 81.1059C391.232 81.1059 391.826 80.3859 391.826 78.9459V72.8525H393.159ZM401.277 79.4725C401.277 80.0059 401.141 80.4792 400.87 80.8925C400.604 81.3014 400.215 81.6236 399.704 81.8592C399.197 82.0903 398.581 82.2059 397.857 82.2059C397.155 82.2059 396.528 82.0992 395.977 81.8859C395.426 81.6725 394.957 81.3792 394.57 81.0059L395.324 80.1592C395.644 80.457 396.01 80.6925 396.424 80.8659C396.837 81.0392 397.319 81.1259 397.87 81.1259C398.23 81.1259 398.564 81.0681 398.87 80.9525C399.181 80.8325 399.43 80.6547 399.617 80.4192C399.808 80.1792 399.904 79.8792 399.904 79.5192C399.904 79.2347 399.846 78.9925 399.73 78.7925C399.619 78.5881 399.421 78.4081 399.137 78.2525C398.853 78.097 398.455 77.9436 397.944 77.7925C397.321 77.6103 396.788 77.4036 396.344 77.1725C395.904 76.937 395.566 76.6547 395.33 76.3259C395.099 75.9925 394.984 75.5836 394.984 75.0992C394.984 74.6236 395.115 74.2059 395.377 73.8459C395.639 73.4814 395.999 73.197 396.457 72.9925C396.915 72.7881 397.441 72.6859 398.037 72.6859C398.681 72.6859 399.244 72.7792 399.724 72.9659C400.208 73.1525 400.644 73.417 401.03 73.7592L400.297 74.5859C399.968 74.297 399.615 74.0881 399.237 73.9592C398.864 73.8259 398.484 73.7592 398.097 73.7592C397.608 73.7592 397.193 73.8659 396.85 74.0792C396.508 74.2881 396.337 74.6081 396.337 75.0392C396.337 75.297 396.406 75.517 396.544 75.6992C396.681 75.877 396.913 76.0414 397.237 76.1925C397.566 76.3436 398.015 76.5036 398.584 76.6725C399.077 76.8192 399.526 76.9992 399.93 77.2125C400.339 77.4214 400.666 77.7059 400.91 78.0659C401.155 78.4214 401.277 78.8903 401.277 79.4725ZM404.982 73.8925V76.8459H408.355V77.8925H404.982V81.0059H409.108V82.0392H403.655V72.8525H409.008L408.855 73.8925H404.982ZM417.273 75.4592C417.273 76.1481 417.062 76.7036 416.64 77.1259C416.222 77.5436 415.706 77.8325 415.093 77.9925L417.766 82.0392H416.2L413.78 78.1659H412.64V82.0392H411.313V72.8525H413.76C414.911 72.8525 415.784 73.0725 416.38 73.5125C416.975 73.9481 417.273 74.597 417.273 75.4592ZM415.866 75.4592C415.866 74.8947 415.702 74.4881 415.373 74.2392C415.049 73.9903 414.549 73.8659 413.873 73.8659H412.64V77.1592H413.886C414.517 77.1592 415.004 77.0303 415.346 76.7725C415.693 76.5103 415.866 76.0725 415.866 75.4592ZM425.271 79.4725C425.271 80.0059 425.136 80.4792 424.864 80.8925C424.598 81.3014 424.209 81.6236 423.698 81.8592C423.191 82.0903 422.576 82.2059 421.851 82.2059C421.149 82.2059 420.522 82.0992 419.971 81.8859C419.42 81.6725 418.951 81.3792 418.564 81.0059L419.318 80.1592C419.638 80.457 420.004 80.6925 420.418 80.8659C420.831 81.0392 421.313 81.1259 421.864 81.1259C422.224 81.1259 422.558 81.0681 422.864 80.9525C423.176 80.8325 423.424 80.6547 423.611 80.4192C423.802 80.1792 423.898 79.8792 423.898 79.5192C423.898 79.2347 423.84 78.9925 423.724 78.7925C423.613 78.5881 423.416 78.4081 423.131 78.2525C422.847 78.097 422.449 77.9436 421.938 77.7925C421.316 77.6103 420.782 77.4036 420.338 77.1725C419.898 76.937 419.56 76.6547 419.324 76.3259C419.093 75.9925 418.978 75.5836 418.978 75.0992C418.978 74.6236 419.109 74.2059 419.371 73.8459C419.633 73.4814 419.993 73.197 420.451 72.9925C420.909 72.7881 421.436 72.6859 422.031 72.6859C422.676 72.6859 423.238 72.7792 423.718 72.9659C424.202 73.1525 424.638 73.417 425.024 73.7592L424.291 74.5859C423.962 74.297 423.609 74.0881 423.231 73.9592C422.858 73.8259 422.478 73.7592 422.091 73.7592C421.602 73.7592 421.187 73.8659 420.844 74.0792C420.502 74.2881 420.331 74.6081 420.331 75.0392C420.331 75.297 420.4 75.517 420.538 75.6992C420.676 75.877 420.907 76.0414 421.231 76.1925C421.56 76.3436 422.009 76.5036 422.578 76.6725C423.071 76.8192 423.52 76.9992 423.924 77.2125C424.333 77.4214 424.66 77.7059 424.904 78.0659C425.149 78.4214 425.271 78.8903 425.271 79.4725ZM439.754 79.7525H436.274L435.581 82.0392H434.254L437.214 72.8525H438.881L441.847 82.0392H440.447L439.754 79.7525ZM436.581 78.6925H439.447L438.021 73.9192L436.581 78.6925ZM449.512 75.6992C449.512 76.4147 449.359 76.9925 449.052 77.4325C448.75 77.8681 448.33 78.1859 447.792 78.3859C447.254 78.5859 446.639 78.6859 445.945 78.6859H444.799V82.0392H443.472V72.8525H445.905C447.025 72.8525 447.905 73.0859 448.545 73.5525C449.19 74.0147 449.512 74.7303 449.512 75.6992ZM448.112 75.7125C448.112 75.037 447.916 74.5614 447.525 74.2859C447.139 74.0103 446.641 73.8725 446.032 73.8725H444.799V77.6459H446.012C446.421 77.6459 446.783 77.5881 447.099 77.4725C447.414 77.357 447.661 77.1592 447.839 76.8792C448.021 76.5992 448.112 76.2103 448.112 75.7125ZM456.73 72.8525V73.8859H454.71V80.9992H456.73V82.0392H451.357V80.9992H453.377V73.8859H451.357V72.8525H456.73Z" fill="#FAD000"/>
<rect x="-1" y="1" width="441.207" height="110.745" rx="7" transform="matrix(-1 0 0 1 744 162.412)" fill="#00FAB3" fill-opacity="0.1"/>
<rect x="-1" y="1" width="441.207" height="110.745" rx="7" transform="matrix(-1 0 0 1 744 162.412)" stroke="#00FAB3" stroke-width="2"/>
<rect x="555.147" y="183.162" width="170.103" height="71.2449" rx="5.25" fill="#15252D"/>
<rect x="555.147" y="183.162" width="170.103" height="71.2449" rx="5.25" stroke="#00FAB3" stroke-width="1.5"/>
<path d="M586.068 218.784V222.784C586.068 222.784 586.068 224.784 590.734 224.784C595.401 224.784 595.401 222.784 595.401 222.784V218.784" stroke="#00FAB3"/>
<path d="M586.068 214.784V218.784C586.068 218.784 586.068 220.784 590.734 220.784C595.401 220.784 595.401 218.784 595.401 218.784V214.784" stroke="#00FAB3"/>
<path d="M590.734 212.784C595.401 212.784 595.401 214.784 595.401 214.784C595.401 214.784 595.401 216.784 590.734 216.784C586.068 216.784 586.068 214.784 586.068 214.784C586.068 214.784 586.068 212.784 590.734 212.784Z" stroke="#00FAB3"/>
<path d="M612.762 214.638V217.731H616.302V218.764H612.762V222.784H611.442V213.598H616.956L616.802 214.638H612.762ZM619.374 222.784V213.598H620.7V221.638H624.86L624.714 222.784H619.374ZM632.345 213.598V214.631H630.325V221.744H632.345V222.784H626.972V221.744H628.992V214.631H626.972V213.598H632.345ZM637.863 222.951C636.739 222.951 635.85 222.553 635.196 221.758C634.543 220.962 634.216 219.771 634.216 218.184C634.216 217.393 634.323 216.702 634.536 216.111C634.75 215.515 635.039 215.02 635.403 214.624C635.772 214.224 636.19 213.926 636.656 213.731C637.128 213.531 637.619 213.431 638.13 213.431C638.739 213.431 639.245 213.52 639.65 213.698C640.059 213.875 640.443 214.131 640.803 214.464L640.03 215.264C639.483 214.758 638.856 214.504 638.15 214.504C637.714 214.504 637.303 214.62 636.916 214.851C636.53 215.082 636.216 215.466 635.976 216.004C635.736 216.542 635.616 217.269 635.616 218.184C635.616 219.495 635.814 220.44 636.21 221.018C636.605 221.591 637.188 221.878 637.956 221.878C638.543 221.878 639.092 221.738 639.603 221.458V218.771H637.903L637.75 217.718H640.903V222.131C640.481 222.366 640.03 222.562 639.55 222.718C639.074 222.873 638.512 222.951 637.863 222.951ZM647.288 222.784V218.504H644.021V222.784H642.701V213.598H644.021V217.418H647.288V213.598H648.608V222.784H647.288ZM654.292 214.698V222.784H652.972V214.698H650.146V213.598H657.166L657.026 214.698H654.292ZM673.062 218.144C673.062 219.1 672.937 219.882 672.689 220.491C672.44 221.1 672.109 221.571 671.695 221.904C671.286 222.233 670.835 222.462 670.342 222.591C669.849 222.72 669.355 222.784 668.862 222.784H666.695V213.598H668.715C669.262 213.598 669.793 213.658 670.309 213.778C670.824 213.898 671.289 214.12 671.702 214.444C672.12 214.764 672.451 215.222 672.695 215.818C672.94 216.413 673.062 217.189 673.062 218.144ZM671.662 218.144C671.662 217.375 671.582 216.758 671.422 216.291C671.266 215.824 671.057 215.473 670.795 215.238C670.533 215.002 670.244 214.844 669.929 214.764C669.617 214.684 669.306 214.644 668.995 214.644H668.015V221.751H669.009C669.333 221.751 669.653 221.7 669.969 221.598C670.284 221.495 670.569 221.313 670.822 221.051C671.08 220.789 671.284 220.422 671.435 219.951C671.586 219.48 671.662 218.878 671.662 218.144ZM679.353 220.498H675.873L675.18 222.784H673.853L676.813 213.598H678.48L681.447 222.784H680.047L679.353 220.498ZM676.18 219.438H679.047L677.62 214.664L676.18 219.438ZM686.285 214.698V222.784H684.965V214.698H682.138V213.598H689.158L689.018 214.698H686.285ZM695.349 220.498H691.869L691.176 222.784H689.849L692.809 213.598H694.476L697.443 222.784H696.043L695.349 220.498ZM692.176 219.438H695.043L693.616 214.664L692.176 219.438Z" fill="#00FAB3"/>
<path d="M554.397 218.784H494.397" stroke="#00FAB3" stroke-width="2"/>
<rect x="323.543" y="183.162" width="170.103" height="71.2449" rx="5.25" fill="#15252D"/>
<rect x="323.543" y="183.162" width="170.103" height="71.2449" rx="5.25" stroke="#00FAB3" stroke-width="1.5"/>
<g clip-path="url(#clip4_451_319)">
<path d="M367.203 221.44H359.052M367.353 222.163L364.061 224.158M357.975 220.503C358.265 220.503 358.543 220.618 358.748 220.823C358.953 221.028 359.069 221.307 359.069 221.597C359.069 221.887 358.953 222.165 358.748 222.37C358.543 222.575 358.265 222.69 357.975 222.69C357.685 222.69 357.407 222.575 357.201 222.37C356.996 222.165 356.881 221.887 356.881 221.597C356.881 221.307 356.996 221.028 357.201 220.823C357.407 220.618 357.685 220.503 357.975 220.503ZM357.975 220.503V217.064M368.287 220.503C368.577 220.503 368.856 220.618 369.061 220.823C369.266 221.028 369.381 221.307 369.381 221.597C369.381 221.887 369.266 222.165 369.061 222.37C368.856 222.575 368.577 222.69 368.287 222.69C367.997 222.69 367.719 222.575 367.514 222.37C367.309 222.165 367.194 221.887 367.194 221.597C367.194 221.307 367.309 221.028 367.514 220.823C367.719 220.618 367.997 220.503 368.287 220.503ZM368.287 220.503V217.064M362.724 213.856L358.678 220.772M363.539 213.856L367.584 220.772M362.195 213.414L358.909 215.405M358.909 222.163L362.201 224.158M364.067 213.414L367.353 215.405M363.131 213.94C363.421 213.94 363.699 213.825 363.904 213.62C364.11 213.415 364.225 213.137 364.225 212.847C364.225 212.557 364.11 212.278 363.904 212.073C363.699 211.868 363.421 211.753 363.131 211.753C362.841 211.753 362.563 211.868 362.358 212.073C362.153 212.278 362.037 212.557 362.037 212.847C362.037 213.137 362.153 213.415 362.358 213.62C362.563 213.825 362.841 213.94 363.131 213.94ZM357.975 217.065C358.265 217.065 358.543 216.95 358.748 216.745C358.953 216.54 359.069 216.262 359.069 215.972C359.069 215.682 358.953 215.403 358.748 215.198C358.543 214.993 358.265 214.878 357.975 214.878C357.685 214.878 357.407 214.993 357.201 215.198C356.996 215.403 356.881 215.682 356.881 215.972C356.881 216.262 356.996 216.54 357.201 216.745C357.407 216.95 357.685 217.065 357.975 217.065ZM368.287 217.065C368.577 217.065 368.856 216.95 369.061 216.745C369.266 216.54 369.381 216.262 369.381 215.972C369.381 215.682 369.266 215.403 369.061 215.198C368.856 214.993 368.577 214.878 368.287 214.878C367.997 214.878 367.719 214.993 367.514 215.198C367.309 215.403 367.194 215.682 367.194 215.972C367.194 216.262 367.309 216.54 367.514 216.745C367.719 216.95 367.997 217.065 368.287 217.065ZM363.131 225.815C363.421 225.815 363.699 225.7 363.904 225.495C364.11 225.29 364.225 225.012 364.225 224.722C364.225 224.432 364.11 224.153 363.904 223.948C363.699 223.743 363.421 223.628 363.131 223.628C362.841 223.628 362.563 223.743 362.358 223.948C362.153 224.153 362.037 224.432 362.037 224.722C362.037 225.012 362.153 225.29 362.358 225.495C362.563 225.7 362.841 225.815 363.131 225.815Z" stroke="#00FAB3" stroke-linecap="round" stroke-linejoin="round"/>
</g>
<path d="M385.159 214.638V217.731H388.699V218.764H385.159V222.784H383.839V213.598H389.352L389.199 214.638H385.159ZM391.77 222.784V213.598H393.097V221.638H397.257L397.11 222.784H391.77ZM404.742 213.598V214.631H402.722V221.744H404.742V222.784H399.368V221.744H401.388V214.631H399.368V213.598H404.742ZM410.26 222.951C409.135 222.951 408.246 222.553 407.593 221.758C406.94 220.962 406.613 219.771 406.613 218.184C406.613 217.393 406.72 216.702 406.933 216.111C407.146 215.515 407.435 215.02 407.8 214.624C408.169 214.224 408.586 213.926 409.053 213.731C409.524 213.531 410.015 213.431 410.526 213.431C411.135 213.431 411.642 213.52 412.046 213.698C412.455 213.875 412.84 214.131 413.2 214.464L412.426 215.264C411.88 214.758 411.253 214.504 410.546 214.504C410.111 214.504 409.7 214.62 409.313 214.851C408.926 215.082 408.613 215.466 408.373 216.004C408.133 216.542 408.013 217.269 408.013 218.184C408.013 219.495 408.211 220.44 408.606 221.018C409.002 221.591 409.584 221.878 410.353 221.878C410.94 221.878 411.489 221.738 412 221.458V218.771H410.3L410.146 217.718H413.3V222.131C412.877 222.366 412.426 222.562 411.946 222.718C411.471 222.873 410.909 222.951 410.26 222.951ZM419.684 222.784V218.504H416.418V222.784H415.098V213.598H416.418V217.418H419.684V213.598H421.004V222.784H419.684ZM426.689 214.698V222.784H425.369V214.698H422.542V213.598H429.562L429.422 214.698H426.689ZM443.752 220.498H440.272L439.579 222.784H438.252L441.212 213.598H442.879L445.845 222.784H444.445L443.752 220.498ZM440.579 219.438H443.445L442.019 214.664L440.579 219.438ZM453.51 216.444C453.51 217.16 453.357 217.738 453.05 218.178C452.748 218.613 452.328 218.931 451.79 219.131C451.252 219.331 450.637 219.431 449.943 219.431H448.797V222.784H447.47V213.598H449.903C451.023 213.598 451.903 213.831 452.543 214.298C453.188 214.76 453.51 215.475 453.51 216.444ZM452.11 216.458C452.11 215.782 451.914 215.306 451.523 215.031C451.137 214.755 450.639 214.618 450.03 214.618H448.797V218.391H450.01C450.419 218.391 450.781 218.333 451.097 218.218C451.412 218.102 451.659 217.904 451.837 217.624C452.019 217.344 452.11 216.955 452.11 216.458ZM460.728 213.598V214.631H458.708V221.744H460.728V222.784H455.355V221.744H457.375V214.631H455.355V213.598H460.728Z" fill="#00FAB3"/>
<rect x="-1" y="1" width="441.207" height="110.745" rx="7" transform="matrix(-1 0 0 1 744 303.156)" fill="#C363FF" fill-opacity="0.1"/>
<rect x="-1" y="1" width="441.207" height="110.745" rx="7" transform="matrix(-1 0 0 1 744 303.156)" stroke="#C363FF" stroke-width="2"/>
<rect x="555.147" y="323.906" width="170.103" height="71.2449" rx="5.25" fill="#15252D"/>
<rect x="555.147" y="323.906" width="170.103" height="71.2449" rx="5.25" stroke="#C363FF" stroke-width="1.5"/>
<path d="M586.068 359.529V363.529C586.068 363.529 586.068 365.529 590.734 365.529C595.401 365.529 595.401 363.529 595.401 363.529V359.529" stroke="#C363FF"/>
<path d="M586.068 355.529V359.529C586.068 359.529 586.068 361.529 590.734 361.529C595.401 361.529 595.401 359.529 595.401 359.529V355.529" stroke="#C363FF"/>
<path d="M590.734 353.529C595.401 353.529 595.401 355.529 595.401 355.529C595.401 355.529 595.401 357.529 590.734 357.529C586.068 357.529 586.068 355.529 586.068 355.529C586.068 355.529 586.068 353.529 590.734 353.529Z" stroke="#C363FF"/>
<path d="M615.296 363.529V359.249H612.029V363.529H610.709V354.342H612.029V358.162H615.296V354.342H616.616V363.529H615.296ZM625.094 358.942C625.094 359.876 624.965 360.7 624.707 361.416C624.449 362.131 624.065 362.691 623.554 363.096C623.047 363.496 622.416 363.696 621.66 363.696C620.905 363.696 620.271 363.5 619.76 363.109C619.254 362.713 618.871 362.16 618.614 361.449C618.356 360.738 618.227 359.907 618.227 358.956C618.227 358.018 618.356 357.191 618.614 356.476C618.871 355.756 619.254 355.193 619.76 354.789C620.271 354.38 620.905 354.176 621.66 354.176C622.416 354.176 623.047 354.373 623.554 354.769C624.065 355.165 624.449 355.72 624.707 356.436C624.965 357.151 625.094 357.987 625.094 358.942ZM623.714 358.942C623.714 357.733 623.554 356.816 623.234 356.189C622.918 355.562 622.394 355.249 621.66 355.249C620.927 355.249 620.4 355.565 620.08 356.196C619.765 356.827 619.607 357.747 619.607 358.956C619.607 360.16 619.769 361.073 620.094 361.696C620.423 362.313 620.945 362.622 621.66 362.622C622.394 362.622 622.918 362.311 623.234 361.689C623.554 361.062 623.714 360.147 623.714 358.942ZM630.298 355.442V363.529H628.978V355.442H626.152V354.342H633.172L633.032 355.442H630.298ZM636.583 355.382V358.336H639.956V359.382H636.583V362.496H640.71V363.529H635.256V354.342H640.61L640.456 355.382H636.583ZM643.368 363.529V354.342H644.694V362.382H648.854L648.708 363.529H643.368ZM656.872 360.962C656.872 361.496 656.737 361.969 656.466 362.382C656.199 362.791 655.81 363.113 655.299 363.349C654.792 363.58 654.177 363.696 653.452 363.696C652.75 363.696 652.124 363.589 651.572 363.376C651.021 363.162 650.552 362.869 650.166 362.496L650.919 361.649C651.239 361.947 651.606 362.182 652.019 362.356C652.432 362.529 652.915 362.616 653.466 362.616C653.826 362.616 654.159 362.558 654.466 362.442C654.777 362.322 655.026 362.145 655.212 361.909C655.404 361.669 655.499 361.369 655.499 361.009C655.499 360.725 655.441 360.482 655.326 360.282C655.215 360.078 655.017 359.898 654.732 359.742C654.448 359.587 654.05 359.433 653.539 359.282C652.917 359.1 652.384 358.893 651.939 358.662C651.499 358.427 651.161 358.145 650.926 357.816C650.695 357.482 650.579 357.073 650.579 356.589C650.579 356.113 650.71 355.696 650.972 355.336C651.235 354.971 651.595 354.687 652.052 354.482C652.51 354.278 653.037 354.176 653.632 354.176C654.277 354.176 654.839 354.269 655.319 354.456C655.804 354.642 656.239 354.907 656.626 355.249L655.892 356.076C655.564 355.787 655.21 355.578 654.832 355.449C654.459 355.316 654.079 355.249 653.692 355.249C653.204 355.249 652.788 355.356 652.446 355.569C652.104 355.778 651.932 356.098 651.932 356.529C651.932 356.787 652.001 357.007 652.139 357.189C652.277 357.367 652.508 357.531 652.832 357.682C653.161 357.833 653.61 357.993 654.179 358.162C654.672 358.309 655.121 358.489 655.526 358.702C655.935 358.911 656.261 359.196 656.506 359.556C656.75 359.911 656.872 360.38 656.872 360.962ZM673.062 358.889C673.062 359.845 672.937 360.627 672.689 361.236C672.44 361.845 672.109 362.316 671.695 362.649C671.286 362.978 670.835 363.207 670.342 363.336C669.849 363.465 669.355 363.529 668.862 363.529H666.695V354.342H668.715C669.262 354.342 669.793 354.402 670.309 354.522C670.824 354.642 671.289 354.865 671.702 355.189C672.12 355.509 672.451 355.967 672.695 356.562C672.94 357.158 673.062 357.933 673.062 358.889ZM671.662 358.889C671.662 358.12 671.582 357.502 671.422 357.036C671.266 356.569 671.057 356.218 670.795 355.982C670.533 355.747 670.244 355.589 669.929 355.509C669.617 355.429 669.306 355.389 668.995 355.389H668.015V362.496H669.009C669.333 362.496 669.653 362.445 669.969 362.342C670.284 362.24 670.569 362.058 670.822 361.796C671.08 361.533 671.284 361.167 671.435 360.696C671.586 360.225 671.662 359.622 671.662 358.889ZM679.353 361.242H675.873L675.18 363.529H673.853L676.813 354.342H678.48L681.447 363.529H680.047L679.353 361.242ZM676.18 360.182H679.047L677.62 355.409L676.18 360.182ZM686.285 355.442V363.529H684.965V355.442H682.138V354.342H689.158L689.018 355.442H686.285ZM695.349 361.242H691.869L691.176 363.529H689.849L692.809 354.342H694.476L697.443 363.529H696.043L695.349 361.242ZM692.176 360.182H695.043L693.616 355.409L692.176 360.182Z" fill="#C363FF"/>
<path d="M554.397 359.529H494.397" stroke="#C363FF" stroke-width="2"/>
<rect x="323.543" y="323.906" width="170.103" height="71.2449" rx="5.25" fill="#15252D"/>
<rect x="323.543" y="323.906" width="170.103" height="71.2449" rx="5.25" stroke="#C363FF" stroke-width="1.5"/>
<g clip-path="url(#clip5_451_319)">
<path d="M367.203 362.185H359.052M367.353 362.908L364.061 364.903M357.975 361.248C358.265 361.248 358.543 361.363 358.748 361.568C358.953 361.773 359.069 362.051 359.069 362.342C359.069 362.632 358.953 362.91 358.748 363.115C358.543 363.32 358.265 363.435 357.975 363.435C357.685 363.435 357.407 363.32 357.201 363.115C356.996 362.91 356.881 362.632 356.881 362.342C356.881 362.051 356.996 361.773 357.201 361.568C357.407 361.363 357.685 361.248 357.975 361.248ZM357.975 361.248V357.808M368.287 361.248C368.577 361.248 368.856 361.363 369.061 361.568C369.266 361.773 369.381 362.051 369.381 362.342C369.381 362.632 369.266 362.91 369.061 363.115C368.856 363.32 368.577 363.435 368.287 363.435C367.997 363.435 367.719 363.32 367.514 363.115C367.309 362.91 367.194 362.632 367.194 362.342C367.194 362.051 367.309 361.773 367.514 361.568C367.719 361.363 367.997 361.248 368.287 361.248ZM368.287 361.248V357.808M362.724 354.601L358.678 361.517M363.539 354.601L367.584 361.517M362.195 354.158L358.909 356.15M358.909 362.908L362.201 364.903M364.067 354.158L367.353 356.15M363.131 354.685C363.421 354.685 363.699 354.57 363.904 354.365C364.11 354.16 364.225 353.882 364.225 353.592C364.225 353.301 364.11 353.023 363.904 352.818C363.699 352.613 363.421 352.498 363.131 352.498C362.841 352.498 362.563 352.613 362.358 352.818C362.153 353.023 362.037 353.301 362.037 353.592C362.037 353.882 362.153 354.16 362.358 354.365C362.563 354.57 362.841 354.685 363.131 354.685ZM357.975 357.81C358.265 357.81 358.543 357.695 358.748 357.49C358.953 357.285 359.069 357.007 359.069 356.717C359.069 356.426 358.953 356.148 358.748 355.943C358.543 355.738 358.265 355.623 357.975 355.623C357.685 355.623 357.407 355.738 357.201 355.943C356.996 356.148 356.881 356.426 356.881 356.717C356.881 357.007 356.996 357.285 357.201 357.49C357.407 357.695 357.685 357.81 357.975 357.81ZM368.287 357.81C368.577 357.81 368.856 357.695 369.061 357.49C369.266 357.285 369.381 357.007 369.381 356.717C369.381 356.426 369.266 356.148 369.061 355.943C368.856 355.738 368.577 355.623 368.287 355.623C367.997 355.623 367.719 355.738 367.514 355.943C367.309 356.148 367.194 356.426 367.194 356.717C367.194 357.007 367.309 357.285 367.514 357.49C367.719 357.695 367.997 357.81 368.287 357.81ZM363.131 366.56C363.421 366.56 363.699 366.445 363.904 366.24C364.11 366.035 364.225 365.757 364.225 365.467C364.225 365.176 364.11 364.898 363.904 364.693C363.699 364.488 363.421 364.373 363.131 364.373C362.841 364.373 362.563 364.488 362.358 364.693C362.153 364.898 362.037 365.176 362.037 365.467C362.037 365.757 362.153 366.035 362.358 366.24C362.563 366.445 362.841 366.56 363.131 366.56Z" stroke="#C363FF" stroke-linecap="round" stroke-linejoin="round"/>
</g>
<path d="M387.692 363.529V359.249H384.426V363.529H383.106V354.342H384.426V358.162H387.692V354.342H389.012V363.529H387.692ZM397.49 358.942C397.49 359.876 397.361 360.7 397.104 361.416C396.846 362.131 396.461 362.691 395.95 363.096C395.444 363.496 394.813 363.696 394.057 363.696C393.301 363.696 392.668 363.5 392.157 363.109C391.65 362.713 391.268 362.16 391.01 361.449C390.753 360.738 390.624 359.907 390.624 358.956C390.624 358.018 390.753 357.191 391.01 356.476C391.268 355.756 391.65 355.193 392.157 354.789C392.668 354.38 393.301 354.176 394.057 354.176C394.813 354.176 395.444 354.373 395.95 354.769C396.461 355.165 396.846 355.72 397.104 356.436C397.361 357.151 397.49 357.987 397.49 358.942ZM396.11 358.942C396.11 357.733 395.95 356.816 395.63 356.189C395.315 355.562 394.79 355.249 394.057 355.249C393.324 355.249 392.797 355.565 392.477 356.196C392.161 356.827 392.004 357.747 392.004 358.956C392.004 360.16 392.166 361.073 392.49 361.696C392.819 362.313 393.341 362.622 394.057 362.622C394.79 362.622 395.315 362.311 395.63 361.689C395.95 361.062 396.11 360.147 396.11 358.942ZM402.695 355.442V363.529H401.375V355.442H398.548V354.342H405.568L405.428 355.442H402.695ZM408.98 355.382V358.336H412.353V359.382H408.98V362.496H413.106V363.529H407.653V354.342H413.006L412.853 355.382H408.98ZM415.764 363.529V354.342H417.091V362.382H421.251L421.104 363.529H415.764ZM429.269 360.962C429.269 361.496 429.134 361.969 428.862 362.382C428.596 362.791 428.207 363.113 427.696 363.349C427.189 363.58 426.574 363.696 425.849 363.696C425.147 363.696 424.52 363.589 423.969 363.376C423.418 363.162 422.949 362.869 422.562 362.496L423.316 361.649C423.636 361.947 424.002 362.182 424.416 362.356C424.829 362.529 425.311 362.616 425.862 362.616C426.222 362.616 426.556 362.558 426.862 362.442C427.174 362.322 427.422 362.145 427.609 361.909C427.8 361.669 427.896 361.369 427.896 361.009C427.896 360.725 427.838 360.482 427.722 360.282C427.611 360.078 427.414 359.898 427.129 359.742C426.845 359.587 426.447 359.433 425.936 359.282C425.314 359.1 424.78 358.893 424.336 358.662C423.896 358.427 423.558 358.145 423.322 357.816C423.091 357.482 422.976 357.073 422.976 356.589C422.976 356.113 423.107 355.696 423.369 355.336C423.631 354.971 423.991 354.687 424.449 354.482C424.907 354.278 425.434 354.176 426.029 354.176C426.674 354.176 427.236 354.269 427.716 354.456C428.2 354.642 428.636 354.907 429.022 355.249L428.289 356.076C427.96 355.787 427.607 355.578 427.229 355.449C426.856 355.316 426.476 355.249 426.089 355.249C425.6 355.249 425.185 355.356 424.842 355.569C424.5 355.778 424.329 356.098 424.329 356.529C424.329 356.787 424.398 357.007 424.536 357.189C424.674 357.367 424.905 357.531 425.229 357.682C425.558 357.833 426.007 357.993 426.576 358.162C427.069 358.309 427.518 358.489 427.922 358.702C428.331 358.911 428.658 359.196 428.902 359.556C429.147 359.911 429.269 360.38 429.269 360.962ZM443.752 361.242H440.272L439.579 363.529H438.252L441.212 354.342H442.879L445.845 363.529H444.445L443.752 361.242ZM440.579 360.182H443.445L442.019 355.409L440.579 360.182ZM453.51 357.189C453.51 357.905 453.357 358.482 453.05 358.922C452.748 359.358 452.328 359.676 451.79 359.876C451.252 360.076 450.637 360.176 449.943 360.176H448.797V363.529H447.47V354.342H449.903C451.023 354.342 451.903 354.576 452.543 355.042C453.188 355.505 453.51 356.22 453.51 357.189ZM452.11 357.202C452.11 356.527 451.914 356.051 451.523 355.776C451.137 355.5 450.639 355.362 450.03 355.362H448.797V359.136H450.01C450.419 359.136 450.781 359.078 451.097 358.962C451.412 358.847 451.659 358.649 451.837 358.369C452.019 358.089 452.11 357.7 452.11 357.202ZM460.728 354.342V355.376H458.708V362.489H460.728V363.529H455.355V362.489H457.375V355.376H455.355V354.342H460.728Z" fill="#C363FF"/>
<path d="M203.322 199.243H252.134C257.105 199.243 261.134 195.213 261.134 190.243V86.8219C261.134 81.8513 265.163 77.8219 270.134 77.8219H322.01" stroke="#CFD7D6" stroke-width="2" stroke-dasharray="4 4"/>
<path d="M203.322 238.822H251.134C256.105 238.822 260.134 242.851 260.134 247.822V351.243C260.134 356.213 264.163 360.243 269.134 360.243H322.01" stroke="#CFD7D6" stroke-width="2" stroke-dasharray="4 4"/>
<defs>
<clipPath id="clip0_451_319">
<rect width="16" height="16" fill="white" transform="translate(35.7239 220.284)"/>
</clipPath>
<clipPath id="clip1_451_319">
<rect width="13.3333" height="13.3333" fill="white" transform="translate(58.3906 221.618)"/>
</clipPath>
<clipPath id="clip2_451_319">
<rect width="16" height="16" fill="white" transform="translate(79.7239 220.284)"/>
</clipPath>
<clipPath id="clip3_451_319">
<rect width="16" height="16" fill="white" transform="translate(359.131 70.0392)"/>
</clipPath>
<clipPath id="clip4_451_319">
<rect width="16" height="16" fill="white" transform="translate(355.131 210.784)"/>
</clipPath>
<clipPath id="clip5_451_319">
<rect width="16" height="16" fill="white" transform="translate(355.131 351.529)"/>
</clipPath>
</defs>
</svg>
