<svg width="800" height="286" viewBox="0 0 800 286" fill="none" xmlns="http://www.w3.org/2000/svg">
<path d="M627.727 144.451H461.188" stroke="#25855A" stroke-width="2"/>
<path d="M631.648 50.5298H566.762C555.717 50.5298 546.762 59.4841 546.762 70.5298V107.981C546.762 119.026 537.808 127.981 526.762 127.981H452.237" stroke="#AF9200" stroke-width="2"/>
<path d="M631.648 235.196H566.762C555.717 235.196 546.762 226.242 546.762 215.196V180.333C546.762 169.288 537.808 160.333 526.762 160.333H452.237" stroke="#7B00C7" stroke-width="2"/>
<path d="M180.159 144.451H300.276" stroke="#467B95" stroke-width="2" stroke-dasharray="4 4"/>
<rect x="292.027" y="107.75" width="170.5" height="70.5" rx="35.25" fill="#FDFDFD"/>
<rect x="292.027" y="107.75" width="170.5" height="70.5" rx="35.25" stroke="#B03900" stroke-width="1.5"/>
<g clip-path="url(#clip0_451_236)">
<path d="M343.676 143.895C346.269 144.708 347.813 146.27 347.813 149.219M347.813 149.219V150.032M347.813 149.219C347.813 146.27 349.357 144.708 351.951 143.895M347.813 149.219V139.25M346.345 139.25C346.284 139.25 346.224 139.234 346.172 139.203C346.119 139.173 346.075 139.129 346.045 139.076C346.015 139.023 345.999 138.963 346 138.902C346 138.841 346.017 138.781 346.047 138.729L347.516 136.125C347.546 136.073 347.59 136.03 347.642 136.001C347.694 135.971 347.753 135.955 347.813 135.955C347.873 135.955 347.932 135.971 347.984 136.001C348.037 136.03 348.08 136.073 348.111 136.125L349.579 138.728C349.61 138.781 349.627 138.841 349.627 138.902C349.628 138.963 349.612 139.023 349.582 139.076C349.551 139.128 349.508 139.173 349.455 139.203C349.402 139.234 349.342 139.25 349.281 139.25H346.345ZM344.321 142.338C344.344 142.281 344.352 142.22 344.344 142.159C344.335 142.099 344.311 142.041 344.274 141.993C344.237 141.945 344.187 141.907 344.131 141.884C344.074 141.861 344.013 141.854 343.952 141.862L341.077 142.266C341.018 142.275 340.961 142.298 340.913 142.335C340.866 142.372 340.828 142.421 340.805 142.476C340.782 142.532 340.774 142.593 340.782 142.653C340.79 142.713 340.813 142.769 340.849 142.818L342.594 145.134C342.631 145.183 342.68 145.221 342.737 145.245C342.793 145.268 342.854 145.277 342.915 145.269C342.975 145.261 343.033 145.238 343.081 145.201C343.13 145.164 343.168 145.115 343.191 145.058L343.754 143.698L344.321 142.338ZM351.306 142.338C351.282 142.281 351.274 142.22 351.283 142.159C351.291 142.099 351.315 142.041 351.352 141.993C351.389 141.945 351.439 141.907 351.495 141.884C351.552 141.861 351.613 141.854 351.674 141.862L354.549 142.266C354.608 142.275 354.665 142.298 354.713 142.335C354.761 142.372 354.798 142.421 354.821 142.476C354.844 142.532 354.852 142.593 354.844 142.653C354.837 142.713 354.813 142.769 354.777 142.818L353.032 145.134C352.995 145.183 352.946 145.221 352.89 145.245C352.833 145.268 352.772 145.277 352.711 145.269C352.651 145.261 352.593 145.238 352.545 145.201C352.496 145.164 352.458 145.115 352.435 145.058L351.872 143.698L351.306 142.338Z" stroke="#B03900" stroke-linecap="round" stroke-linejoin="round"/>
</g>
<path d="M373.967 140.92C373.967 141.609 373.756 142.164 373.333 142.587C372.916 143.004 372.4 143.293 371.787 143.453L374.46 147.5H372.893L370.473 143.627H369.333V147.5H368.007V138.313H370.453C371.605 138.313 372.478 138.533 373.073 138.973C373.669 139.409 373.967 140.058 373.967 140.92ZM372.56 140.92C372.56 140.356 372.396 139.949 372.067 139.7C371.742 139.451 371.242 139.327 370.567 139.327H369.333V142.62H370.58C371.211 142.62 371.698 142.491 372.04 142.233C372.387 141.971 372.56 141.533 372.56 140.92ZM382.178 142.913C382.178 143.847 382.049 144.671 381.792 145.387C381.534 146.102 381.149 146.662 380.638 147.067C380.132 147.467 379.5 147.667 378.745 147.667C377.989 147.667 377.356 147.471 376.845 147.08C376.338 146.684 375.956 146.131 375.698 145.42C375.44 144.709 375.312 143.878 375.312 142.927C375.312 141.989 375.44 141.162 375.698 140.447C375.956 139.727 376.338 139.164 376.845 138.76C377.356 138.351 377.989 138.147 378.745 138.147C379.5 138.147 380.132 138.344 380.638 138.74C381.149 139.136 381.534 139.691 381.792 140.407C382.049 141.122 382.178 141.958 382.178 142.913ZM380.798 142.913C380.798 141.704 380.638 140.787 380.318 140.16C380.003 139.533 379.478 139.22 378.745 139.22C378.012 139.22 377.485 139.536 377.165 140.167C376.849 140.798 376.692 141.718 376.692 142.927C376.692 144.131 376.854 145.044 377.178 145.667C377.507 146.284 378.029 146.593 378.745 146.593C379.478 146.593 380.003 146.282 380.318 145.66C380.638 145.033 380.798 144.118 380.798 142.913ZM389.843 138.313V144.507C389.843 145.129 389.716 145.678 389.463 146.153C389.214 146.629 388.856 147 388.39 147.267C387.927 147.533 387.374 147.667 386.73 147.667C386.081 147.667 385.525 147.533 385.063 147.267C384.601 147 384.247 146.629 384.003 146.153C383.763 145.678 383.643 145.129 383.643 144.507V138.313H384.963V144.407C384.963 145.847 385.552 146.567 386.73 146.567C387.916 146.567 388.51 145.847 388.51 144.407V138.313H389.843ZM395.381 139.413V147.5H394.061V139.413H391.234V138.313H398.254L398.114 139.413H395.381ZM401.666 139.353V142.307H405.039V143.353H401.666V146.467H405.792V147.5H400.339V138.313H405.692L405.539 139.353H401.666ZM413.957 140.92C413.957 141.609 413.746 142.164 413.324 142.587C412.906 143.004 412.39 143.293 411.777 143.453L414.45 147.5H412.884L410.464 143.627H409.324V147.5H407.997V138.313H410.444C411.595 138.313 412.468 138.533 413.064 138.973C413.659 139.409 413.957 140.058 413.957 140.92ZM412.55 140.92C412.55 140.356 412.386 139.949 412.057 139.7C411.733 139.451 411.233 139.327 410.557 139.327H409.324V142.62H410.57C411.202 142.62 411.688 142.491 412.03 142.233C412.377 141.971 412.55 141.533 412.55 140.92Z" fill="#B03900"/>
<rect x="628.027" y="13.1823" width="170.103" height="71.2449" rx="5.25" fill="#FDFDFD"/>
<rect x="628.027" y="13.1823" width="170.103" height="71.2449" rx="5.25" stroke="#AF9200" stroke-width="1.5"/>
<g clip-path="url(#clip1_451_236)">
<path d="M659.687 51.4609H651.535M659.837 52.1834L656.545 54.1784M650.458 50.5234C650.749 50.5234 651.027 50.6387 651.232 50.8438C651.437 51.0489 651.552 51.3271 651.552 51.6172C651.552 51.9073 651.437 52.1855 651.232 52.3906C651.027 52.5957 650.749 52.7109 650.458 52.7109C650.168 52.7109 649.89 52.5957 649.685 52.3906C649.48 52.1855 649.365 51.9073 649.365 51.6172C649.365 51.3271 649.48 51.0489 649.685 50.8438C649.89 50.6387 650.168 50.5234 650.458 50.5234ZM650.458 50.5234V47.0841M660.771 50.5234C661.061 50.5234 661.339 50.6387 661.544 50.8438C661.75 51.0489 661.865 51.3271 661.865 51.6172C661.865 51.9073 661.75 52.1855 661.544 52.3906C661.339 52.5957 661.061 52.7109 660.771 52.7109C660.481 52.7109 660.203 52.5957 659.998 52.3906C659.792 52.1855 659.677 51.9073 659.677 51.6172C659.677 51.3271 659.792 51.0489 659.998 50.8438C660.203 50.6387 660.481 50.5234 660.771 50.5234ZM660.771 50.5234V47.0841M655.207 43.8766L651.162 50.7922M656.022 43.8766L660.068 50.7928M654.679 43.4341L651.393 45.4259M651.393 52.1834L654.685 54.1784M656.55 43.4341L659.837 45.4259M655.615 43.9609C655.905 43.9609 656.183 43.8457 656.388 43.6406C656.593 43.4355 656.708 43.1573 656.708 42.8672C656.708 42.5771 656.593 42.2989 656.388 42.0938C656.183 41.8887 655.905 41.7734 655.615 41.7734C655.325 41.7734 655.046 41.8887 654.841 42.0938C654.636 42.2989 654.521 42.5771 654.521 42.8672C654.521 43.1573 654.636 43.4355 654.841 43.6406C655.046 43.8457 655.325 43.9609 655.615 43.9609ZM650.458 47.0859C650.749 47.0859 651.027 46.9707 651.232 46.7656C651.437 46.5605 651.552 46.2823 651.552 45.9922C651.552 45.7021 651.437 45.4239 651.232 45.2188C651.027 45.0137 650.749 44.8984 650.458 44.8984C650.168 44.8984 649.89 45.0137 649.685 45.2188C649.48 45.4239 649.365 45.7021 649.365 45.9922C649.365 46.2823 649.48 46.5605 649.685 46.7656C649.89 46.9707 650.168 47.0859 650.458 47.0859ZM660.771 47.0859C661.061 47.0859 661.339 46.9707 661.544 46.7656C661.75 46.5605 661.865 46.2823 661.865 45.9922C661.865 45.7021 661.75 45.4239 661.544 45.2188C661.339 45.0137 661.061 44.8984 660.771 44.8984C660.481 44.8984 660.203 45.0137 659.998 45.2188C659.792 45.4239 659.677 45.7021 659.677 45.9922C659.677 46.2823 659.792 46.5605 659.998 46.7656C660.203 46.9707 660.481 47.0859 660.771 47.0859ZM655.615 55.8359C655.905 55.8359 656.183 55.7207 656.388 55.5156C656.593 55.3105 656.708 55.0323 656.708 54.7422C656.708 54.4521 656.593 54.1739 656.388 53.9688C656.183 53.7637 655.905 53.6484 655.615 53.6484C655.325 53.6484 655.046 53.7637 654.841 53.9688C654.636 54.1739 654.521 54.4521 654.521 54.7422C654.521 55.0323 654.636 55.3105 654.841 55.5156C655.046 55.7207 655.325 55.8359 655.615 55.8359Z" stroke="#AF9200" stroke-linecap="round" stroke-linejoin="round"/>
</g>
<path d="M678.749 52.9714C677.625 52.9714 676.736 52.5736 676.083 51.778C675.429 50.9825 675.103 49.7914 675.103 48.2047C675.103 47.4136 675.209 46.7225 675.423 46.1314C675.636 45.5358 675.925 45.0402 676.289 44.6447C676.658 44.2447 677.076 43.9469 677.543 43.7514C678.014 43.5514 678.505 43.4514 679.016 43.4514C679.625 43.4514 680.131 43.5402 680.536 43.718C680.945 43.8958 681.329 44.1514 681.689 44.4847L680.916 45.2847C680.369 44.778 679.743 44.5247 679.036 44.5247C678.6 44.5247 678.189 44.6402 677.803 44.8714C677.416 45.1025 677.103 45.4869 676.863 46.0247C676.623 46.5625 676.503 47.2891 676.503 48.2047C676.503 49.5158 676.7 50.4602 677.096 51.038C677.491 51.6114 678.074 51.898 678.843 51.898C679.429 51.898 679.978 51.758 680.489 51.478V48.7914H678.789L678.636 47.738H681.789V52.1514C681.367 52.3869 680.916 52.5825 680.436 52.738C679.96 52.8936 679.398 52.9714 678.749 52.9714ZM689.761 46.2247C689.761 46.9136 689.55 47.4691 689.127 47.8914C688.71 48.3091 688.194 48.598 687.581 48.758L690.254 52.8047H688.687L686.267 48.9314H685.127V52.8047H683.801V43.618H686.247C687.398 43.618 688.272 43.838 688.867 44.278C689.463 44.7136 689.761 45.3625 689.761 46.2247ZM688.354 46.2247C688.354 45.6602 688.19 45.2536 687.861 45.0047C687.536 44.7558 687.036 44.6314 686.361 44.6314H685.127V47.9247H686.374C687.005 47.9247 687.492 47.7958 687.834 47.538C688.181 47.2758 688.354 46.838 688.354 46.2247ZM696.245 50.518H692.765L692.072 52.8047H690.745L693.705 43.618H695.372L698.339 52.8047H696.939L696.245 50.518ZM693.072 49.458H695.939L694.512 44.6847L693.072 49.458ZM706.003 46.4647C706.003 47.1802 705.85 47.758 705.543 48.198C705.241 48.6336 704.821 48.9514 704.283 49.1514C703.746 49.3514 703.13 49.4514 702.437 49.4514H701.29V52.8047H699.963V43.618H702.397C703.517 43.618 704.397 43.8514 705.037 44.318C705.681 44.7802 706.003 45.4958 706.003 46.4647ZM704.603 46.478C704.603 45.8025 704.408 45.3269 704.017 45.0514C703.63 44.7758 703.132 44.638 702.523 44.638H701.29V48.4114H702.503C702.912 48.4114 703.275 48.3536 703.59 48.238C703.906 48.1225 704.152 47.9247 704.33 47.6447C704.512 47.3647 704.603 46.9758 704.603 46.478ZM712.168 52.8047V48.5247H708.901V52.8047H707.581V43.618H708.901V47.438H712.168V43.618H713.488V52.8047H712.168ZM721.96 48.218C721.96 49.1825 721.817 50.0291 721.533 50.758C721.253 51.4825 720.76 52.038 720.053 52.4247C720.711 52.5491 721.228 52.7736 721.606 53.098C721.988 53.4225 722.293 53.9269 722.52 54.6114L721.213 55.1114C721.026 54.6402 720.815 54.2425 720.58 53.918C720.348 53.598 720.06 53.3536 719.713 53.1847C719.366 53.0202 718.928 52.938 718.4 52.938C717.684 52.938 717.082 52.7447 716.593 52.358C716.104 51.9714 715.735 51.4247 715.486 50.718C715.237 50.0114 715.113 49.1825 715.113 48.2314C715.113 47.2936 715.24 46.4669 715.493 45.7514C715.751 45.0314 716.133 44.4691 716.64 44.0647C717.151 43.6558 717.782 43.4514 718.533 43.4514C719.288 43.4514 719.92 43.6491 720.426 44.0447C720.937 44.4402 721.32 44.9958 721.573 45.7114C721.831 46.4269 721.96 47.2625 721.96 48.218ZM720.586 48.218C720.586 47.0091 720.426 46.0914 720.106 45.4647C719.791 44.838 719.266 44.5247 718.533 44.5247C717.8 44.5247 717.275 44.8402 716.96 45.4714C716.644 46.1025 716.486 47.0225 716.486 48.2314C716.486 49.4358 716.648 50.3491 716.973 50.9714C717.302 51.5891 717.822 51.898 718.533 51.898C719.266 51.898 719.791 51.5869 720.106 50.9647C720.426 50.338 720.586 49.4225 720.586 48.218ZM724.244 52.8047V43.618H725.571V51.658H729.731L729.584 52.8047H724.244ZM744.234 50.518H740.754L740.06 52.8047H738.734L741.694 43.618H743.36L746.327 52.8047H744.927L744.234 50.518ZM741.06 49.458H743.927L742.5 44.6847L741.06 49.458ZM753.992 46.4647C753.992 47.1802 753.838 47.758 753.532 48.198C753.229 48.6336 752.809 48.9514 752.272 49.1514C751.734 49.3514 751.118 49.4514 750.425 49.4514H749.278V52.8047H747.952V43.618H750.385C751.505 43.618 752.385 43.8514 753.025 44.318C753.669 44.7802 753.992 45.4958 753.992 46.4647ZM752.592 46.478C752.592 45.8025 752.396 45.3269 752.005 45.0514C751.618 44.7758 751.121 44.638 750.512 44.638H749.278V48.4114H750.492C750.901 48.4114 751.263 48.3536 751.578 48.238C751.894 48.1225 752.141 47.9247 752.318 47.6447C752.501 47.3647 752.592 46.9758 752.592 46.478ZM761.21 43.618V44.6514H759.19V51.7647H761.21V52.8047H755.836V51.7647H757.856V44.6514H755.836V43.618H761.21ZM776.226 50.518H772.746L772.052 52.8047H770.726L773.686 43.618H775.352L778.319 52.8047H776.919L776.226 50.518ZM773.052 49.458H775.919L774.492 44.6847L773.052 49.458Z" fill="#AF9200"/>
<rect x="628.027" y="107.378" width="170.103" height="71.2449" rx="5.25" fill="#FDFDFD"/>
<rect x="628.027" y="107.378" width="170.103" height="71.2449" rx="5.25" stroke="#25855A" stroke-width="1.5"/>
<path d="M659.687 145.656H651.535M659.837 146.379L656.545 148.374M650.458 144.719C650.749 144.719 651.027 144.834 651.232 145.039C651.437 145.244 651.552 145.522 651.552 145.812C651.552 146.103 651.437 146.381 651.232 146.586C651.027 146.791 650.749 146.906 650.458 146.906C650.168 146.906 649.89 146.791 649.685 146.586C649.48 146.381 649.365 146.103 649.365 145.812C649.365 145.522 649.48 145.244 649.685 145.039C649.89 144.834 650.168 144.719 650.458 144.719ZM650.458 144.719V141.279M660.771 144.719C661.061 144.719 661.339 144.834 661.544 145.039C661.75 145.244 661.865 145.522 661.865 145.812C661.865 146.103 661.75 146.381 661.544 146.586C661.339 146.791 661.061 146.906 660.771 146.906C660.481 146.906 660.203 146.791 659.998 146.586C659.792 146.381 659.677 146.103 659.677 145.812C659.677 145.522 659.792 145.244 659.998 145.039C660.203 144.834 660.481 144.719 660.771 144.719ZM660.771 144.719V141.279M655.207 138.072L651.162 144.987M656.022 138.072L660.068 144.988M654.679 137.629L651.393 139.621M651.393 146.379L654.685 148.374M656.55 137.629L659.837 139.621M655.615 138.156C655.905 138.156 656.183 138.041 656.388 137.836C656.593 137.631 656.708 137.353 656.708 137.062C656.708 136.772 656.593 136.494 656.388 136.289C656.183 136.084 655.905 135.969 655.615 135.969C655.325 135.969 655.046 136.084 654.841 136.289C654.636 136.494 654.521 136.772 654.521 137.062C654.521 137.353 654.636 137.631 654.841 137.836C655.046 138.041 655.325 138.156 655.615 138.156ZM650.458 141.281C650.749 141.281 651.027 141.166 651.232 140.961C651.437 140.756 651.552 140.478 651.552 140.188C651.552 139.897 651.437 139.619 651.232 139.414C651.027 139.209 650.749 139.094 650.458 139.094C650.168 139.094 649.89 139.209 649.685 139.414C649.48 139.619 649.365 139.897 649.365 140.188C649.365 140.478 649.48 140.756 649.685 140.961C649.89 141.166 650.168 141.281 650.458 141.281ZM660.771 141.281C661.061 141.281 661.339 141.166 661.544 140.961C661.75 140.756 661.865 140.478 661.865 140.188C661.865 139.897 661.75 139.619 661.544 139.414C661.339 139.209 661.061 139.094 660.771 139.094C660.481 139.094 660.203 139.209 659.998 139.414C659.792 139.619 659.677 139.897 659.677 140.188C659.677 140.478 659.792 140.756 659.998 140.961C660.203 141.166 660.481 141.281 660.771 141.281ZM655.615 150.031C655.905 150.031 656.183 149.916 656.388 149.711C656.593 149.506 656.708 149.228 656.708 148.938C656.708 148.647 656.593 148.369 656.388 148.164C656.183 147.959 655.905 147.844 655.615 147.844C655.325 147.844 655.046 147.959 654.841 148.164C654.636 148.369 654.521 148.647 654.521 148.938C654.521 149.228 654.636 149.506 654.841 149.711C655.046 149.916 655.325 150.031 655.615 150.031Z" stroke="#25855A" stroke-linecap="round" stroke-linejoin="round"/>
<path d="M678.749 147.167C677.625 147.167 676.736 146.769 676.083 145.973C675.429 145.178 675.103 143.987 675.103 142.4C675.103 141.609 675.209 140.918 675.423 140.327C675.636 139.731 675.925 139.236 676.289 138.84C676.658 138.44 677.076 138.142 677.543 137.947C678.014 137.747 678.505 137.647 679.016 137.647C679.625 137.647 680.131 137.736 680.536 137.913C680.945 138.091 681.329 138.347 681.689 138.68L680.916 139.48C680.369 138.973 679.743 138.72 679.036 138.72C678.6 138.72 678.189 138.836 677.803 139.067C677.416 139.298 677.103 139.682 676.863 140.22C676.623 140.758 676.503 141.484 676.503 142.4C676.503 143.711 676.7 144.656 677.096 145.233C677.491 145.807 678.074 146.093 678.843 146.093C679.429 146.093 679.978 145.953 680.489 145.673V142.987H678.789L678.636 141.933H681.789V146.347C681.367 146.582 680.916 146.778 680.436 146.933C679.96 147.089 679.398 147.167 678.749 147.167ZM689.761 140.42C689.761 141.109 689.55 141.664 689.127 142.087C688.71 142.504 688.194 142.793 687.581 142.953L690.254 147H688.687L686.267 143.127H685.127V147H683.801V137.813H686.247C687.398 137.813 688.272 138.033 688.867 138.473C689.463 138.909 689.761 139.558 689.761 140.42ZM688.354 140.42C688.354 139.856 688.19 139.449 687.861 139.2C687.536 138.951 687.036 138.827 686.361 138.827H685.127V142.12H686.374C687.005 142.12 687.492 141.991 687.834 141.733C688.181 141.471 688.354 141.033 688.354 140.42ZM696.245 144.713H692.765L692.072 147H690.745L693.705 137.813H695.372L698.339 147H696.939L696.245 144.713ZM693.072 143.653H695.939L694.512 138.88L693.072 143.653ZM706.003 140.66C706.003 141.376 705.85 141.953 705.543 142.393C705.241 142.829 704.821 143.147 704.283 143.347C703.746 143.547 703.13 143.647 702.437 143.647H701.29V147H699.963V137.813H702.397C703.517 137.813 704.397 138.047 705.037 138.513C705.681 138.976 706.003 139.691 706.003 140.66ZM704.603 140.673C704.603 139.998 704.408 139.522 704.017 139.247C703.63 138.971 703.132 138.833 702.523 138.833H701.29V142.607H702.503C702.912 142.607 703.275 142.549 703.59 142.433C703.906 142.318 704.152 142.12 704.33 141.84C704.512 141.56 704.603 141.171 704.603 140.673ZM712.168 147V142.72H708.901V147H707.581V137.813H708.901V141.633H712.168V137.813H713.488V147H712.168ZM721.96 142.413C721.96 143.378 721.817 144.224 721.533 144.953C721.253 145.678 720.76 146.233 720.053 146.62C720.711 146.744 721.228 146.969 721.606 147.293C721.988 147.618 722.293 148.122 722.52 148.807L721.213 149.307C721.026 148.836 720.815 148.438 720.58 148.113C720.348 147.793 720.06 147.549 719.713 147.38C719.366 147.216 718.928 147.133 718.4 147.133C717.684 147.133 717.082 146.94 716.593 146.553C716.104 146.167 715.735 145.62 715.486 144.913C715.237 144.207 715.113 143.378 715.113 142.427C715.113 141.489 715.24 140.662 715.493 139.947C715.751 139.227 716.133 138.664 716.64 138.26C717.151 137.851 717.782 137.647 718.533 137.647C719.288 137.647 719.92 137.844 720.426 138.24C720.937 138.636 721.32 139.191 721.573 139.907C721.831 140.622 721.96 141.458 721.96 142.413ZM720.586 142.413C720.586 141.204 720.426 140.287 720.106 139.66C719.791 139.033 719.266 138.72 718.533 138.72C717.8 138.72 717.275 139.036 716.96 139.667C716.644 140.298 716.486 141.218 716.486 142.427C716.486 143.631 716.648 144.544 716.973 145.167C717.302 145.784 717.822 146.093 718.533 146.093C719.266 146.093 719.791 145.782 720.106 145.16C720.426 144.533 720.586 143.618 720.586 142.413ZM724.244 147V137.813H725.571V145.853H729.731L729.584 147H724.244ZM744.234 144.713H740.754L740.06 147H738.734L741.694 137.813H743.36L746.327 147H744.927L744.234 144.713ZM741.06 143.653H743.927L742.5 138.88L741.06 143.653ZM753.992 140.66C753.992 141.376 753.838 141.953 753.532 142.393C753.229 142.829 752.809 143.147 752.272 143.347C751.734 143.547 751.118 143.647 750.425 143.647H749.278V147H747.952V137.813H750.385C751.505 137.813 752.385 138.047 753.025 138.513C753.669 138.976 753.992 139.691 753.992 140.66ZM752.592 140.673C752.592 139.998 752.396 139.522 752.005 139.247C751.618 138.971 751.121 138.833 750.512 138.833H749.278V142.607H750.492C750.901 142.607 751.263 142.549 751.578 142.433C751.894 142.318 752.141 142.12 752.318 141.84C752.501 141.56 752.592 141.171 752.592 140.673ZM761.21 137.813V138.847H759.19V145.96H761.21V147H755.836V145.96H757.856V138.847H755.836V137.813H761.21ZM777.779 144.367C777.779 144.873 777.679 145.296 777.479 145.633C777.284 145.971 777.017 146.24 776.679 146.44C776.346 146.64 775.97 146.784 775.552 146.873C775.139 146.958 774.715 147 774.279 147H771.719V137.813H774.086C774.499 137.813 774.901 137.851 775.292 137.927C775.684 137.998 776.037 138.122 776.352 138.3C776.668 138.473 776.917 138.711 777.099 139.013C777.286 139.311 777.379 139.684 777.379 140.133C777.379 140.52 777.297 140.851 777.132 141.127C776.972 141.398 776.764 141.618 776.506 141.787C776.248 141.951 775.972 142.067 775.679 142.133C776.012 142.191 776.339 142.298 776.659 142.453C776.984 142.604 777.25 142.833 777.459 143.14C777.672 143.442 777.779 143.851 777.779 144.367ZM776.032 140.22C776.032 139.722 775.877 139.369 775.566 139.16C775.259 138.947 774.835 138.84 774.292 138.84H773.039V141.68H774.399C774.928 141.68 775.332 141.567 775.612 141.34C775.892 141.109 776.032 140.736 776.032 140.22ZM776.392 144.387C776.392 143.947 776.306 143.607 776.132 143.367C775.964 143.122 775.735 142.953 775.446 142.86C775.161 142.767 774.846 142.72 774.499 142.72H773.039V145.94H774.439C774.737 145.94 775.035 145.902 775.332 145.827C775.635 145.747 775.886 145.596 776.086 145.373C776.29 145.151 776.392 144.822 776.392 144.387Z" fill="#25855A"/>
<rect x="628.027" y="201.573" width="170.103" height="71.2449" rx="5.25" fill="#FDFDFD"/>
<rect x="628.027" y="201.573" width="170.103" height="71.2449" rx="5.25" stroke="#7B00C7" stroke-width="1.5"/>
<g clip-path="url(#clip2_451_236)">
<path d="M659.687 239.852H651.535M659.837 240.574L656.545 242.569M650.458 238.914C650.749 238.914 651.027 239.029 651.232 239.234C651.437 239.44 651.552 239.718 651.552 240.008C651.552 240.298 651.437 240.576 651.232 240.781C651.027 240.986 650.749 241.102 650.458 241.102C650.168 241.102 649.89 240.986 649.685 240.781C649.48 240.576 649.365 240.298 649.365 240.008C649.365 239.718 649.48 239.44 649.685 239.234C649.89 239.029 650.168 238.914 650.458 238.914ZM650.458 238.914V235.475M660.771 238.914C661.061 238.914 661.339 239.029 661.544 239.234C661.75 239.44 661.865 239.718 661.865 240.008C661.865 240.298 661.75 240.576 661.544 240.781C661.339 240.986 661.061 241.102 660.771 241.102C660.481 241.102 660.203 240.986 659.998 240.781C659.792 240.576 659.677 240.298 659.677 240.008C659.677 239.718 659.792 239.44 659.998 239.234C660.203 239.029 660.481 238.914 660.771 238.914ZM660.771 238.914V235.475M655.207 232.267L651.162 239.183M656.022 232.267L660.068 239.183M654.679 231.825L651.393 233.817M651.393 240.574L654.685 242.569M656.55 231.825L659.837 233.817M655.615 232.352C655.905 232.352 656.183 232.236 656.388 232.031C656.593 231.826 656.708 231.548 656.708 231.258C656.708 230.968 656.593 230.69 656.388 230.484C656.183 230.279 655.905 230.164 655.615 230.164C655.325 230.164 655.046 230.279 654.841 230.484C654.636 230.69 654.521 230.968 654.521 231.258C654.521 231.548 654.636 231.826 654.841 232.031C655.046 232.236 655.325 232.352 655.615 232.352ZM650.458 235.477C650.749 235.477 651.027 235.361 651.232 235.156C651.437 234.951 651.552 234.673 651.552 234.383C651.552 234.093 651.437 233.815 651.232 233.609C651.027 233.404 650.749 233.289 650.458 233.289C650.168 233.289 649.89 233.404 649.685 233.609C649.48 233.815 649.365 234.093 649.365 234.383C649.365 234.673 649.48 234.951 649.685 235.156C649.89 235.361 650.168 235.477 650.458 235.477ZM660.771 235.477C661.061 235.477 661.339 235.361 661.544 235.156C661.75 234.951 661.865 234.673 661.865 234.383C661.865 234.093 661.75 233.815 661.544 233.609C661.339 233.404 661.061 233.289 660.771 233.289C660.481 233.289 660.203 233.404 659.998 233.609C659.792 233.815 659.677 234.093 659.677 234.383C659.677 234.673 659.792 234.951 659.998 235.156C660.203 235.361 660.481 235.477 660.771 235.477ZM655.615 244.227C655.905 244.227 656.183 244.111 656.388 243.906C656.593 243.701 656.708 243.423 656.708 243.133C656.708 242.843 656.593 242.565 656.388 242.359C656.183 242.154 655.905 242.039 655.615 242.039C655.325 242.039 655.046 242.154 654.841 242.359C654.636 242.565 654.521 242.843 654.521 243.133C654.521 243.423 654.636 243.701 654.841 243.906C655.046 244.111 655.325 244.227 655.615 244.227Z" stroke="#7B00C7" stroke-linecap="round" stroke-linejoin="round"/>
</g>
<path d="M678.749 241.362C677.625 241.362 676.736 240.964 676.083 240.169C675.429 239.373 675.103 238.182 675.103 236.595C675.103 235.804 675.209 235.113 675.423 234.522C675.636 233.926 675.925 233.431 676.289 233.035C676.658 232.635 677.076 232.338 677.543 232.142C678.014 231.942 678.505 231.842 679.016 231.842C679.625 231.842 680.131 231.931 680.536 232.109C680.945 232.286 681.329 232.542 681.689 232.875L680.916 233.675C680.369 233.169 679.743 232.915 679.036 232.915C678.6 232.915 678.189 233.031 677.803 233.262C677.416 233.493 677.103 233.878 676.863 234.415C676.623 234.953 676.503 235.68 676.503 236.595C676.503 237.906 676.7 238.851 677.096 239.429C677.491 240.002 678.074 240.289 678.843 240.289C679.429 240.289 679.978 240.149 680.489 239.869V237.182H678.789L678.636 236.129H681.789V240.542C681.367 240.778 680.916 240.973 680.436 241.129C679.96 241.284 679.398 241.362 678.749 241.362ZM689.761 234.615C689.761 235.304 689.55 235.86 689.127 236.282C688.71 236.7 688.194 236.989 687.581 237.149L690.254 241.195H688.687L686.267 237.322H685.127V241.195H683.801V232.009H686.247C687.398 232.009 688.272 232.229 688.867 232.669C689.463 233.104 689.761 233.753 689.761 234.615ZM688.354 234.615C688.354 234.051 688.19 233.644 687.861 233.395C687.536 233.146 687.036 233.022 686.361 233.022H685.127V236.315H686.374C687.005 236.315 687.492 236.186 687.834 235.929C688.181 235.666 688.354 235.229 688.354 234.615ZM696.245 238.909H692.765L692.072 241.195H690.745L693.705 232.009H695.372L698.339 241.195H696.939L696.245 238.909ZM693.072 237.849H695.939L694.512 233.075L693.072 237.849ZM706.003 234.855C706.003 235.571 705.85 236.149 705.543 236.589C705.241 237.024 704.821 237.342 704.283 237.542C703.746 237.742 703.13 237.842 702.437 237.842H701.29V241.195H699.963V232.009H702.397C703.517 232.009 704.397 232.242 705.037 232.709C705.681 233.171 706.003 233.886 706.003 234.855ZM704.603 234.869C704.603 234.193 704.408 233.718 704.017 233.442C703.63 233.166 703.132 233.029 702.523 233.029H701.29V236.802H702.503C702.912 236.802 703.275 236.744 703.59 236.629C703.906 236.513 704.152 236.315 704.33 236.035C704.512 235.755 704.603 235.366 704.603 234.869ZM712.168 241.195V236.915H708.901V241.195H707.581V232.009H708.901V235.829H712.168V232.009H713.488V241.195H712.168ZM721.96 236.609C721.96 237.573 721.817 238.42 721.533 239.149C721.253 239.873 720.76 240.429 720.053 240.815C720.711 240.94 721.228 241.164 721.606 241.489C721.988 241.813 722.293 242.318 722.52 243.002L721.213 243.502C721.026 243.031 720.815 242.633 720.58 242.309C720.348 241.989 720.06 241.744 719.713 241.575C719.366 241.411 718.928 241.329 718.4 241.329C717.684 241.329 717.082 241.135 716.593 240.749C716.104 240.362 715.735 239.815 715.486 239.109C715.237 238.402 715.113 237.573 715.113 236.622C715.113 235.684 715.24 234.858 715.493 234.142C715.751 233.422 716.133 232.86 716.64 232.455C717.151 232.046 717.782 231.842 718.533 231.842C719.288 231.842 719.92 232.04 720.426 232.435C720.937 232.831 721.32 233.386 721.573 234.102C721.831 234.818 721.96 235.653 721.96 236.609ZM720.586 236.609C720.586 235.4 720.426 234.482 720.106 233.855C719.791 233.229 719.266 232.915 718.533 232.915C717.8 232.915 717.275 233.231 716.96 233.862C716.644 234.493 716.486 235.413 716.486 236.622C716.486 237.826 716.648 238.74 716.973 239.362C717.302 239.98 717.822 240.289 718.533 240.289C719.266 240.289 719.791 239.978 720.106 239.355C720.426 238.729 720.586 237.813 720.586 236.609ZM724.244 241.195V232.009H725.571V240.049H729.731L729.584 241.195H724.244ZM744.234 238.909H740.754L740.06 241.195H738.734L741.694 232.009H743.36L746.327 241.195H744.927L744.234 238.909ZM741.06 237.849H743.927L742.5 233.075L741.06 237.849ZM753.992 234.855C753.992 235.571 753.838 236.149 753.532 236.589C753.229 237.024 752.809 237.342 752.272 237.542C751.734 237.742 751.118 237.842 750.425 237.842H749.278V241.195H747.952V232.009H750.385C751.505 232.009 752.385 232.242 753.025 232.709C753.669 233.171 753.992 233.886 753.992 234.855ZM752.592 234.869C752.592 234.193 752.396 233.718 752.005 233.442C751.618 233.166 751.121 233.029 750.512 233.029H749.278V236.802H750.492C750.901 236.802 751.263 236.744 751.578 236.629C751.894 236.513 752.141 236.315 752.318 236.035C752.501 235.755 752.592 235.366 752.592 234.869ZM761.21 232.009V233.042H759.19V240.155H761.21V241.195H755.836V240.155H757.856V233.042H755.836V232.009H761.21ZM775.292 231.842C775.901 231.842 776.412 231.92 776.826 232.075C777.244 232.231 777.635 232.458 777.999 232.755L777.286 233.595C777.001 233.36 776.699 233.189 776.379 233.082C776.059 232.971 775.724 232.915 775.372 232.915C774.888 232.915 774.441 233.033 774.032 233.269C773.624 233.504 773.295 233.891 773.046 234.429C772.797 234.966 772.672 235.689 772.672 236.595C772.672 237.48 772.79 238.191 773.026 238.729C773.266 239.262 773.588 239.651 773.992 239.895C774.401 240.135 774.857 240.255 775.359 240.255C775.861 240.255 776.277 240.178 776.606 240.022C776.939 239.862 777.228 239.68 777.472 239.475L778.132 240.322C777.844 240.606 777.468 240.851 777.006 241.055C776.548 241.26 775.988 241.362 775.326 241.362C774.566 241.362 773.881 241.18 773.272 240.815C772.668 240.451 772.188 239.915 771.832 239.209C771.477 238.498 771.299 237.626 771.299 236.595C771.299 235.564 771.479 234.695 771.839 233.989C772.204 233.282 772.688 232.749 773.292 232.389C773.901 232.024 774.568 231.842 775.292 231.842Z" fill="#7B00C7"/>
<rect x="0.75" y="107.75" width="180.5" height="70.5" rx="5.25" fill="#FDFDFD"/>
<rect x="0.75" y="107.75" width="180.5" height="70.5" rx="5.25" stroke="#467B95" stroke-width="1.5"/>
<path d="M18.7733 127.147C19.3822 127.147 19.8933 127.224 20.3067 127.38C20.7244 127.536 21.1156 127.762 21.48 128.06L20.7667 128.9C20.4822 128.664 20.18 128.493 19.86 128.387C19.54 128.276 19.2044 128.22 18.8533 128.22C18.3689 128.22 17.9222 128.338 17.5133 128.573C17.1044 128.809 16.7756 129.196 16.5267 129.733C16.2778 130.271 16.1533 130.993 16.1533 131.9C16.1533 132.784 16.2711 133.496 16.5067 134.033C16.7467 134.567 17.0689 134.956 17.4733 135.2C17.8822 135.44 18.3378 135.56 18.84 135.56C19.3422 135.56 19.7578 135.482 20.0867 135.327C20.42 135.167 20.7089 134.984 20.9533 134.78L21.6133 135.627C21.3244 135.911 20.9489 136.156 20.4867 136.36C20.0289 136.564 19.4689 136.667 18.8067 136.667C18.0467 136.667 17.3622 136.484 16.7533 136.12C16.1489 135.756 15.6689 135.22 15.3133 134.513C14.9578 133.802 14.78 132.931 14.78 131.9C14.78 130.869 14.96 130 15.32 129.293C15.6844 128.587 16.1689 128.053 16.7733 127.693C17.3822 127.329 18.0489 127.147 18.7733 127.147ZM23.7114 136.5V127.313H25.038V135.353H29.198L29.0514 136.5H23.7114ZM36.6828 127.313V128.347H34.6628V135.46H36.6828V136.5H31.3094V135.46H33.3294V128.347H31.3094V127.313H36.6828ZM40.9208 128.353V131.307H44.2941V132.353H40.9208V135.467H45.0475V136.5H39.5941V127.313H44.9475L44.7941 128.353H40.9208ZM51.1589 136.5L48.0589 128.533C48.0677 128.689 48.0855 128.956 48.1122 129.333C48.1433 129.707 48.1722 130.138 48.1989 130.627C48.2255 131.111 48.2389 131.596 48.2389 132.08V136.5H47.0389V127.313H48.7922L51.9255 135.3C51.9166 135.149 51.8966 134.898 51.8655 134.547C51.8344 134.191 51.8055 133.771 51.7789 133.287C51.7566 132.802 51.7455 132.284 51.7455 131.733V127.313H52.9455V136.5H51.1589ZM58.6302 128.413V136.5H57.3102V128.413H54.4836V127.313H61.5036L61.3636 128.413H58.6302ZM75.693 134.213H72.213L71.5197 136.5H70.193L73.153 127.313H74.8197L77.7863 136.5H76.3863L75.693 134.213ZM72.5197 133.153H75.3863L73.9597 128.38L72.5197 133.153ZM85.451 130.16C85.451 130.876 85.2977 131.453 84.991 131.893C84.6888 132.329 84.2688 132.647 83.731 132.847C83.1933 133.047 82.5777 133.147 81.8844 133.147H80.7377V136.5H79.411V127.313H81.8444C82.9644 127.313 83.8444 127.547 84.4844 128.013C85.1288 128.476 85.451 129.191 85.451 130.16ZM84.051 130.173C84.051 129.498 83.8555 129.022 83.4644 128.747C83.0777 128.471 82.5799 128.333 81.971 128.333H80.7377V132.107H81.951C82.3599 132.107 82.7222 132.049 83.0377 131.933C83.3533 131.818 83.5999 131.62 83.7777 131.34C83.9599 131.06 84.051 130.671 84.051 130.173ZM93.4491 130.16C93.4491 130.876 93.2958 131.453 92.9891 131.893C92.6869 132.329 92.2669 132.647 91.7291 132.847C91.1913 133.047 90.5758 133.147 89.8824 133.147H88.7358V136.5H87.4091V127.313H89.8424C90.9624 127.313 91.8424 127.547 92.4824 128.013C93.1269 128.476 93.4491 129.191 93.4491 130.16ZM92.0491 130.173C92.0491 129.498 91.8535 129.022 91.4624 128.747C91.0758 128.471 90.578 128.333 89.9691 128.333H88.7358V132.107H89.9491C90.358 132.107 90.7202 132.049 91.0358 131.933C91.3513 131.818 91.598 131.62 91.7758 131.34C91.958 131.06 92.0491 130.671 92.0491 130.173ZM95.6938 136.5V127.313H97.0205V135.353H101.18L101.034 136.5H95.6938ZM108.665 127.313V128.347H106.645V135.46H108.665V136.5H103.292V135.46H105.312V128.347H103.292V127.313H108.665ZM114.75 127.147C115.359 127.147 115.87 127.224 116.283 127.38C116.701 127.536 117.092 127.762 117.457 128.06L116.743 128.9C116.459 128.664 116.157 128.493 115.837 128.387C115.517 128.276 115.181 128.22 114.83 128.22C114.345 128.22 113.899 128.338 113.49 128.573C113.081 128.809 112.752 129.196 112.503 129.733C112.254 130.271 112.13 130.993 112.13 131.9C112.13 132.784 112.248 133.496 112.483 134.033C112.723 134.567 113.045 134.956 113.45 135.2C113.859 135.44 114.314 135.56 114.817 135.56C115.319 135.56 115.734 135.482 116.063 135.327C116.397 135.167 116.685 134.984 116.93 134.78L117.59 135.627C117.301 135.911 116.925 136.156 116.463 136.36C116.005 136.564 115.445 136.667 114.783 136.667C114.023 136.667 113.339 136.484 112.73 136.12C112.125 135.756 111.645 135.22 111.29 134.513C110.934 133.802 110.757 132.931 110.757 131.9C110.757 130.869 110.937 130 111.297 129.293C111.661 128.587 112.145 128.053 112.75 127.693C113.359 127.329 114.025 127.147 114.75 127.147ZM123.681 134.213H120.201L119.508 136.5H118.181L121.141 127.313H122.808L125.775 136.5H124.375L123.681 134.213ZM120.508 133.153H123.375L121.948 128.38L120.508 133.153ZM130.613 128.413V136.5H129.293V128.413H126.466V127.313H133.486L133.346 128.413H130.613ZM140.657 127.313V128.347H138.637V135.46H140.657V136.5H135.284V135.46H137.304V128.347H135.284V127.313H140.657ZM149.402 131.913C149.402 132.847 149.273 133.671 149.015 134.387C148.758 135.102 148.373 135.662 147.862 136.067C147.355 136.467 146.724 136.667 145.969 136.667C145.213 136.667 144.58 136.471 144.069 136.08C143.562 135.684 143.18 135.131 142.922 134.42C142.664 133.709 142.535 132.878 142.535 131.927C142.535 130.989 142.664 130.162 142.922 129.447C143.18 128.727 143.562 128.164 144.069 127.76C144.58 127.351 145.213 127.147 145.969 127.147C146.724 127.147 147.355 127.344 147.862 127.74C148.373 128.136 148.758 128.691 149.015 129.407C149.273 130.122 149.402 130.958 149.402 131.913ZM148.022 131.913C148.022 130.704 147.862 129.787 147.542 129.16C147.227 128.533 146.702 128.22 145.969 128.22C145.235 128.22 144.709 128.536 144.389 129.167C144.073 129.798 143.915 130.718 143.915 131.927C143.915 133.131 144.078 134.044 144.402 134.667C144.731 135.284 145.253 135.593 145.969 135.593C146.702 135.593 147.227 135.282 147.542 134.66C147.862 134.033 148.022 133.118 148.022 131.913ZM155.133 136.5L152.033 128.533C152.042 128.689 152.06 128.956 152.087 129.333C152.118 129.707 152.147 130.138 152.173 130.627C152.2 131.111 152.213 131.596 152.213 132.08V136.5H151.013V127.313H152.767L155.9 135.3C155.891 135.149 155.871 134.898 155.84 134.547C155.809 134.191 155.78 133.771 155.753 133.287C155.731 132.802 155.72 132.284 155.72 131.733V127.313H156.92V136.5H155.133ZM165.185 133.933C165.185 134.467 165.049 134.94 164.778 135.353C164.512 135.762 164.123 136.084 163.612 136.32C163.105 136.551 162.489 136.667 161.765 136.667C161.063 136.667 160.436 136.56 159.885 136.347C159.334 136.133 158.865 135.84 158.478 135.467L159.232 134.62C159.552 134.918 159.918 135.153 160.332 135.327C160.745 135.5 161.227 135.587 161.778 135.587C162.138 135.587 162.472 135.529 162.778 135.413C163.089 135.293 163.338 135.116 163.525 134.88C163.716 134.64 163.812 134.34 163.812 133.98C163.812 133.696 163.754 133.453 163.638 133.253C163.527 133.049 163.329 132.869 163.045 132.713C162.76 132.558 162.363 132.404 161.852 132.253C161.229 132.071 160.696 131.864 160.252 131.633C159.812 131.398 159.474 131.116 159.238 130.787C159.007 130.453 158.892 130.044 158.892 129.56C158.892 129.084 159.023 128.667 159.285 128.307C159.547 127.942 159.907 127.658 160.365 127.453C160.823 127.249 161.349 127.147 161.945 127.147C162.589 127.147 163.152 127.24 163.632 127.427C164.116 127.613 164.552 127.878 164.938 128.22L164.205 129.047C163.876 128.758 163.523 128.549 163.145 128.42C162.772 128.287 162.392 128.22 162.005 128.22C161.516 128.22 161.1 128.327 160.758 128.54C160.416 128.749 160.245 129.069 160.245 129.5C160.245 129.758 160.314 129.978 160.452 130.16C160.589 130.338 160.82 130.502 161.145 130.653C161.474 130.804 161.923 130.964 162.492 131.133C162.985 131.28 163.434 131.46 163.838 131.673C164.247 131.882 164.574 132.167 164.818 132.527C165.063 132.882 165.185 133.351 165.185 133.933Z" fill="#467B95"/>
<path d="M25.2713 152.414C25.6589 153.224 25.9644 154.071 26.1832 154.941C27.9232 154.429 29.0313 153.588 29.0313 152.566C29.0313 151.524 27.8813 150.669 26.0819 150.161" stroke="#467B95" stroke-linecap="round" stroke-linejoin="round"/>
<path d="M18.7207 152.414C18.3835 151.69 18.1116 150.937 17.9082 150.164C16.1138 150.672 14.9707 151.526 14.9707 152.566C14.9707 153.586 16.0751 154.427 17.8101 154.941" stroke="#467B95" stroke-linecap="round" stroke-linejoin="round"/>
<path d="M20.2657 149.739C20.7739 148.999 21.3549 148.312 22.0001 147.687C20.6876 146.437 19.4044 145.898 18.5194 146.409C17.6169 146.929 17.4513 148.353 17.9113 150.166" stroke="#467B95" stroke-linecap="round" stroke-linejoin="round"/>
<path d="M23.5413 155.413C23.0827 156.066 22.5669 156.678 22 157.241C23.3375 158.54 24.65 159.106 25.5506 158.586C26.4337 158.076 26.6094 156.699 26.185 154.941" stroke="#467B95" stroke-linecap="round" stroke-linejoin="round"/>
<path d="M20.4519 155.412C19.557 155.343 18.6713 155.184 17.8081 154.938C17.3806 156.701 17.5581 158.081 18.4406 158.592C19.3425 159.113 20.6581 158.545 21.9981 157.241" stroke="#467B95" stroke-linecap="round" stroke-linejoin="round"/>
<path d="M23.7275 149.739C24.5233 149.809 25.3112 149.951 26.0819 150.161C26.5387 148.353 26.3725 146.934 25.4719 146.411C24.5881 145.904 23.3088 146.437 22 147.687" stroke="#467B95" stroke-linecap="round" stroke-linejoin="round"/>
<path d="M23.7276 149.739C23.1763 149.686 22.6026 149.655 22.0001 149.655C21.3976 149.655 20.8195 149.686 20.2657 149.739C19.9813 150.149 19.7032 150.584 19.4351 151.048C19.167 151.511 18.9351 151.966 18.7207 152.414C18.9507 152.918 19.212 153.433 19.512 153.953C19.812 154.473 20.1295 154.959 20.4495 155.412C21.4774 155.5 22.5109 155.5 23.5388 155.413C24.2121 154.472 24.7919 153.468 25.2701 152.414C24.8336 151.48 24.3175 150.585 23.7276 149.739Z" stroke="#467B95" stroke-linecap="round" stroke-linejoin="round"/>
<path d="M21.0625 152.566C21.0625 152.815 21.1613 153.053 21.3371 153.229C21.5129 153.405 21.7514 153.504 22 153.504C22.2486 153.504 22.4871 153.405 22.6629 153.229C22.8387 153.053 22.9375 152.815 22.9375 152.566C22.9375 152.318 22.8387 152.079 22.6629 151.903C22.4871 151.728 22.2486 151.629 22 151.629C21.7514 151.629 21.5129 151.728 21.3371 151.903C21.1613 152.079 21.0625 152.318 21.0625 152.566Z" stroke="#467B95" stroke-linecap="round" stroke-linejoin="round"/>
<g clip-path="url(#clip3_451_236)">
<path d="M37.474 146.641V158.359L49.1927 146.641H37.474Z" stroke="#467B95" stroke-linecap="round" stroke-linejoin="round"/>
<path d="M43.3334 152.5L49.1928 158.359H37.474" stroke="#467B95" stroke-linecap="round" stroke-linejoin="round"/>
<path d="M43.3334 146.641L37.599 152.375" stroke="#467B95" stroke-linecap="round" stroke-linejoin="round"/>
</g>
<path d="M65.6937 151.875C63.2499 150.356 61.0812 146.975 61.0812 146.975C61.0812 146.975 62.8749 151.694 66.1687 154.794C65.1076 154.853 64.0466 154.678 63.0605 154.281C62.0745 153.885 61.1876 153.277 60.4624 152.5C60.0036 152.041 59.5989 151.532 59.2562 150.981C59.2341 150.954 59.2029 150.936 59.1683 150.93C59.1338 150.924 59.0984 150.931 59.0687 150.95C59.0344 150.968 59.0068 150.997 58.9899 151.031C58.9731 151.066 58.9678 151.106 58.9749 151.144C59.4077 152.697 60.2419 154.109 61.3937 155.237C64.0562 157.9 67.7249 158.637 70.0562 157.112C70.506 157.25 70.9689 157.34 71.4374 157.381C72.6499 158.006 72.6499 158.294 72.6499 158.294C72.8259 158.087 72.9464 157.84 73 157.574C73.0536 157.308 73.0385 157.033 72.9562 156.775C73.021 156.489 72.9957 156.19 72.8838 155.919C72.7718 155.649 72.5788 155.419 72.3312 155.262L71.7749 154.919C72.6187 152.619 71.7749 149.506 69.4312 147.169C69.2749 147.006 69.1124 146.856 68.9437 146.712C68.9152 146.687 68.8785 146.674 68.8406 146.674C68.8026 146.674 68.766 146.687 68.7374 146.712C68.7083 146.736 68.6881 146.768 68.6801 146.805C68.6721 146.841 68.6769 146.879 68.6937 146.912C70.0124 149.006 70.2062 151.4 69.1312 153.025C67.1179 151.284 65.385 149.244 63.9937 146.975" stroke="#467B95" stroke-linecap="round" stroke-linejoin="round"/>
<defs>
<clipPath id="clip0_451_236">
<rect width="16" height="16" fill="white" transform="translate(339.813 135)"/>
</clipPath>
<clipPath id="clip1_451_236">
<rect width="16" height="16" fill="white" transform="translate(647.615 40.8047)"/>
</clipPath>
<clipPath id="clip2_451_236">
<rect width="16" height="16" fill="white" transform="translate(647.615 229.195)"/>
</clipPath>
<clipPath id="clip3_451_236">
<rect width="13.3333" height="13.3333" fill="white" transform="translate(36.6667 145.833)"/>
</clipPath>
</defs>
</svg>
