<svg width="707" height="198" viewBox="0 0 707 198" fill="none" xmlns="http://www.w3.org/2000/svg">
<path d="M51.4036 16.7559H93.3729C102.69 16.7559 110.242 24.3085 110.242 33.6252V33.6252C110.242 42.9419 117.795 50.4945 127.112 50.4945H198.884" stroke="#467B95" stroke-width="1.5" stroke-dasharray="3 3"/>
<path d="M51.4036 163.188H93.3729C102.69 163.188 110.242 155.635 110.242 146.319V146.319C110.242 137.002 117.795 129.449 127.112 129.449H198.884" stroke="#467B95" stroke-width="1.5" stroke-dasharray="3 3"/>
<path d="M51.4036 114.188H83.3729C86.0621 114.188 88.2422 112.008 88.2422 109.319V109.319C88.2422 106.629 90.4223 104.449 93.1115 104.449H198.884" stroke="#467B95" stroke-width="1.5" stroke-dasharray="3 3"/>
<path d="M51.4036 68.188H84.3729C87.0621 68.188 89.2422 70.3681 89.2422 73.0573V73.0573C89.2422 75.7466 91.4223 77.9266 94.1115 77.9266H198.884" stroke="#467B95" stroke-width="1.5" stroke-dasharray="3 3"/>
<path d="M125.669 98.313C125.105 98.313 124.619 98.1813 124.209 97.918C123.802 97.6513 123.487 97.253 123.264 96.723C123.044 96.193 122.934 95.5313 122.934 94.738C122.934 94.1447 123.014 93.6263 123.174 93.183C123.334 92.7363 123.55 92.3647 123.824 92.068C124.1 91.7713 124.414 91.548 124.764 91.398C125.117 91.248 125.485 91.173 125.869 91.173C126.329 91.173 126.71 91.2397 127.014 91.373C127.317 91.5063 127.604 91.698 127.874 91.948L127.294 92.548C127.084 92.3513 126.865 92.208 126.639 92.118C126.415 92.0247 126.164 91.978 125.884 91.978C125.637 91.978 125.4 92.0263 125.174 92.123C124.947 92.2197 124.744 92.3747 124.564 92.588C124.387 92.8013 124.245 93.0847 124.139 93.438C124.035 93.788 123.984 94.2213 123.984 94.738C123.984 95.3913 124.049 95.923 124.179 96.333C124.312 96.7397 124.509 97.038 124.769 97.228C125.032 97.4147 125.355 97.508 125.739 97.508C125.965 97.508 126.18 97.4813 126.384 97.428C126.587 97.3747 126.784 97.2963 126.974 97.193V95.178H125.699L125.584 94.388H127.949V97.698C127.632 97.8713 127.294 98.018 126.934 98.138C126.577 98.2547 126.155 98.313 125.669 98.313ZM133.925 93.253C133.925 93.5963 133.851 93.8947 133.705 94.148C133.561 94.4013 133.366 94.613 133.12 94.783C132.873 94.9497 132.596 95.073 132.29 95.153L134.295 98.188H133.12L131.305 95.283H130.45V98.188H129.455V91.298H131.29C132.156 91.298 132.811 91.463 133.255 91.793C133.701 92.1197 133.925 92.6063 133.925 93.253ZM132.87 93.253C132.87 92.8297 132.746 92.5247 132.5 92.338C132.256 92.1513 131.881 92.058 131.375 92.058H130.45V94.528H131.385C131.858 94.528 132.223 94.4313 132.48 94.238C132.74 94.0413 132.87 93.713 132.87 93.253ZM138.786 96.473H136.176L135.656 98.188H134.661L136.881 91.298H138.131L140.356 98.188H139.306L138.786 96.473ZM136.406 95.678H138.556L137.486 92.098L136.406 95.678ZM145.052 93.443C145.052 93.103 144.985 92.833 144.852 92.633C144.719 92.4297 144.535 92.2847 144.302 92.198C144.069 92.108 143.799 92.063 143.492 92.063H142.567V94.893H143.477C143.784 94.893 144.055 94.8497 144.292 94.763C144.529 94.6763 144.714 94.528 144.847 94.318C144.984 94.1047 145.052 93.813 145.052 93.443ZM146.102 93.433C146.102 93.9697 145.987 94.403 145.757 94.733C145.53 95.0597 145.215 95.298 144.812 95.448C144.412 95.598 143.95 95.673 143.427 95.673H142.567V98.188H141.572V91.298H143.397C144.237 91.298 144.897 91.473 145.377 91.823C145.86 92.1697 146.102 92.7063 146.102 93.433ZM150.723 98.188V94.978H148.273V98.188H147.283V91.298H148.273V94.163H150.723V91.298H151.713V98.188H150.723ZM158.064 94.748C158.064 95.228 158.017 95.6713 157.924 96.078C157.834 96.4847 157.684 96.843 157.474 97.153C157.267 97.4597 156.987 97.7097 156.634 97.903C156.964 97.9663 157.246 98.0613 157.479 98.188C157.712 98.3113 157.909 98.4813 158.069 98.698C158.232 98.918 158.371 99.1997 158.484 99.543L157.504 99.918C157.364 99.5647 157.206 99.2663 157.029 99.023C156.856 98.783 156.639 98.5997 156.379 98.473C156.119 98.3497 155.791 98.288 155.394 98.288C154.857 98.288 154.406 98.143 154.039 97.853C153.672 97.563 153.396 97.153 153.209 96.623C153.022 96.093 152.929 95.4713 152.929 94.758C152.929 94.0547 153.024 93.4347 153.214 92.898C153.407 92.358 153.694 91.9363 154.074 91.633C154.457 91.3263 154.931 91.173 155.494 91.173C156.064 91.173 156.539 91.3213 156.919 91.618C157.299 91.9147 157.584 92.3313 157.774 92.868C157.967 93.4013 158.064 94.028 158.064 94.748ZM157.034 94.748C157.034 93.8413 156.916 93.153 156.679 92.683C156.442 92.213 156.047 91.978 155.494 91.978C154.944 91.978 154.551 92.2147 154.314 92.688C154.077 93.158 153.959 93.848 153.959 94.758C153.959 95.6613 154.081 96.3463 154.324 96.813C154.571 97.2763 154.961 97.508 155.494 97.508C156.044 97.508 156.437 97.2747 156.674 96.808C156.914 96.3413 157.034 95.6547 157.034 94.748ZM159.775 98.188V91.298H160.77V97.328H163.89L163.78 98.188H159.775ZM119.095 114.748C119.095 115.448 118.998 116.066 118.805 116.603C118.611 117.14 118.323 117.56 117.94 117.863C117.56 118.163 117.086 118.313 116.52 118.313C115.956 118.313 115.483 118.166 115.1 117.873C114.716 117.576 114.428 117.161 114.235 116.628C114.041 116.095 113.945 115.471 113.945 114.758C113.945 114.055 114.041 113.435 114.235 112.898C114.428 112.358 114.716 111.936 115.1 111.633C115.483 111.326 115.956 111.173 116.52 111.173C117.086 111.173 117.56 111.321 117.94 111.618C118.323 111.915 118.611 112.331 118.805 112.868C118.998 113.401 119.095 114.028 119.095 114.748ZM118.06 114.748C118.06 113.841 117.94 113.153 117.7 112.683C117.463 112.213 117.07 111.978 116.52 111.978C115.97 111.978 115.575 112.215 115.335 112.688C115.098 113.161 114.98 113.851 114.98 114.758C114.98 115.661 115.103 116.346 115.35 116.813C115.596 117.276 115.986 117.508 116.52 117.508C117.07 117.508 117.463 117.275 117.7 116.808C117.94 116.341 118.06 115.655 118.06 114.748ZM124.066 113.443C124.066 113.103 123.999 112.833 123.866 112.633C123.732 112.43 123.549 112.285 123.316 112.198C123.082 112.108 122.812 112.063 122.506 112.063H121.581V114.893H122.491C122.797 114.893 123.069 114.85 123.306 114.763C123.542 114.676 123.727 114.528 123.861 114.318C123.997 114.105 124.066 113.813 124.066 113.443ZM125.116 113.433C125.116 113.97 125.001 114.403 124.771 114.733C124.544 115.06 124.229 115.298 123.826 115.448C123.426 115.598 122.964 115.673 122.441 115.673H121.581V118.188H120.586V111.298H122.411C123.251 111.298 123.911 111.473 124.391 111.823C124.874 112.17 125.116 112.706 125.116 113.433ZM127.707 112.078V114.293H130.237V115.078H127.707V117.413H130.802V118.188H126.712V111.298H130.727L130.612 112.078H127.707ZM136.923 113.253C136.923 113.596 136.849 113.895 136.703 114.148C136.559 114.401 136.364 114.613 136.118 114.783C135.871 114.95 135.594 115.073 135.288 115.153L137.293 118.188H136.118L134.303 115.283H133.448V118.188H132.453V111.298H134.288C135.154 111.298 135.809 111.463 136.253 111.793C136.699 112.12 136.923 112.606 136.923 113.253ZM135.868 113.253C135.868 112.83 135.744 112.525 135.498 112.338C135.254 112.151 134.879 112.058 134.373 112.058H133.448V114.528H134.383C134.856 114.528 135.221 114.431 135.478 114.238C135.738 114.041 135.868 113.713 135.868 113.253ZM141.784 116.473H139.174L138.654 118.188H137.659L139.879 111.298H141.129L143.354 118.188H142.304L141.784 116.473ZM139.404 115.678H141.554L140.484 112.098L139.404 115.678ZM146.98 112.123V118.188H145.99V112.123H143.87V111.298H149.135L149.03 112.123H146.98ZM154.511 111.298V112.073H152.996V117.408H154.511V118.188H150.481V117.408H151.996V112.073H150.481V111.298H154.511ZM161.067 114.748C161.067 115.448 160.971 116.066 160.777 116.603C160.584 117.14 160.296 117.56 159.912 117.863C159.532 118.163 159.059 118.313 158.492 118.313C157.929 118.313 157.456 118.166 157.072 117.873C156.689 117.576 156.401 117.161 156.207 116.628C156.014 116.095 155.917 115.471 155.917 114.758C155.917 114.055 156.014 113.435 156.207 112.898C156.401 112.358 156.689 111.936 157.072 111.633C157.456 111.326 157.929 111.173 158.492 111.173C159.059 111.173 159.532 111.321 159.912 111.618C160.296 111.915 160.584 112.331 160.777 112.868C160.971 113.401 161.067 114.028 161.067 114.748ZM160.032 114.748C160.032 113.841 159.912 113.153 159.672 112.683C159.436 112.213 159.042 111.978 158.492 111.978C157.942 111.978 157.547 112.215 157.307 112.688C157.071 113.161 156.952 113.851 156.952 114.758C156.952 115.661 157.076 116.346 157.322 116.813C157.569 117.276 157.959 117.508 158.492 117.508C159.042 117.508 159.436 117.275 159.672 116.808C159.912 116.341 160.032 115.655 160.032 114.748ZM165.363 118.188L163.038 112.213C163.045 112.3 163.055 112.435 163.068 112.618C163.082 112.801 163.097 113.016 163.113 113.263C163.13 113.51 163.143 113.771 163.153 114.048C163.167 114.325 163.173 114.6 163.173 114.873V118.188H162.273V111.298H163.588L165.938 117.288C165.932 117.175 165.917 116.986 165.893 116.723C165.87 116.456 165.848 116.141 165.828 115.778C165.812 115.411 165.803 115.023 165.803 114.613V111.298H166.703V118.188H165.363ZM172.899 116.263C172.899 116.663 172.798 117.018 172.594 117.328C172.394 117.635 172.104 117.876 171.724 118.053C171.344 118.226 170.881 118.313 170.334 118.313C169.808 118.313 169.338 118.233 168.924 118.073C168.511 117.913 168.159 117.693 167.869 117.413L168.434 116.778C168.674 117.001 168.949 117.178 169.259 117.308C169.569 117.438 169.931 117.503 170.344 117.503C170.614 117.503 170.864 117.46 171.094 117.373C171.328 117.283 171.514 117.15 171.654 116.973C171.798 116.793 171.869 116.568 171.869 116.298C171.869 116.081 171.826 115.898 171.739 115.748C171.656 115.598 171.508 115.465 171.294 115.348C171.081 115.231 170.783 115.116 170.399 115.003C169.933 114.863 169.533 114.708 169.199 114.538C168.869 114.365 168.616 114.153 168.439 113.903C168.266 113.653 168.179 113.346 168.179 112.983C168.179 112.626 168.278 112.313 168.474 112.043C168.671 111.77 168.941 111.556 169.284 111.403C169.631 111.25 170.026 111.173 170.469 111.173C170.953 111.173 171.374 111.243 171.734 111.383C172.098 111.52 172.424 111.718 172.714 111.978L172.164 112.598C171.921 112.381 171.658 112.225 171.374 112.128C171.091 112.028 170.804 111.978 170.514 111.978C170.271 111.978 170.049 112.015 169.849 112.088C169.649 112.158 169.489 112.263 169.369 112.403C169.253 112.543 169.194 112.721 169.194 112.938C169.194 113.128 169.246 113.291 169.349 113.428C169.453 113.561 169.628 113.686 169.874 113.803C170.121 113.916 170.456 114.036 170.879 114.163C171.249 114.27 171.588 114.403 171.894 114.563C172.201 114.723 172.444 114.938 172.624 115.208C172.808 115.475 172.899 115.826 172.899 116.263Z" fill="#467B95"/>
<path d="M3.58 184.983C4.03667 184.983 4.42 185.041 4.73 185.158C5.04333 185.275 5.33667 185.445 5.61 185.668L5.075 186.298C4.86167 186.121 4.635 185.993 4.395 185.913C4.15833 185.83 3.90667 185.788 3.64 185.788C3.28 185.788 2.945 185.876 2.635 186.053C2.32833 186.23 2.08167 186.52 1.895 186.923C1.70833 187.326 1.615 187.868 1.615 188.548C1.615 189.211 1.70333 189.745 1.88 190.148C2.06 190.548 2.30167 190.84 2.605 191.023C2.91167 191.203 3.25333 191.293 3.63 191.293C4.01 191.293 4.32167 191.235 4.565 191.118C4.81167 190.998 5.02833 190.861 5.215 190.708L5.71 191.343C5.49333 191.553 5.21167 191.736 4.865 191.893C4.52167 192.046 4.10167 192.123 3.605 192.123C3.035 192.123 2.52167 191.986 2.065 191.713C1.60833 191.44 1.24667 191.038 0.98 190.508C0.716667 189.975 0.585 189.321 0.585 188.548C0.585 187.775 0.72 187.123 0.99 186.593C1.26333 186.063 1.62667 185.663 2.08 185.393C2.53667 185.12 3.03667 184.983 3.58 184.983ZM7.28109 191.998V185.108H8.27609V191.138H11.3961L11.2861 191.998H7.28109ZM17.0072 185.108V185.883H15.4922V191.218H17.0072V191.998H12.9772V191.218H14.4922V185.883H12.9772V185.108H17.0072ZM20.1833 185.888V188.103H22.7133V188.888H20.1833V191.223H23.2783V191.998H19.1883V185.108H23.2033L23.0883 185.888H20.1833ZM27.8594 191.998L25.5344 186.023C25.541 186.11 25.551 186.245 25.5644 186.428C25.5777 186.611 25.5927 186.826 25.6094 187.073C25.626 187.32 25.6394 187.581 25.6494 187.858C25.6627 188.135 25.6694 188.41 25.6694 188.683V191.998H24.7694V185.108H26.0844L28.4344 191.098C28.4277 190.985 28.4127 190.796 28.3894 190.533C28.366 190.266 28.3444 189.951 28.3244 189.588C28.3077 189.221 28.2994 188.833 28.2994 188.423V185.108H29.1994V191.998H27.8594ZM33.4605 185.933V191.998H32.4705V185.933H30.3505V185.108H35.6155L35.5105 185.933H33.4605ZM46.2527 190.283H43.6427L43.1227 191.998H42.1277L44.3477 185.108H45.5977L47.8227 191.998H46.7727L46.2527 190.283ZM43.8727 189.488H46.0227L44.9527 185.908L43.8727 189.488ZM52.5188 187.253C52.5188 186.913 52.4521 186.643 52.3188 186.443C52.1854 186.24 52.0021 186.095 51.7688 186.008C51.5354 185.918 51.2654 185.873 50.9588 185.873H50.0338V188.703H50.9438C51.2504 188.703 51.5221 188.66 51.7588 188.573C51.9954 188.486 52.1804 188.338 52.3138 188.128C52.4504 187.915 52.5188 187.623 52.5188 187.253ZM53.5688 187.243C53.5688 187.78 53.4538 188.213 53.2237 188.543C52.9971 188.87 52.6821 189.108 52.2788 189.258C51.8788 189.408 51.4171 189.483 50.8938 189.483H50.0338V191.998H49.0388V185.108H50.8638C51.7038 185.108 52.3638 185.283 52.8438 185.633C53.3271 185.98 53.5688 186.516 53.5688 187.243ZM58.5148 187.253C58.5148 186.913 58.4482 186.643 58.3148 186.443C58.1815 186.24 57.9982 186.095 57.7648 186.008C57.5315 185.918 57.2615 185.873 56.9548 185.873H56.0298V188.703H56.9398C57.2465 188.703 57.5182 188.66 57.7548 188.573C57.9915 188.486 58.1765 188.338 58.3098 188.128C58.4465 187.915 58.5148 187.623 58.5148 187.253ZM59.5648 187.243C59.5648 187.78 59.4498 188.213 59.2198 188.543C58.9932 188.87 58.6782 189.108 58.2748 189.258C57.8748 189.408 57.4132 189.483 56.8898 189.483H56.0298V191.998H55.0348V185.108H56.8598C57.6998 185.108 58.3598 185.283 58.8398 185.633C59.3232 185.98 59.5648 186.516 59.5648 187.243ZM65.3759 190.073C65.3759 190.473 65.2743 190.828 65.0709 191.138C64.8709 191.445 64.5809 191.686 64.2009 191.863C63.8209 192.036 63.3576 192.123 62.8109 192.123C62.2843 192.123 61.8143 192.043 61.4009 191.883C60.9876 191.723 60.6359 191.503 60.3459 191.223L60.9109 190.588C61.1509 190.811 61.4259 190.988 61.7359 191.118C62.0459 191.248 62.4076 191.313 62.8209 191.313C63.0909 191.313 63.3409 191.27 63.5709 191.183C63.8043 191.093 63.9909 190.96 64.1309 190.783C64.2743 190.603 64.3459 190.378 64.3459 190.108C64.3459 189.891 64.3026 189.708 64.2159 189.558C64.1326 189.408 63.9843 189.275 63.7709 189.158C63.5576 189.041 63.2593 188.926 62.8759 188.813C62.4093 188.673 62.0093 188.518 61.6759 188.348C61.3459 188.175 61.0926 187.963 60.9159 187.713C60.7426 187.463 60.6559 187.156 60.6559 186.793C60.6559 186.436 60.7543 186.123 60.9509 185.853C61.1476 185.58 61.4176 185.366 61.7609 185.213C62.1076 185.06 62.5026 184.983 62.9459 184.983C63.4293 184.983 63.8509 185.053 64.2109 185.193C64.5743 185.33 64.9009 185.528 65.1909 185.788L64.6409 186.408C64.3976 186.191 64.1343 186.035 63.8509 185.938C63.5676 185.838 63.2809 185.788 62.9909 185.788C62.7476 185.788 62.5259 185.825 62.3259 185.898C62.1259 185.968 61.9659 186.073 61.8459 186.213C61.7293 186.353 61.6709 186.531 61.6709 186.748C61.6709 186.938 61.7226 187.101 61.8259 187.238C61.9293 187.371 62.1043 187.496 62.3509 187.613C62.5976 187.726 62.9326 187.846 63.3559 187.973C63.7259 188.08 64.0643 188.213 64.3709 188.373C64.6776 188.533 64.9209 188.748 65.1009 189.018C65.2843 189.285 65.3759 189.636 65.3759 190.073Z" fill="#467B95"/>
<path d="M21.2266 114.974V103.072C21.2266 102.153 21.9718 101.408 22.8911 101.408H39.0974C40.0167 101.408 40.7619 102.153 40.7619 103.072V114.974M21.2266 114.974H40.7619M21.2266 114.974L19.3836 121.49C19.0831 122.552 19.8813 123.607 20.9853 123.607H41.0032C42.1072 123.607 42.9054 122.552 42.6049 121.49L40.7619 114.974" stroke="#467B95" stroke-width="1.2484"/>
<path d="M29.8848 120.277L32.1047 120.277" stroke="#467B95" stroke-width="1.2484" stroke-linecap="round" stroke-linejoin="round"/>
<g clip-path="url(#clip0_716_1100)">
<path d="M24.1104 73.0784V55.0426C24.1104 53.8475 25.0792 52.8787 26.2743 52.8787H35.5127C36.7077 52.8787 37.6766 53.8475 37.6766 55.0426V73.0784C37.6766 74.2735 36.7077 75.2423 35.5127 75.2423H26.2742C25.0792 75.2423 24.1104 74.2735 24.1104 73.0784Z" stroke="#467B95" stroke-width="1.2484"/>
<path d="M29.7856 54.2378L32.0056 54.2378" stroke="#467B95" stroke-width="2.4968" stroke-linecap="round" stroke-linejoin="round"/>
<path d="M28.0044 72.6614H33.7912" stroke="#467B95" stroke-width="1.2484" stroke-linecap="round" stroke-linejoin="round"/>
</g>
<path d="M34.9419 21.4399V24.9208C34.9419 25.4441 34.734 25.946 34.3639 26.3161C33.9939 26.6861 33.492 26.894 32.9686 26.894H29.0221C28.4988 26.894 27.9968 26.6861 27.6268 26.3161C27.2567 25.946 27.0488 25.4441 27.0488 24.9208V21.4399M27.0488 12.6155V9.13464C27.0488 8.6113 27.2567 8.10939 27.6268 7.73933C27.9968 7.36927 28.4988 7.16138 29.0221 7.16138H32.9686C33.492 7.16138 33.9939 7.36927 34.3639 7.73933C34.734 8.10939 34.9419 8.6113 34.9419 9.13464V12.6155" stroke="#467B95" stroke-width="1.2484" stroke-linecap="round" stroke-linejoin="round"/>
<rect x="26.2429" y="12.6469" width="9.50532" height="8.76149" rx="1.04034" stroke="#467B95" stroke-width="1.2484"/>
<path d="M302 105.436H587" stroke="#25855A" stroke-width="1.5"/>
<path d="M302 176.188L407 176.188" stroke="#7B00C7" stroke-width="1.5"/>
<path d="M499.475 176.161L587.475 176.161" stroke="#7B00C7" stroke-width="1.5" stroke-dasharray="3 3"/>
<rect x="587.75" y="151.667" width="118.5" height="44.5" rx="5.25" fill="#FDFDFD"/>
<rect x="587.75" y="151.667" width="118.5" height="44.5" rx="5.25" stroke="#7B00C7" stroke-width="1.5"/>
<path d="M633.237 170.917V167.707H630.787V170.917H629.797V164.027H630.787V166.892H633.237V164.027H634.227V170.917H633.237ZM640.583 167.477C640.583 168.177 640.486 168.795 640.293 169.332C640.099 169.868 639.811 170.288 639.428 170.592C639.048 170.892 638.574 171.042 638.008 171.042C637.444 171.042 636.971 170.895 636.588 170.602C636.204 170.305 635.916 169.89 635.723 169.357C635.529 168.823 635.433 168.2 635.433 167.487C635.433 166.783 635.529 166.163 635.723 165.627C635.916 165.087 636.204 164.665 636.588 164.362C636.971 164.055 637.444 163.902 638.008 163.902C638.574 163.902 639.048 164.05 639.428 164.347C639.811 164.643 640.099 165.06 640.293 165.597C640.486 166.13 640.583 166.757 640.583 167.477ZM639.548 167.477C639.548 166.57 639.428 165.882 639.188 165.412C638.951 164.942 638.558 164.707 638.008 164.707C637.458 164.707 637.063 164.943 636.823 165.417C636.586 165.89 636.468 166.58 636.468 167.487C636.468 168.39 636.591 169.075 636.838 169.542C637.084 170.005 637.474 170.237 638.008 170.237C638.558 170.237 638.951 170.003 639.188 169.537C639.428 169.07 639.548 168.383 639.548 167.477ZM644.484 164.852V170.917H643.494V164.852H641.374V164.027H646.639L646.534 164.852H644.484ZM649.195 164.807V167.022H651.725V167.807H649.195V170.142H652.29V170.917H648.2V164.027H652.215L652.1 164.807H649.195ZM654.281 170.917V164.027H655.276V170.057H658.396L658.286 170.917H654.281ZM664.407 168.992C664.407 169.392 664.306 169.747 664.102 170.057C663.902 170.363 663.612 170.605 663.232 170.782C662.852 170.955 662.389 171.042 661.842 171.042C661.316 171.042 660.846 170.962 660.432 170.802C660.019 170.642 659.667 170.422 659.377 170.142L659.942 169.507C660.182 169.73 660.457 169.907 660.767 170.037C661.077 170.167 661.439 170.232 661.852 170.232C662.122 170.232 662.372 170.188 662.602 170.102C662.836 170.012 663.022 169.878 663.162 169.702C663.306 169.522 663.377 169.297 663.377 169.027C663.377 168.81 663.334 168.627 663.247 168.477C663.164 168.327 663.016 168.193 662.802 168.077C662.589 167.96 662.291 167.845 661.907 167.732C661.441 167.592 661.041 167.437 660.707 167.267C660.377 167.093 660.124 166.882 659.947 166.632C659.774 166.382 659.687 166.075 659.687 165.712C659.687 165.355 659.786 165.042 659.982 164.772C660.179 164.498 660.449 164.285 660.792 164.132C661.139 163.978 661.534 163.902 661.977 163.902C662.461 163.902 662.882 163.972 663.242 164.112C663.606 164.248 663.932 164.447 664.222 164.707L663.672 165.327C663.429 165.11 663.166 164.953 662.882 164.857C662.599 164.757 662.312 164.707 662.022 164.707C661.779 164.707 661.557 164.743 661.357 164.817C661.157 164.887 660.997 164.992 660.877 165.132C660.761 165.272 660.702 165.45 660.702 165.667C660.702 165.857 660.754 166.02 660.857 166.157C660.961 166.29 661.136 166.415 661.382 166.532C661.629 166.645 661.964 166.765 662.387 166.892C662.757 166.998 663.096 167.132 663.402 167.292C663.709 167.452 663.952 167.667 664.132 167.937C664.316 168.203 664.407 168.555 664.407 168.992ZM626.171 184.042C625.607 184.042 625.121 183.91 624.711 183.647C624.304 183.38 623.989 182.982 623.766 182.452C623.546 181.922 623.436 181.26 623.436 180.467C623.436 179.873 623.516 179.355 623.676 178.912C623.836 178.465 624.052 178.093 624.326 177.797C624.602 177.5 624.916 177.277 625.266 177.127C625.619 176.977 625.987 176.902 626.371 176.902C626.831 176.902 627.212 176.968 627.516 177.102C627.819 177.235 628.106 177.427 628.376 177.677L627.796 178.277C627.586 178.08 627.367 177.937 627.141 177.847C626.917 177.753 626.666 177.707 626.386 177.707C626.139 177.707 625.902 177.755 625.676 177.852C625.449 177.948 625.246 178.103 625.066 178.317C624.889 178.53 624.747 178.813 624.641 179.167C624.537 179.517 624.486 179.95 624.486 180.467C624.486 181.12 624.551 181.652 624.681 182.062C624.814 182.468 625.011 182.767 625.271 182.957C625.534 183.143 625.857 183.237 626.241 183.237C626.467 183.237 626.682 183.21 626.886 183.157C627.089 183.103 627.286 183.025 627.476 182.922V180.907H626.201L626.086 180.117H628.451V183.427C628.134 183.6 627.796 183.747 627.436 183.867C627.079 183.983 626.657 184.042 626.171 184.042ZM634.427 178.982C634.427 179.325 634.353 179.623 634.207 179.877C634.063 180.13 633.868 180.342 633.622 180.512C633.375 180.678 633.098 180.802 632.792 180.882L634.797 183.917H633.622L631.807 181.012H630.952V183.917H629.957V177.027H631.792C632.658 177.027 633.313 177.192 633.757 177.522C634.203 177.848 634.427 178.335 634.427 178.982ZM633.372 178.982C633.372 178.558 633.248 178.253 633.002 178.067C632.758 177.88 632.383 177.787 631.877 177.787H630.952V180.257H631.887C632.36 180.257 632.725 180.16 632.982 179.967C633.242 179.77 633.372 179.442 633.372 178.982ZM639.558 179.172C639.558 178.832 639.491 178.562 639.358 178.362C639.224 178.158 639.041 178.013 638.808 177.927C638.574 177.837 638.304 177.792 637.998 177.792H637.073V180.622H637.983C638.289 180.622 638.561 180.578 638.798 180.492C639.034 180.405 639.219 180.257 639.353 180.047C639.489 179.833 639.558 179.542 639.558 179.172ZM640.608 179.162C640.608 179.698 640.493 180.132 640.263 180.462C640.036 180.788 639.721 181.027 639.318 181.177C638.918 181.327 638.456 181.402 637.933 181.402H637.073V183.917H636.078V177.027H637.903C638.743 177.027 639.403 177.202 639.883 177.552C640.366 177.898 640.608 178.435 640.608 179.162ZM644.584 176.902C645.041 176.902 645.424 176.96 645.734 177.077C646.047 177.193 646.341 177.363 646.614 177.587L646.079 178.217C645.866 178.04 645.639 177.912 645.399 177.832C645.162 177.748 644.911 177.707 644.644 177.707C644.284 177.707 643.949 177.795 643.639 177.972C643.332 178.148 643.086 178.438 642.899 178.842C642.712 179.245 642.619 179.787 642.619 180.467C642.619 181.13 642.707 181.663 642.884 182.067C643.064 182.467 643.306 182.758 643.609 182.942C643.916 183.122 644.257 183.212 644.634 183.212C645.014 183.212 645.326 183.153 645.569 183.037C645.816 182.917 646.032 182.78 646.219 182.627L646.714 183.262C646.497 183.472 646.216 183.655 645.869 183.812C645.526 183.965 645.106 184.042 644.609 184.042C644.039 184.042 643.526 183.905 643.069 183.632C642.612 183.358 642.251 182.957 641.984 182.427C641.721 181.893 641.589 181.24 641.589 180.467C641.589 179.693 641.724 179.042 641.994 178.512C642.267 177.982 642.631 177.582 643.084 177.312C643.541 177.038 644.041 176.902 644.584 176.902ZM657.276 182.202H654.666L654.146 183.917H653.151L655.371 177.027H656.621L658.846 183.917H657.796L657.276 182.202ZM654.896 181.407H657.046L655.976 177.827L654.896 181.407ZM663.542 179.172C663.542 178.832 663.476 178.562 663.342 178.362C663.209 178.158 663.026 178.013 662.792 177.927C662.559 177.837 662.289 177.792 661.982 177.792H661.057V180.622H661.967C662.274 180.622 662.546 180.578 662.782 180.492C663.019 180.405 663.204 180.257 663.337 180.047C663.474 179.833 663.542 179.542 663.542 179.172ZM664.592 179.162C664.592 179.698 664.477 180.132 664.247 180.462C664.021 180.788 663.706 181.027 663.302 181.177C662.902 181.327 662.441 181.402 661.917 181.402H661.057V183.917H660.062V177.027H661.887C662.727 177.027 663.387 177.202 663.867 177.552C664.351 177.898 664.592 178.435 664.592 179.162ZM670.003 177.027V177.802H668.488V183.137H670.003V183.917H665.973V183.137H667.488V177.802H665.973V177.027H670.003Z" fill="#7B00C7"/>
<circle cx="30.284" cy="162.511" r="12.7013" stroke="#467B95" stroke-width="1.24349"/>
<mask id="mask0_716_1100" style="mask-type:alpha" maskUnits="userSpaceOnUse" x="16" y="149" width="28" height="27">
<path d="M42.9854 162.511C42.9854 169.526 37.2988 175.212 30.284 175.212C23.2693 175.212 17.5827 169.526 17.5827 162.511C17.5827 155.496 23.2693 149.81 30.284 149.81C37.2988 149.81 42.9854 155.496 42.9854 162.511Z" fill="#FFEADB" stroke="#15252D" stroke-width="1.24349"/>
</mask>
<g mask="url(#mask0_716_1100)">
<circle cx="36.2529" cy="155.263" r="1.81194" stroke="#467B95" stroke-width="1.24349"/>
<circle cx="22.184" cy="163.364" r="1.81194" stroke="#467B95" stroke-width="1.24349"/>
<circle cx="33.6948" cy="165.282" r="1.81194" stroke="#467B95" stroke-width="1.24349"/>
<circle cx="27.5131" cy="154.197" r="1.81194" stroke="#467B95" stroke-width="1.24349"/>
<circle cx="27.5131" cy="169.759" r="1.81194" stroke="#467B95" stroke-width="1.24349"/>
<path d="M25.701 153.558C23.5693 152.812 23.5693 151.959 23.2495 151.426M34.4409 155.476C34.4409 155.476 32.7389 155.542 31.6697 155.37C30.7326 155.219 29.3248 154.73 29.3248 154.73" stroke="#467B95" stroke-width="1.24349"/>
<path d="M26.5537 155.796C26.5537 155.796 25.0189 156.756 23.9957 158.461C23.5073 159.275 22.8232 161.658 22.8232 161.658" stroke="#467B95" stroke-width="1.24349"/>
<path d="M27.9393 156.009C27.9393 156.009 27.4867 158.941 28.3656 160.699C29.3249 162.618 31.9895 164.536 31.9895 164.536" stroke="#467B95" stroke-width="1.24349"/>
<path d="M36.0396 157.075C36.0396 157.075 36.3995 159.043 35.7199 160.912C35.2935 162.085 34.1211 163.577 34.1211 163.577" stroke="#467B95" stroke-width="1.24349"/>
<path d="M43.6073 159.633C43.6073 159.633 42.6374 157.039 41.1133 156.041C39.1719 154.77 38.0649 155.243 38.0649 155.243" stroke="#467B95" stroke-width="1.24349"/>
<path d="M20.1585 163.044C20.1585 163.044 19.4401 163.044 18.5164 164.038C17.6669 164.952 17.2808 165.069 17.2808 165.069" stroke="#467B95" stroke-width="1.24349"/>
<path d="M34.4408 166.988C34.4408 166.988 34.66 168.604 35.7392 170.442C36.4162 171.595 38.2778 173.063 38.2778 173.063" stroke="#467B95" stroke-width="1.24349"/>
<path d="M32.7356 166.881C32.7356 166.881 32.1169 167.681 31.35 168.16C30.4973 168.693 29.2183 169.013 29.2183 169.013" stroke="#467B95" stroke-width="1.24349"/>
<path d="M22.9297 165.176C22.9297 165.176 23.1938 166.621 23.7824 167.308C24.4219 168.054 25.9141 168.693 25.9141 168.693" stroke="#467B95" stroke-width="1.24349"/>
<path d="M27.6194 171.571C27.6194 171.571 27.726 172.743 27.1931 173.489C26.6975 174.183 25.9141 174.981 25.9141 174.981" stroke="#467B95" stroke-width="1.24349"/>
<path d="M34.8303 156.436C34.8303 156.436 29.553 157.222 27.2996 159.74C25.2039 162.082 24.1021 163.364 24.1021 163.364" stroke="#467B95" stroke-width="1.24349"/>
</g>
<path d="M432.02 100.561C431.457 100.561 430.97 100.429 430.56 100.166C430.153 99.8994 429.838 99.501 429.615 98.971C429.395 98.441 429.285 97.7794 429.285 96.986C429.285 96.3927 429.365 95.8744 429.525 95.431C429.685 94.9844 429.902 94.6127 430.175 94.316C430.452 94.0194 430.765 93.796 431.115 93.646C431.468 93.496 431.837 93.421 432.22 93.421C432.68 93.421 433.062 93.4877 433.365 93.621C433.668 93.7544 433.955 93.946 434.225 94.196L433.645 94.796C433.435 94.5994 433.217 94.456 432.99 94.366C432.767 94.2727 432.515 94.226 432.235 94.226C431.988 94.226 431.752 94.2744 431.525 94.371C431.298 94.4677 431.095 94.6227 430.915 94.836C430.738 95.0494 430.597 95.3327 430.49 95.686C430.387 96.036 430.335 96.4694 430.335 96.986C430.335 97.6394 430.4 98.171 430.53 98.581C430.663 98.9877 430.86 99.286 431.12 99.476C431.383 99.6627 431.707 99.756 432.09 99.756C432.317 99.756 432.532 99.7294 432.735 99.676C432.938 99.6227 433.135 99.5444 433.325 99.441V97.426H432.05L431.935 96.636H434.3V99.946C433.983 100.119 433.645 100.266 433.285 100.386C432.928 100.503 432.507 100.561 432.02 100.561ZM440.276 95.501C440.276 95.8444 440.203 96.1427 440.056 96.396C439.913 96.6494 439.718 96.861 439.471 97.031C439.224 97.1977 438.948 97.321 438.641 97.401L440.646 100.436H439.471L437.656 97.531H436.801V100.436H435.806V93.546H437.641C438.508 93.546 439.163 93.711 439.606 94.041C440.053 94.3677 440.276 94.8544 440.276 95.501ZM439.221 95.501C439.221 95.0777 439.098 94.7727 438.851 94.586C438.608 94.3994 438.233 94.306 437.726 94.306H436.801V96.776H437.736C438.209 96.776 438.574 96.6794 438.831 96.486C439.091 96.2894 439.221 95.961 439.221 95.501ZM445.137 98.721H442.527L442.007 100.436H441.012L443.232 93.546H444.482L446.707 100.436H445.657L445.137 98.721ZM442.757 97.926H444.907L443.837 94.346L442.757 97.926ZM451.403 95.691C451.403 95.351 451.337 95.081 451.203 94.881C451.07 94.6777 450.887 94.5327 450.653 94.446C450.42 94.356 450.15 94.311 449.843 94.311H448.918V97.141H449.828C450.135 97.141 450.407 97.0977 450.643 97.011C450.88 96.9244 451.065 96.776 451.198 96.566C451.335 96.3527 451.403 96.061 451.403 95.691ZM452.453 95.681C452.453 96.2177 452.338 96.651 452.108 96.981C451.882 97.3077 451.567 97.546 451.163 97.696C450.763 97.846 450.302 97.921 449.778 97.921H448.918V100.436H447.923V93.546H449.748C450.588 93.546 451.248 93.721 451.728 94.071C452.212 94.4177 452.453 94.9544 452.453 95.681ZM457.074 100.436V97.226H454.624V100.436H453.634V93.546H454.624V96.411H457.074V93.546H458.064V100.436H457.074ZM464.415 96.996C464.415 97.476 464.369 97.9194 464.275 98.326C464.185 98.7327 464.035 99.091 463.825 99.401C463.619 99.7077 463.339 99.9577 462.985 100.151C463.315 100.214 463.597 100.309 463.83 100.436C464.064 100.559 464.26 100.729 464.42 100.946C464.584 101.166 464.722 101.448 464.835 101.791L463.855 102.166C463.715 101.813 463.557 101.514 463.38 101.271C463.207 101.031 462.99 100.848 462.73 100.721C462.47 100.598 462.142 100.536 461.745 100.536C461.209 100.536 460.757 100.391 460.39 100.101C460.024 99.811 459.747 99.401 459.56 98.871C459.374 98.341 459.28 97.7194 459.28 97.006C459.28 96.3027 459.375 95.6827 459.565 95.146C459.759 94.606 460.045 94.1844 460.425 93.881C460.809 93.5744 461.282 93.421 461.845 93.421C462.415 93.421 462.89 93.5694 463.27 93.866C463.65 94.1627 463.935 94.5794 464.125 95.116C464.319 95.6494 464.415 96.276 464.415 96.996ZM463.385 96.996C463.385 96.0894 463.267 95.401 463.03 94.931C462.794 94.461 462.399 94.226 461.845 94.226C461.295 94.226 460.902 94.4627 460.665 94.936C460.429 95.406 460.31 96.096 460.31 97.006C460.31 97.9094 460.432 98.5944 460.675 99.061C460.922 99.5244 461.312 99.756 461.845 99.756C462.395 99.756 462.789 99.5227 463.025 99.056C463.265 98.5894 463.385 97.9027 463.385 96.996ZM466.127 100.436V93.546H467.122V99.576H470.242L470.132 100.436H466.127Z" fill="#25855A"/>
<path d="M443.274 26.877C443.274 27.2203 443.201 27.5187 443.054 27.772C442.911 28.0253 442.716 28.237 442.469 28.407C442.222 28.5737 441.946 28.697 441.639 28.777L443.644 31.812H442.469L440.654 28.907H439.799V31.812H438.804V24.922H440.639C441.506 24.922 442.161 25.087 442.604 25.417C443.051 25.7437 443.274 26.2303 443.274 26.877ZM442.219 26.877C442.219 26.4537 442.096 26.1487 441.849 25.962C441.606 25.7753 441.231 25.682 440.724 25.682H439.799V28.152H440.734C441.207 28.152 441.572 28.0553 441.829 27.862C442.089 27.6653 442.219 27.337 442.219 26.877ZM446.05 25.702V27.917H448.58V28.702H446.05V31.037H449.145V31.812H445.055V24.922H449.07L448.955 25.702H446.05ZM455.266 29.887C455.266 30.287 455.165 30.642 454.961 30.952C454.761 31.2587 454.471 31.5003 454.091 31.677C453.711 31.8503 453.248 31.937 452.701 31.937C452.175 31.937 451.705 31.857 451.291 31.697C450.878 31.537 450.526 31.317 450.236 31.037L450.801 30.402C451.041 30.6253 451.316 30.802 451.626 30.932C451.936 31.062 452.298 31.127 452.711 31.127C452.981 31.127 453.231 31.0837 453.461 30.997C453.695 30.907 453.881 30.7737 454.021 30.597C454.165 30.417 454.236 30.192 454.236 29.922C454.236 29.7053 454.193 29.522 454.106 29.372C454.023 29.222 453.875 29.0887 453.661 28.972C453.448 28.8553 453.15 28.7403 452.766 28.627C452.3 28.487 451.9 28.332 451.566 28.162C451.236 27.9887 450.983 27.777 450.806 27.527C450.633 27.277 450.546 26.9703 450.546 26.607C450.546 26.2503 450.645 25.937 450.841 25.667C451.038 25.3937 451.308 25.1803 451.651 25.027C451.998 24.8737 452.393 24.797 452.836 24.797C453.32 24.797 453.741 24.867 454.101 25.007C454.465 25.1437 454.791 25.342 455.081 25.602L454.531 26.222C454.288 26.0053 454.025 25.8487 453.741 25.752C453.458 25.652 453.171 25.602 452.881 25.602C452.638 25.602 452.416 25.6387 452.216 25.712C452.016 25.782 451.856 25.887 451.736 26.027C451.62 26.167 451.561 26.3453 451.561 26.562C451.561 26.752 451.613 26.9153 451.716 27.052C451.82 27.1853 451.995 27.3103 452.241 27.427C452.488 27.5403 452.823 27.6603 453.246 27.787C453.616 27.8937 453.955 28.027 454.261 28.187C454.568 28.347 454.811 28.562 454.991 28.832C455.175 29.0987 455.266 29.4503 455.266 29.887ZM459.327 25.747V31.812H458.337V25.747H456.217V24.922H461.482L461.377 25.747H459.327Z" fill="#AF9200"/>
<path d="M336.648 173.002C336.085 173.002 335.598 172.87 335.188 172.607C334.781 172.34 334.466 171.942 334.243 171.412C334.023 170.882 333.913 170.22 333.913 169.427C333.913 168.834 333.993 168.315 334.153 167.872C334.313 167.425 334.53 167.054 334.803 166.757C335.08 166.46 335.393 166.237 335.743 166.087C336.096 165.937 336.465 165.862 336.848 165.862C337.308 165.862 337.69 165.929 337.993 166.062C338.296 166.195 338.583 166.387 338.853 166.637L338.273 167.237C338.063 167.04 337.845 166.897 337.618 166.807C337.395 166.714 337.143 166.667 336.863 166.667C336.616 166.667 336.38 166.715 336.153 166.812C335.926 166.909 335.723 167.064 335.543 167.277C335.366 167.49 335.225 167.774 335.118 168.127C335.015 168.477 334.963 168.91 334.963 169.427C334.963 170.08 335.028 170.612 335.158 171.022C335.291 171.429 335.488 171.727 335.748 171.917C336.011 172.104 336.335 172.197 336.718 172.197C336.945 172.197 337.16 172.17 337.363 172.117C337.566 172.064 337.763 171.985 337.953 171.882V169.867H336.678L336.563 169.077H338.928V172.387C338.611 172.56 338.273 172.707 337.913 172.827C337.556 172.944 337.135 173.002 336.648 173.002ZM344.904 167.942C344.904 168.285 344.831 168.584 344.684 168.837C344.541 169.09 344.346 169.302 344.099 169.472C343.852 169.639 343.576 169.762 343.269 169.842L345.274 172.877H344.099L342.284 169.972H341.429V172.877H340.434V165.987H342.269C343.136 165.987 343.791 166.152 344.234 166.482C344.681 166.809 344.904 167.295 344.904 167.942ZM343.849 167.942C343.849 167.519 343.726 167.214 343.479 167.027C343.236 166.84 342.861 166.747 342.354 166.747H341.429V169.217H342.364C342.837 169.217 343.202 169.12 343.459 168.927C343.719 168.73 343.849 168.402 343.849 167.942ZM349.765 171.162H347.155L346.635 172.877H345.64L347.86 165.987H349.11L351.335 172.877H350.285L349.765 171.162ZM347.385 170.367H349.535L348.465 166.787L347.385 170.367ZM356.031 168.132C356.031 167.792 355.965 167.522 355.831 167.322C355.698 167.119 355.515 166.974 355.281 166.887C355.048 166.797 354.778 166.752 354.471 166.752H353.546V169.582H354.456C354.763 169.582 355.035 169.539 355.271 169.452C355.508 169.365 355.693 169.217 355.826 169.007C355.963 168.794 356.031 168.502 356.031 168.132ZM357.081 168.122C357.081 168.659 356.966 169.092 356.736 169.422C356.51 169.749 356.195 169.987 355.791 170.137C355.391 170.287 354.93 170.362 354.406 170.362H353.546V172.877H352.551V165.987H354.376C355.216 165.987 355.876 166.162 356.356 166.512C356.84 166.859 357.081 167.395 357.081 168.122ZM361.702 172.877V169.667H359.252V172.877H358.262V165.987H359.252V168.852H361.702V165.987H362.692V172.877H361.702ZM369.043 169.437C369.043 169.917 368.997 170.36 368.903 170.767C368.813 171.174 368.663 171.532 368.453 171.842C368.247 172.149 367.967 172.399 367.613 172.592C367.943 172.655 368.225 172.75 368.458 172.877C368.692 173 368.888 173.17 369.048 173.387C369.212 173.607 369.35 173.889 369.463 174.232L368.483 174.607C368.343 174.254 368.185 173.955 368.008 173.712C367.835 173.472 367.618 173.289 367.358 173.162C367.098 173.039 366.77 172.977 366.373 172.977C365.837 172.977 365.385 172.832 365.018 172.542C364.652 172.252 364.375 171.842 364.188 171.312C364.002 170.782 363.908 170.16 363.908 169.447C363.908 168.744 364.003 168.124 364.193 167.587C364.387 167.047 364.673 166.625 365.053 166.322C365.437 166.015 365.91 165.862 366.473 165.862C367.043 165.862 367.518 166.01 367.898 166.307C368.278 166.604 368.563 167.02 368.753 167.557C368.947 168.09 369.043 168.717 369.043 169.437ZM368.013 169.437C368.013 168.53 367.895 167.842 367.658 167.372C367.422 166.902 367.027 166.667 366.473 166.667C365.923 166.667 365.53 166.904 365.293 167.377C365.057 167.847 364.938 168.537 364.938 169.447C364.938 170.35 365.06 171.035 365.303 171.502C365.55 171.965 365.94 172.197 366.473 172.197C367.023 172.197 367.417 171.964 367.653 171.497C367.893 171.03 368.013 170.344 368.013 169.437ZM370.754 172.877V165.987H371.749V172.017H374.869L374.759 172.877H370.754Z" fill="#7B00C7"/>
<path d="M543.275 166.997L543.555 167.847C543.335 167.917 543.099 167.962 542.845 167.982C542.595 168.002 542.319 168.012 542.015 168.012C542.325 168.152 542.559 168.332 542.715 168.552C542.872 168.772 542.95 169.035 542.95 169.342C542.95 169.689 542.869 169.997 542.705 170.267C542.545 170.537 542.314 170.749 542.01 170.902C541.71 171.055 541.349 171.132 540.925 171.132C540.759 171.132 540.617 171.125 540.5 171.112C540.387 171.095 540.275 171.07 540.165 171.037C540.092 171.087 540.03 171.155 539.98 171.242C539.934 171.329 539.91 171.42 539.91 171.517C539.91 171.634 539.957 171.734 540.05 171.817C540.144 171.897 540.325 171.937 540.595 171.937H541.53C541.894 171.937 542.217 172 542.5 172.127C542.787 172.254 543.012 172.425 543.175 172.642C543.339 172.859 543.42 173.105 543.42 173.382C543.42 173.905 543.197 174.307 542.75 174.587C542.304 174.87 541.67 175.012 540.85 175.012C540.27 175.012 539.814 174.952 539.48 174.832C539.15 174.712 538.915 174.534 538.775 174.297C538.639 174.06 538.57 173.764 538.57 173.407H539.435C539.435 173.604 539.474 173.765 539.55 173.892C539.627 174.019 539.767 174.114 539.97 174.177C540.174 174.24 540.467 174.272 540.85 174.272C541.23 174.272 541.537 174.24 541.77 174.177C542.004 174.114 542.175 174.02 542.285 173.897C542.395 173.774 542.45 173.624 542.45 173.447C542.45 173.214 542.345 173.035 542.135 172.912C541.925 172.789 541.657 172.727 541.33 172.727H540.405C539.932 172.727 539.584 172.627 539.36 172.427C539.14 172.224 539.03 171.99 539.03 171.727C539.03 171.554 539.079 171.385 539.175 171.222C539.275 171.059 539.42 170.915 539.61 170.792C539.304 170.629 539.077 170.429 538.93 170.192C538.787 169.955 538.715 169.667 538.715 169.327C538.715 168.964 538.805 168.644 538.985 168.367C539.169 168.09 539.422 167.874 539.745 167.717C540.069 167.56 540.44 167.482 540.86 167.482C541.297 167.482 541.654 167.462 541.93 167.422C542.21 167.379 542.452 167.322 542.655 167.252C542.862 167.179 543.069 167.094 543.275 166.997ZM540.865 168.162C540.472 168.162 540.179 168.272 539.985 168.492C539.792 168.709 539.695 168.987 539.695 169.327C539.695 169.67 539.794 169.952 539.99 170.172C540.187 170.389 540.485 170.497 540.885 170.497C541.239 170.497 541.509 170.395 541.695 170.192C541.882 169.985 541.975 169.694 541.975 169.317C541.975 168.937 541.882 168.65 541.695 168.457C541.509 168.26 541.232 168.162 540.865 168.162ZM549.382 167.942C549.382 168.285 549.308 168.584 549.162 168.837C549.018 169.09 548.823 169.302 548.577 169.472C548.33 169.639 548.053 169.762 547.747 169.842L549.752 172.877H548.577L546.762 169.972H545.907V172.877H544.912V165.987H546.747C547.613 165.987 548.268 166.152 548.712 166.482C549.158 166.809 549.382 167.295 549.382 167.942ZM548.327 167.942C548.327 167.519 548.203 167.214 547.957 167.027C547.713 166.84 547.338 166.747 546.832 166.747H545.907V169.217H546.842C547.315 169.217 547.68 169.12 547.937 168.927C548.197 168.73 548.327 168.402 548.327 167.942ZM554.513 168.132C554.513 167.792 554.446 167.522 554.313 167.322C554.179 167.119 553.996 166.974 553.763 166.887C553.529 166.797 553.259 166.752 552.953 166.752H552.028V169.582H552.938C553.244 169.582 553.516 169.539 553.753 169.452C553.989 169.365 554.174 169.217 554.308 169.007C554.444 168.794 554.513 168.502 554.513 168.132ZM555.563 168.122C555.563 168.659 555.448 169.092 555.218 169.422C554.991 169.749 554.676 169.987 554.273 170.137C553.873 170.287 553.411 170.362 552.888 170.362H552.028V172.877H551.033V165.987H552.858C553.698 165.987 554.358 166.162 554.838 166.512C555.321 166.859 555.563 167.395 555.563 168.122ZM559.539 165.862C559.995 165.862 560.379 165.92 560.689 166.037C561.002 166.154 561.295 166.324 561.569 166.547L561.034 167.177C560.82 167 560.594 166.872 560.354 166.792C560.117 166.709 559.865 166.667 559.599 166.667C559.239 166.667 558.904 166.755 558.594 166.932C558.287 167.109 558.04 167.399 557.854 167.802C557.667 168.205 557.574 168.747 557.574 169.427C557.574 170.09 557.662 170.624 557.839 171.027C558.019 171.427 558.26 171.719 558.564 171.902C558.87 172.082 559.212 172.172 559.589 172.172C559.969 172.172 560.28 172.114 560.524 171.997C560.77 171.877 560.987 171.74 561.174 171.587L561.669 172.222C561.452 172.432 561.17 172.615 560.824 172.772C560.48 172.925 560.06 173.002 559.564 173.002C558.994 173.002 558.48 172.865 558.024 172.592C557.567 172.319 557.205 171.917 556.939 171.387C556.675 170.854 556.544 170.2 556.544 169.427C556.544 168.654 556.679 168.002 556.949 167.472C557.222 166.942 557.585 166.542 558.039 166.272C558.495 165.999 558.995 165.862 559.539 165.862Z" fill="#7B00C7"/>
<rect x="192.312" y="0.75" width="118.5" height="195.386" rx="5.25" fill="#FDFDFD" stroke="#B03900" stroke-width="1.5"/>
<path d="M257.604 120.069L256.801 117.787L255.743 114.782L254.978 112.607L253.977 109.76L252.813 106.454H247.169L246.269 109.014L245.466 111.297L241.477 122.632H245.199L246.366 119.323H252.011L251.009 116.477H247.364L248.129 114.302L249.727 109.76L249.991 109.009L250.255 109.76L254.783 122.63L254.784 122.632H258.506L257.604 120.069Z" fill="#B03900"/>
<path d="M265.335 106.592C265.241 106.426 265.086 106.304 264.902 106.253C264.719 106.202 264.523 106.226 264.357 106.319C264.191 106.413 264.069 106.568 264.018 106.752C263.967 106.935 263.991 107.131 264.084 107.297C265.988 110.682 266.609 114.64 265.833 118.445C265.058 122.25 262.938 125.649 259.861 128.019C256.785 130.389 252.957 131.572 249.08 131.35C245.203 131.129 241.535 129.519 238.748 126.815C235.961 124.11 234.241 120.492 233.903 116.623C233.566 112.755 234.632 108.894 236.909 105.747C239.185 102.601 242.518 100.379 246.299 99.4895C250.079 98.5998 254.053 99.1013 257.494 100.902C257.384 101.41 257.457 101.94 257.7 102.399C257.944 102.858 258.342 103.215 258.824 103.408C259.307 103.601 259.842 103.617 260.334 103.453C260.827 103.289 261.246 102.955 261.516 102.512C261.787 102.068 261.891 101.544 261.811 101.03C261.731 100.517 261.472 100.049 261.079 99.7087C260.687 99.3685 260.187 99.1783 259.667 99.172C259.148 99.1657 258.643 99.3436 258.243 99.6741C254.503 97.6912 250.174 97.1229 246.049 98.0735C241.924 99.024 238.28 101.43 235.786 104.849C233.291 108.269 232.113 112.474 232.467 116.692C232.821 120.91 234.684 124.859 237.715 127.814C240.745 130.77 244.739 132.534 248.964 132.783C253.19 133.032 257.364 131.75 260.72 129.171C264.077 126.592 266.391 122.889 267.239 118.742C268.086 114.595 267.41 110.281 265.335 106.592V106.592Z" fill="#B03900"/>
<path d="M211.182 149.939C210.619 149.939 210.132 149.807 209.722 149.544C209.316 149.277 209.001 148.879 208.777 148.349C208.557 147.819 208.447 147.157 208.447 146.364C208.447 145.77 208.527 145.252 208.687 144.809C208.847 144.362 209.064 143.99 209.337 143.694C209.614 143.397 209.927 143.174 210.277 143.024C210.631 142.874 210.999 142.799 211.382 142.799C211.842 142.799 212.224 142.865 212.527 142.999C212.831 143.132 213.117 143.324 213.387 143.574L212.807 144.174C212.597 143.977 212.379 143.834 212.152 143.744C211.929 143.65 211.677 143.604 211.397 143.604C211.151 143.604 210.914 143.652 210.687 143.749C210.461 143.845 210.257 144 210.077 144.214C209.901 144.427 209.759 144.71 209.652 145.064C209.549 145.414 209.497 145.847 209.497 146.364C209.497 147.017 209.562 147.549 209.692 147.959C209.826 148.365 210.022 148.664 210.282 148.854C210.546 149.04 210.869 149.134 211.252 149.134C211.479 149.134 211.694 149.107 211.897 149.054C212.101 149 212.297 148.922 212.487 148.819V146.804H211.212L211.097 146.014H213.462V149.324C213.146 149.497 212.807 149.644 212.447 149.764C212.091 149.88 211.669 149.939 211.182 149.939ZM219.438 144.879C219.438 145.222 219.365 145.52 219.218 145.774C219.075 146.027 218.88 146.239 218.633 146.409C218.387 146.575 218.11 146.699 217.803 146.779L219.808 149.814H218.633L216.818 146.909H215.963V149.814H214.968V142.924H216.803C217.67 142.924 218.325 143.089 218.768 143.419C219.215 143.745 219.438 144.232 219.438 144.879ZM218.383 144.879C218.383 144.455 218.26 144.15 218.013 143.964C217.77 143.777 217.395 143.684 216.888 143.684H215.963V146.154H216.898C217.372 146.154 217.737 146.057 217.993 145.864C218.253 145.667 218.383 145.339 218.383 144.879ZM224.3 148.099H221.69L221.17 149.814H220.175L222.395 142.924H223.645L225.87 149.814H224.82L224.3 148.099ZM221.92 147.304H224.07L223 143.724L221.92 147.304ZM230.566 145.069C230.566 144.729 230.499 144.459 230.366 144.259C230.232 144.055 230.049 143.91 229.816 143.824C229.582 143.734 229.312 143.689 229.006 143.689H228.081V146.519H228.991C229.297 146.519 229.569 146.475 229.806 146.389C230.042 146.302 230.227 146.154 230.361 145.944C230.497 145.73 230.566 145.439 230.566 145.069ZM231.616 145.059C231.616 145.595 231.501 146.029 231.271 146.359C231.044 146.685 230.729 146.924 230.326 147.074C229.926 147.224 229.464 147.299 228.941 147.299H228.081V149.814H227.086V142.924H228.911C229.751 142.924 230.411 143.099 230.891 143.449C231.374 143.795 231.616 144.332 231.616 145.059ZM236.237 149.814V146.604H233.787V149.814H232.797V142.924H233.787V145.789H236.237V142.924H237.227V149.814H236.237ZM243.583 146.374C243.583 147.074 243.486 147.692 243.293 148.229C243.099 148.765 242.811 149.185 242.428 149.489C242.048 149.789 241.574 149.939 241.008 149.939C240.444 149.939 239.971 149.792 239.588 149.499C239.204 149.202 238.916 148.787 238.723 148.254C238.529 147.72 238.433 147.097 238.433 146.384C238.433 145.68 238.529 145.06 238.723 144.524C238.916 143.984 239.204 143.562 239.588 143.259C239.971 142.952 240.444 142.799 241.008 142.799C241.574 142.799 242.048 142.947 242.428 143.244C242.811 143.54 243.099 143.957 243.293 144.494C243.486 145.027 243.583 145.654 243.583 146.374ZM242.548 146.374C242.548 145.467 242.428 144.779 242.188 144.309C241.951 143.839 241.558 143.604 241.008 143.604C240.458 143.604 240.063 143.84 239.823 144.314C239.586 144.787 239.468 145.477 239.468 146.384C239.468 147.287 239.591 147.972 239.838 148.439C240.084 148.902 240.474 149.134 241.008 149.134C241.558 149.134 241.951 148.9 242.188 148.434C242.428 147.967 242.548 147.28 242.548 146.374ZM249.419 147.889C249.419 148.289 249.317 148.644 249.114 148.954C248.914 149.26 248.624 149.502 248.244 149.679C247.864 149.852 247.401 149.939 246.854 149.939C246.327 149.939 245.857 149.859 245.444 149.699C245.031 149.539 244.679 149.319 244.389 149.039L244.954 148.404C245.194 148.627 245.469 148.804 245.779 148.934C246.089 149.064 246.451 149.129 246.864 149.129C247.134 149.129 247.384 149.085 247.614 148.999C247.847 148.909 248.034 148.775 248.174 148.599C248.317 148.419 248.389 148.194 248.389 147.924C248.389 147.707 248.346 147.524 248.259 147.374C248.176 147.224 248.027 147.09 247.814 146.974C247.601 146.857 247.302 146.742 246.919 146.629C246.452 146.489 246.052 146.334 245.719 146.164C245.389 145.99 245.136 145.779 244.959 145.529C244.786 145.279 244.699 144.972 244.699 144.609C244.699 144.252 244.797 143.939 244.994 143.669C245.191 143.395 245.461 143.182 245.804 143.029C246.151 142.875 246.546 142.799 246.989 142.799C247.472 142.799 247.894 142.869 248.254 143.009C248.617 143.145 248.944 143.344 249.234 143.604L248.684 144.224C248.441 144.007 248.177 143.85 247.894 143.754C247.611 143.654 247.324 143.604 247.034 143.604C246.791 143.604 246.569 143.64 246.369 143.714C246.169 143.784 246.009 143.889 245.889 144.029C245.772 144.169 245.714 144.347 245.714 144.564C245.714 144.754 245.766 144.917 245.869 145.054C245.972 145.187 246.147 145.312 246.394 145.429C246.641 145.542 246.976 145.662 247.399 145.789C247.769 145.895 248.107 146.029 248.414 146.189C248.721 146.349 248.964 146.564 249.144 146.834C249.327 147.1 249.419 147.452 249.419 147.889ZM261.411 144.879C261.411 145.222 261.338 145.52 261.191 145.774C261.048 146.027 260.853 146.239 260.606 146.409C260.359 146.575 260.083 146.699 259.776 146.779L261.781 149.814H260.606L258.791 146.909H257.936V149.814H256.941V142.924H258.776C259.643 142.924 260.298 143.089 260.741 143.419C261.188 143.745 261.411 144.232 261.411 144.879ZM260.356 144.879C260.356 144.455 260.233 144.15 259.986 143.964C259.743 143.777 259.368 143.684 258.861 143.684H257.936V146.154H258.871C259.344 146.154 259.709 146.057 259.966 145.864C260.226 145.667 260.356 145.339 260.356 144.879ZM267.567 146.374C267.567 147.074 267.471 147.692 267.277 148.229C267.084 148.765 266.796 149.185 266.412 149.489C266.032 149.789 265.559 149.939 264.992 149.939C264.429 149.939 263.956 149.792 263.572 149.499C263.189 149.202 262.901 148.787 262.707 148.254C262.514 147.72 262.417 147.097 262.417 146.384C262.417 145.68 262.514 145.06 262.707 144.524C262.901 143.984 263.189 143.562 263.572 143.259C263.956 142.952 264.429 142.799 264.992 142.799C265.559 142.799 266.032 142.947 266.412 143.244C266.796 143.54 267.084 143.957 267.277 144.494C267.471 145.027 267.567 145.654 267.567 146.374ZM266.532 146.374C266.532 145.467 266.412 144.779 266.172 144.309C265.936 143.839 265.542 143.604 264.992 143.604C264.442 143.604 264.047 143.84 263.807 144.314C263.571 144.787 263.452 145.477 263.452 146.384C263.452 147.287 263.576 147.972 263.822 148.439C264.069 148.902 264.459 149.134 264.992 149.134C265.542 149.134 265.936 148.9 266.172 148.434C266.412 147.967 266.532 147.28 266.532 146.374ZM273.313 142.924V147.569C273.313 148.035 273.218 148.447 273.028 148.804C272.842 149.157 272.573 149.435 272.223 149.639C271.877 149.839 271.462 149.939 270.978 149.939C270.492 149.939 270.075 149.839 269.728 149.639C269.382 149.439 269.117 149.16 268.933 148.804C268.753 148.447 268.663 148.035 268.663 147.569V142.924H269.653V147.494C269.653 148.034 269.765 148.439 269.988 148.709C270.212 148.979 270.542 149.114 270.978 149.114C271.422 149.114 271.755 148.979 271.978 148.709C272.202 148.439 272.313 148.034 272.313 147.494V142.924H273.313ZM277.464 143.749V149.814H276.474V143.749H274.354V142.924H279.619L279.514 143.749H277.464ZM282.175 143.704V145.919H284.705V146.704H282.175V149.039H285.27V149.814H281.18V142.924H285.195L285.08 143.704H282.175ZM291.392 144.879C291.392 145.222 291.318 145.52 291.172 145.774C291.028 146.027 290.833 146.239 290.587 146.409C290.34 146.575 290.063 146.699 289.757 146.779L291.762 149.814H290.587L288.772 146.909H287.917V149.814H286.922V142.924H288.757C289.623 142.924 290.278 143.089 290.722 143.419C291.168 143.745 291.392 144.232 291.392 144.879ZM290.337 144.879C290.337 144.455 290.213 144.15 289.967 143.964C289.723 143.777 289.348 143.684 288.842 143.684H287.917V146.154H288.852C289.325 146.154 289.69 146.057 289.947 145.864C290.207 145.667 290.337 145.339 290.337 144.879Z" fill="#B03900"/>
<path d="M297 37.436L587 37.436" stroke="#AF9200" stroke-width="1.5"/>
<rect x="587.5" y="12.312" width="119" height="45" rx="5.5" fill="#FDFDFD"/>
<rect x="587.5" y="12.312" width="119" height="45" rx="5.5" stroke="#AF9200"/>
<path d="M637.335 25.922V30.567C637.335 31.0337 637.24 31.4453 637.05 31.802C636.863 32.1553 636.595 32.4337 636.245 32.637C635.898 32.837 635.483 32.937 635 32.937C634.513 32.937 634.096 32.837 633.75 32.637C633.403 32.437 633.138 32.1587 632.955 31.802C632.775 31.4453 632.685 31.0337 632.685 30.567V25.922H633.675V30.492C633.675 31.032 633.786 31.437 634.01 31.707C634.233 31.977 634.563 32.112 635 32.112C635.443 32.112 635.776 31.977 636 31.707C636.223 31.437 636.335 31.032 636.335 30.492V25.922H637.335ZM643.421 30.887C643.421 31.287 643.319 31.642 643.116 31.952C642.916 32.2587 642.626 32.5003 642.246 32.677C641.866 32.8503 641.403 32.937 640.856 32.937C640.329 32.937 639.859 32.857 639.446 32.697C639.033 32.537 638.681 32.317 638.391 32.037L638.956 31.402C639.196 31.6253 639.471 31.802 639.781 31.932C640.091 32.062 640.453 32.127 640.866 32.127C641.136 32.127 641.386 32.0837 641.616 31.997C641.849 31.907 642.036 31.7737 642.176 31.597C642.319 31.417 642.391 31.192 642.391 30.922C642.391 30.7053 642.348 30.522 642.261 30.372C642.178 30.222 642.029 30.0887 641.816 29.972C641.603 29.8553 641.304 29.7403 640.921 29.627C640.454 29.487 640.054 29.332 639.721 29.162C639.391 28.9887 639.138 28.777 638.961 28.527C638.788 28.277 638.701 27.9703 638.701 27.607C638.701 27.2503 638.799 26.937 638.996 26.667C639.193 26.3937 639.463 26.1803 639.806 26.027C640.153 25.8737 640.548 25.797 640.991 25.797C641.474 25.797 641.896 25.867 642.256 26.007C642.619 26.1437 642.946 26.342 643.236 26.602L642.686 27.222C642.443 27.0053 642.179 26.8487 641.896 26.752C641.613 26.652 641.326 26.602 641.036 26.602C640.793 26.602 640.571 26.6387 640.371 26.712C640.171 26.782 640.011 26.887 639.891 27.027C639.774 27.167 639.716 27.3453 639.716 27.562C639.716 27.752 639.768 27.9153 639.871 28.052C639.974 28.1853 640.149 28.3103 640.396 28.427C640.643 28.5403 640.978 28.6603 641.401 28.787C641.771 28.8937 642.109 29.027 642.416 29.187C642.723 29.347 642.966 29.562 643.146 29.832C643.329 30.0987 643.421 30.4503 643.421 30.887ZM646.197 26.702V28.917H648.727V29.702H646.197V32.037H649.292V32.812H645.202V25.922H649.217L649.102 26.702H646.197ZM655.413 27.877C655.413 28.2203 655.34 28.5187 655.193 28.772C655.05 29.0253 654.855 29.237 654.608 29.407C654.361 29.5737 654.085 29.697 653.778 29.777L655.783 32.812H654.608L652.793 29.907H651.938V32.812H650.943V25.922H652.778C653.645 25.922 654.3 26.087 654.743 26.417C655.19 26.7437 655.413 27.2303 655.413 27.877ZM654.358 27.877C654.358 27.4537 654.235 27.1487 653.988 26.962C653.745 26.7753 653.37 26.682 652.863 26.682H651.938V29.152H652.873C653.346 29.152 653.711 29.0553 653.968 28.862C654.228 28.6653 654.358 28.337 654.358 27.877ZM661.409 30.887C661.409 31.287 661.307 31.642 661.104 31.952C660.904 32.2587 660.614 32.5003 660.234 32.677C659.854 32.8503 659.391 32.937 658.844 32.937C658.317 32.937 657.847 32.857 657.434 32.697C657.021 32.537 656.669 32.317 656.379 32.037L656.944 31.402C657.184 31.6253 657.459 31.802 657.769 31.932C658.079 32.062 658.441 32.127 658.854 32.127C659.124 32.127 659.374 32.0837 659.604 31.997C659.837 31.907 660.024 31.7737 660.164 31.597C660.307 31.417 660.379 31.192 660.379 30.922C660.379 30.7053 660.336 30.522 660.249 30.372C660.166 30.222 660.017 30.0887 659.804 29.972C659.591 29.8553 659.292 29.7403 658.909 29.627C658.442 29.487 658.042 29.332 657.709 29.162C657.379 28.9887 657.126 28.777 656.949 28.527C656.776 28.277 656.689 27.9703 656.689 27.607C656.689 27.2503 656.787 26.937 656.984 26.667C657.181 26.3937 657.451 26.1803 657.794 26.027C658.141 25.8737 658.536 25.797 658.979 25.797C659.462 25.797 659.884 25.867 660.244 26.007C660.607 26.1437 660.934 26.342 661.224 26.602L660.674 27.222C660.431 27.0053 660.167 26.8487 659.884 26.752C659.601 26.652 659.314 26.602 659.024 26.602C658.781 26.602 658.559 26.6387 658.359 26.712C658.159 26.782 657.999 26.887 657.879 27.027C657.762 27.167 657.704 27.3453 657.704 27.562C657.704 27.752 657.756 27.9153 657.859 28.052C657.962 28.1853 658.137 28.3103 658.384 28.427C658.631 28.5403 658.966 28.6603 659.389 28.787C659.759 28.8937 660.097 29.027 660.404 29.187C660.711 29.347 660.954 29.562 661.134 29.832C661.317 30.0987 661.409 30.4503 661.409 30.887ZM628.431 38.877C628.431 39.2203 628.357 39.5187 628.211 39.772C628.067 40.0253 627.872 40.237 627.626 40.407C627.379 40.5737 627.102 40.697 626.796 40.777L628.801 43.812H627.626L625.811 40.907H624.956V43.812H623.961V36.922H625.796C626.662 36.922 627.317 37.087 627.761 37.417C628.207 37.7437 628.431 38.2303 628.431 38.877ZM627.376 38.877C627.376 38.4537 627.252 38.1487 627.006 37.962C626.762 37.7753 626.387 37.682 625.881 37.682H624.956V40.152H625.891C626.364 40.152 626.729 40.0553 626.986 39.862C627.246 39.6653 627.376 39.337 627.376 38.877ZM631.207 37.702V39.917H633.737V40.702H631.207V43.037H634.302V43.812H630.212V36.922H634.227L634.112 37.702H631.207ZM640.423 41.887C640.423 42.287 640.321 42.642 640.118 42.952C639.918 43.2587 639.628 43.5003 639.248 43.677C638.868 43.8503 638.404 43.937 637.858 43.937C637.331 43.937 636.861 43.857 636.448 43.697C636.034 43.537 635.683 43.317 635.393 43.037L635.958 42.402C636.198 42.6253 636.473 42.802 636.783 42.932C637.093 43.062 637.454 43.127 637.868 43.127C638.138 43.127 638.388 43.0837 638.618 42.997C638.851 42.907 639.038 42.7737 639.178 42.597C639.321 42.417 639.393 42.192 639.393 41.922C639.393 41.7053 639.349 41.522 639.263 41.372C639.179 41.222 639.031 41.0887 638.818 40.972C638.604 40.8553 638.306 40.7403 637.923 40.627C637.456 40.487 637.056 40.332 636.723 40.162C636.393 39.9887 636.139 39.777 635.963 39.527C635.789 39.277 635.703 38.9703 635.703 38.607C635.703 38.2503 635.801 37.937 635.998 37.667C636.194 37.3937 636.464 37.1803 636.808 37.027C637.154 36.8737 637.549 36.797 637.993 36.797C638.476 36.797 638.898 36.867 639.258 37.007C639.621 37.1437 639.948 37.342 640.238 37.602L639.688 38.222C639.444 38.0053 639.181 37.8487 638.898 37.752C638.614 37.652 638.328 37.602 638.038 37.602C637.794 37.602 637.573 37.6387 637.373 37.712C637.173 37.782 637.013 37.887 636.893 38.027C636.776 38.167 636.718 38.3453 636.718 38.562C636.718 38.752 636.769 38.9153 636.873 39.052C636.976 39.1853 637.151 39.3103 637.398 39.427C637.644 39.5403 637.979 39.6603 638.403 39.787C638.773 39.8937 639.111 40.027 639.418 40.187C639.724 40.347 639.968 40.562 640.148 40.832C640.331 41.0987 640.423 41.4503 640.423 41.887ZM644.484 37.747V43.812H643.494V37.747H641.374V36.922H646.639L646.534 37.747H644.484ZM657.276 42.097H654.666L654.146 43.812H653.151L655.371 36.922H656.621L658.846 43.812H657.796L657.276 42.097ZM654.896 41.302H657.046L655.976 37.722L654.896 41.302ZM663.542 39.067C663.542 38.727 663.476 38.457 663.342 38.257C663.209 38.0537 663.026 37.9087 662.792 37.822C662.559 37.732 662.289 37.687 661.982 37.687H661.057V40.517H661.967C662.274 40.517 662.546 40.4737 662.782 40.387C663.019 40.3003 663.204 40.152 663.337 39.942C663.474 39.7287 663.542 39.437 663.542 39.067ZM664.592 39.057C664.592 39.5937 664.477 40.027 664.247 40.357C664.021 40.6837 663.706 40.922 663.302 41.072C662.902 41.222 662.441 41.297 661.917 41.297H661.057V43.812H660.062V36.922H661.887C662.727 36.922 663.387 37.097 663.867 37.447C664.351 37.7937 664.592 38.3303 664.592 39.057ZM670.003 36.922V37.697H668.488V43.032H670.003V43.812H665.973V43.032H667.488V37.697H665.973V36.922H670.003Z" fill="#AF9200"/>
<rect x="394.75" y="151.938" width="118.5" height="44.5" rx="5.25" fill="#FDFDFD"/>
<rect x="394.75" y="151.938" width="118.5" height="44.5" rx="5.25" stroke="#7B00C7" stroke-width="1.5"/>
<path d="M440.237 172.188V168.978H437.787V172.188H436.797V165.298H437.787V168.163H440.237V165.298H441.227V172.188H440.237ZM447.583 168.748C447.583 169.448 447.486 170.066 447.293 170.603C447.099 171.14 446.811 171.56 446.428 171.863C446.048 172.163 445.574 172.313 445.008 172.313C444.444 172.313 443.971 172.166 443.588 171.873C443.204 171.576 442.916 171.161 442.723 170.628C442.529 170.095 442.433 169.471 442.433 168.758C442.433 168.055 442.529 167.435 442.723 166.898C442.916 166.358 443.204 165.936 443.588 165.633C443.971 165.326 444.444 165.173 445.008 165.173C445.574 165.173 446.048 165.321 446.428 165.618C446.811 165.915 447.099 166.331 447.293 166.868C447.486 167.401 447.583 168.028 447.583 168.748ZM446.548 168.748C446.548 167.841 446.428 167.153 446.188 166.683C445.951 166.213 445.558 165.978 445.008 165.978C444.458 165.978 444.063 166.215 443.823 166.688C443.586 167.161 443.468 167.851 443.468 168.758C443.468 169.661 443.591 170.346 443.838 170.813C444.084 171.276 444.474 171.508 445.008 171.508C445.558 171.508 445.951 171.275 446.188 170.808C446.428 170.341 446.548 169.655 446.548 168.748ZM451.484 166.123V172.188H450.494V166.123H448.374V165.298H453.639L453.534 166.123H451.484ZM456.195 166.078V168.293H458.725V169.078H456.195V171.413H459.29V172.188H455.2V165.298H459.215L459.1 166.078H456.195ZM461.281 172.188V165.298H462.276V171.328H465.396L465.286 172.188H461.281ZM471.407 170.263C471.407 170.663 471.306 171.018 471.102 171.328C470.902 171.635 470.612 171.876 470.232 172.053C469.852 172.226 469.389 172.313 468.842 172.313C468.316 172.313 467.846 172.233 467.432 172.073C467.019 171.913 466.667 171.693 466.377 171.413L466.942 170.778C467.182 171.001 467.457 171.178 467.767 171.308C468.077 171.438 468.439 171.503 468.852 171.503C469.122 171.503 469.372 171.46 469.602 171.373C469.836 171.283 470.022 171.15 470.162 170.973C470.306 170.793 470.377 170.568 470.377 170.298C470.377 170.081 470.334 169.898 470.247 169.748C470.164 169.598 470.016 169.465 469.802 169.348C469.589 169.231 469.291 169.116 468.907 169.003C468.441 168.863 468.041 168.708 467.707 168.538C467.377 168.365 467.124 168.153 466.947 167.903C466.774 167.653 466.687 167.346 466.687 166.983C466.687 166.626 466.786 166.313 466.982 166.043C467.179 165.77 467.449 165.556 467.792 165.403C468.139 165.25 468.534 165.173 468.977 165.173C469.461 165.173 469.882 165.243 470.242 165.383C470.606 165.52 470.932 165.718 471.222 165.978L470.672 166.598C470.429 166.381 470.166 166.225 469.882 166.128C469.599 166.028 469.312 165.978 469.022 165.978C468.779 165.978 468.557 166.015 468.357 166.088C468.157 166.158 467.997 166.263 467.877 166.403C467.761 166.543 467.702 166.721 467.702 166.938C467.702 167.128 467.754 167.291 467.857 167.428C467.961 167.561 468.136 167.686 468.382 167.803C468.629 167.916 468.964 168.036 469.387 168.163C469.757 168.27 470.096 168.403 470.402 168.563C470.709 168.723 470.952 168.938 471.132 169.208C471.316 169.475 471.407 169.826 471.407 170.263ZM424.176 183.313C423.613 183.313 423.126 183.181 422.716 182.918C422.31 182.651 421.995 182.253 421.771 181.723C421.551 181.193 421.441 180.531 421.441 179.738C421.441 179.145 421.521 178.626 421.681 178.183C421.841 177.736 422.058 177.365 422.331 177.068C422.608 176.771 422.921 176.548 423.271 176.398C423.625 176.248 423.993 176.173 424.376 176.173C424.836 176.173 425.218 176.24 425.521 176.373C425.825 176.506 426.111 176.698 426.381 176.948L425.801 177.548C425.591 177.351 425.373 177.208 425.146 177.118C424.923 177.025 424.671 176.978 424.391 176.978C424.145 176.978 423.908 177.026 423.681 177.123C423.455 177.22 423.251 177.375 423.071 177.588C422.895 177.801 422.753 178.085 422.646 178.438C422.543 178.788 422.491 179.221 422.491 179.738C422.491 180.391 422.556 180.923 422.686 181.333C422.82 181.74 423.016 182.038 423.276 182.228C423.54 182.415 423.863 182.508 424.246 182.508C424.473 182.508 424.688 182.481 424.891 182.428C425.095 182.375 425.291 182.296 425.481 182.193V180.178H424.206L424.091 179.388H426.456V182.698C426.14 182.871 425.801 183.018 425.441 183.138C425.085 183.255 424.663 183.313 424.176 183.313ZM432.433 178.253C432.433 178.596 432.359 178.895 432.213 179.148C432.069 179.401 431.874 179.613 431.628 179.783C431.381 179.95 431.104 180.073 430.798 180.153L432.803 183.188H431.628L429.813 180.283H428.958V183.188H427.963V176.298H429.798C430.664 176.298 431.319 176.463 431.763 176.793C432.209 177.12 432.433 177.606 432.433 178.253ZM431.378 178.253C431.378 177.83 431.254 177.525 431.008 177.338C430.764 177.151 430.389 177.058 429.883 177.058H428.958V179.528H429.893C430.366 179.528 430.731 179.431 430.988 179.238C431.248 179.041 431.378 178.713 431.378 178.253ZM437.294 181.473H434.684L434.164 183.188H433.169L435.389 176.298H436.639L438.864 183.188H437.814L437.294 181.473ZM434.914 180.678H437.064L435.994 177.098L434.914 180.678ZM443.56 178.443C443.56 178.103 443.493 177.833 443.36 177.633C443.226 177.43 443.043 177.285 442.81 177.198C442.576 177.108 442.306 177.063 442 177.063H441.075V179.893H441.985C442.291 179.893 442.563 179.85 442.8 179.763C443.036 179.676 443.221 179.528 443.355 179.318C443.491 179.105 443.56 178.813 443.56 178.443ZM444.61 178.433C444.61 178.97 444.495 179.403 444.265 179.733C444.038 180.06 443.723 180.298 443.32 180.448C442.92 180.598 442.458 180.673 441.935 180.673H441.075V183.188H440.08V176.298H441.905C442.745 176.298 443.405 176.473 443.885 176.823C444.368 177.17 444.61 177.706 444.61 178.433ZM449.231 183.188V179.978H446.781V183.188H445.791V176.298H446.781V179.163H449.231V176.298H450.221V183.188H449.231ZM456.572 179.748C456.572 180.228 456.525 180.671 456.432 181.078C456.342 181.485 456.192 181.843 455.982 182.153C455.775 182.46 455.495 182.71 455.142 182.903C455.472 182.966 455.754 183.061 455.987 183.188C456.22 183.311 456.417 183.481 456.577 183.698C456.74 183.918 456.879 184.2 456.992 184.543L456.012 184.918C455.872 184.565 455.714 184.266 455.537 184.023C455.364 183.783 455.147 183.6 454.887 183.473C454.627 183.35 454.299 183.288 453.902 183.288C453.365 183.288 452.914 183.143 452.547 182.853C452.18 182.563 451.904 182.153 451.717 181.623C451.53 181.093 451.437 180.471 451.437 179.758C451.437 179.055 451.532 178.435 451.722 177.898C451.915 177.358 452.202 176.936 452.582 176.633C452.965 176.326 453.439 176.173 454.002 176.173C454.572 176.173 455.047 176.321 455.427 176.618C455.807 176.915 456.092 177.331 456.282 177.868C456.475 178.401 456.572 179.028 456.572 179.748ZM455.542 179.748C455.542 178.841 455.424 178.153 455.187 177.683C454.95 177.213 454.555 176.978 454.002 176.978C453.452 176.978 453.059 177.215 452.822 177.688C452.585 178.158 452.467 178.848 452.467 179.758C452.467 180.661 452.589 181.346 452.832 181.813C453.079 182.276 453.469 182.508 454.002 182.508C454.552 182.508 454.945 182.275 455.182 181.808C455.422 181.341 455.542 180.655 455.542 179.748ZM458.283 183.188V176.298H459.278V182.328H462.398L462.288 183.188H458.283ZM473.27 181.473H470.66L470.14 183.188H469.145L471.365 176.298H472.615L474.84 183.188H473.79L473.27 181.473ZM470.89 180.678H473.04L471.97 177.098L470.89 180.678ZM479.536 178.443C479.536 178.103 479.47 177.833 479.336 177.633C479.203 177.43 479.02 177.285 478.786 177.198C478.553 177.108 478.283 177.063 477.976 177.063H477.051V179.893H477.961C478.268 179.893 478.54 179.85 478.776 179.763C479.013 179.676 479.198 179.528 479.331 179.318C479.468 179.105 479.536 178.813 479.536 178.443ZM480.586 178.433C480.586 178.97 480.471 179.403 480.241 179.733C480.015 180.06 479.7 180.298 479.296 180.448C478.896 180.598 478.435 180.673 477.911 180.673H477.051V183.188H476.056V176.298H477.881C478.721 176.298 479.381 176.473 479.861 176.823C480.345 177.17 480.586 177.706 480.586 178.433ZM485.997 176.298V177.073H484.482V182.408H485.997V183.188H481.967V182.408H483.482V177.073H481.967V176.298H485.997Z" fill="#7B00C7"/>
<rect x="587.75" y="83.186" width="118.5" height="44.5" rx="5.25" fill="#FDFDFD"/>
<rect x="587.75" y="83.186" width="118.5" height="44.5" rx="5.25" stroke="#25855A" stroke-width="1.5"/>
<path d="M628.339 97.326V99.646H630.994V100.421H628.339V103.436H627.349V96.546H631.484L631.369 97.326H628.339ZM633.295 103.436V96.546H634.29V102.576H637.41L637.3 103.436H633.295ZM643.021 96.546V97.321H641.506V102.656H643.021V103.436H638.991V102.656H640.506V97.321H638.991V96.546H643.021ZM647.157 103.561C646.594 103.561 646.107 103.429 645.697 103.166C645.29 102.899 644.975 102.501 644.752 101.971C644.532 101.441 644.422 100.779 644.422 99.986C644.422 99.3927 644.502 98.8744 644.662 98.431C644.822 97.9844 645.039 97.6127 645.312 97.316C645.589 97.0194 645.902 96.796 646.252 96.646C646.605 96.496 646.974 96.421 647.357 96.421C647.817 96.421 648.199 96.4877 648.502 96.621C648.805 96.7544 649.092 96.946 649.362 97.196L648.782 97.796C648.572 97.5994 648.354 97.456 648.127 97.366C647.904 97.2727 647.652 97.226 647.372 97.226C647.125 97.226 646.889 97.2744 646.662 97.371C646.435 97.4677 646.232 97.6227 646.052 97.836C645.875 98.0494 645.734 98.3327 645.627 98.686C645.524 99.036 645.472 99.4694 645.472 99.986C645.472 100.639 645.537 101.171 645.667 101.581C645.8 101.988 645.997 102.286 646.257 102.476C646.52 102.663 646.844 102.756 647.227 102.756C647.454 102.756 647.669 102.729 647.872 102.676C648.075 102.623 648.272 102.544 648.462 102.441V100.426H647.187L647.072 99.636H649.437V102.946C649.12 103.119 648.782 103.266 648.422 103.386C648.065 103.503 647.644 103.561 647.157 103.561ZM654.223 103.436V100.226H651.773V103.436H650.783V96.546H651.773V99.411H654.223V96.546H655.213V103.436H654.223ZM659.474 97.371V103.436H658.484V97.371H656.364V96.546H661.629L661.524 97.371H659.474ZM667.405 101.511C667.405 101.911 667.304 102.266 667.1 102.576C666.9 102.883 666.61 103.124 666.23 103.301C665.85 103.474 665.387 103.561 664.84 103.561C664.314 103.561 663.844 103.481 663.43 103.321C663.017 103.161 662.665 102.941 662.375 102.661L662.94 102.026C663.18 102.249 663.455 102.426 663.765 102.556C664.075 102.686 664.437 102.751 664.85 102.751C665.12 102.751 665.37 102.708 665.6 102.621C665.834 102.531 666.02 102.398 666.16 102.221C666.304 102.041 666.375 101.816 666.375 101.546C666.375 101.329 666.332 101.146 666.245 100.996C666.162 100.846 666.014 100.713 665.8 100.596C665.587 100.479 665.289 100.364 664.905 100.251C664.439 100.111 664.039 99.956 663.705 99.786C663.375 99.6127 663.122 99.401 662.945 99.151C662.772 98.901 662.685 98.5944 662.685 98.231C662.685 97.8744 662.784 97.561 662.98 97.291C663.177 97.0177 663.447 96.8044 663.79 96.651C664.137 96.4977 664.532 96.421 664.975 96.421C665.459 96.421 665.88 96.491 666.24 96.631C666.604 96.7677 666.93 96.966 667.22 97.226L666.67 97.846C666.427 97.6294 666.164 97.4727 665.88 97.376C665.597 97.276 665.31 97.226 665.02 97.226C664.777 97.226 664.555 97.2627 664.355 97.336C664.155 97.406 663.995 97.511 663.875 97.651C663.759 97.791 663.7 97.9694 663.7 98.186C663.7 98.376 663.752 98.5394 663.855 98.676C663.959 98.8094 664.134 98.9344 664.38 99.051C664.627 99.1644 664.962 99.2844 665.385 99.411C665.755 99.5177 666.094 99.651 666.4 99.811C666.707 99.971 666.95 100.186 667.13 100.456C667.314 100.723 667.405 101.074 667.405 101.511ZM617.176 114.561C616.613 114.561 616.126 114.429 615.716 114.166C615.31 113.899 614.995 113.501 614.771 112.971C614.551 112.441 614.441 111.779 614.441 110.986C614.441 110.393 614.521 109.874 614.681 109.431C614.841 108.984 615.058 108.613 615.331 108.316C615.608 108.019 615.921 107.796 616.271 107.646C616.625 107.496 616.993 107.421 617.376 107.421C617.836 107.421 618.218 107.488 618.521 107.621C618.825 107.754 619.111 107.946 619.381 108.196L618.801 108.796C618.591 108.599 618.373 108.456 618.146 108.366C617.923 108.273 617.671 108.226 617.391 108.226C617.145 108.226 616.908 108.274 616.681 108.371C616.455 108.468 616.251 108.623 616.071 108.836C615.895 109.049 615.753 109.333 615.646 109.686C615.543 110.036 615.491 110.469 615.491 110.986C615.491 111.639 615.556 112.171 615.686 112.581C615.82 112.988 616.016 113.286 616.276 113.476C616.54 113.663 616.863 113.756 617.246 113.756C617.473 113.756 617.688 113.729 617.891 113.676C618.095 113.623 618.291 113.544 618.481 113.441V111.426H617.206L617.091 110.636H619.456V113.946C619.14 114.119 618.801 114.266 618.441 114.386C618.085 114.503 617.663 114.561 617.176 114.561ZM625.433 109.501C625.433 109.844 625.359 110.143 625.213 110.396C625.069 110.649 624.874 110.861 624.628 111.031C624.381 111.198 624.104 111.321 623.798 111.401L625.803 114.436H624.628L622.813 111.531H621.958V114.436H620.963V107.546H622.798C623.664 107.546 624.319 107.711 624.763 108.041C625.209 108.368 625.433 108.854 625.433 109.501ZM624.378 109.501C624.378 109.078 624.254 108.773 624.008 108.586C623.764 108.399 623.389 108.306 622.883 108.306H621.958V110.776H622.893C623.366 110.776 623.731 110.679 623.988 110.486C624.248 110.289 624.378 109.961 624.378 109.501ZM630.294 112.721H627.684L627.164 114.436H626.169L628.389 107.546H629.639L631.864 114.436H630.814L630.294 112.721ZM627.914 111.926H630.064L628.994 108.346L627.914 111.926ZM636.56 109.691C636.56 109.351 636.493 109.081 636.36 108.881C636.226 108.678 636.043 108.533 635.81 108.446C635.576 108.356 635.306 108.311 635 108.311H634.075V111.141H634.985C635.291 111.141 635.563 111.098 635.8 111.011C636.036 110.924 636.221 110.776 636.355 110.566C636.491 110.353 636.56 110.061 636.56 109.691ZM637.61 109.681C637.61 110.218 637.495 110.651 637.265 110.981C637.038 111.308 636.723 111.546 636.32 111.696C635.92 111.846 635.458 111.921 634.935 111.921H634.075V114.436H633.08V107.546H634.905C635.745 107.546 636.405 107.721 636.885 108.071C637.368 108.418 637.61 108.954 637.61 109.681ZM642.231 114.436V111.226H639.781V114.436H638.791V107.546H639.781V110.411H642.231V107.546H643.221V114.436H642.231ZM649.572 110.996C649.572 111.476 649.525 111.919 649.432 112.326C649.342 112.733 649.192 113.091 648.982 113.401C648.775 113.708 648.495 113.958 648.142 114.151C648.472 114.214 648.754 114.309 648.987 114.436C649.22 114.559 649.417 114.729 649.577 114.946C649.74 115.166 649.879 115.448 649.992 115.791L649.012 116.166C648.872 115.813 648.714 115.514 648.537 115.271C648.364 115.031 648.147 114.848 647.887 114.721C647.627 114.598 647.299 114.536 646.902 114.536C646.365 114.536 645.914 114.391 645.547 114.101C645.18 113.811 644.904 113.401 644.717 112.871C644.53 112.341 644.437 111.719 644.437 111.006C644.437 110.303 644.532 109.683 644.722 109.146C644.915 108.606 645.202 108.184 645.582 107.881C645.965 107.574 646.439 107.421 647.002 107.421C647.572 107.421 648.047 107.569 648.427 107.866C648.807 108.163 649.092 108.579 649.282 109.116C649.475 109.649 649.572 110.276 649.572 110.996ZM648.542 110.996C648.542 110.089 648.424 109.401 648.187 108.931C647.95 108.461 647.555 108.226 647.002 108.226C646.452 108.226 646.059 108.463 645.822 108.936C645.585 109.406 645.467 110.096 645.467 111.006C645.467 111.909 645.589 112.594 645.832 113.061C646.079 113.524 646.469 113.756 647.002 113.756C647.552 113.756 647.945 113.523 648.182 113.056C648.422 112.589 648.542 111.903 648.542 110.996ZM651.283 114.436V107.546H652.278V113.576H655.398L655.288 114.436H651.283ZM666.27 112.721H663.66L663.14 114.436H662.145L664.365 107.546H665.615L667.84 114.436H666.79L666.27 112.721ZM663.89 111.926H666.04L664.97 108.346L663.89 111.926ZM672.536 109.691C672.536 109.351 672.47 109.081 672.336 108.881C672.203 108.678 672.02 108.533 671.786 108.446C671.553 108.356 671.283 108.311 670.976 108.311H670.051V111.141H670.961C671.268 111.141 671.54 111.098 671.776 111.011C672.013 110.924 672.198 110.776 672.331 110.566C672.468 110.353 672.536 110.061 672.536 109.691ZM673.586 109.681C673.586 110.218 673.471 110.651 673.241 110.981C673.015 111.308 672.7 111.546 672.296 111.696C671.896 111.846 671.435 111.921 670.911 111.921H670.051V114.436H669.056V107.546H670.881C671.721 107.546 672.381 107.721 672.861 108.071C673.345 108.418 673.586 108.954 673.586 109.681ZM678.997 107.546V108.321H677.482V113.656H678.997V114.436H674.967V113.656H676.482V108.321H674.967V107.546H678.997Z" fill="#25855A"/>
<rect x="203.75" y="15.186" width="95.5" height="44.5" rx="3.25" fill="#FDFDFD"/>
<rect x="203.75" y="15.186" width="95.5" height="44.5" rx="3.25" stroke="#B03900" stroke-width="1.5"/>
<g clip-path="url(#clip1_716_1100)">
<path d="M213.536 33.936H220.536M213.536 36.936H216.036M213.536 39.936H216.036M216.036 42.936H212.536C212.271 42.936 212.017 42.8307 211.829 42.6431C211.641 42.4556 211.536 42.2013 211.536 41.936V30.936C211.536 30.6708 211.641 30.4165 211.829 30.2289C212.017 30.0414 212.271 29.936 212.536 29.936H219.622C219.887 29.9361 220.141 30.0414 220.329 30.2287L222.243 32.1434C222.431 32.3308 222.536 32.585 222.536 32.85V33.936M221.536 40.436C221.536 40.7013 221.641 40.9556 221.829 41.1431C222.017 41.3307 222.271 41.436 222.536 41.436C222.801 41.436 223.056 41.3307 223.243 41.1431C223.431 40.9556 223.536 40.7013 223.536 40.436C223.536 40.1708 223.431 39.9165 223.243 39.7289C223.056 39.5414 222.801 39.436 222.536 39.436C222.271 39.436 222.017 39.5414 221.829 39.7289C221.641 39.9165 221.536 40.1708 221.536 40.436ZM223.385 36.5694L223.68 37.538C223.729 37.6988 223.837 37.8351 223.982 37.9194C224.127 38.0037 224.299 38.0296 224.463 37.992L225.444 37.7647C225.63 37.7228 225.825 37.7415 225.999 37.8182C226.174 37.8948 226.319 38.0254 226.414 38.1907C226.509 38.356 226.549 38.5473 226.527 38.7368C226.506 38.9262 226.424 39.1037 226.294 39.2434L225.607 39.984C225.492 40.1074 225.428 40.2696 225.428 40.438C225.428 40.6065 225.492 40.7687 225.607 40.892L226.294 41.6327C226.424 41.7723 226.506 41.9499 226.527 42.1393C226.549 42.3287 226.509 42.5201 226.414 42.6854C226.319 42.8507 226.174 42.9813 225.999 43.0579C225.825 43.1345 225.63 43.1533 225.444 43.1114L224.463 42.884C224.299 42.8464 224.127 42.8724 223.982 42.9567C223.837 43.0409 223.729 43.1773 223.68 43.338L223.385 44.3027C223.331 44.4854 223.218 44.6456 223.065 44.7594C222.912 44.8733 222.727 44.9348 222.536 44.9348C222.345 44.9348 222.16 44.8733 222.007 44.7594C221.854 44.6456 221.742 44.4854 221.687 44.3027L221.392 43.334C221.344 43.1733 221.236 43.0369 221.09 42.9527C220.945 42.8684 220.773 42.8424 220.609 42.88L219.628 43.1074C219.442 43.1493 219.248 43.1305 219.073 43.0539C218.898 42.9773 218.753 42.8467 218.658 42.6814C218.563 42.5161 218.523 42.3247 218.545 42.1353C218.567 41.9459 218.648 41.7683 218.778 41.6287L219.465 40.888C219.58 40.7647 219.644 40.6025 219.644 40.434C219.644 40.2656 219.58 40.1034 219.465 39.98L218.778 39.2394C218.648 39.0997 218.567 38.9222 218.545 38.7328C218.523 38.5433 218.563 38.352 218.658 38.1867C218.753 38.0214 218.898 37.8908 219.073 37.8142C219.248 37.7375 219.442 37.7188 219.628 37.7607L220.609 37.988C220.773 38.0256 220.945 37.9997 221.09 37.9154C221.236 37.8311 221.344 37.6948 221.392 37.534L221.687 36.5654C221.742 36.3828 221.855 36.2229 222.008 36.1094C222.161 35.9959 222.347 35.9348 222.538 35.9353C222.728 35.9357 222.914 35.9977 223.067 36.1119C223.219 36.2261 223.331 36.3865 223.385 36.5694Z" stroke="#B03900" stroke-linecap="round" stroke-linejoin="round"/>
</g>
<path d="M242.244 33.721H239.634L239.114 35.436H238.119L240.339 28.546H241.589L243.814 35.436H242.764L242.244 33.721ZM239.864 32.926H242.014L240.944 29.346L239.864 32.926ZM248.51 30.691C248.51 30.351 248.443 30.081 248.31 29.881C248.177 29.6777 247.993 29.5327 247.76 29.446C247.527 29.356 247.257 29.311 246.95 29.311H246.025V32.141H246.935C247.242 32.141 247.513 32.0977 247.75 32.011C247.987 31.9244 248.172 31.776 248.305 31.566C248.442 31.3527 248.51 31.061 248.51 30.691ZM249.56 30.681C249.56 31.2177 249.445 31.651 249.215 31.981C248.988 32.3077 248.673 32.546 248.27 32.696C247.87 32.846 247.408 32.921 246.885 32.921H246.025V35.436H245.03V28.546H246.855C247.695 28.546 248.355 28.721 248.835 29.071C249.318 29.4177 249.56 29.9544 249.56 30.681ZM255.531 31.996C255.531 32.696 255.434 33.3144 255.241 33.851C255.048 34.3877 254.759 34.8077 254.376 35.111C253.996 35.411 253.523 35.561 252.956 35.561C252.393 35.561 251.919 35.4144 251.536 35.121C251.153 34.8244 250.864 34.4094 250.671 33.876C250.478 33.3427 250.381 32.7194 250.381 32.006C250.381 31.3027 250.478 30.6827 250.671 30.146C250.864 29.606 251.153 29.1844 251.536 28.881C251.919 28.5744 252.393 28.421 252.956 28.421C253.523 28.421 253.996 28.5694 254.376 28.866C254.759 29.1627 255.048 29.5794 255.241 30.116C255.434 30.6494 255.531 31.276 255.531 31.996ZM254.496 31.996C254.496 31.0894 254.376 30.401 254.136 29.931C253.899 29.461 253.506 29.226 252.956 29.226C252.406 29.226 252.011 29.4627 251.771 29.936C251.534 30.4094 251.416 31.0994 251.416 32.006C251.416 32.9094 251.539 33.5944 251.786 34.061C252.033 34.5244 252.423 34.756 252.956 34.756C253.506 34.756 253.899 34.5227 254.136 34.056C254.376 33.5894 254.496 32.9027 254.496 31.996ZM257.237 35.436V28.546H258.232V34.576H261.352L261.242 35.436H257.237ZM263.233 35.436V28.546H264.228V34.576H267.348L267.238 35.436H263.233ZM273.519 31.996C273.519 32.696 273.423 33.3144 273.229 33.851C273.036 34.3877 272.748 34.8077 272.364 35.111C271.984 35.411 271.511 35.561 270.944 35.561C270.381 35.561 269.908 35.4144 269.524 35.121C269.141 34.8244 268.853 34.4094 268.659 33.876C268.466 33.3427 268.369 32.7194 268.369 32.006C268.369 31.3027 268.466 30.6827 268.659 30.146C268.853 29.606 269.141 29.1844 269.524 28.881C269.908 28.5744 270.381 28.421 270.944 28.421C271.511 28.421 271.984 28.5694 272.364 28.866C272.748 29.1627 273.036 29.5794 273.229 30.116C273.423 30.6494 273.519 31.276 273.519 31.996ZM272.484 31.996C272.484 31.0894 272.364 30.401 272.124 29.931C271.888 29.461 271.494 29.226 270.944 29.226C270.394 29.226 269.999 29.4627 269.759 29.936C269.523 30.4094 269.404 31.0994 269.404 32.006C269.404 32.9094 269.528 33.5944 269.774 34.061C270.021 34.5244 270.411 34.756 270.944 34.756C271.494 34.756 271.888 34.5227 272.124 34.056C272.364 33.5894 272.484 32.9027 272.484 31.996ZM241.544 39.421C242.001 39.421 242.384 39.4794 242.694 39.596C243.007 39.7127 243.301 39.8827 243.574 40.106L243.039 40.736C242.826 40.5594 242.599 40.431 242.359 40.351C242.122 40.2677 241.871 40.226 241.604 40.226C241.244 40.226 240.909 40.3144 240.599 40.491C240.292 40.6677 240.046 40.9577 239.859 41.361C239.672 41.7644 239.579 42.306 239.579 42.986C239.579 43.6494 239.667 44.1827 239.844 44.586C240.024 44.986 240.266 45.2777 240.569 45.461C240.876 45.641 241.217 45.731 241.594 45.731C241.974 45.731 242.286 45.6727 242.529 45.556C242.776 45.436 242.992 45.2994 243.179 45.146L243.674 45.781C243.457 45.991 243.176 46.1744 242.829 46.331C242.486 46.4844 242.066 46.561 241.569 46.561C240.999 46.561 240.486 46.4244 240.029 46.151C239.572 45.8777 239.211 45.476 238.944 44.946C238.681 44.4127 238.549 43.7594 238.549 42.986C238.549 42.2127 238.684 41.561 238.954 41.031C239.227 40.501 239.591 40.101 240.044 39.831C240.501 39.5577 241.001 39.421 241.544 39.421ZM249.535 42.996C249.535 43.696 249.438 44.3144 249.245 44.851C249.052 45.3877 248.763 45.8077 248.38 46.111C248 46.411 247.527 46.561 246.96 46.561C246.397 46.561 245.923 46.4144 245.54 46.121C245.157 45.8244 244.868 45.4094 244.675 44.876C244.482 44.3427 244.385 43.7194 244.385 43.006C244.385 42.3027 244.482 41.6827 244.675 41.146C244.868 40.606 245.157 40.1844 245.54 39.881C245.923 39.5744 246.397 39.421 246.96 39.421C247.527 39.421 248 39.5694 248.38 39.866C248.763 40.1627 249.052 40.5794 249.245 41.116C249.438 41.6494 249.535 42.276 249.535 42.996ZM248.5 42.996C248.5 42.0894 248.38 41.401 248.14 40.931C247.903 40.461 247.51 40.226 246.96 40.226C246.41 40.226 246.015 40.4627 245.775 40.936C245.538 41.4094 245.42 42.0994 245.42 43.006C245.42 43.9094 245.543 44.5944 245.79 45.061C246.037 45.5244 246.427 45.756 246.96 45.756C247.51 45.756 247.903 45.5227 248.14 45.056C248.38 44.5894 248.5 43.9027 248.5 42.996ZM253.831 46.436L251.506 40.461C251.513 40.5477 251.523 40.6827 251.536 40.866C251.549 41.0494 251.564 41.2644 251.581 41.511C251.598 41.7577 251.611 42.0194 251.621 42.296C251.634 42.5727 251.641 42.8477 251.641 43.121V46.436H250.741V39.546H252.056L254.406 45.536C254.399 45.4227 254.384 45.2344 254.361 44.971C254.338 44.7044 254.316 44.3894 254.296 44.026C254.279 43.6594 254.271 43.271 254.271 42.861V39.546H255.171V46.436H253.831ZM259.827 46.436L257.502 40.461C257.509 40.5477 257.519 40.6827 257.532 40.866C257.545 41.0494 257.56 41.2644 257.577 41.511C257.594 41.7577 257.607 42.0194 257.617 42.296C257.63 42.5727 257.637 42.8477 257.637 43.121V46.436H256.737V39.546H258.052L260.402 45.536C260.395 45.4227 260.38 45.2344 260.357 44.971C260.334 44.7044 260.312 44.3894 260.292 44.026C260.275 43.6594 260.267 43.271 260.267 42.861V39.546H261.167V46.436H259.827ZM264.143 40.326V42.541H266.673V43.326H264.143V45.661H267.238V46.436H263.148V39.546H267.163L267.048 40.326H264.143ZM271.524 39.421C271.981 39.421 272.364 39.4794 272.674 39.596C272.988 39.7127 273.281 39.8827 273.554 40.106L273.019 40.736C272.806 40.5594 272.579 40.431 272.339 40.351C272.103 40.2677 271.851 40.226 271.584 40.226C271.224 40.226 270.889 40.3144 270.579 40.491C270.273 40.6677 270.026 40.9577 269.839 41.361C269.653 41.7644 269.559 42.306 269.559 42.986C269.559 43.6494 269.648 44.1827 269.824 44.586C270.004 44.986 270.246 45.2777 270.549 45.461C270.856 45.641 271.198 45.731 271.574 45.731C271.954 45.731 272.266 45.6727 272.509 45.556C272.756 45.436 272.973 45.2994 273.159 45.146L273.654 45.781C273.438 45.991 273.156 46.1744 272.809 46.331C272.466 46.4844 272.046 46.561 271.549 46.561C270.979 46.561 270.466 46.4244 270.009 46.151C269.553 45.8777 269.191 45.476 268.924 44.946C268.661 44.4127 268.529 43.7594 268.529 42.986C268.529 42.2127 268.664 41.561 268.934 41.031C269.208 40.501 269.571 40.101 270.024 39.831C270.481 39.5577 270.981 39.421 271.524 39.421ZM277.42 40.371V46.436H276.43V40.371H274.31V39.546H279.575L279.47 40.371H277.42ZM285.512 42.996C285.512 43.696 285.415 44.3144 285.222 44.851C285.028 45.3877 284.74 45.8077 284.357 46.111C283.977 46.411 283.503 46.561 282.937 46.561C282.373 46.561 281.9 46.4144 281.517 46.121C281.133 45.8244 280.845 45.4094 280.652 44.876C280.458 44.3427 280.362 43.7194 280.362 43.006C280.362 42.3027 280.458 41.6827 280.652 41.146C280.845 40.606 281.133 40.1844 281.517 39.881C281.9 39.5744 282.373 39.421 282.937 39.421C283.503 39.421 283.977 39.5694 284.357 39.866C284.74 40.1627 285.028 40.5794 285.222 41.116C285.415 41.6494 285.512 42.276 285.512 42.996ZM284.477 42.996C284.477 42.0894 284.357 41.401 284.117 40.931C283.88 40.461 283.487 40.226 282.937 40.226C282.387 40.226 281.992 40.4627 281.752 40.936C281.515 41.4094 281.397 42.0994 281.397 43.006C281.397 43.9094 281.52 44.5944 281.767 45.061C282.013 45.5244 282.403 45.756 282.937 45.756C283.487 45.756 283.88 45.5227 284.117 45.056C284.357 44.5894 284.477 43.9027 284.477 42.996ZM291.348 41.501C291.348 41.8444 291.274 42.1427 291.128 42.396C290.984 42.6494 290.789 42.861 290.543 43.031C290.296 43.1977 290.019 43.321 289.713 43.401L291.718 46.436H290.543L288.728 43.531H287.873V46.436H286.878V39.546H288.713C289.579 39.546 290.234 39.711 290.678 40.041C291.124 40.3677 291.348 40.8544 291.348 41.501ZM290.293 41.501C290.293 41.0777 290.169 40.7727 289.923 40.586C289.679 40.3994 289.304 40.306 288.798 40.306H287.873V42.776H288.808C289.281 42.776 289.646 42.6794 289.903 42.486C290.163 42.2894 290.293 41.961 290.293 41.501Z" fill="#B03900"/>
<defs>
<clipPath id="clip0_716_1100">
<rect width="23.6792" height="23.6792" fill="white" transform="translate(19.1572 52.188)"/>
</clipPath>
<clipPath id="clip1_716_1100">
<rect width="16" height="16" fill="white" transform="translate(211.036 29.436)"/>
</clipPath>
</defs>
</svg>
