<svg width="999" height="361" viewBox="0 0 999 361" fill="none" xmlns="http://www.w3.org/2000/svg">
<path d="M164.095 180.451H281" stroke="#467B95" stroke-width="2" stroke-dasharray="4 4"/>
<rect x="22.4739" y="145.201" width="180.5" height="70.5" rx="5.25" fill="#FDFDFD"/>
<rect x="22.4739" y="145.201" width="180.5" height="70.5" rx="5.25" stroke="#467B95" stroke-width="1.5"/>
<path d="M40.4972 164.597C41.1061 164.597 41.6172 164.675 42.0305 164.831C42.4483 164.986 42.8394 165.213 43.2039 165.511L42.4905 166.351C42.2061 166.115 41.9039 165.944 41.5839 165.837C41.2639 165.726 40.9283 165.671 40.5772 165.671C40.0928 165.671 39.6461 165.788 39.2372 166.024C38.8283 166.26 38.4994 166.646 38.2505 167.184C38.0017 167.722 37.8772 168.444 37.8772 169.351C37.8772 170.235 37.995 170.946 38.2305 171.484C38.4705 172.017 38.7928 172.406 39.1972 172.651C39.6061 172.891 40.0617 173.011 40.5639 173.011C41.0661 173.011 41.4817 172.933 41.8105 172.777C42.1439 172.617 42.4328 172.435 42.6772 172.231L43.3372 173.077C43.0483 173.362 42.6728 173.606 42.2105 173.811C41.7528 174.015 41.1928 174.117 40.5305 174.117C39.7705 174.117 39.0861 173.935 38.4772 173.571C37.8728 173.206 37.3928 172.671 37.0372 171.964C36.6817 171.253 36.5039 170.382 36.5039 169.351C36.5039 168.32 36.6839 167.451 37.0439 166.744C37.4083 166.037 37.8928 165.504 38.4972 165.144C39.1061 164.78 39.7728 164.597 40.4972 164.597ZM45.4353 173.951V164.764H46.7619V172.804H50.9219L50.7753 173.951H45.4353ZM58.4066 164.764V165.797H56.3866V172.911H58.4066V173.951H53.0333V172.911H55.0533V165.797H53.0333V164.764H58.4066ZM62.6447 165.804V168.757H66.018V169.804H62.6447V172.917H66.7714V173.951H61.318V164.764H66.6714L66.518 165.804H62.6447ZM72.8827 173.951L69.7827 165.984C69.7916 166.14 69.8094 166.406 69.8361 166.784C69.8672 167.157 69.8961 167.588 69.9227 168.077C69.9494 168.562 69.9627 169.046 69.9627 169.531V173.951H68.7627V164.764H70.5161L73.6494 172.751C73.6405 172.6 73.6205 172.348 73.5894 171.997C73.5583 171.642 73.5294 171.222 73.5027 170.737C73.4805 170.253 73.4694 169.735 73.4694 169.184V164.764H74.6694V173.951H72.8827ZM80.3541 165.864V173.951H79.0341V165.864H76.2074V164.764H83.2274L83.0874 165.864H80.3541ZM97.4169 171.664H93.9369L93.2435 173.951H91.9169L94.8769 164.764H96.5435L99.5102 173.951H98.1102L97.4169 171.664ZM94.2435 170.604H97.1102L95.6835 165.831L94.2435 170.604ZM107.175 167.611C107.175 168.326 107.022 168.904 106.715 169.344C106.413 169.78 105.993 170.097 105.455 170.297C104.917 170.497 104.302 170.597 103.608 170.597H102.462V173.951H101.135V164.764H103.568C104.688 164.764 105.568 164.997 106.208 165.464C106.853 165.926 107.175 166.642 107.175 167.611ZM105.775 167.624C105.775 166.948 105.579 166.473 105.188 166.197C104.802 165.922 104.304 165.784 103.695 165.784H102.462V169.557H103.675C104.084 169.557 104.446 169.5 104.762 169.384C105.077 169.268 105.324 169.071 105.502 168.791C105.684 168.511 105.775 168.122 105.775 167.624ZM115.173 167.611C115.173 168.326 115.02 168.904 114.713 169.344C114.411 169.78 113.991 170.097 113.453 170.297C112.915 170.497 112.3 170.597 111.606 170.597H110.46V173.951H109.133V164.764H111.566C112.686 164.764 113.566 164.997 114.206 165.464C114.851 165.926 115.173 166.642 115.173 167.611ZM113.773 167.624C113.773 166.948 113.577 166.473 113.186 166.197C112.8 165.922 112.302 165.784 111.693 165.784H110.46V169.557H111.673C112.082 169.557 112.444 169.5 112.76 169.384C113.075 169.268 113.322 169.071 113.5 168.791C113.682 168.511 113.773 168.122 113.773 167.624ZM117.418 173.951V164.764H118.744V172.804H122.904L122.758 173.951H117.418ZM130.389 164.764V165.797H128.369V172.911H130.389V173.951H125.016V172.911H127.036V165.797H125.016V164.764H130.389ZM136.474 164.597C137.083 164.597 137.594 164.675 138.007 164.831C138.425 164.986 138.816 165.213 139.18 165.511L138.467 166.351C138.183 166.115 137.88 165.944 137.56 165.837C137.24 165.726 136.905 165.671 136.554 165.671C136.069 165.671 135.623 165.788 135.214 166.024C134.805 166.26 134.476 166.646 134.227 167.184C133.978 167.722 133.854 168.444 133.854 169.351C133.854 170.235 133.972 170.946 134.207 171.484C134.447 172.017 134.769 172.406 135.174 172.651C135.583 172.891 136.038 173.011 136.54 173.011C137.043 173.011 137.458 172.933 137.787 172.777C138.12 172.617 138.409 172.435 138.654 172.231L139.314 173.077C139.025 173.362 138.649 173.606 138.187 173.811C137.729 174.015 137.169 174.117 136.507 174.117C135.747 174.117 135.063 173.935 134.454 173.571C133.849 173.206 133.369 172.671 133.014 171.964C132.658 171.253 132.48 170.382 132.48 169.351C132.48 168.32 132.66 167.451 133.02 166.744C133.385 166.037 133.869 165.504 134.474 165.144C135.083 164.78 135.749 164.597 136.474 164.597ZM145.405 171.664H141.925L141.232 173.951H139.905L142.865 164.764H144.532L147.498 173.951H146.098L145.405 171.664ZM142.232 170.604H145.098L143.672 165.831L142.232 170.604ZM152.337 165.864V173.951H151.017V165.864H148.19V164.764H155.21L155.07 165.864H152.337ZM162.381 164.764V165.797H160.361V172.911H162.381V173.951H157.008V172.911H159.028V165.797H157.008V164.764H162.381ZM171.126 169.364C171.126 170.297 170.997 171.122 170.739 171.837C170.482 172.553 170.097 173.113 169.586 173.517C169.079 173.917 168.448 174.117 167.693 174.117C166.937 174.117 166.304 173.922 165.793 173.531C165.286 173.135 164.904 172.582 164.646 171.871C164.388 171.16 164.259 170.328 164.259 169.377C164.259 168.44 164.388 167.613 164.646 166.897C164.904 166.177 165.286 165.615 165.793 165.211C166.304 164.802 166.937 164.597 167.693 164.597C168.448 164.597 169.079 164.795 169.586 165.191C170.097 165.586 170.482 166.142 170.739 166.857C170.997 167.573 171.126 168.408 171.126 169.364ZM169.746 169.364C169.746 168.155 169.586 167.237 169.266 166.611C168.95 165.984 168.426 165.671 167.693 165.671C166.959 165.671 166.433 165.986 166.113 166.617C165.797 167.248 165.639 168.168 165.639 169.377C165.639 170.582 165.802 171.495 166.126 172.117C166.455 172.735 166.977 173.044 167.693 173.044C168.426 173.044 168.95 172.733 169.266 172.111C169.586 171.484 169.746 170.568 169.746 169.364ZM176.857 173.951L173.757 165.984C173.766 166.14 173.784 166.406 173.811 166.784C173.842 167.157 173.871 167.588 173.897 168.077C173.924 168.562 173.937 169.046 173.937 169.531V173.951H172.737V164.764H174.491L177.624 172.751C177.615 172.6 177.595 172.348 177.564 171.997C177.533 171.642 177.504 171.222 177.477 170.737C177.455 170.253 177.444 169.735 177.444 169.184V164.764H178.644V173.951H176.857ZM186.909 171.384C186.909 171.917 186.773 172.391 186.502 172.804C186.235 173.213 185.846 173.535 185.335 173.771C184.829 174.002 184.213 174.117 183.489 174.117C182.786 174.117 182.16 174.011 181.609 173.797C181.058 173.584 180.589 173.291 180.202 172.917L180.955 172.071C181.275 172.368 181.642 172.604 182.055 172.777C182.469 172.951 182.951 173.037 183.502 173.037C183.862 173.037 184.195 172.98 184.502 172.864C184.813 172.744 185.062 172.566 185.249 172.331C185.44 172.091 185.535 171.791 185.535 171.431C185.535 171.146 185.478 170.904 185.362 170.704C185.251 170.5 185.053 170.32 184.769 170.164C184.484 170.008 184.086 169.855 183.575 169.704C182.953 169.522 182.42 169.315 181.975 169.084C181.535 168.848 181.198 168.566 180.962 168.237C180.731 167.904 180.615 167.495 180.615 167.011C180.615 166.535 180.746 166.117 181.009 165.757C181.271 165.393 181.631 165.108 182.089 164.904C182.546 164.7 183.073 164.597 183.669 164.597C184.313 164.597 184.875 164.691 185.355 164.877C185.84 165.064 186.275 165.328 186.662 165.671L185.929 166.497C185.6 166.208 185.246 166 184.869 165.871C184.495 165.737 184.115 165.671 183.729 165.671C183.24 165.671 182.824 165.777 182.482 165.991C182.14 166.2 181.969 166.52 181.969 166.951C181.969 167.208 182.038 167.428 182.175 167.611C182.313 167.788 182.544 167.953 182.869 168.104C183.198 168.255 183.646 168.415 184.215 168.584C184.709 168.731 185.158 168.911 185.562 169.124C185.971 169.333 186.298 169.617 186.542 169.977C186.786 170.333 186.909 170.802 186.909 171.384Z" fill="#467B95"/>
<g clip-path="url(#clip0_451_434)">
<path d="M46.9952 189.865C47.3828 190.675 47.6883 191.521 47.9071 192.392C49.6471 191.88 50.7552 191.039 50.7552 190.017C50.7552 188.975 49.6052 188.12 47.8058 187.612" stroke="#467B95" stroke-linecap="round" stroke-linejoin="round"/>
<path d="M40.4446 189.865C40.1073 189.141 39.8354 188.388 39.6321 187.615C37.8377 188.123 36.6946 188.977 36.6946 190.017C36.6946 191.037 37.799 191.877 39.534 192.392" stroke="#467B95" stroke-linecap="round" stroke-linejoin="round"/>
<path d="M41.9896 187.19C42.4977 186.45 43.0788 185.762 43.7239 185.138C42.4114 183.888 41.1283 183.349 40.2433 183.859C39.3408 184.38 39.1752 185.804 39.6352 187.616" stroke="#467B95" stroke-linecap="round" stroke-linejoin="round"/>
<path d="M45.2651 192.863C44.8066 193.517 44.2908 194.129 43.7239 194.691C45.0614 195.991 46.3739 196.556 47.2745 196.036C48.1576 195.526 48.3333 194.15 47.9089 192.392" stroke="#467B95" stroke-linecap="round" stroke-linejoin="round"/>
<path d="M42.1757 192.863C41.2809 192.794 40.3952 192.635 39.532 192.389C39.1045 194.152 39.282 195.532 40.1645 196.043C41.0664 196.564 42.382 195.996 43.722 194.691" stroke="#467B95" stroke-linecap="round" stroke-linejoin="round"/>
<path d="M45.4514 187.189C46.2472 187.26 47.0351 187.401 47.8058 187.612C48.2626 185.804 48.0964 184.384 47.1958 183.862C46.312 183.354 45.0326 183.888 43.7239 185.138" stroke="#467B95" stroke-linecap="round" stroke-linejoin="round"/>
<path d="M45.4515 187.189C44.9002 187.137 44.3265 187.106 43.724 187.106C43.1215 187.106 42.5433 187.137 41.9896 187.19C41.7052 187.599 41.4271 188.035 41.159 188.498C40.8908 188.961 40.659 189.416 40.4446 189.865C40.6746 190.369 40.9358 190.883 41.2358 191.403C41.5358 191.923 41.8533 192.41 42.1733 192.863C43.2012 192.95 44.2348 192.951 45.2627 192.863C45.9359 191.923 46.5158 190.918 46.994 189.865C46.5575 188.931 46.0414 188.035 45.4515 187.189Z" stroke="#467B95" stroke-linecap="round" stroke-linejoin="round"/>
<path d="M42.7864 190.017C42.7864 190.265 42.8851 190.504 43.061 190.68C43.2368 190.856 43.4752 190.954 43.7239 190.954C43.9725 190.954 44.211 190.856 44.3868 190.68C44.5626 190.504 44.6614 190.265 44.6614 190.017C44.6614 189.768 44.5626 189.53 44.3868 189.354C44.211 189.178 43.9725 189.079 43.7239 189.079C43.4752 189.079 43.2368 189.178 43.061 189.354C42.8851 189.53 42.7864 189.768 42.7864 190.017Z" stroke="#467B95" stroke-linecap="round" stroke-linejoin="round"/>
</g>
<g clip-path="url(#clip1_451_434)">
<path d="M59.1978 184.092V195.81L70.9166 184.092H59.1978Z" stroke="#467B95" stroke-linecap="round" stroke-linejoin="round"/>
<path d="M65.0573 189.951L70.9166 195.81H59.1979" stroke="#467B95" stroke-linecap="round" stroke-linejoin="round"/>
<path d="M65.0573 184.092L59.3229 189.826" stroke="#467B95" stroke-linecap="round" stroke-linejoin="round"/>
</g>
<g clip-path="url(#clip2_451_434)">
<path d="M87.4176 189.326C84.9738 187.807 82.8051 184.426 82.8051 184.426C82.8051 184.426 84.5988 189.144 87.8926 192.244C86.8315 192.303 85.7704 192.128 84.7844 191.732C83.7984 191.336 82.9115 190.727 82.1863 189.951C81.7275 189.492 81.3228 188.983 80.9801 188.432C80.958 188.405 80.9267 188.387 80.8922 188.381C80.8577 188.375 80.8223 188.382 80.7926 188.401C80.7583 188.419 80.7307 188.447 80.7138 188.482C80.6969 188.517 80.6917 188.556 80.6988 188.594C81.1316 190.148 81.9658 191.56 83.1176 192.688C85.7801 195.351 89.4488 196.088 91.7801 194.563C92.2299 194.701 92.6928 194.791 93.1613 194.832C94.3738 195.457 94.3738 195.744 94.3738 195.744C94.5498 195.538 94.6703 195.29 94.7239 195.025C94.7775 194.759 94.7624 194.484 94.6801 194.226C94.7448 193.94 94.7195 193.641 94.6076 193.37C94.4957 193.099 94.3027 192.87 94.0551 192.713L93.4988 192.369C94.3426 190.069 93.4988 186.957 91.1551 184.619C90.9988 184.457 90.8363 184.307 90.6676 184.163C90.6391 184.138 90.6024 184.124 90.5644 184.124C90.5265 184.124 90.4898 184.138 90.4613 184.163C90.4322 184.186 90.412 184.219 90.404 184.255C90.396 184.292 90.4008 184.33 90.4176 184.363C91.7363 186.457 91.9301 188.851 90.8551 190.476C88.8418 188.735 87.1089 186.694 85.7176 184.426" stroke="#467B95" stroke-linecap="round" stroke-linejoin="round"/>
</g>
<rect x="-1" y="1" width="753.207" height="316.235" rx="7" transform="matrix(-1 0 0 1 993 21.3333)" stroke="#B03900" stroke-width="2"/>
<rect x="804.147" y="42.0833" width="170.103" height="71.2449" rx="5.25" fill="#FDFDFD"/>
<rect x="804.147" y="42.0833" width="170.103" height="71.2449" rx="5.25" stroke="#AF9200" stroke-width="1.5"/>
<path d="M839.068 77.7058V81.7058C839.068 81.7058 839.068 83.7058 843.734 83.7058C848.401 83.7058 848.401 81.7058 848.401 81.7058V77.7058" stroke="#AF9200"/>
<path d="M839.068 73.7058V77.7058C839.068 77.7058 839.068 79.7058 843.734 79.7058C848.401 79.7058 848.401 77.7058 848.401 77.7058V73.7058" stroke="#AF9200"/>
<path d="M843.734 71.7058C848.401 71.7058 848.401 73.7058 848.401 73.7058C848.401 73.7058 848.401 75.7058 843.734 75.7058C839.068 75.7058 839.068 73.7058 839.068 73.7058C839.068 73.7058 839.068 71.7058 843.734 71.7058Z" stroke="#AF9200"/>
<path d="M869.762 72.5191V78.7125C869.762 79.3347 869.636 79.8836 869.382 80.3591C869.133 80.8347 868.776 81.2058 868.309 81.4725C867.847 81.7391 867.293 81.8725 866.649 81.8725C866 81.8725 865.444 81.7391 864.982 81.4725C864.52 81.2058 864.167 80.8347 863.922 80.3591C863.682 79.8836 863.562 79.3347 863.562 78.7125V72.5191H864.882V78.6125C864.882 80.0525 865.471 80.7725 866.649 80.7725C867.836 80.7725 868.429 80.0525 868.429 78.6125V72.5191H869.762ZM877.88 79.1391C877.88 79.6725 877.745 80.1458 877.474 80.5591C877.207 80.968 876.818 81.2903 876.307 81.5258C875.8 81.7569 875.185 81.8725 874.46 81.8725C873.758 81.8725 873.131 81.7658 872.58 81.5525C872.029 81.3391 871.56 81.0458 871.174 80.6725L871.927 79.8258C872.247 80.1236 872.614 80.3591 873.027 80.5325C873.44 80.7058 873.923 80.7925 874.474 80.7925C874.834 80.7925 875.167 80.7347 875.474 80.6191C875.785 80.4991 876.034 80.3214 876.22 80.0858C876.411 79.8458 876.507 79.5458 876.507 79.1858C876.507 78.9014 876.449 78.6591 876.334 78.4591C876.223 78.2547 876.025 78.0747 875.74 77.9191C875.456 77.7636 875.058 77.6103 874.547 77.4591C873.925 77.2769 873.391 77.0703 872.947 76.8391C872.507 76.6036 872.169 76.3214 871.934 75.9925C871.703 75.6591 871.587 75.2503 871.587 74.7658C871.587 74.2903 871.718 73.8725 871.98 73.5125C872.243 73.148 872.603 72.8636 873.06 72.6591C873.518 72.4547 874.045 72.3525 874.64 72.3525C875.285 72.3525 875.847 72.4458 876.327 72.6325C876.811 72.8191 877.247 73.0836 877.634 73.4258L876.9 74.2525C876.571 73.9636 876.218 73.7547 875.84 73.6258C875.467 73.4925 875.087 73.4258 874.7 73.4258C874.211 73.4258 873.796 73.5325 873.454 73.7458C873.111 73.9547 872.94 74.2747 872.94 74.7058C872.94 74.9636 873.009 75.1836 873.147 75.3658C873.285 75.5436 873.516 75.708 873.84 75.8591C874.169 76.0103 874.618 76.1703 875.187 76.3391C875.68 76.4858 876.129 76.6658 876.534 76.8791C876.943 77.088 877.269 77.3725 877.514 77.7325C877.758 78.088 877.88 78.5569 877.88 79.1391ZM881.585 73.5591V76.5125H884.958V77.5591H881.585V80.6725H885.712V81.7058H880.258V72.5191H885.612L885.458 73.5591H881.585ZM893.876 75.1258C893.876 75.8147 893.665 76.3703 893.243 76.7925C892.825 77.2103 892.31 77.4991 891.696 77.6591L894.37 81.7058H892.803L890.383 77.8325H889.243V81.7058H887.916V72.5191H890.363C891.514 72.5191 892.387 72.7391 892.983 73.1791C893.579 73.6147 893.876 74.2636 893.876 75.1258ZM892.47 75.1258C892.47 74.5614 892.305 74.1547 891.976 73.9058C891.652 73.6569 891.152 73.5325 890.476 73.5325H889.243V76.8258H890.49C891.121 76.8258 891.607 76.6969 891.95 76.4391C892.296 76.1769 892.47 75.7391 892.47 75.1258ZM901.874 79.1391C901.874 79.6725 901.739 80.1458 901.468 80.5591C901.201 80.968 900.812 81.2903 900.301 81.5258C899.794 81.7569 899.179 81.8725 898.454 81.8725C897.752 81.8725 897.126 81.7658 896.574 81.5525C896.023 81.3391 895.554 81.0458 895.168 80.6725L895.921 79.8258C896.241 80.1236 896.608 80.3591 897.021 80.5325C897.434 80.7058 897.917 80.7925 898.468 80.7925C898.828 80.7925 899.161 80.7347 899.468 80.6191C899.779 80.4991 900.028 80.3214 900.214 80.0858C900.406 79.8458 900.501 79.5458 900.501 79.1858C900.501 78.9014 900.443 78.6591 900.328 78.4591C900.217 78.2547 900.019 78.0747 899.734 77.9191C899.45 77.7636 899.052 77.6103 898.541 77.4591C897.919 77.2769 897.386 77.0703 896.941 76.8391C896.501 76.6036 896.163 76.3214 895.928 75.9925C895.697 75.6591 895.581 75.2503 895.581 74.7658C895.581 74.2903 895.712 73.8725 895.974 73.5125C896.237 73.148 896.597 72.8636 897.054 72.6591C897.512 72.4547 898.039 72.3525 898.634 72.3525C899.279 72.3525 899.841 72.4458 900.321 72.6325C900.806 72.8191 901.241 73.0836 901.628 73.4258L900.894 74.2525C900.566 73.9636 900.212 73.7547 899.834 73.6258C899.461 73.4925 899.081 73.4258 898.694 73.4258C898.206 73.4258 897.79 73.5325 897.448 73.7458C897.106 73.9547 896.934 74.2747 896.934 74.7058C896.934 74.9636 897.003 75.1836 897.141 75.3658C897.279 75.5436 897.51 75.708 897.834 75.8591C898.163 76.0103 898.612 76.1703 899.181 76.3391C899.674 76.4858 900.123 76.6658 900.528 76.8791C900.937 77.088 901.263 77.3725 901.508 77.7325C901.752 78.088 901.874 78.5569 901.874 79.1391ZM918.064 77.0658C918.064 78.0214 917.939 78.8036 917.691 79.4125C917.442 80.0214 917.111 80.4925 916.697 80.8258C916.288 81.1547 915.837 81.3836 915.344 81.5125C914.851 81.6414 914.357 81.7058 913.864 81.7058H911.697V72.5191H913.717C914.264 72.5191 914.795 72.5791 915.311 72.6991C915.826 72.8191 916.291 73.0414 916.704 73.3658C917.122 73.6858 917.453 74.1436 917.697 74.7391C917.942 75.3347 918.064 76.1103 918.064 77.0658ZM916.664 77.0658C916.664 76.2969 916.584 75.6791 916.424 75.2125C916.268 74.7458 916.059 74.3947 915.797 74.1591C915.535 73.9236 915.246 73.7658 914.931 73.6858C914.619 73.6058 914.308 73.5658 913.997 73.5658H913.017V80.6725H914.011C914.335 80.6725 914.655 80.6214 914.971 80.5191C915.286 80.4169 915.571 80.2347 915.824 79.9725C916.082 79.7103 916.286 79.3436 916.437 78.8725C916.588 78.4014 916.664 77.7991 916.664 77.0658ZM924.355 79.4191H920.875L920.182 81.7058H918.855L921.815 72.5191H923.482L926.449 81.7058H925.049L924.355 79.4191ZM921.182 78.3591H924.049L922.622 73.5858L921.182 78.3591ZM931.287 73.6191V81.7058H929.967V73.6191H927.14V72.5191H934.16L934.02 73.6191H931.287ZM940.351 79.4191H936.871L936.178 81.7058H934.851L937.811 72.5191H939.478L942.445 81.7058H941.045L940.351 79.4191ZM937.178 78.3591H940.045L938.618 73.5858L937.178 78.3591Z" fill="#AF9200"/>
<path d="M803.397 77.7058H743.397" stroke="#AF9200" stroke-width="2"/>
<rect x="572.543" y="42.0833" width="170.103" height="71.2449" rx="5.25" fill="#FDFDFD"/>
<rect x="572.543" y="42.0833" width="170.103" height="71.2449" rx="5.25" stroke="#AF9200" stroke-width="1.5"/>
<g clip-path="url(#clip3_451_434)">
<path d="M615.131 74.2058H622.131M615.131 77.2058H617.631M615.131 80.2058H617.631M617.631 83.2058H614.131C613.866 83.2058 613.611 83.1005 613.424 82.9129C613.236 82.7254 613.131 82.471 613.131 82.2058V71.2058C613.131 70.9406 613.236 70.6862 613.424 70.4987C613.611 70.3112 613.866 70.2058 614.131 70.2058H621.217C621.482 70.2059 621.736 70.3111 621.924 70.4985L623.838 72.4131C624.026 72.6006 624.131 72.8548 624.131 73.1198V74.2058M623.131 80.7058C623.131 80.971 623.236 81.2254 623.424 81.4129C623.611 81.6005 623.866 81.7058 624.131 81.7058C624.396 81.7058 624.651 81.6005 624.838 81.4129C625.026 81.2254 625.131 80.971 625.131 80.7058C625.131 80.4406 625.026 80.1862 624.838 79.9987C624.651 79.8112 624.396 79.7058 624.131 79.7058C623.866 79.7058 623.611 79.8112 623.424 79.9987C623.236 80.1862 623.131 80.4406 623.131 80.7058ZM624.98 76.8391L625.275 77.8078C625.324 77.9686 625.432 78.1049 625.577 78.1892C625.722 78.2735 625.894 78.2994 626.058 78.2618L627.039 78.0345C627.225 77.9926 627.42 78.0113 627.594 78.0879C627.769 78.1646 627.914 78.2951 628.009 78.4604C628.104 78.6257 628.144 78.8171 628.122 79.0065C628.101 79.196 628.019 79.3735 627.889 79.5131L627.202 80.2538C627.087 80.3772 627.023 80.5394 627.023 80.7078C627.023 80.8763 627.087 81.0385 627.202 81.1618L627.889 81.9025C628.019 82.0421 628.101 82.2196 628.122 82.4091C628.144 82.5985 628.104 82.7899 628.009 82.9552C627.914 83.1205 627.769 83.251 627.594 83.3277C627.42 83.4043 627.225 83.4231 627.039 83.3811L626.058 83.1538C625.894 83.1162 625.722 83.1422 625.577 83.2264C625.432 83.3107 625.324 83.447 625.275 83.6078L624.98 84.5725C624.926 84.7552 624.813 84.9153 624.66 85.0292C624.507 85.1431 624.322 85.2046 624.131 85.2046C623.94 85.2046 623.755 85.1431 623.602 85.0292C623.449 84.9153 623.336 84.7552 623.282 84.5725L622.987 83.6038C622.938 83.443 622.831 83.3067 622.685 83.2224C622.54 83.1382 622.368 83.1122 622.204 83.1498L621.223 83.3771C621.037 83.4191 620.843 83.4003 620.668 83.3237C620.493 83.247 620.348 83.1165 620.253 82.9512C620.158 82.7859 620.118 82.5945 620.14 82.4051C620.162 82.2156 620.243 82.0381 620.373 81.8985L621.06 81.1578C621.175 81.0345 621.239 80.8723 621.239 80.7038C621.239 80.5354 621.175 80.3732 621.06 80.2498L620.373 79.5091C620.243 79.3695 620.162 79.192 620.14 79.0025C620.118 78.8131 620.158 78.6217 620.253 78.4564C620.348 78.2911 620.493 78.1606 620.668 78.0839C620.843 78.0073 621.037 77.9886 621.223 78.0305L622.204 78.2578C622.368 78.2954 622.54 78.2695 622.685 78.1852C622.831 78.1009 622.938 77.9646 622.987 77.8038L623.282 76.8351C623.337 76.6526 623.449 76.4927 623.603 76.3792C623.756 76.2657 623.942 76.2046 624.133 76.2051C624.323 76.2055 624.509 76.2674 624.661 76.3817C624.814 76.4959 624.926 76.6563 624.98 76.8391Z" stroke="#AF9200" stroke-linecap="round" stroke-linejoin="round"/>
</g>
<path d="M646.481 65.7488V71.7873C646.481 72.394 646.358 72.9291 646.111 73.3928C645.868 73.8521 645.519 74.214 645.064 74.4783C644.614 74.7383 644.074 74.8683 643.446 74.8683C642.813 74.8683 642.272 74.7383 641.821 74.4783C641.37 74.2183 641.026 73.8565 640.787 73.3928C640.553 72.9291 640.436 72.394 640.436 71.7873V65.7488H641.723V71.6898C641.723 72.3918 641.869 72.9183 642.159 73.2693C642.449 73.6203 642.878 73.7958 643.446 73.7958C644.022 73.7958 644.456 73.6203 644.746 73.2693C645.036 72.9183 645.181 72.3918 645.181 71.6898V65.7488H646.481ZM654.393 72.2033C654.393 72.7233 654.261 73.1848 653.997 73.5878C653.737 73.9865 653.36 74.3006 652.866 74.5303C652.372 74.7556 651.769 74.8683 651.059 74.8683C650.374 74.8683 649.763 74.7643 649.226 74.5563C648.688 74.3483 648.231 74.0623 647.854 73.6983L648.589 72.8728C648.901 73.1631 649.258 73.3928 649.661 73.5618C650.064 73.7308 650.534 73.8153 651.072 73.8153C651.423 73.8153 651.748 73.759 652.047 73.6463C652.35 73.5293 652.593 73.356 652.775 73.1263C652.961 72.8923 653.054 72.5998 653.054 72.2488C653.054 71.9671 652.998 71.7288 652.885 71.5338C652.777 71.3388 652.584 71.1655 652.307 71.0138C652.029 70.8621 651.642 70.7126 651.143 70.5653C650.537 70.3833 650.017 70.1818 649.583 69.9608C649.154 69.7355 648.825 69.4603 648.595 69.1353C648.37 68.8103 648.257 68.4116 648.257 67.9393C648.257 67.4756 648.385 67.0683 648.641 66.7173C648.896 66.362 649.247 66.0846 649.694 65.8853C650.144 65.686 650.658 65.5863 651.234 65.5863C651.863 65.5863 652.411 65.6773 652.879 65.8593C653.351 66.037 653.776 66.2948 654.153 66.6328L653.438 67.4388C653.121 67.1571 652.779 66.9535 652.411 66.8278C652.042 66.6978 651.67 66.6328 651.293 66.6328C650.976 66.6328 650.688 66.6805 650.428 66.7758C650.168 66.8668 649.96 67.0033 649.804 67.1853C649.653 67.3673 649.577 67.5991 649.577 67.8808C649.577 68.1278 649.644 68.3401 649.778 68.5178C649.913 68.6911 650.14 68.8536 650.461 69.0053C650.781 69.1526 651.217 69.3086 651.767 69.4733C652.248 69.612 652.688 69.7853 653.087 69.9933C653.485 70.2013 653.802 70.4808 654.036 70.8318C654.274 71.1785 654.393 71.6356 654.393 72.2033ZM658.002 66.7628V69.6423H661.291V70.6628H658.002V73.6983H662.026V74.7058H656.709V65.7488H661.928L661.779 66.7628H658.002ZM669.983 68.2903C669.983 68.7366 669.888 69.1245 669.697 69.4538C669.511 69.7831 669.257 70.0583 668.937 70.2793C668.616 70.496 668.256 70.6563 667.858 70.7603L670.464 74.7058H668.937L666.577 70.9293H665.466V74.7058H664.172V65.7488H666.558C667.684 65.7488 668.536 65.9633 669.112 66.3923C669.693 66.817 669.983 67.4496 669.983 68.2903ZM668.612 68.2903C668.612 67.74 668.451 67.3435 668.131 67.1008C667.814 66.8581 667.327 66.7368 666.668 66.7368H665.466V69.9478H666.681C667.296 69.9478 667.771 69.8221 668.105 69.5708C668.443 69.3151 668.612 68.8883 668.612 68.2903ZM677.778 72.2033C677.778 72.7233 677.646 73.1848 677.382 73.5878C677.122 73.9865 676.745 74.3006 676.251 74.5303C675.757 74.7556 675.154 74.8683 674.444 74.8683C673.759 74.8683 673.148 74.7643 672.611 74.5563C672.073 74.3483 671.616 74.0623 671.239 73.6983L671.974 72.8728C672.286 73.1631 672.643 73.3928 673.046 73.5618C673.449 73.7308 673.919 73.8153 674.457 73.8153C674.808 73.8153 675.133 73.759 675.432 73.6463C675.735 73.5293 675.978 73.356 676.16 73.1263C676.346 72.8923 676.439 72.5998 676.439 72.2488C676.439 71.9671 676.383 71.7288 676.27 71.5338C676.162 71.3388 675.969 71.1655 675.692 71.0138C675.414 70.8621 675.026 70.7126 674.528 70.5653C673.921 70.3833 673.401 70.1818 672.968 69.9608C672.539 69.7355 672.21 69.4603 671.98 69.1353C671.755 68.8103 671.642 68.4116 671.642 67.9393C671.642 67.4756 671.77 67.0683 672.026 66.7173C672.281 66.362 672.632 66.0846 673.079 65.8853C673.529 65.686 674.043 65.5863 674.619 65.5863C675.247 65.5863 675.796 65.6773 676.264 65.8593C676.736 66.037 677.161 66.2948 677.538 66.6328L676.823 67.4388C676.506 67.1571 676.164 66.9535 675.796 66.8278C675.427 66.6978 675.055 66.6328 674.678 66.6328C674.361 66.6328 674.073 66.6805 673.813 66.7758C673.553 66.8668 673.345 67.0033 673.189 67.1853C673.037 67.3673 672.962 67.5991 672.962 67.8808C672.962 68.1278 673.029 68.3401 673.163 68.5178C673.297 68.6911 673.525 68.8536 673.846 69.0053C674.166 69.1526 674.602 69.3086 675.152 69.4733C675.633 69.612 676.073 69.7853 676.472 69.9933C676.87 70.2013 677.187 70.4808 677.421 70.8318C677.659 71.1785 677.778 71.6356 677.778 72.2033ZM646.598 82.2903C646.598 82.7366 646.503 83.1245 646.312 83.4538C646.126 83.7831 645.873 84.0583 645.552 84.2793C645.231 84.496 644.872 84.6563 644.473 84.7603L647.079 88.7058H645.552L643.192 84.9293H642.081V88.7058H640.787V79.7488H643.173C644.3 79.7488 645.151 79.9633 645.727 80.3923C646.308 80.817 646.598 81.4496 646.598 82.2903ZM645.227 82.2903C645.227 81.74 645.067 81.3435 644.746 81.1008C644.43 80.8581 643.942 80.7368 643.283 80.7368H642.081V83.9478H643.296C643.912 83.9478 644.386 83.8221 644.72 83.5708C645.058 83.3151 645.227 82.8883 645.227 82.2903ZM650.207 80.7628V83.6423H653.496V84.6628H650.207V87.6983H654.231V88.7058H648.914V79.7488H654.133L653.984 80.7628H650.207ZM662.188 86.2033C662.188 86.7233 662.056 87.1848 661.792 87.5878C661.532 87.9865 661.155 88.3006 660.661 88.5303C660.167 88.7556 659.564 88.8683 658.854 88.8683C658.169 88.8683 657.558 88.7643 657.021 88.5563C656.483 88.3483 656.026 88.0623 655.649 87.6983L656.384 86.8728C656.696 87.1631 657.053 87.3928 657.456 87.5618C657.859 87.7308 658.329 87.8153 658.867 87.8153C659.218 87.8153 659.543 87.759 659.842 87.6463C660.145 87.5293 660.388 87.356 660.57 87.1263C660.756 86.8923 660.849 86.5998 660.849 86.2488C660.849 85.9671 660.793 85.7288 660.68 85.5338C660.572 85.3388 660.379 85.1655 660.102 85.0138C659.824 84.8621 659.437 84.7126 658.938 84.5653C658.332 84.3833 657.812 84.1818 657.378 83.9608C656.949 83.7355 656.62 83.4603 656.39 83.1353C656.165 82.8103 656.052 82.4116 656.052 81.9393C656.052 81.4756 656.18 81.0683 656.436 80.7173C656.691 80.362 657.042 80.0846 657.489 79.8853C657.939 79.686 658.453 79.5863 659.029 79.5863C659.658 79.5863 660.206 79.6773 660.674 79.8593C661.146 80.037 661.571 80.2948 661.948 80.6328L661.233 81.4388C660.916 81.1571 660.574 80.9535 660.206 80.8278C659.837 80.6978 659.465 80.6328 659.088 80.6328C658.771 80.6328 658.483 80.6805 658.223 80.7758C657.963 80.8668 657.755 81.0033 657.599 81.1853C657.448 81.3673 657.372 81.5991 657.372 81.8808C657.372 82.1278 657.439 82.3401 657.573 82.5178C657.708 82.6911 657.935 82.8536 658.256 83.0053C658.576 83.1526 659.012 83.3086 659.562 83.4733C660.043 83.612 660.483 83.7853 660.882 83.9933C661.28 84.2013 661.597 84.4808 661.831 84.8318C662.069 85.1785 662.188 85.6356 662.188 86.2033ZM667.468 80.8213V88.7058H666.181V80.8213H663.425V79.7488H670.269L670.133 80.8213H667.468ZM684.098 86.4763H680.705L680.029 88.7058H678.735L681.621 79.7488H683.246L686.139 88.7058H684.774L684.098 86.4763ZM681.004 85.4428H683.799L682.408 80.7888L681.004 85.4428ZM692.243 82.5373C692.243 82.0953 692.157 81.7443 691.983 81.4843C691.81 81.22 691.572 81.0315 691.268 80.9188C690.965 80.8018 690.614 80.7433 690.215 80.7433H689.013V84.4223H690.196C690.595 84.4223 690.948 84.366 691.255 84.2533C691.563 84.1406 691.804 83.9478 691.977 83.6748C692.155 83.3975 692.243 83.0183 692.243 82.5373ZM693.608 82.5243C693.608 83.222 693.459 83.7853 693.16 84.2143C692.865 84.639 692.456 84.9488 691.931 85.1438C691.411 85.3388 690.811 85.4363 690.131 85.4363H689.013V88.7058H687.719V79.7488H690.092C691.184 79.7488 692.042 79.9763 692.666 80.4313C693.294 80.882 693.608 81.5796 693.608 82.5243ZM700.643 79.7488V80.7563H698.673V87.6918H700.643V88.7058H695.404V87.6918H697.373V80.7563H695.404V79.7488H700.643Z" fill="#AF9200"/>
<rect x="804.147" y="144.828" width="170.103" height="71.2449" rx="5.25" fill="#FDFDFD"/>
<rect x="804.147" y="144.828" width="170.103" height="71.2449" rx="5.25" stroke="#25855A" stroke-width="1.5"/>
<path d="M835.068 180.451V184.451C835.068 184.451 835.068 186.451 839.734 186.451C844.401 186.451 844.401 184.451 844.401 184.451V180.451" stroke="#25855A"/>
<path d="M835.068 176.451V180.451C835.068 180.451 835.068 182.451 839.734 182.451C844.401 182.451 844.401 180.451 844.401 180.451V176.451" stroke="#25855A"/>
<path d="M839.734 174.451C844.401 174.451 844.401 176.451 844.401 176.451C844.401 176.451 844.401 178.451 839.734 178.451C835.068 178.451 835.068 176.451 835.068 176.451C835.068 176.451 835.068 174.451 839.734 174.451Z" stroke="#25855A"/>
<path d="M861.762 176.304V179.397H865.302V180.431H861.762V184.451H860.442V175.264H865.956L865.802 176.304H861.762ZM868.374 184.451V175.264H869.7V183.304H873.86L873.714 184.451H868.374ZM881.345 175.264V176.297H879.325V183.411H881.345V184.451H875.972V183.411H877.992V176.297H875.972V175.264H881.345ZM886.863 184.617C885.739 184.617 884.85 184.22 884.196 183.424C883.543 182.628 883.216 181.437 883.216 179.851C883.216 179.06 883.323 178.368 883.536 177.777C883.75 177.182 884.039 176.686 884.403 176.291C884.772 175.891 885.19 175.593 885.656 175.397C886.127 175.197 886.619 175.097 887.13 175.097C887.739 175.097 888.245 175.186 888.65 175.364C889.059 175.542 889.443 175.797 889.803 176.131L889.03 176.931C888.483 176.424 887.856 176.171 887.15 176.171C886.714 176.171 886.303 176.286 885.916 176.517C885.53 176.748 885.216 177.133 884.976 177.671C884.736 178.208 884.616 178.935 884.616 179.851C884.616 181.162 884.814 182.106 885.21 182.684C885.605 183.257 886.187 183.544 886.956 183.544C887.543 183.544 888.092 183.404 888.603 183.124V180.437H886.903L886.75 179.384H889.903V183.797C889.481 184.033 889.03 184.228 888.55 184.384C888.074 184.54 887.512 184.617 886.863 184.617ZM896.288 184.451V180.171H893.021V184.451H891.701V175.264H893.021V179.084H896.288V175.264H897.608V184.451H896.288ZM903.292 176.364V184.451H901.972V176.364H899.146V175.264H906.166L906.026 176.364H903.292ZM922.062 179.811C922.062 180.766 921.937 181.548 921.689 182.157C921.44 182.766 921.109 183.237 920.695 183.571C920.286 183.9 919.835 184.128 919.342 184.257C918.849 184.386 918.355 184.451 917.862 184.451H915.695V175.264H917.715C918.262 175.264 918.793 175.324 919.309 175.444C919.824 175.564 920.289 175.786 920.702 176.111C921.12 176.431 921.451 176.888 921.695 177.484C921.94 178.08 922.062 178.855 922.062 179.811ZM920.662 179.811C920.662 179.042 920.582 178.424 920.422 177.957C920.266 177.491 920.057 177.14 919.795 176.904C919.533 176.668 919.244 176.511 918.929 176.431C918.617 176.351 918.306 176.311 917.995 176.311H917.015V183.417H918.009C918.333 183.417 918.653 183.366 918.969 183.264C919.284 183.162 919.569 182.98 919.822 182.717C920.08 182.455 920.284 182.088 920.435 181.617C920.586 181.146 920.662 180.544 920.662 179.811ZM928.353 182.164H924.873L924.18 184.451H922.853L925.813 175.264H927.48L930.447 184.451H929.047L928.353 182.164ZM925.18 181.104H928.047L926.62 176.331L925.18 181.104ZM935.285 176.364V184.451H933.965V176.364H931.138V175.264H938.158L938.018 176.364H935.285ZM944.349 182.164H940.869L940.176 184.451H938.849L941.809 175.264H943.476L946.443 184.451H945.043L944.349 182.164ZM941.176 181.104H944.043L942.616 176.331L941.176 181.104Z" fill="#25855A"/>
<path d="M803.397 180.451H743.397" stroke="#25855A" stroke-width="2"/>
<rect x="572.543" y="144.828" width="170.103" height="71.2449" rx="5.25" fill="#FDFDFD"/>
<rect x="572.543" y="144.828" width="170.103" height="71.2449" rx="5.25" stroke="#25855A" stroke-width="1.5"/>
<g clip-path="url(#clip4_451_434)">
<path d="M613.203 183.107H605.052M613.353 183.829L610.061 185.824M603.975 182.169C604.265 182.169 604.543 182.285 604.748 182.49C604.953 182.695 605.069 182.973 605.069 183.263C605.069 183.553 604.953 183.831 604.748 184.037C604.543 184.242 604.265 184.357 603.975 184.357C603.685 184.357 603.407 184.242 603.201 184.037C602.996 183.831 602.881 183.553 602.881 183.263C602.881 182.973 602.996 182.695 603.201 182.49C603.407 182.285 603.685 182.169 603.975 182.169ZM603.975 182.169V178.73M614.287 182.169C614.577 182.169 614.856 182.285 615.061 182.49C615.266 182.695 615.381 182.973 615.381 183.263C615.381 183.553 615.266 183.831 615.061 184.037C614.856 184.242 614.577 184.357 614.287 184.357C613.997 184.357 613.719 184.242 613.514 184.037C613.309 183.831 613.194 183.553 613.194 183.263C613.194 182.973 613.309 182.695 613.514 182.49C613.719 182.285 613.997 182.169 614.287 182.169ZM614.287 182.169V178.73M608.724 175.523L604.678 182.438M609.539 175.523L613.584 182.439M608.195 175.08L604.909 177.072M604.909 183.829L608.201 185.824M610.067 175.08L613.353 177.072M609.131 175.607C609.421 175.607 609.699 175.492 609.904 175.287C610.11 175.081 610.225 174.803 610.225 174.513C610.225 174.223 610.11 173.945 609.904 173.74C609.699 173.535 609.421 173.419 609.131 173.419C608.841 173.419 608.563 173.535 608.358 173.74C608.153 173.945 608.037 174.223 608.037 174.513C608.037 174.803 608.153 175.081 608.358 175.287C608.563 175.492 608.841 175.607 609.131 175.607ZM603.975 178.732C604.265 178.732 604.543 178.617 604.748 178.412C604.953 178.206 605.069 177.928 605.069 177.638C605.069 177.348 604.953 177.07 604.748 176.865C604.543 176.66 604.265 176.544 603.975 176.544C603.685 176.544 603.407 176.66 603.201 176.865C602.996 177.07 602.881 177.348 602.881 177.638C602.881 177.928 602.996 178.206 603.201 178.412C603.407 178.617 603.685 178.732 603.975 178.732ZM614.287 178.732C614.577 178.732 614.856 178.617 615.061 178.412C615.266 178.206 615.381 177.928 615.381 177.638C615.381 177.348 615.266 177.07 615.061 176.865C614.856 176.66 614.577 176.544 614.287 176.544C613.997 176.544 613.719 176.66 613.514 176.865C613.309 177.07 613.194 177.348 613.194 177.638C613.194 177.928 613.309 178.206 613.514 178.412C613.719 178.617 613.997 178.732 614.287 178.732ZM609.131 187.482C609.421 187.482 609.699 187.367 609.904 187.162C610.11 186.956 610.225 186.678 610.225 186.388C610.225 186.098 610.11 185.82 609.904 185.615C609.699 185.41 609.421 185.294 609.131 185.294C608.841 185.294 608.563 185.41 608.358 185.615C608.153 185.82 608.037 186.098 608.037 186.388C608.037 186.678 608.153 186.956 608.358 187.162C608.563 187.367 608.841 187.482 609.131 187.482Z" stroke="#25855A" stroke-linecap="round" stroke-linejoin="round"/>
</g>
<path d="M631.081 169.508V172.524H634.533V173.531H631.081V177.451H629.794V168.494H635.17L635.02 169.508H631.081ZM637.524 177.451V168.494H638.818V176.333H642.874L642.731 177.451H637.524ZM650.168 168.494V169.501H648.199V176.437H650.168V177.451H644.929V176.437H646.899V169.501H644.929V168.494H650.168ZM655.545 177.613C654.813 177.613 654.18 177.442 653.647 177.1C653.118 176.753 652.709 176.235 652.419 175.546C652.133 174.857 651.99 173.997 651.99 172.966C651.99 172.194 652.094 171.521 652.302 170.944C652.51 170.364 652.791 169.88 653.147 169.495C653.506 169.109 653.914 168.819 654.369 168.624C654.828 168.429 655.307 168.331 655.805 168.331C656.403 168.331 656.899 168.418 657.294 168.591C657.688 168.765 658.061 169.014 658.412 169.339L657.658 170.119C657.385 169.863 657.101 169.677 656.806 169.56C656.516 169.438 656.189 169.378 655.825 169.378C655.504 169.378 655.196 169.441 654.902 169.566C654.607 169.692 654.343 169.893 654.109 170.171C653.879 170.448 653.695 170.816 653.556 171.276C653.422 171.731 653.355 172.294 653.355 172.966C653.355 173.815 653.439 174.506 653.608 175.039C653.781 175.568 654.037 175.956 654.375 176.203C654.717 176.445 655.138 176.567 655.636 176.567C655.931 176.567 656.21 176.532 656.475 176.463C656.739 176.393 656.995 176.292 657.242 176.157V173.538H655.584L655.435 172.511H658.509V176.814C658.097 177.039 657.658 177.23 657.19 177.386C656.726 177.537 656.178 177.613 655.545 177.613ZM664.731 177.451V173.278H661.546V177.451H660.259V168.494H661.546V172.218H664.731V168.494H666.018V177.451H664.731ZM671.558 169.566V177.451H670.271V169.566H667.515V168.494H674.359L674.223 169.566H671.558ZM632.16 191.613C631.428 191.613 630.795 191.442 630.262 191.1C629.734 190.753 629.324 190.235 629.034 189.546C628.748 188.857 628.605 187.997 628.605 186.966C628.605 186.194 628.709 185.521 628.917 184.944C629.125 184.364 629.407 183.88 629.762 183.495C630.122 183.109 630.529 182.819 630.984 182.624C631.443 182.429 631.922 182.331 632.42 182.331C633.018 182.331 633.515 182.418 633.909 182.591C634.303 182.765 634.676 183.014 635.027 183.339L634.273 184.119C634 183.863 633.716 183.677 633.421 183.56C633.131 183.438 632.804 183.378 632.44 183.378C632.119 183.378 631.812 183.441 631.517 183.566C631.222 183.692 630.958 183.893 630.724 184.171C630.494 184.448 630.31 184.816 630.171 185.276C630.037 185.731 629.97 186.294 629.97 186.966C629.97 187.815 630.054 188.506 630.223 189.039C630.397 189.568 630.652 189.956 630.99 190.203C631.333 190.445 631.753 190.567 632.251 190.567C632.546 190.567 632.826 190.532 633.09 190.463C633.354 190.393 633.61 190.292 633.857 190.157V187.538H632.199L632.05 186.511H635.124V190.814C634.713 191.039 634.273 191.23 633.805 191.386C633.341 191.537 632.793 191.613 632.16 191.613ZM642.893 185.035C642.893 185.482 642.798 185.869 642.607 186.199C642.421 186.528 642.167 186.803 641.847 187.024C641.526 187.241 641.166 187.401 640.768 187.505L643.374 191.451H641.847L639.487 187.674H638.376V191.451H637.082V182.494H639.468C640.594 182.494 641.446 182.708 642.022 183.137C642.603 183.562 642.893 184.195 642.893 185.035ZM641.522 185.035C641.522 184.485 641.361 184.088 641.041 183.846C640.724 183.603 640.237 183.482 639.578 183.482H638.376V186.693H639.591C640.207 186.693 640.681 186.567 641.015 186.316C641.353 186.06 641.522 185.633 641.522 185.035ZM649.213 189.221H645.82L645.144 191.451H643.85L646.736 182.494H648.361L651.254 191.451H649.889L649.213 189.221ZM646.119 188.188H648.914L647.523 183.534L646.119 188.188ZM657.359 185.282C657.359 184.84 657.272 184.489 657.099 184.229C656.925 183.965 656.687 183.776 656.384 183.664C656.08 183.547 655.729 183.488 655.331 183.488H654.128V187.167H655.311C655.71 187.167 656.063 187.111 656.371 186.998C656.678 186.886 656.919 186.693 657.092 186.42C657.27 186.142 657.359 185.763 657.359 185.282ZM658.724 185.269C658.724 185.967 658.574 186.53 658.275 186.959C657.98 187.384 657.571 187.694 657.047 187.889C656.527 188.084 655.926 188.181 655.246 188.181H654.128V191.451H652.835V182.494H655.207C656.299 182.494 657.157 182.721 657.781 183.176C658.409 183.627 658.724 184.325 658.724 185.269ZM664.731 191.451V187.278H661.546V191.451H660.259V182.494H661.546V186.218H664.731V182.494H666.018V191.451H664.731ZM674.275 186.979C674.275 187.603 674.214 188.179 674.093 188.708C673.976 189.236 673.781 189.702 673.508 190.105C673.239 190.504 672.875 190.829 672.416 191.08C672.845 191.163 673.211 191.286 673.514 191.451C673.817 191.611 674.073 191.832 674.281 192.114C674.493 192.4 674.673 192.766 674.821 193.212L673.547 193.7C673.365 193.24 673.159 192.853 672.929 192.536C672.704 192.224 672.422 191.986 672.084 191.821C671.746 191.661 671.319 191.581 670.804 191.581C670.106 191.581 669.519 191.392 669.042 191.015C668.565 190.638 668.206 190.105 667.963 189.416C667.72 188.727 667.599 187.919 667.599 186.992C667.599 186.077 667.723 185.271 667.97 184.574C668.221 183.872 668.594 183.324 669.088 182.929C669.586 182.531 670.201 182.331 670.934 182.331C671.675 182.331 672.292 182.524 672.786 182.91C673.28 183.295 673.651 183.837 673.898 184.535C674.149 185.228 674.275 186.043 674.275 186.979ZM672.936 186.979C672.936 185.8 672.782 184.905 672.474 184.294C672.166 183.683 671.653 183.378 670.934 183.378C670.219 183.378 669.707 183.685 669.4 184.301C669.092 184.912 668.938 185.809 668.938 186.992C668.938 188.166 669.096 189.057 669.413 189.663C669.733 190.266 670.24 190.567 670.934 190.567C671.649 190.567 672.16 190.263 672.468 189.657C672.78 189.05 672.936 188.157 672.936 186.979ZM676.499 191.451V182.494H677.792V190.333H681.848L681.705 191.451H676.499ZM695.982 189.221H692.589L691.913 191.451H690.62L693.506 182.494H695.131L698.023 191.451H696.658L695.982 189.221ZM692.888 188.188H695.683L694.292 183.534L692.888 188.188ZM704.128 185.282C704.128 184.84 704.042 184.489 703.868 184.229C703.695 183.965 703.457 183.776 703.153 183.664C702.85 183.547 702.499 183.488 702.1 183.488H700.898V187.167H702.081C702.479 187.167 702.833 187.111 703.14 186.998C703.448 186.886 703.688 186.693 703.862 186.42C704.039 186.142 704.128 185.763 704.128 185.282ZM705.493 185.269C705.493 185.967 705.344 186.53 705.045 186.959C704.75 187.384 704.341 187.694 703.816 187.889C703.296 188.084 702.696 188.181 702.016 188.181H700.898V191.451H699.604V182.494H701.977C703.069 182.494 703.927 182.721 704.551 183.176C705.179 183.627 705.493 184.325 705.493 185.269ZM712.528 182.494V183.501H710.558V190.437H712.528V191.451H707.289V190.437H709.258V183.501H707.289V182.494H712.528Z" fill="#25855A"/>
<rect x="804.147" y="247.573" width="170.103" height="71.2449" rx="5.25" fill="#FDFDFD"/>
<rect x="804.147" y="247.573" width="170.103" height="71.2449" rx="5.25" stroke="#7B00C7" stroke-width="1.5"/>
<path d="M835.068 283.196V287.196C835.068 287.196 835.068 289.196 839.734 289.196C844.401 289.196 844.401 287.196 844.401 287.196V283.196" stroke="#7B00C7"/>
<path d="M835.068 279.196V283.196C835.068 283.196 835.068 285.196 839.734 285.196C844.401 285.196 844.401 283.196 844.401 283.196V279.196" stroke="#7B00C7"/>
<path d="M839.734 277.196C844.401 277.196 844.401 279.196 844.401 279.196C844.401 279.196 844.401 281.196 839.734 281.196C835.068 281.196 835.068 279.196 835.068 279.196C835.068 279.196 835.068 277.196 839.734 277.196Z" stroke="#7B00C7"/>
<path d="M864.296 287.196V282.916H861.029V287.196H859.709V278.009H861.029V281.829H864.296V278.009H865.616V287.196H864.296ZM874.094 282.609C874.094 283.542 873.965 284.367 873.707 285.082C873.449 285.798 873.065 286.358 872.554 286.762C872.047 287.162 871.416 287.362 870.66 287.362C869.905 287.362 869.271 287.167 868.76 286.776C868.254 286.38 867.871 285.827 867.614 285.116C867.356 284.404 867.227 283.573 867.227 282.622C867.227 281.684 867.356 280.858 867.614 280.142C867.871 279.422 868.254 278.86 868.76 278.456C869.271 278.047 869.905 277.842 870.66 277.842C871.416 277.842 872.047 278.04 872.554 278.436C873.065 278.831 873.449 279.387 873.707 280.102C873.965 280.818 874.094 281.653 874.094 282.609ZM872.714 282.609C872.714 281.4 872.554 280.482 872.234 279.856C871.918 279.229 871.394 278.916 870.66 278.916C869.927 278.916 869.4 279.231 869.08 279.862C868.765 280.493 868.607 281.413 868.607 282.622C868.607 283.827 868.769 284.74 869.094 285.362C869.423 285.98 869.945 286.289 870.66 286.289C871.394 286.289 871.918 285.978 872.234 285.356C872.554 284.729 872.714 283.813 872.714 282.609ZM879.298 279.109V287.196H877.978V279.109H875.152V278.009H882.172L882.032 279.109H879.298ZM885.583 279.049V282.002H888.956V283.049H885.583V286.162H889.71V287.196H884.256V278.009H889.61L889.456 279.049H885.583ZM892.368 287.196V278.009H893.694V286.049H897.854L897.708 287.196H892.368ZM905.872 284.629C905.872 285.162 905.737 285.636 905.466 286.049C905.199 286.458 904.81 286.78 904.299 287.016C903.792 287.247 903.177 287.362 902.452 287.362C901.75 287.362 901.124 287.256 900.572 287.042C900.021 286.829 899.552 286.536 899.166 286.162L899.919 285.316C900.239 285.613 900.606 285.849 901.019 286.022C901.432 286.196 901.915 286.282 902.466 286.282C902.826 286.282 903.159 286.224 903.466 286.109C903.777 285.989 904.026 285.811 904.212 285.576C904.404 285.336 904.499 285.036 904.499 284.676C904.499 284.391 904.441 284.149 904.326 283.949C904.215 283.744 904.017 283.564 903.732 283.409C903.448 283.253 903.05 283.1 902.539 282.949C901.917 282.767 901.384 282.56 900.939 282.329C900.499 282.093 900.161 281.811 899.926 281.482C899.695 281.149 899.579 280.74 899.579 280.256C899.579 279.78 899.71 279.362 899.972 279.002C900.235 278.638 900.595 278.353 901.052 278.149C901.51 277.944 902.037 277.842 902.632 277.842C903.277 277.842 903.839 277.936 904.319 278.122C904.804 278.309 905.239 278.573 905.626 278.916L904.892 279.742C904.564 279.453 904.21 279.244 903.832 279.116C903.459 278.982 903.079 278.916 902.692 278.916C902.204 278.916 901.788 279.022 901.446 279.236C901.104 279.444 900.932 279.764 900.932 280.196C900.932 280.453 901.001 280.673 901.139 280.856C901.277 281.033 901.508 281.198 901.832 281.349C902.161 281.5 902.61 281.66 903.179 281.829C903.672 281.976 904.121 282.156 904.526 282.369C904.935 282.578 905.261 282.862 905.506 283.222C905.75 283.578 905.872 284.047 905.872 284.629ZM922.062 282.556C922.062 283.511 921.937 284.293 921.689 284.902C921.44 285.511 921.109 285.982 920.695 286.316C920.286 286.644 919.835 286.873 919.342 287.002C918.849 287.131 918.355 287.196 917.862 287.196H915.695V278.009H917.715C918.262 278.009 918.793 278.069 919.309 278.189C919.824 278.309 920.289 278.531 920.702 278.856C921.12 279.176 921.451 279.633 921.695 280.229C921.94 280.824 922.062 281.6 922.062 282.556ZM920.662 282.556C920.662 281.787 920.582 281.169 920.422 280.702C920.266 280.236 920.057 279.884 919.795 279.649C919.533 279.413 919.244 279.256 918.929 279.176C918.617 279.096 918.306 279.056 917.995 279.056H917.015V286.162H918.009C918.333 286.162 918.653 286.111 918.969 286.009C919.284 285.907 919.569 285.724 919.822 285.462C920.08 285.2 920.284 284.833 920.435 284.362C920.586 283.891 920.662 283.289 920.662 282.556ZM928.353 284.909H924.873L924.18 287.196H922.853L925.813 278.009H927.48L930.447 287.196H929.047L928.353 284.909ZM925.18 283.849H928.047L926.62 279.076L925.18 283.849ZM935.285 279.109V287.196H933.965V279.109H931.138V278.009H938.158L938.018 279.109H935.285ZM944.349 284.909H940.869L940.176 287.196H938.849L941.809 278.009H943.476L946.443 287.196H945.043L944.349 284.909ZM941.176 283.849H944.043L942.616 279.076L941.176 283.849Z" fill="#7B00C7"/>
<path d="M803.397 283.196H743.397" stroke="#7B00C7" stroke-width="2"/>
<rect x="572.543" y="247.573" width="170.103" height="71.2449" rx="5.25" fill="#FDFDFD"/>
<rect x="572.543" y="247.573" width="170.103" height="71.2449" rx="5.25" stroke="#7B00C7" stroke-width="1.5"/>
<path d="M613.203 285.852H605.052M613.353 286.574L610.061 288.569M603.975 284.914C604.265 284.914 604.543 285.03 604.748 285.235C604.953 285.44 605.069 285.718 605.069 286.008C605.069 286.298 604.953 286.576 604.748 286.781C604.543 286.987 604.265 287.102 603.975 287.102C603.685 287.102 603.407 286.987 603.201 286.781C602.996 286.576 602.881 286.298 602.881 286.008C602.881 285.718 602.996 285.44 603.201 285.235C603.407 285.03 603.685 284.914 603.975 284.914ZM603.975 284.914V281.475M614.287 284.914C614.577 284.914 614.856 285.03 615.061 285.235C615.266 285.44 615.381 285.718 615.381 286.008C615.381 286.298 615.266 286.576 615.061 286.781C614.856 286.987 614.577 287.102 614.287 287.102C613.997 287.102 613.719 286.987 613.514 286.781C613.309 286.576 613.194 286.298 613.194 286.008C613.194 285.718 613.309 285.44 613.514 285.235C613.719 285.03 613.997 284.914 614.287 284.914ZM614.287 284.914V281.475M608.724 278.267L604.678 285.183M609.539 278.267L613.584 285.184M608.195 277.825L604.909 279.817M604.909 286.574L608.201 288.569M610.067 277.825L613.353 279.817M609.131 278.352C609.421 278.352 609.699 278.237 609.904 278.031C610.11 277.826 610.225 277.548 610.225 277.258C610.225 276.968 610.11 276.69 609.904 276.485C609.699 276.28 609.421 276.164 609.131 276.164C608.841 276.164 608.563 276.28 608.358 276.485C608.153 276.69 608.037 276.968 608.037 277.258C608.037 277.548 608.153 277.826 608.358 278.031C608.563 278.237 608.841 278.352 609.131 278.352ZM603.975 281.477C604.265 281.477 604.543 281.362 604.748 281.156C604.953 280.951 605.069 280.673 605.069 280.383C605.069 280.093 604.953 279.815 604.748 279.61C604.543 279.405 604.265 279.289 603.975 279.289C603.685 279.289 603.407 279.405 603.201 279.61C602.996 279.815 602.881 280.093 602.881 280.383C602.881 280.673 602.996 280.951 603.201 281.156C603.407 281.362 603.685 281.477 603.975 281.477ZM614.287 281.477C614.577 281.477 614.856 281.362 615.061 281.156C615.266 280.951 615.381 280.673 615.381 280.383C615.381 280.093 615.266 279.815 615.061 279.61C614.856 279.405 614.577 279.289 614.287 279.289C613.997 279.289 613.719 279.405 613.514 279.61C613.309 279.815 613.194 280.093 613.194 280.383C613.194 280.673 613.309 280.951 613.514 281.156C613.719 281.362 613.997 281.477 614.287 281.477ZM609.131 290.227C609.421 290.227 609.699 290.112 609.904 289.906C610.11 289.701 610.225 289.423 610.225 289.133C610.225 288.843 610.11 288.565 609.904 288.36C609.699 288.155 609.421 288.039 609.131 288.039C608.841 288.039 608.563 288.155 608.358 288.36C608.153 288.565 608.037 288.843 608.037 289.133C608.037 289.423 608.153 289.701 608.358 289.906C608.563 290.112 608.841 290.227 609.131 290.227Z" stroke="#7B00C7" stroke-linecap="round" stroke-linejoin="round"/>
<path d="M631.801 280.196V276.023H628.616V280.196H627.329V271.239H628.616V274.963H631.801V271.239H633.088V280.196H631.801ZM641.351 275.724C641.351 276.634 641.226 277.437 640.974 278.135C640.723 278.833 640.348 279.379 639.85 279.773C639.356 280.163 638.74 280.358 638.004 280.358C637.271 280.358 636.656 280.167 636.158 279.786C635.659 279.4 635.285 278.861 635.033 278.168C634.782 277.474 634.656 276.664 634.656 275.737C634.656 274.822 634.782 274.016 635.033 273.319C635.285 272.617 635.659 272.068 636.158 271.674C636.656 271.275 637.271 271.076 638.004 271.076C638.74 271.076 639.356 271.269 639.85 271.655C640.348 272.04 640.723 272.582 640.974 273.28C641.226 273.973 641.351 274.788 641.351 275.724ZM640.006 275.724C640.006 274.545 639.85 273.65 639.538 273.039C639.23 272.428 638.719 272.123 638.004 272.123C637.289 272.123 636.775 272.43 636.463 273.046C636.156 273.661 636.002 274.558 636.002 275.737C636.002 276.911 636.162 277.801 636.483 278.408C636.803 279.01 637.31 279.312 638.004 279.312C638.719 279.312 639.23 279.008 639.538 278.402C639.85 277.795 640.006 276.902 640.006 275.724ZM646.423 272.311V280.196H645.136V272.311H642.38V271.239H649.224L649.088 272.311H646.423ZM652.547 272.253V275.132H655.836V276.153H652.547V279.188H656.571V280.196H651.254V271.239H656.473L656.324 272.253H652.547ZM659.159 280.196V271.239H660.453V279.078H664.509L664.366 280.196H659.159ZM672.323 277.693C672.323 278.213 672.191 278.675 671.927 279.078C671.667 279.476 671.29 279.79 670.796 280.02C670.302 280.245 669.699 280.358 668.989 280.358C668.304 280.358 667.693 280.254 667.156 280.046C666.618 279.838 666.161 279.552 665.784 279.188L666.519 278.363C666.831 278.653 667.188 278.883 667.591 279.052C667.994 279.221 668.464 279.305 669.002 279.305C669.353 279.305 669.678 279.249 669.977 279.136C670.28 279.019 670.523 278.846 670.705 278.616C670.891 278.382 670.984 278.09 670.984 277.739C670.984 277.457 670.928 277.219 670.815 277.024C670.707 276.829 670.514 276.655 670.237 276.504C669.959 276.352 669.571 276.202 669.073 276.055C668.466 275.873 667.946 275.672 667.513 275.451C667.084 275.225 666.755 274.95 666.525 274.625C666.3 274.3 666.187 273.901 666.187 273.429C666.187 272.965 666.315 272.558 666.571 272.207C666.826 271.852 667.177 271.574 667.624 271.375C668.074 271.176 668.588 271.076 669.164 271.076C669.792 271.076 670.341 271.167 670.809 271.349C671.281 271.527 671.706 271.785 672.083 272.123L671.368 272.929C671.051 272.647 670.709 272.443 670.341 272.318C669.972 272.188 669.6 272.123 669.223 272.123C668.906 272.123 668.618 272.17 668.358 272.266C668.098 272.357 667.89 272.493 667.734 272.675C667.582 272.857 667.507 273.089 667.507 273.371C667.507 273.618 667.574 273.83 667.708 274.008C667.842 274.181 668.07 274.343 668.391 274.495C668.711 274.642 669.147 274.798 669.697 274.963C670.178 275.102 670.618 275.275 671.017 275.483C671.415 275.691 671.732 275.971 671.966 276.322C672.204 276.668 672.323 277.125 672.323 277.693ZM630.41 294.358C629.678 294.358 629.045 294.187 628.512 293.845C627.984 293.498 627.574 292.98 627.284 292.291C626.998 291.602 626.855 290.742 626.855 289.711C626.855 288.939 626.959 288.265 627.167 287.689C627.375 287.108 627.657 286.625 628.012 286.24C628.372 285.854 628.779 285.564 629.234 285.369C629.693 285.174 630.172 285.076 630.67 285.076C631.268 285.076 631.765 285.163 632.159 285.336C632.553 285.509 632.926 285.759 633.277 286.084L632.523 286.864C632.25 286.608 631.966 286.422 631.671 286.305C631.381 286.183 631.054 286.123 630.69 286.123C630.369 286.123 630.062 286.185 629.767 286.311C629.472 286.437 629.208 286.638 628.974 286.916C628.744 287.193 628.56 287.561 628.421 288.021C628.287 288.476 628.22 289.039 628.22 289.711C628.22 290.56 628.304 291.251 628.473 291.784C628.647 292.313 628.902 292.701 629.24 292.948C629.583 293.19 630.003 293.312 630.501 293.312C630.796 293.312 631.076 293.277 631.34 293.208C631.604 293.138 631.86 293.036 632.107 292.902V290.283H630.449L630.3 289.256H633.374V293.559C632.963 293.784 632.523 293.975 632.055 294.131C631.591 294.282 631.043 294.358 630.41 294.358ZM641.143 287.78C641.143 288.226 641.048 288.614 640.857 288.944C640.671 289.273 640.417 289.548 640.097 289.769C639.776 289.986 639.416 290.146 639.018 290.25L641.624 294.196H640.097L637.737 290.419H636.626V294.196H635.332V285.239H637.718C638.844 285.239 639.696 285.453 640.272 285.882C640.853 286.307 641.143 286.939 641.143 287.78ZM639.772 287.78C639.772 287.23 639.611 286.833 639.291 286.591C638.974 286.348 638.487 286.227 637.828 286.227H636.626V289.438H637.841C638.457 289.438 638.931 289.312 639.265 289.061C639.603 288.805 639.772 288.378 639.772 287.78ZM647.463 291.966H644.07L643.394 294.196H642.1L644.986 285.239H646.611L649.504 294.196H648.139L647.463 291.966ZM644.369 290.933H647.164L645.773 286.279L644.369 290.933ZM655.609 288.027C655.609 287.585 655.522 287.234 655.349 286.974C655.175 286.71 654.937 286.521 654.634 286.409C654.33 286.292 653.979 286.233 653.581 286.233H652.378V289.912H653.561C653.96 289.912 654.313 289.856 654.621 289.743C654.928 289.63 655.169 289.438 655.342 289.165C655.52 288.887 655.609 288.508 655.609 288.027ZM656.974 288.014C656.974 288.712 656.824 289.275 656.525 289.704C656.23 290.129 655.821 290.439 655.297 290.634C654.777 290.829 654.176 290.926 653.496 290.926H652.378V294.196H651.085V285.239H653.457C654.549 285.239 655.407 285.466 656.031 285.921C656.659 286.372 656.974 287.069 656.974 288.014ZM662.981 294.196V290.023H659.796V294.196H658.509V285.239H659.796V288.963H662.981V285.239H664.268V294.196H662.981ZM672.525 289.724C672.525 290.348 672.464 290.924 672.343 291.453C672.226 291.981 672.031 292.447 671.758 292.85C671.489 293.249 671.125 293.574 670.666 293.825C671.095 293.907 671.461 294.031 671.764 294.196C672.067 294.356 672.323 294.577 672.531 294.859C672.743 295.145 672.923 295.511 673.071 295.957L671.797 296.445C671.615 295.985 671.409 295.597 671.179 295.281C670.954 294.969 670.672 294.731 670.334 294.566C669.996 294.406 669.569 294.326 669.054 294.326C668.356 294.326 667.769 294.137 667.292 293.76C666.815 293.383 666.456 292.85 666.213 292.161C665.97 291.472 665.849 290.664 665.849 289.737C665.849 288.822 665.973 288.016 666.22 287.319C666.471 286.617 666.844 286.068 667.338 285.674C667.836 285.275 668.451 285.076 669.184 285.076C669.925 285.076 670.542 285.269 671.036 285.655C671.53 286.04 671.901 286.582 672.148 287.28C672.399 287.973 672.525 288.788 672.525 289.724ZM671.186 289.724C671.186 288.545 671.032 287.65 670.724 287.039C670.416 286.428 669.903 286.123 669.184 286.123C668.469 286.123 667.957 286.43 667.65 287.046C667.342 287.657 667.188 288.554 667.188 289.737C667.188 290.911 667.346 291.801 667.663 292.408C667.983 293.01 668.49 293.312 669.184 293.312C669.899 293.312 670.41 293.008 670.718 292.402C671.03 291.795 671.186 290.902 671.186 289.724ZM674.749 294.196V285.239H676.042V293.078H680.098L679.955 294.196H674.749ZM694.232 291.966H690.839L690.163 294.196H688.87L691.756 285.239H693.381L696.273 294.196H694.908L694.232 291.966ZM691.138 290.933H693.933L692.542 286.279L691.138 290.933ZM702.378 288.027C702.378 287.585 702.292 287.234 702.118 286.974C701.945 286.71 701.707 286.521 701.403 286.409C701.1 286.292 700.749 286.233 700.35 286.233H699.148V289.912H700.331C700.729 289.912 701.083 289.856 701.39 289.743C701.698 289.63 701.938 289.438 702.112 289.165C702.289 288.887 702.378 288.508 702.378 288.027ZM703.743 288.014C703.743 288.712 703.594 289.275 703.295 289.704C703 290.129 702.591 290.439 702.066 290.634C701.546 290.829 700.946 290.926 700.266 290.926H699.148V294.196H697.854V285.239H700.227C701.319 285.239 702.177 285.466 702.801 285.921C703.429 286.372 703.743 287.069 703.743 288.014ZM710.778 285.239V286.246H708.808V293.182H710.778V294.196H705.539V293.182H707.508V286.246H705.539V285.239H710.778Z" fill="#7B00C7"/>
<g clip-path="url(#clip5_451_434)">
<path d="M572.793 182.81H437.752" stroke="#25855A" stroke-width="2"/>
<path d="M572.216 77.3718H528.385C517.339 77.3718 508.385 86.3261 508.385 97.3718V151.051C508.385 162.097 499.43 171.051 488.385 171.051H437.304" stroke="#AF9200" stroke-width="2"/>
<path d="M572.216 283.53H528.385C517.339 283.53 508.385 274.575 508.385 263.53V214.149C508.385 203.103 499.43 194.149 488.385 194.149H437.304" stroke="#7B00C7" stroke-width="2"/>
</g>
<rect x="280.543" y="145.201" width="170.5" height="70.5" rx="35.25" fill="white"/>
<rect x="280.543" y="145.201" width="170.5" height="70.5" rx="35.25" stroke="#B03900" stroke-width="1.5"/>
<g clip-path="url(#clip6_451_434)">
<path d="M332.192 181.346C334.785 182.158 336.329 183.721 336.329 186.67M336.329 186.67V187.483M336.329 186.67C336.329 183.721 337.874 182.158 340.467 181.346M336.329 186.67V176.701M334.861 176.701C334.8 176.701 334.741 176.685 334.688 176.654C334.635 176.623 334.591 176.579 334.561 176.526C334.531 176.473 334.515 176.414 334.516 176.353C334.516 176.292 334.533 176.232 334.564 176.179L336.032 173.576C336.062 173.524 336.106 173.481 336.158 173.451C336.21 173.422 336.269 173.406 336.329 173.406C336.389 173.406 336.448 173.422 336.501 173.451C336.553 173.481 336.596 173.524 336.627 173.576L338.096 176.179C338.127 176.231 338.143 176.291 338.144 176.352C338.144 176.413 338.128 176.473 338.098 176.526C338.068 176.579 338.024 176.623 337.971 176.654C337.918 176.684 337.859 176.701 337.798 176.701H334.861ZM332.837 179.788C332.86 179.732 332.868 179.67 332.86 179.61C332.852 179.549 332.828 179.492 332.79 179.444C332.753 179.396 332.704 179.358 332.647 179.335C332.591 179.312 332.529 179.304 332.469 179.313L329.594 179.717C329.534 179.725 329.477 179.749 329.43 179.786C329.382 179.823 329.345 179.871 329.322 179.927C329.299 179.983 329.291 180.044 329.298 180.104C329.306 180.163 329.329 180.22 329.366 180.268L331.111 182.585C331.148 182.634 331.197 182.672 331.253 182.695C331.309 182.719 331.371 182.728 331.431 182.72C331.492 182.712 331.549 182.688 331.598 182.651C331.646 182.614 331.684 182.565 331.708 182.509L332.27 181.149L332.837 179.788ZM339.822 179.788C339.799 179.732 339.791 179.67 339.799 179.61C339.807 179.549 339.831 179.492 339.868 179.444C339.906 179.396 339.955 179.358 340.012 179.335C340.068 179.312 340.13 179.304 340.19 179.313L343.065 179.717C343.125 179.725 343.181 179.749 343.229 179.786C343.277 179.823 343.314 179.871 343.337 179.927C343.36 179.983 343.368 180.044 343.361 180.104C343.353 180.163 343.33 180.22 343.293 180.268L341.548 182.585C341.511 182.634 341.462 182.672 341.406 182.695C341.35 182.719 341.288 182.728 341.228 182.72C341.167 182.712 341.11 182.688 341.061 182.651C341.013 182.614 340.975 182.565 340.951 182.509L340.389 181.149L339.822 179.788Z" stroke="#B03900" stroke-linecap="round" stroke-linejoin="round"/>
</g>
<path d="M362.483 178.371C362.483 179.06 362.272 179.615 361.85 180.037C361.432 180.455 360.916 180.744 360.303 180.904L362.976 184.951H361.41L358.99 181.077H357.85V184.951H356.523V175.764H358.97C360.121 175.764 360.994 175.984 361.59 176.424C362.185 176.86 362.483 177.508 362.483 178.371ZM361.076 178.371C361.076 177.806 360.912 177.4 360.583 177.151C360.259 176.902 359.759 176.777 359.083 176.777H357.85V180.071H359.096C359.728 180.071 360.214 179.942 360.556 179.684C360.903 179.422 361.076 178.984 361.076 178.371ZM370.695 180.364C370.695 181.297 370.566 182.122 370.308 182.837C370.05 183.553 369.666 184.113 369.155 184.517C368.648 184.917 368.017 185.117 367.261 185.117C366.506 185.117 365.872 184.922 365.361 184.531C364.855 184.135 364.472 183.582 364.215 182.871C363.957 182.16 363.828 181.328 363.828 180.377C363.828 179.44 363.957 178.613 364.215 177.897C364.472 177.177 364.855 176.615 365.361 176.211C365.872 175.802 366.506 175.597 367.261 175.597C368.017 175.597 368.648 175.795 369.155 176.191C369.666 176.586 370.05 177.142 370.308 177.857C370.566 178.573 370.695 179.408 370.695 180.364ZM369.315 180.364C369.315 179.155 369.155 178.237 368.835 177.611C368.519 176.984 367.995 176.671 367.261 176.671C366.528 176.671 366.001 176.986 365.681 177.617C365.366 178.248 365.208 179.168 365.208 180.377C365.208 181.582 365.37 182.495 365.695 183.117C366.023 183.735 366.546 184.044 367.261 184.044C367.995 184.044 368.519 183.733 368.835 183.111C369.155 182.484 369.315 181.568 369.315 180.364ZM378.359 175.764V181.957C378.359 182.58 378.233 183.128 377.979 183.604C377.73 184.08 377.373 184.451 376.906 184.717C376.444 184.984 375.89 185.117 375.246 185.117C374.597 185.117 374.041 184.984 373.579 184.717C373.117 184.451 372.764 184.08 372.519 183.604C372.279 183.128 372.159 182.58 372.159 181.957V175.764H373.479V181.857C373.479 183.297 374.068 184.017 375.246 184.017C376.433 184.017 377.026 183.297 377.026 181.857V175.764H378.359ZM383.897 176.864V184.951H382.577V176.864H379.751V175.764H386.771L386.631 176.864H383.897ZM390.182 176.804V179.757H393.555V180.804H390.182V183.917H394.309V184.951H388.855V175.764H394.209L394.055 176.804H390.182ZM402.473 178.371C402.473 179.06 402.262 179.615 401.84 180.037C401.422 180.455 400.907 180.744 400.293 180.904L402.967 184.951H401.4L398.98 181.077H397.84V184.951H396.513V175.764H398.96C400.111 175.764 400.984 175.984 401.58 176.424C402.176 176.86 402.473 177.508 402.473 178.371ZM401.067 178.371C401.067 177.806 400.902 177.4 400.573 177.151C400.249 176.902 399.749 176.777 399.073 176.777H397.84V180.071H399.087C399.718 180.071 400.204 179.942 400.547 179.684C400.893 179.422 401.067 178.984 401.067 178.371Z" fill="#B03900"/>
<defs>
<clipPath id="clip0_451_434">
<rect width="16" height="16" fill="white" transform="translate(35.7239 181.951)"/>
</clipPath>
<clipPath id="clip1_451_434">
<rect width="13.3333" height="13.3333" fill="white" transform="translate(58.3905 183.284)"/>
</clipPath>
<clipPath id="clip2_451_434">
<rect width="16" height="16" fill="white" transform="translate(79.7239 181.951)"/>
</clipPath>
<clipPath id="clip3_451_434">
<rect width="16" height="16" fill="white" transform="translate(612.631 69.7058)"/>
</clipPath>
<clipPath id="clip4_451_434">
<rect width="16" height="16" fill="white" transform="translate(601.131 172.451)"/>
</clipPath>
<clipPath id="clip5_451_434">
<rect width="128" height="244" fill="white" transform="matrix(-1 0 0 1 575.793 58.4507)"/>
</clipPath>
<clipPath id="clip6_451_434">
<rect width="16" height="16" fill="white" transform="translate(328.329 172.451)"/>
</clipPath>
</defs>
</svg>
