<svg width="750" height="437" viewBox="0 0 750 437" fill="none" xmlns="http://www.w3.org/2000/svg">
<path d="M204.095 218.118H321" stroke="#467B95" stroke-width="2" stroke-dasharray="4 4"/>
<rect x="22.4739" y="183.534" width="180.5" height="70.5" rx="5.25" fill="#FDFDFD"/>
<rect x="22.4739" y="183.534" width="180.5" height="70.5" rx="5.25" stroke="#467B95" stroke-width="1.5"/>
<path d="M40.4972 202.931C41.1061 202.931 41.6172 203.009 42.0305 203.164C42.4483 203.32 42.8394 203.546 43.2039 203.844L42.4905 204.684C42.2061 204.449 41.9039 204.278 41.5839 204.171C41.2639 204.06 40.9283 204.004 40.5772 204.004C40.0928 204.004 39.6461 204.122 39.2372 204.358C38.8283 204.593 38.4994 204.98 38.2505 205.518C38.0017 206.055 37.8772 206.778 37.8772 207.684C37.8772 208.569 37.995 209.28 38.2305 209.818C38.4705 210.351 38.7928 210.74 39.1972 210.984C39.6061 211.224 40.0617 211.344 40.5639 211.344C41.0661 211.344 41.4817 211.266 41.8105 211.111C42.1439 210.951 42.4328 210.769 42.6772 210.564L43.3372 211.411C43.0483 211.695 42.6728 211.94 42.2105 212.144C41.7528 212.349 41.1928 212.451 40.5305 212.451C39.7705 212.451 39.0861 212.269 38.4772 211.904C37.8728 211.54 37.3928 211.004 37.0372 210.298C36.6817 209.586 36.5039 208.715 36.5039 207.684C36.5039 206.653 36.6839 205.784 37.0439 205.078C37.4083 204.371 37.8928 203.838 38.4972 203.478C39.1061 203.113 39.7728 202.931 40.4972 202.931ZM45.4353 212.284V203.098H46.7619V211.138H50.9219L50.7753 212.284H45.4353ZM58.4066 203.098V204.131H56.3866V211.244H58.4066V212.284H53.0333V211.244H55.0533V204.131H53.0333V203.098H58.4066ZM62.6447 204.138V207.091H66.018V208.138H62.6447V211.251H66.7714V212.284H61.318V203.098H66.6714L66.518 204.138H62.6447ZM72.8827 212.284L69.7827 204.318C69.7916 204.473 69.8094 204.74 69.8361 205.118C69.8672 205.491 69.8961 205.922 69.9227 206.411C69.9494 206.895 69.9627 207.38 69.9627 207.864V212.284H68.7627V203.098H70.5161L73.6494 211.084C73.6405 210.933 73.6205 210.682 73.5894 210.331C73.5583 209.975 73.5294 209.555 73.5027 209.071C73.4805 208.586 73.4694 208.069 73.4694 207.518V203.098H74.6694V212.284H72.8827ZM80.3541 204.198V212.284H79.0341V204.198H76.2074V203.098H83.2274L83.0874 204.198H80.3541ZM97.4169 209.998H93.9369L93.2435 212.284H91.9169L94.8769 203.098H96.5435L99.5102 212.284H98.1102L97.4169 209.998ZM94.2435 208.938H97.1102L95.6835 204.164L94.2435 208.938ZM107.175 205.944C107.175 206.66 107.022 207.238 106.715 207.678C106.413 208.113 105.993 208.431 105.455 208.631C104.917 208.831 104.302 208.931 103.608 208.931H102.462V212.284H101.135V203.098H103.568C104.688 203.098 105.568 203.331 106.208 203.798C106.853 204.26 107.175 204.975 107.175 205.944ZM105.775 205.958C105.775 205.282 105.579 204.806 105.188 204.531C104.802 204.255 104.304 204.118 103.695 204.118H102.462V207.891H103.675C104.084 207.891 104.446 207.833 104.762 207.718C105.077 207.602 105.324 207.404 105.502 207.124C105.684 206.844 105.775 206.455 105.775 205.958ZM115.173 205.944C115.173 206.66 115.02 207.238 114.713 207.678C114.411 208.113 113.991 208.431 113.453 208.631C112.915 208.831 112.3 208.931 111.606 208.931H110.46V212.284H109.133V203.098H111.566C112.686 203.098 113.566 203.331 114.206 203.798C114.851 204.26 115.173 204.975 115.173 205.944ZM113.773 205.958C113.773 205.282 113.577 204.806 113.186 204.531C112.8 204.255 112.302 204.118 111.693 204.118H110.46V207.891H111.673C112.082 207.891 112.444 207.833 112.76 207.718C113.075 207.602 113.322 207.404 113.5 207.124C113.682 206.844 113.773 206.455 113.773 205.958ZM117.418 212.284V203.098H118.744V211.138H122.904L122.758 212.284H117.418ZM130.389 203.098V204.131H128.369V211.244H130.389V212.284H125.016V211.244H127.036V204.131H125.016V203.098H130.389ZM136.474 202.931C137.083 202.931 137.594 203.009 138.007 203.164C138.425 203.32 138.816 203.546 139.18 203.844L138.467 204.684C138.183 204.449 137.88 204.278 137.56 204.171C137.24 204.06 136.905 204.004 136.554 204.004C136.069 204.004 135.623 204.122 135.214 204.358C134.805 204.593 134.476 204.98 134.227 205.518C133.978 206.055 133.854 206.778 133.854 207.684C133.854 208.569 133.972 209.28 134.207 209.818C134.447 210.351 134.769 210.74 135.174 210.984C135.583 211.224 136.038 211.344 136.54 211.344C137.043 211.344 137.458 211.266 137.787 211.111C138.12 210.951 138.409 210.769 138.654 210.564L139.314 211.411C139.025 211.695 138.649 211.94 138.187 212.144C137.729 212.349 137.169 212.451 136.507 212.451C135.747 212.451 135.063 212.269 134.454 211.904C133.849 211.54 133.369 211.004 133.014 210.298C132.658 209.586 132.48 208.715 132.48 207.684C132.48 206.653 132.66 205.784 133.02 205.078C133.385 204.371 133.869 203.838 134.474 203.478C135.083 203.113 135.749 202.931 136.474 202.931ZM145.405 209.998H141.925L141.232 212.284H139.905L142.865 203.098H144.532L147.498 212.284H146.098L145.405 209.998ZM142.232 208.938H145.098L143.672 204.164L142.232 208.938ZM152.337 204.198V212.284H151.017V204.198H148.19V203.098H155.21L155.07 204.198H152.337ZM162.381 203.098V204.131H160.361V211.244H162.381V212.284H157.008V211.244H159.028V204.131H157.008V203.098H162.381ZM171.126 207.698C171.126 208.631 170.997 209.455 170.739 210.171C170.482 210.886 170.097 211.446 169.586 211.851C169.079 212.251 168.448 212.451 167.693 212.451C166.937 212.451 166.304 212.255 165.793 211.864C165.286 211.469 164.904 210.915 164.646 210.204C164.388 209.493 164.259 208.662 164.259 207.711C164.259 206.773 164.388 205.946 164.646 205.231C164.904 204.511 165.286 203.949 165.793 203.544C166.304 203.135 166.937 202.931 167.693 202.931C168.448 202.931 169.079 203.129 169.586 203.524C170.097 203.92 170.482 204.475 170.739 205.191C170.997 205.906 171.126 206.742 171.126 207.698ZM169.746 207.698C169.746 206.489 169.586 205.571 169.266 204.944C168.95 204.318 168.426 204.004 167.693 204.004C166.959 204.004 166.433 204.32 166.113 204.951C165.797 205.582 165.639 206.502 165.639 207.711C165.639 208.915 165.802 209.829 166.126 210.451C166.455 211.069 166.977 211.378 167.693 211.378C168.426 211.378 168.95 211.066 169.266 210.444C169.586 209.818 169.746 208.902 169.746 207.698ZM176.857 212.284L173.757 204.318C173.766 204.473 173.784 204.74 173.811 205.118C173.842 205.491 173.871 205.922 173.897 206.411C173.924 206.895 173.937 207.38 173.937 207.864V212.284H172.737V203.098H174.491L177.624 211.084C177.615 210.933 177.595 210.682 177.564 210.331C177.533 209.975 177.504 209.555 177.477 209.071C177.455 208.586 177.444 208.069 177.444 207.518V203.098H178.644V212.284H176.857ZM186.909 209.718C186.909 210.251 186.773 210.724 186.502 211.138C186.235 211.546 185.846 211.869 185.335 212.104C184.829 212.335 184.213 212.451 183.489 212.451C182.786 212.451 182.16 212.344 181.609 212.131C181.058 211.918 180.589 211.624 180.202 211.251L180.955 210.404C181.275 210.702 181.642 210.938 182.055 211.111C182.469 211.284 182.951 211.371 183.502 211.371C183.862 211.371 184.195 211.313 184.502 211.198C184.813 211.078 185.062 210.9 185.249 210.664C185.44 210.424 185.535 210.124 185.535 209.764C185.535 209.48 185.478 209.238 185.362 209.038C185.251 208.833 185.053 208.653 184.769 208.498C184.484 208.342 184.086 208.189 183.575 208.038C182.953 207.855 182.42 207.649 181.975 207.418C181.535 207.182 181.198 206.9 180.962 206.571C180.731 206.238 180.615 205.829 180.615 205.344C180.615 204.869 180.746 204.451 181.009 204.091C181.271 203.726 181.631 203.442 182.089 203.238C182.546 203.033 183.073 202.931 183.669 202.931C184.313 202.931 184.875 203.024 185.355 203.211C185.84 203.398 186.275 203.662 186.662 204.004L185.929 204.831C185.6 204.542 185.246 204.333 184.869 204.204C184.495 204.071 184.115 204.004 183.729 204.004C183.24 204.004 182.824 204.111 182.482 204.324C182.14 204.533 181.969 204.853 181.969 205.284C181.969 205.542 182.038 205.762 182.175 205.944C182.313 206.122 182.544 206.286 182.869 206.438C183.198 206.589 183.646 206.749 184.215 206.918C184.709 207.064 185.158 207.244 185.562 207.458C185.971 207.666 186.298 207.951 186.542 208.311C186.786 208.666 186.909 209.135 186.909 209.718Z" fill="#467B95"/>
<g clip-path="url(#clip0_451_355)">
<path d="M46.9952 228.198C47.3828 229.008 47.6883 229.855 47.9071 230.725C49.6471 230.213 50.7552 229.372 50.7552 228.35C50.7552 227.308 49.6052 226.453 47.8058 225.945" stroke="#467B95" stroke-linecap="round" stroke-linejoin="round"/>
<path d="M40.4446 228.198C40.1073 227.474 39.8354 226.721 39.6321 225.948C37.8377 226.457 36.6946 227.31 36.6946 228.35C36.6946 229.37 37.799 230.211 39.534 230.725" stroke="#467B95" stroke-linecap="round" stroke-linejoin="round"/>
<path d="M41.9896 225.524C42.4977 224.783 43.0788 224.096 43.7239 223.472C42.4114 222.222 41.1283 221.682 40.2433 222.193C39.3408 222.714 39.1752 224.137 39.6352 225.95" stroke="#467B95" stroke-linecap="round" stroke-linejoin="round"/>
<path d="M45.2651 231.197C44.8066 231.85 44.2908 232.462 43.7239 233.025C45.0614 234.324 46.3739 234.89 47.2745 234.37C48.1576 233.86 48.3333 232.483 47.9089 230.725" stroke="#467B95" stroke-linecap="round" stroke-linejoin="round"/>
<path d="M42.1757 231.196C41.2808 231.127 40.3952 230.968 39.532 230.722C39.1045 232.486 39.282 233.866 40.1645 234.377C41.0664 234.897 42.382 234.329 43.722 233.025" stroke="#467B95" stroke-linecap="round" stroke-linejoin="round"/>
<path d="M45.4514 225.523C46.2472 225.593 47.0351 225.735 47.8058 225.945C48.2626 224.137 48.0964 222.718 47.1958 222.195C46.312 221.688 45.0326 222.222 43.7239 223.472" stroke="#467B95" stroke-linecap="round" stroke-linejoin="round"/>
<path d="M45.4515 225.523C44.9002 225.47 44.3265 225.439 43.724 225.439C43.1215 225.439 42.5433 225.47 41.9896 225.524C41.7052 225.933 41.4271 226.369 41.159 226.832C40.8908 227.295 40.659 227.75 40.4446 228.199C40.6746 228.702 40.9358 229.217 41.2358 229.737C41.5358 230.257 41.8533 230.744 42.1733 231.196C43.2012 231.284 44.2348 231.284 45.2627 231.197C45.9359 230.256 46.5158 229.252 46.994 228.199C46.5575 227.264 46.0414 226.369 45.4515 225.523Z" stroke="#467B95" stroke-linecap="round" stroke-linejoin="round"/>
<path d="M42.7864 228.35C42.7864 228.599 42.8851 228.837 43.061 229.013C43.2368 229.189 43.4752 229.288 43.7239 229.288C43.9725 229.288 44.211 229.189 44.3868 229.013C44.5626 228.837 44.6614 228.599 44.6614 228.35C44.6614 228.102 44.5626 227.863 44.3868 227.687C44.211 227.512 43.9725 227.413 43.7239 227.413C43.4752 227.413 43.2368 227.512 43.061 227.687C42.8851 227.863 42.7864 228.102 42.7864 228.35Z" stroke="#467B95" stroke-linecap="round" stroke-linejoin="round"/>
</g>
<g clip-path="url(#clip1_451_355)">
<path d="M59.1978 222.425V234.144L70.9166 222.425H59.1978Z" stroke="#467B95" stroke-linecap="round" stroke-linejoin="round"/>
<path d="M65.0573 228.284L70.9166 234.144H59.1979" stroke="#467B95" stroke-linecap="round" stroke-linejoin="round"/>
<path d="M65.0573 222.425L59.3229 228.159" stroke="#467B95" stroke-linecap="round" stroke-linejoin="round"/>
</g>
<g clip-path="url(#clip2_451_355)">
<path d="M87.4176 227.659C84.9738 226.14 82.8051 222.759 82.8051 222.759C82.8051 222.759 84.5988 227.478 87.8926 230.578C86.8315 230.637 85.7704 230.462 84.7844 230.065C83.7984 229.669 82.9115 229.061 82.1863 228.284C81.7275 227.826 81.3228 227.316 80.9801 226.765C80.958 226.738 80.9267 226.72 80.8922 226.714C80.8577 226.709 80.8223 226.716 80.7926 226.734C80.7583 226.752 80.7307 226.781 80.7138 226.816C80.6969 226.85 80.6917 226.89 80.6988 226.928C81.1316 228.481 81.9658 229.893 83.1176 231.022C85.7801 233.684 89.4488 234.422 91.7801 232.897C92.2299 233.034 92.6928 233.124 93.1613 233.165C94.3738 233.79 94.3738 234.078 94.3738 234.078C94.5498 233.872 94.6703 233.624 94.7239 233.358C94.7775 233.092 94.7624 232.817 94.6801 232.559C94.7448 232.273 94.7195 231.975 94.6076 231.704C94.4957 231.433 94.3027 231.203 94.0551 231.047L93.4988 230.703C94.3426 228.403 93.4988 225.29 91.1551 222.953C90.9988 222.79 90.8363 222.64 90.6676 222.497C90.639 222.472 90.6024 222.458 90.5644 222.458C90.5265 222.458 90.4898 222.472 90.4613 222.497C90.4322 222.52 90.4119 222.552 90.404 222.589C90.396 222.625 90.4008 222.663 90.4176 222.697C91.7363 224.79 91.9301 227.184 90.8551 228.809C88.8418 227.069 87.1089 225.028 85.7176 222.759" stroke="#467B95" stroke-linecap="round" stroke-linejoin="round"/>
</g>
<rect x="-1" y="1" width="441.207" height="110.745" rx="7" transform="matrix(-1 0 0 1 744 21.6667)" fill="#FAD000" fill-opacity="0.1"/>
<rect x="-1" y="1" width="441.207" height="110.745" rx="7" transform="matrix(-1 0 0 1 744 21.6667)" stroke="#AF9200" stroke-width="2"/>
<rect x="555.147" y="42.4167" width="170.103" height="71.2449" rx="5.25" fill="#FDFDFD"/>
<rect x="555.147" y="42.4167" width="170.103" height="71.2449" rx="5.25" stroke="#AF9200" stroke-width="1.5"/>
<path d="M590.068 78.0392V82.0392C590.068 82.0392 590.068 84.0392 594.734 84.0392C599.401 84.0392 599.401 82.0392 599.401 82.0392V78.0392" stroke="#AF9200"/>
<path d="M590.068 74.0392V78.0392C590.068 78.0392 590.068 80.0392 594.734 80.0392C599.401 80.0392 599.401 78.0392 599.401 78.0392V74.0392" stroke="#AF9200"/>
<path d="M594.734 72.0392C599.401 72.0392 599.401 74.0392 599.401 74.0392C599.401 74.0392 599.401 76.0392 594.734 76.0392C590.068 76.0392 590.068 74.0392 590.068 74.0392C590.068 74.0392 590.068 72.0392 594.734 72.0392Z" stroke="#AF9200"/>
<path d="M620.762 72.8525V79.0459C620.762 79.6681 620.636 80.217 620.382 80.6925C620.133 81.1681 619.776 81.5392 619.309 81.8059C618.847 82.0725 618.293 82.2059 617.649 82.2059C617 82.2059 616.444 82.0725 615.982 81.8059C615.52 81.5392 615.167 81.1681 614.922 80.6925C614.682 80.217 614.562 79.6681 614.562 79.0459V72.8525H615.882V78.9459C615.882 80.3859 616.471 81.1059 617.649 81.1059C618.836 81.1059 619.429 80.3859 619.429 78.9459V72.8525H620.762ZM628.88 79.4725C628.88 80.0059 628.745 80.4792 628.474 80.8925C628.207 81.3014 627.818 81.6236 627.307 81.8592C626.8 82.0903 626.185 82.2059 625.46 82.2059C624.758 82.2059 624.131 82.0992 623.58 81.8859C623.029 81.6725 622.56 81.3792 622.174 81.0059L622.927 80.1592C623.247 80.457 623.614 80.6925 624.027 80.8659C624.44 81.0392 624.923 81.1259 625.474 81.1259C625.834 81.1259 626.167 81.0681 626.474 80.9525C626.785 80.8325 627.034 80.6547 627.22 80.4192C627.411 80.1792 627.507 79.8792 627.507 79.5192C627.507 79.2347 627.449 78.9925 627.334 78.7925C627.223 78.5881 627.025 78.4081 626.74 78.2525C626.456 78.097 626.058 77.9436 625.547 77.7925C624.925 77.6103 624.391 77.4036 623.947 77.1725C623.507 76.937 623.169 76.6547 622.934 76.3259C622.703 75.9925 622.587 75.5836 622.587 75.0992C622.587 74.6236 622.718 74.2059 622.98 73.8459C623.243 73.4814 623.603 73.197 624.06 72.9925C624.518 72.7881 625.045 72.6859 625.64 72.6859C626.285 72.6859 626.847 72.7792 627.327 72.9659C627.811 73.1525 628.247 73.417 628.634 73.7592L627.9 74.5859C627.571 74.297 627.218 74.0881 626.84 73.9592C626.467 73.8259 626.087 73.7592 625.7 73.7592C625.211 73.7592 624.796 73.8659 624.454 74.0792C624.111 74.2881 623.94 74.6081 623.94 75.0392C623.94 75.297 624.009 75.517 624.147 75.6992C624.285 75.877 624.516 76.0414 624.84 76.1925C625.169 76.3436 625.618 76.5036 626.187 76.6725C626.68 76.8192 627.129 76.9992 627.534 77.2125C627.943 77.4214 628.269 77.7059 628.514 78.0659C628.758 78.4214 628.88 78.8903 628.88 79.4725ZM632.585 73.8925V76.8459H635.958V77.8925H632.585V81.0059H636.712V82.0392H631.258V72.8525H636.612L636.458 73.8925H632.585ZM644.876 75.4592C644.876 76.1481 644.665 76.7036 644.243 77.1259C643.825 77.5436 643.31 77.8325 642.696 77.9925L645.37 82.0392H643.803L641.383 78.1659H640.243V82.0392H638.916V72.8525H641.363C642.514 72.8525 643.387 73.0725 643.983 73.5125C644.579 73.9481 644.876 74.597 644.876 75.4592ZM643.47 75.4592C643.47 74.8947 643.305 74.4881 642.976 74.2392C642.652 73.9903 642.152 73.8659 641.476 73.8659H640.243V77.1592H641.49C642.121 77.1592 642.607 77.0303 642.95 76.7725C643.296 76.5103 643.47 76.0725 643.47 75.4592ZM652.874 79.4725C652.874 80.0059 652.739 80.4792 652.468 80.8925C652.201 81.3014 651.812 81.6236 651.301 81.8592C650.794 82.0903 650.179 82.2059 649.454 82.2059C648.752 82.2059 648.126 82.0992 647.574 81.8859C647.023 81.6725 646.554 81.3792 646.168 81.0059L646.921 80.1592C647.241 80.457 647.608 80.6925 648.021 80.8659C648.434 81.0392 648.917 81.1259 649.468 81.1259C649.828 81.1259 650.161 81.0681 650.468 80.9525C650.779 80.8325 651.028 80.6547 651.214 80.4192C651.406 80.1792 651.501 79.8792 651.501 79.5192C651.501 79.2347 651.443 78.9925 651.328 78.7925C651.217 78.5881 651.019 78.4081 650.734 78.2525C650.45 78.097 650.052 77.9436 649.541 77.7925C648.919 77.6103 648.386 77.4036 647.941 77.1725C647.501 76.937 647.163 76.6547 646.928 76.3259C646.697 75.9925 646.581 75.5836 646.581 75.0992C646.581 74.6236 646.712 74.2059 646.974 73.8459C647.237 73.4814 647.597 73.197 648.054 72.9925C648.512 72.7881 649.039 72.6859 649.634 72.6859C650.279 72.6859 650.841 72.7792 651.321 72.9659C651.806 73.1525 652.241 73.417 652.628 73.7592L651.894 74.5859C651.566 74.297 651.212 74.0881 650.834 73.9592C650.461 73.8259 650.081 73.7592 649.694 73.7592C649.206 73.7592 648.79 73.8659 648.448 74.0792C648.106 74.2881 647.934 74.6081 647.934 75.0392C647.934 75.297 648.003 75.517 648.141 75.6992C648.279 75.877 648.51 76.0414 648.834 76.1925C649.163 76.3436 649.612 76.5036 650.181 76.6725C650.674 76.8192 651.123 76.9992 651.528 77.2125C651.937 77.4214 652.263 77.7059 652.508 78.0659C652.752 78.4214 652.874 78.8903 652.874 79.4725ZM669.064 77.3992C669.064 78.3547 668.939 79.137 668.691 79.7459C668.442 80.3547 668.111 80.8259 667.697 81.1592C667.288 81.4881 666.837 81.717 666.344 81.8459C665.851 81.9747 665.357 82.0392 664.864 82.0392H662.697V72.8525H664.717C665.264 72.8525 665.795 72.9125 666.311 73.0325C666.826 73.1525 667.291 73.3747 667.704 73.6992C668.122 74.0192 668.453 74.477 668.697 75.0725C668.942 75.6681 669.064 76.4436 669.064 77.3992ZM667.664 77.3992C667.664 76.6303 667.584 76.0125 667.424 75.5459C667.268 75.0792 667.059 74.7281 666.797 74.4925C666.535 74.257 666.246 74.0992 665.931 74.0192C665.619 73.9392 665.308 73.8992 664.997 73.8992H664.017V81.0059H665.011C665.335 81.0059 665.655 80.9547 665.971 80.8525C666.286 80.7503 666.571 80.5681 666.824 80.3059C667.082 80.0436 667.286 79.677 667.437 79.2059C667.588 78.7347 667.664 78.1325 667.664 77.3992ZM675.355 79.7525H671.875L671.182 82.0392H669.855L672.815 72.8525H674.482L677.449 82.0392H676.049L675.355 79.7525ZM672.182 78.6925H675.049L673.622 73.9192L672.182 78.6925ZM682.287 73.9525V82.0392H680.967V73.9525H678.14V72.8525H685.16L685.02 73.9525H682.287ZM691.351 79.7525H687.871L687.178 82.0392H685.851L688.811 72.8525H690.478L693.445 82.0392H692.045L691.351 79.7525ZM688.178 78.6925H691.045L689.618 73.9192L688.178 78.6925Z" fill="#AF9200"/>
<path d="M554.397 78.0392H494.397" stroke="#AF9200" stroke-width="2"/>
<rect x="323.543" y="42.4167" width="170.103" height="71.2449" rx="5.25" fill="#FDFDFD"/>
<rect x="323.543" y="42.4167" width="170.103" height="71.2449" rx="5.25" stroke="#AF9200" stroke-width="1.5"/>
<g clip-path="url(#clip3_451_355)">
<path d="M366.131 74.5392H373.131M366.131 77.5392H368.631M366.131 80.5392H368.631M368.631 83.5392H365.131C364.866 83.5392 364.612 83.4338 364.424 83.2463C364.236 83.0588 364.131 82.8044 364.131 82.5392V71.5392C364.131 71.274 364.236 71.0196 364.424 70.8321C364.612 70.6445 364.866 70.5392 365.131 70.5392H372.217C372.482 70.5392 372.736 70.6445 372.924 70.8319L374.838 72.7465C375.026 72.934 375.131 73.1882 375.131 73.4532V74.5392M374.131 81.0392C374.131 81.3044 374.236 81.5588 374.424 81.7463C374.612 81.9338 374.866 82.0392 375.131 82.0392C375.396 82.0392 375.651 81.9338 375.838 81.7463C376.026 81.5588 376.131 81.3044 376.131 81.0392C376.131 80.774 376.026 80.5196 375.838 80.3321C375.651 80.1445 375.396 80.0392 375.131 80.0392C374.866 80.0392 374.612 80.1445 374.424 80.3321C374.236 80.5196 374.131 80.774 374.131 81.0392ZM375.98 77.1725L376.275 78.1412C376.324 78.302 376.432 78.4383 376.577 78.5226C376.722 78.6068 376.894 78.6328 377.058 78.5952L378.039 78.3679C378.225 78.3259 378.42 78.3447 378.594 78.4213C378.769 78.498 378.914 78.6285 379.009 78.7938C379.104 78.9591 379.144 79.1505 379.122 79.3399C379.101 79.5293 379.019 79.7069 378.889 79.8465L378.202 80.5872C378.087 80.7105 378.023 80.8727 378.023 81.0412C378.023 81.2096 378.087 81.3718 378.202 81.4952L378.889 82.2359C379.019 82.3755 379.101 82.553 379.122 82.7425C379.144 82.9319 379.104 83.1233 379.009 83.2886C378.914 83.4539 378.769 83.5844 378.594 83.661C378.42 83.7377 378.225 83.7564 378.039 83.7145L377.058 83.4872C376.894 83.4496 376.722 83.4755 376.577 83.5598C376.432 83.6441 376.324 83.7804 376.275 83.9412L375.98 84.9059C375.926 85.0885 375.813 85.2487 375.66 85.3626C375.507 85.4764 375.322 85.5379 375.131 85.5379C374.94 85.5379 374.755 85.4764 374.602 85.3626C374.449 85.2487 374.337 85.0885 374.282 84.9059L373.987 83.9372C373.938 83.7764 373.831 83.6401 373.685 83.5558C373.54 83.4715 373.368 83.4456 373.204 83.4832L372.223 83.7105C372.037 83.7524 371.843 83.7337 371.668 83.6571C371.493 83.5804 371.348 83.4499 371.253 83.2846C371.158 83.1193 371.118 82.9279 371.14 82.7385C371.162 82.549 371.243 82.3715 371.373 82.2319L372.06 81.4912C372.175 81.3678 372.239 81.2056 372.239 81.0372C372.239 80.8687 372.175 80.7065 372.06 80.5832L371.373 79.8425C371.243 79.7029 371.162 79.5254 371.14 79.3359C371.118 79.1465 371.158 78.9551 371.253 78.7898C371.348 78.6245 371.493 78.494 371.668 78.4173C371.843 78.3407 372.037 78.3219 372.223 78.3639L373.204 78.5912C373.368 78.6288 373.54 78.6028 373.685 78.5186C373.831 78.4343 373.938 78.298 373.987 78.1372L374.282 77.1685C374.337 76.986 374.45 76.8261 374.603 76.7125C374.756 76.599 374.942 76.538 375.133 76.5384C375.323 76.5389 375.509 76.6008 375.662 76.715C375.814 76.8293 375.926 76.9897 375.98 77.1725Z" stroke="#AF9200" stroke-linecap="round" stroke-linejoin="round"/>
</g>
<path d="M397.481 66.0822V72.1207C397.481 72.7274 397.358 73.2625 397.111 73.7262C396.868 74.1855 396.519 74.5474 396.064 74.8117C395.614 75.0717 395.074 75.2017 394.446 75.2017C393.813 75.2017 393.272 75.0717 392.821 74.8117C392.37 74.5517 392.026 74.1899 391.787 73.7262C391.553 73.2625 391.436 72.7274 391.436 72.1207V66.0822H392.723V72.0232C392.723 72.7252 392.869 73.2517 393.159 73.6027C393.449 73.9537 393.878 74.1292 394.446 74.1292C395.022 74.1292 395.456 73.9537 395.746 73.6027C396.036 73.2517 396.181 72.7252 396.181 72.0232V66.0822H397.481ZM405.393 72.5367C405.393 73.0567 405.261 73.5182 404.997 73.9212C404.737 74.3199 404.36 74.634 403.866 74.8637C403.372 75.089 402.77 75.2017 402.059 75.2017C401.374 75.2017 400.763 75.0977 400.226 74.8897C399.689 74.6817 399.231 74.3957 398.854 74.0317L399.589 73.2062C399.901 73.4965 400.258 73.7262 400.661 73.8952C401.064 74.0642 401.535 74.1487 402.072 74.1487C402.423 74.1487 402.748 74.0924 403.047 73.9797C403.35 73.8627 403.593 73.6894 403.775 73.4597C403.961 73.2257 404.054 72.9332 404.054 72.5822C404.054 72.3005 403.998 72.0622 403.885 71.8672C403.777 71.6722 403.584 71.4989 403.307 71.3472C403.03 71.1955 402.642 71.046 402.143 70.8987C401.537 70.7167 401.017 70.5152 400.583 70.2942C400.154 70.0689 399.825 69.7937 399.595 69.4687C399.37 69.1437 399.257 68.745 399.257 68.2727C399.257 67.809 399.385 67.4017 399.641 67.0507C399.897 66.6954 400.248 66.418 400.694 66.2187C401.145 66.0194 401.658 65.9197 402.234 65.9197C402.863 65.9197 403.411 66.0107 403.879 66.1927C404.351 66.3704 404.776 66.6282 405.153 66.9662L404.438 67.7722C404.122 67.4905 403.779 67.2869 403.411 67.1612C403.043 67.0312 402.67 66.9662 402.293 66.9662C401.977 66.9662 401.688 67.0139 401.428 67.1092C401.168 67.2002 400.96 67.3367 400.804 67.5187C400.653 67.7007 400.577 67.9325 400.577 68.2142C400.577 68.4612 400.644 68.6735 400.778 68.8512C400.913 69.0245 401.14 69.187 401.461 69.3387C401.782 69.486 402.217 69.642 402.767 69.8067C403.248 69.9454 403.688 70.1187 404.087 70.3267C404.486 70.5347 404.802 70.8142 405.036 71.1652C405.274 71.5119 405.393 71.969 405.393 72.5367ZM409.002 67.0962V69.9757H412.291V70.9962H409.002V74.0317H413.026V75.0392H407.709V66.0822H412.928L412.779 67.0962H409.002ZM420.983 68.6237C420.983 69.07 420.888 69.4579 420.697 69.7872C420.511 70.1165 420.257 70.3917 419.937 70.6127C419.616 70.8294 419.256 70.9897 418.858 71.0937L421.464 75.0392H419.937L417.577 71.2627H416.466V75.0392H415.172V66.0822H417.558C418.684 66.0822 419.536 66.2967 420.112 66.7257C420.693 67.1504 420.983 67.783 420.983 68.6237ZM419.612 68.6237C419.612 68.0734 419.451 67.6769 419.131 67.4342C418.814 67.1915 418.327 67.0702 417.668 67.0702H416.466V70.2812H417.681C418.297 70.2812 418.771 70.1555 419.105 69.9042C419.443 69.6485 419.612 69.2217 419.612 68.6237ZM428.778 72.5367C428.778 73.0567 428.646 73.5182 428.382 73.9212C428.122 74.3199 427.745 74.634 427.251 74.8637C426.757 75.089 426.154 75.2017 425.444 75.2017C424.759 75.2017 424.148 75.0977 423.611 74.8897C423.073 74.6817 422.616 74.3957 422.239 74.0317L422.974 73.2062C423.286 73.4965 423.643 73.7262 424.046 73.8952C424.449 74.0642 424.919 74.1487 425.457 74.1487C425.808 74.1487 426.133 74.0924 426.432 73.9797C426.735 73.8627 426.978 73.6894 427.16 73.4597C427.346 73.2257 427.439 72.9332 427.439 72.5822C427.439 72.3005 427.383 72.0622 427.27 71.8672C427.162 71.6722 426.969 71.4989 426.692 71.3472C426.414 71.1955 426.026 71.046 425.528 70.8987C424.921 70.7167 424.401 70.5152 423.968 70.2942C423.539 70.0689 423.21 69.7937 422.98 69.4687C422.755 69.1437 422.642 68.745 422.642 68.2727C422.642 67.809 422.77 67.4017 423.026 67.0507C423.281 66.6954 423.632 66.418 424.079 66.2187C424.529 66.0194 425.043 65.9197 425.619 65.9197C426.247 65.9197 426.796 66.0107 427.264 66.1927C427.736 66.3704 428.161 66.6282 428.538 66.9662L427.823 67.7722C427.506 67.4905 427.164 67.2869 426.796 67.1612C426.427 67.0312 426.055 66.9662 425.678 66.9662C425.361 66.9662 425.073 67.0139 424.813 67.1092C424.553 67.2002 424.345 67.3367 424.189 67.5187C424.037 67.7007 423.962 67.9325 423.962 68.2142C423.962 68.4612 424.029 68.6735 424.163 68.8512C424.297 69.0245 424.525 69.187 424.846 69.3387C425.166 69.486 425.602 69.642 426.152 69.8067C426.633 69.9454 427.073 70.1187 427.472 70.3267C427.87 70.5347 428.187 70.8142 428.421 71.1652C428.659 71.5119 428.778 71.969 428.778 72.5367ZM397.598 82.6237C397.598 83.07 397.503 83.4579 397.312 83.7872C397.126 84.1165 396.873 84.3917 396.552 84.6127C396.231 84.8294 395.872 84.9897 395.473 85.0937L398.079 89.0392H396.552L394.192 85.2627H393.081V89.0392H391.787V80.0822H394.173C395.3 80.0822 396.151 80.2967 396.727 80.7257C397.308 81.1504 397.598 81.783 397.598 82.6237ZM396.227 82.6237C396.227 82.0734 396.067 81.6769 395.746 81.4342C395.43 81.1915 394.942 81.0702 394.283 81.0702H393.081V84.2812H394.296C394.912 84.2812 395.386 84.1555 395.72 83.9042C396.058 83.6485 396.227 83.2217 396.227 82.6237ZM401.207 81.0962V83.9757H404.496V84.9962H401.207V88.0317H405.231V89.0392H399.914V80.0822H405.133L404.984 81.0962H401.207ZM413.188 86.5367C413.188 87.0567 413.056 87.5182 412.792 87.9212C412.532 88.3199 412.155 88.634 411.661 88.8637C411.167 89.089 410.564 89.2017 409.854 89.2017C409.169 89.2017 408.558 89.0977 408.021 88.8897C407.483 88.6817 407.026 88.3957 406.649 88.0317L407.384 87.2062C407.696 87.4965 408.053 87.7262 408.456 87.8952C408.859 88.0642 409.329 88.1487 409.867 88.1487C410.218 88.1487 410.543 88.0924 410.842 87.9797C411.145 87.8627 411.388 87.6894 411.57 87.4597C411.756 87.2257 411.849 86.9332 411.849 86.5822C411.849 86.3005 411.793 86.0622 411.68 85.8672C411.572 85.6722 411.379 85.4989 411.102 85.3472C410.824 85.1955 410.437 85.046 409.938 84.8987C409.332 84.7167 408.812 84.5152 408.378 84.2942C407.949 84.0689 407.62 83.7937 407.39 83.4687C407.165 83.1437 407.052 82.745 407.052 82.2727C407.052 81.809 407.18 81.4017 407.436 81.0507C407.691 80.6954 408.042 80.418 408.489 80.2187C408.939 80.0194 409.453 79.9197 410.029 79.9197C410.658 79.9197 411.206 80.0107 411.674 80.1927C412.146 80.3704 412.571 80.6282 412.948 80.9662L412.233 81.7722C411.916 81.4905 411.574 81.2869 411.206 81.1612C410.837 81.0312 410.465 80.9662 410.088 80.9662C409.771 80.9662 409.483 81.0139 409.223 81.1092C408.963 81.2002 408.755 81.3367 408.599 81.5187C408.448 81.7007 408.372 81.9325 408.372 82.2142C408.372 82.4612 408.439 82.6735 408.573 82.8512C408.708 83.0245 408.935 83.187 409.256 83.3387C409.576 83.486 410.012 83.642 410.562 83.8067C411.043 83.9454 411.483 84.1187 411.882 84.3267C412.28 84.5347 412.597 84.8142 412.831 85.1652C413.069 85.5119 413.188 85.969 413.188 86.5367ZM418.468 81.1547V89.0392H417.181V81.1547H414.425V80.0822H421.269L421.133 81.1547H418.468ZM435.098 86.8097H431.705L431.029 89.0392H429.735L432.621 80.0822H434.246L437.139 89.0392H435.774L435.098 86.8097ZM432.004 85.7762H434.799L433.408 81.1222L432.004 85.7762ZM443.243 82.8707C443.243 82.4287 443.157 82.0777 442.983 81.8177C442.81 81.5534 442.572 81.3649 442.268 81.2522C441.965 81.1352 441.614 81.0767 441.215 81.0767H440.013V84.7557H441.196C441.595 84.7557 441.948 84.6994 442.255 84.5867C442.563 84.474 442.804 84.2812 442.977 84.0082C443.155 83.7309 443.243 83.3517 443.243 82.8707ZM444.608 82.8577C444.608 83.5554 444.459 84.1187 444.16 84.5477C443.865 84.9724 443.456 85.2822 442.931 85.4772C442.411 85.6722 441.811 85.7697 441.131 85.7697H440.013V89.0392H438.719V80.0822H441.092C442.184 80.0822 443.042 80.3097 443.666 80.7647C444.294 81.2154 444.608 81.913 444.608 82.8577ZM451.643 80.0822V81.0897H449.673V88.0252H451.643V89.0392H446.404V88.0252H448.373V81.0897H446.404V80.0822H451.643Z" fill="#AF9200"/>
<rect x="-1" y="1" width="441.207" height="110.745" rx="7" transform="matrix(-1 0 0 1 744 162.412)" fill="#00FAB3" fill-opacity="0.1"/>
<rect x="-1" y="1" width="441.207" height="110.745" rx="7" transform="matrix(-1 0 0 1 744 162.412)" stroke="#25855A" stroke-width="2"/>
<rect x="555.147" y="183.162" width="170.103" height="71.2449" rx="5.25" fill="#FDFDFD"/>
<rect x="555.147" y="183.162" width="170.103" height="71.2449" rx="5.25" stroke="#25855A" stroke-width="1.5"/>
<path d="M586.068 218.784V222.784C586.068 222.784 586.068 224.784 590.734 224.784C595.401 224.784 595.401 222.784 595.401 222.784V218.784" stroke="#25855A"/>
<path d="M586.068 214.784V218.784C586.068 218.784 586.068 220.784 590.734 220.784C595.401 220.784 595.401 218.784 595.401 218.784V214.784" stroke="#25855A"/>
<path d="M590.734 212.784C595.401 212.784 595.401 214.784 595.401 214.784C595.401 214.784 595.401 216.784 590.734 216.784C586.068 216.784 586.068 214.784 586.068 214.784C586.068 214.784 586.068 212.784 590.734 212.784Z" stroke="#25855A"/>
<path d="M612.762 214.638V217.731H616.302V218.764H612.762V222.784H611.442V213.598H616.956L616.802 214.638H612.762ZM619.374 222.784V213.598H620.7V221.638H624.86L624.714 222.784H619.374ZM632.345 213.598V214.631H630.325V221.744H632.345V222.784H626.972V221.744H628.992V214.631H626.972V213.598H632.345ZM637.863 222.951C636.739 222.951 635.85 222.553 635.196 221.758C634.543 220.962 634.216 219.771 634.216 218.184C634.216 217.393 634.323 216.702 634.536 216.111C634.75 215.515 635.039 215.02 635.403 214.624C635.772 214.224 636.19 213.926 636.656 213.731C637.127 213.531 637.619 213.431 638.13 213.431C638.739 213.431 639.245 213.52 639.65 213.698C640.059 213.875 640.443 214.131 640.803 214.464L640.03 215.264C639.483 214.758 638.856 214.504 638.15 214.504C637.714 214.504 637.303 214.62 636.916 214.851C636.53 215.082 636.216 215.466 635.976 216.004C635.736 216.542 635.616 217.269 635.616 218.184C635.616 219.495 635.814 220.44 636.21 221.018C636.605 221.591 637.187 221.878 637.956 221.878C638.543 221.878 639.092 221.738 639.603 221.458V218.771H637.903L637.75 217.718H640.903V222.131C640.481 222.366 640.03 222.562 639.55 222.718C639.074 222.873 638.512 222.951 637.863 222.951ZM647.288 222.784V218.504H644.021V222.784H642.701V213.598H644.021V217.418H647.288V213.598H648.608V222.784H647.288ZM654.292 214.698V222.784H652.972V214.698H650.146V213.598H657.166L657.026 214.698H654.292ZM673.062 218.144C673.062 219.1 672.937 219.882 672.689 220.491C672.44 221.1 672.109 221.571 671.695 221.904C671.286 222.233 670.835 222.462 670.342 222.591C669.849 222.72 669.355 222.784 668.862 222.784H666.695V213.598H668.715C669.262 213.598 669.793 213.658 670.309 213.778C670.824 213.898 671.289 214.12 671.702 214.444C672.12 214.764 672.451 215.222 672.695 215.818C672.94 216.413 673.062 217.189 673.062 218.144ZM671.662 218.144C671.662 217.375 671.582 216.758 671.422 216.291C671.266 215.824 671.057 215.473 670.795 215.238C670.533 215.002 670.244 214.844 669.929 214.764C669.617 214.684 669.306 214.644 668.995 214.644H668.015V221.751H669.009C669.333 221.751 669.653 221.7 669.969 221.598C670.284 221.495 670.569 221.313 670.822 221.051C671.08 220.789 671.284 220.422 671.435 219.951C671.586 219.48 671.662 218.878 671.662 218.144ZM679.353 220.498H675.873L675.18 222.784H673.853L676.813 213.598H678.48L681.447 222.784H680.047L679.353 220.498ZM676.18 219.438H679.047L677.62 214.664L676.18 219.438ZM686.285 214.698V222.784H684.965V214.698H682.138V213.598H689.158L689.018 214.698H686.285ZM695.349 220.498H691.869L691.176 222.784H689.849L692.809 213.598H694.476L697.443 222.784H696.043L695.349 220.498ZM692.176 219.438H695.043L693.616 214.664L692.176 219.438Z" fill="#25855A"/>
<path d="M554.397 218.784H494.397" stroke="#25855A" stroke-width="2"/>
<rect x="323.543" y="183.162" width="170.103" height="71.2449" rx="5.25" fill="#FDFDFD"/>
<rect x="323.543" y="183.162" width="170.103" height="71.2449" rx="5.25" stroke="#25855A" stroke-width="1.5"/>
<g clip-path="url(#clip4_451_355)">
<path d="M364.203 221.44H356.052M364.353 222.163L361.061 224.158M354.975 220.503C355.265 220.503 355.543 220.618 355.748 220.823C355.953 221.028 356.069 221.307 356.069 221.597C356.069 221.887 355.953 222.165 355.748 222.37C355.543 222.575 355.265 222.69 354.975 222.69C354.685 222.69 354.407 222.575 354.201 222.37C353.996 222.165 353.881 221.887 353.881 221.597C353.881 221.307 353.996 221.028 354.201 220.823C354.407 220.618 354.685 220.503 354.975 220.503ZM354.975 220.503V217.064M365.287 220.503C365.577 220.503 365.856 220.618 366.061 220.823C366.266 221.028 366.381 221.307 366.381 221.597C366.381 221.887 366.266 222.165 366.061 222.37C365.856 222.575 365.577 222.69 365.287 222.69C364.997 222.69 364.719 222.575 364.514 222.37C364.309 222.165 364.194 221.887 364.194 221.597C364.194 221.307 364.309 221.028 364.514 220.823C364.719 220.618 364.997 220.503 365.287 220.503ZM365.287 220.503V217.064M359.724 213.856L355.678 220.772M360.539 213.856L364.584 220.772M359.195 213.414L355.909 215.405M355.909 222.163L359.201 224.158M361.067 213.414L364.353 215.405M360.131 213.94C360.421 213.94 360.699 213.825 360.905 213.62C361.11 213.415 361.225 213.137 361.225 212.847C361.225 212.557 361.11 212.278 360.905 212.073C360.699 211.868 360.421 211.753 360.131 211.753C359.841 211.753 359.563 211.868 359.358 212.073C359.153 212.278 359.037 212.557 359.037 212.847C359.037 213.137 359.153 213.415 359.358 213.62C359.563 213.825 359.841 213.94 360.131 213.94ZM354.975 217.065C355.265 217.065 355.543 216.95 355.748 216.745C355.953 216.54 356.069 216.262 356.069 215.972C356.069 215.682 355.953 215.403 355.748 215.198C355.543 214.993 355.265 214.878 354.975 214.878C354.685 214.878 354.407 214.993 354.201 215.198C353.996 215.403 353.881 215.682 353.881 215.972C353.881 216.262 353.996 216.54 354.201 216.745C354.407 216.95 354.685 217.065 354.975 217.065ZM365.287 217.065C365.577 217.065 365.856 216.95 366.061 216.745C366.266 216.54 366.381 216.262 366.381 215.972C366.381 215.682 366.266 215.403 366.061 215.198C365.856 214.993 365.577 214.878 365.287 214.878C364.997 214.878 364.719 214.993 364.514 215.198C364.309 215.403 364.194 215.682 364.194 215.972C364.194 216.262 364.309 216.54 364.514 216.745C364.719 216.95 364.997 217.065 365.287 217.065ZM360.131 225.815C360.421 225.815 360.699 225.7 360.905 225.495C361.11 225.29 361.225 225.012 361.225 224.722C361.225 224.432 361.11 224.153 360.905 223.948C360.699 223.743 360.421 223.628 360.131 223.628C359.841 223.628 359.563 223.743 359.358 223.948C359.153 224.153 359.037 224.432 359.037 224.722C359.037 225.012 359.153 225.29 359.358 225.495C359.563 225.7 359.841 225.815 360.131 225.815Z" stroke="#25855A" stroke-linecap="round" stroke-linejoin="round"/>
</g>
<path d="M382.081 207.841V210.857H385.533V211.865H382.081V215.784H380.794V206.827H386.17L386.02 207.841H382.081ZM388.524 215.784V206.827H389.818V214.666H393.874L393.731 215.784H388.524ZM401.168 206.827V207.835H399.199V214.77H401.168V215.784H395.929V214.77H397.899V207.835H395.929V206.827H401.168ZM406.545 215.947C405.813 215.947 405.18 215.776 404.647 215.433C404.119 215.087 403.709 214.569 403.419 213.88C403.133 213.191 402.99 212.331 402.99 211.299C402.99 210.528 403.094 209.854 403.302 209.278C403.51 208.697 403.791 208.214 404.147 207.828C404.506 207.443 404.914 207.152 405.369 206.957C405.828 206.762 406.307 206.665 406.805 206.665C407.403 206.665 407.899 206.751 408.294 206.925C408.688 207.098 409.061 207.347 409.412 207.672L408.658 208.452C408.385 208.197 408.101 208.01 407.806 207.893C407.516 207.772 407.189 207.711 406.825 207.711C406.504 207.711 406.196 207.774 405.902 207.9C405.607 208.025 405.343 208.227 405.109 208.504C404.879 208.782 404.695 209.15 404.556 209.609C404.422 210.064 404.355 210.628 404.355 211.299C404.355 212.149 404.439 212.84 404.608 213.373C404.782 213.901 405.037 214.289 405.375 214.536C405.718 214.779 406.138 214.9 406.636 214.9C406.931 214.9 407.21 214.866 407.475 214.796C407.739 214.727 407.995 214.625 408.242 214.491V211.871H406.584L406.435 210.844H409.509V215.147C409.098 215.373 408.658 215.563 408.19 215.719C407.726 215.871 407.178 215.947 406.545 215.947ZM415.731 215.784V211.611H412.546V215.784H411.259V206.827H412.546V210.552H415.731V206.827H417.018V215.784H415.731ZM422.558 207.9V215.784H421.271V207.9H418.515V206.827H425.359L425.223 207.9H422.558ZM383.16 229.947C382.428 229.947 381.795 229.776 381.262 229.433C380.734 229.087 380.324 228.569 380.034 227.88C379.748 227.191 379.605 226.331 379.605 225.299C379.605 224.528 379.709 223.854 379.917 223.278C380.125 222.697 380.407 222.214 380.762 221.828C381.122 221.443 381.529 221.152 381.984 220.957C382.443 220.762 382.922 220.665 383.42 220.665C384.018 220.665 384.515 220.751 384.909 220.925C385.303 221.098 385.676 221.347 386.027 221.672L385.273 222.452C385 222.197 384.716 222.01 384.421 221.893C384.131 221.772 383.804 221.711 383.44 221.711C383.119 221.711 382.812 221.774 382.517 221.9C382.222 222.025 381.958 222.227 381.724 222.504C381.494 222.782 381.31 223.15 381.171 223.609C381.037 224.064 380.97 224.628 380.97 225.299C380.97 226.149 381.054 226.84 381.223 227.373C381.397 227.901 381.652 228.289 381.99 228.536C382.333 228.779 382.753 228.9 383.251 228.9C383.546 228.9 383.826 228.866 384.09 228.796C384.354 228.727 384.61 228.625 384.857 228.491V225.871H383.199L383.05 224.844H386.124V229.147C385.713 229.373 385.273 229.563 384.805 229.719C384.341 229.871 383.793 229.947 383.16 229.947ZM393.893 223.369C393.893 223.815 393.798 224.203 393.607 224.532C393.421 224.862 393.168 225.137 392.847 225.358C392.526 225.574 392.167 225.735 391.768 225.839L394.374 229.784H392.847L390.487 226.008H389.376V229.784H388.082V220.827H390.468C391.595 220.827 392.446 221.042 393.022 221.471C393.603 221.895 393.893 222.528 393.893 223.369ZM392.522 223.369C392.522 222.818 392.362 222.422 392.041 222.179C391.725 221.937 391.237 221.815 390.578 221.815H389.376V225.026H390.591C391.207 225.026 391.681 224.901 392.015 224.649C392.353 224.394 392.522 223.967 392.522 223.369ZM400.213 227.555H396.82L396.144 229.784H394.85L397.736 220.827H399.361L402.254 229.784H400.889L400.213 227.555ZM397.119 226.521H399.914L398.523 221.867L397.119 226.521ZM408.359 223.616C408.359 223.174 408.272 222.823 408.099 222.563C407.925 222.298 407.687 222.11 407.384 221.997C407.08 221.88 406.729 221.822 406.331 221.822H405.128V225.501H406.311C406.71 225.501 407.063 225.444 407.371 225.332C407.678 225.219 407.919 225.026 408.092 224.753C408.27 224.476 408.359 224.097 408.359 223.616ZM409.724 223.603C409.724 224.3 409.574 224.864 409.275 225.293C408.981 225.717 408.571 226.027 408.047 226.222C407.527 226.417 406.927 226.515 406.246 226.515H405.128V229.784H403.835V220.827H406.207C407.299 220.827 408.157 221.055 408.781 221.51C409.41 221.96 409.724 222.658 409.724 223.603ZM415.731 229.784V225.611H412.546V229.784H411.259V220.827H412.546V224.552H415.731V220.827H417.018V229.784H415.731ZM425.275 225.312C425.275 225.936 425.214 226.513 425.093 227.041C424.976 227.57 424.781 228.036 424.508 228.439C424.239 228.837 423.875 229.162 423.416 229.414C423.845 229.496 424.211 229.62 424.514 229.784C424.817 229.945 425.073 230.166 425.281 230.447C425.493 230.733 425.673 231.099 425.821 231.546L424.547 232.033C424.365 231.574 424.159 231.186 423.929 230.87C423.704 230.558 423.422 230.319 423.084 230.155C422.746 229.994 422.319 229.914 421.804 229.914C421.106 229.914 420.519 229.726 420.042 229.349C419.565 228.972 419.206 228.439 418.963 227.75C418.72 227.061 418.599 226.253 418.599 225.325C418.599 224.411 418.723 223.605 418.97 222.907C419.221 222.205 419.594 221.657 420.088 221.263C420.586 220.864 421.201 220.665 421.934 220.665C422.675 220.665 423.292 220.858 423.786 221.243C424.28 221.629 424.651 222.171 424.898 222.868C425.149 223.562 425.275 224.376 425.275 225.312ZM423.936 225.312C423.936 224.134 423.782 223.239 423.474 222.628C423.166 222.017 422.653 221.711 421.934 221.711C421.219 221.711 420.707 222.019 420.4 222.634C420.092 223.245 419.938 224.142 419.938 225.325C419.938 226.5 420.096 227.39 420.413 227.997C420.733 228.599 421.24 228.9 421.934 228.9C422.649 228.9 423.16 228.597 423.468 227.99C423.78 227.384 423.936 226.491 423.936 225.312ZM427.499 229.784V220.827H428.792V228.666H432.848L432.705 229.784H427.499ZM446.982 227.555H443.589L442.913 229.784H441.62L444.506 220.827H446.131L449.023 229.784H447.658L446.982 227.555ZM443.888 226.521H446.683L445.292 221.867L443.888 226.521ZM455.128 223.616C455.128 223.174 455.042 222.823 454.868 222.563C454.695 222.298 454.457 222.11 454.153 221.997C453.85 221.88 453.499 221.822 453.1 221.822H451.898V225.501H453.081C453.479 225.501 453.833 225.444 454.14 225.332C454.448 225.219 454.688 225.026 454.862 224.753C455.039 224.476 455.128 224.097 455.128 223.616ZM456.493 223.603C456.493 224.3 456.344 224.864 456.045 225.293C455.75 225.717 455.341 226.027 454.816 226.222C454.296 226.417 453.696 226.515 453.016 226.515H451.898V229.784H450.604V220.827H452.977C454.069 220.827 454.927 221.055 455.551 221.51C456.179 221.96 456.493 222.658 456.493 223.603ZM463.528 220.827V221.835H461.558V228.77H463.528V229.784H458.289V228.77H460.258V221.835H458.289V220.827H463.528Z" fill="#25855A"/>
<rect x="-1" y="1" width="441.207" height="110.745" rx="7" transform="matrix(-1 0 0 1 744 303.156)" fill="#C363FF" fill-opacity="0.1"/>
<rect x="-1" y="1" width="441.207" height="110.745" rx="7" transform="matrix(-1 0 0 1 744 303.156)" stroke="#7B00C7" stroke-width="2"/>
<rect x="555.147" y="323.906" width="170.103" height="71.2449" rx="5.25" fill="#FDFDFD"/>
<rect x="555.147" y="323.906" width="170.103" height="71.2449" rx="5.25" stroke="#7B00C7" stroke-width="1.5"/>
<path d="M586.068 359.529V363.529C586.068 363.529 586.068 365.529 590.734 365.529C595.401 365.529 595.401 363.529 595.401 363.529V359.529" stroke="#7B00C7"/>
<path d="M586.068 355.529V359.529C586.068 359.529 586.068 361.529 590.734 361.529C595.401 361.529 595.401 359.529 595.401 359.529V355.529" stroke="#7B00C7"/>
<path d="M590.734 353.529C595.401 353.529 595.401 355.529 595.401 355.529C595.401 355.529 595.401 357.529 590.734 357.529C586.068 357.529 586.068 355.529 586.068 355.529C586.068 355.529 586.068 353.529 590.734 353.529Z" stroke="#7B00C7"/>
<path d="M615.296 363.529V359.249H612.029V363.529H610.709V354.342H612.029V358.162H615.296V354.342H616.616V363.529H615.296ZM625.094 358.942C625.094 359.876 624.965 360.7 624.707 361.416C624.449 362.131 624.065 362.691 623.554 363.096C623.047 363.496 622.416 363.696 621.66 363.696C620.905 363.696 620.271 363.5 619.76 363.109C619.254 362.713 618.871 362.16 618.614 361.449C618.356 360.738 618.227 359.907 618.227 358.956C618.227 358.018 618.356 357.191 618.614 356.476C618.871 355.756 619.254 355.193 619.76 354.789C620.271 354.38 620.905 354.176 621.66 354.176C622.416 354.176 623.047 354.373 623.554 354.769C624.065 355.165 624.449 355.72 624.707 356.436C624.965 357.151 625.094 357.987 625.094 358.942ZM623.714 358.942C623.714 357.733 623.554 356.816 623.234 356.189C622.918 355.562 622.394 355.249 621.66 355.249C620.927 355.249 620.4 355.565 620.08 356.196C619.765 356.827 619.607 357.747 619.607 358.956C619.607 360.16 619.769 361.073 620.094 361.696C620.423 362.313 620.945 362.622 621.66 362.622C622.394 362.622 622.918 362.311 623.234 361.689C623.554 361.062 623.714 360.147 623.714 358.942ZM630.298 355.442V363.529H628.978V355.442H626.152V354.342H633.172L633.032 355.442H630.298ZM636.583 355.382V358.336H639.956V359.382H636.583V362.496H640.71V363.529H635.256V354.342H640.61L640.456 355.382H636.583ZM643.368 363.529V354.342H644.694V362.382H648.854L648.708 363.529H643.368ZM656.872 360.962C656.872 361.496 656.737 361.969 656.466 362.382C656.199 362.791 655.81 363.113 655.299 363.349C654.792 363.58 654.177 363.696 653.452 363.696C652.75 363.696 652.124 363.589 651.572 363.376C651.021 363.162 650.552 362.869 650.166 362.496L650.919 361.649C651.239 361.947 651.606 362.182 652.019 362.356C652.432 362.529 652.915 362.616 653.466 362.616C653.826 362.616 654.159 362.558 654.466 362.442C654.777 362.322 655.026 362.145 655.212 361.909C655.404 361.669 655.499 361.369 655.499 361.009C655.499 360.725 655.441 360.482 655.326 360.282C655.215 360.078 655.017 359.898 654.732 359.742C654.448 359.587 654.05 359.433 653.539 359.282C652.917 359.1 652.384 358.893 651.939 358.662C651.499 358.427 651.161 358.145 650.926 357.816C650.695 357.482 650.579 357.073 650.579 356.589C650.579 356.113 650.71 355.696 650.972 355.336C651.235 354.971 651.595 354.687 652.052 354.482C652.51 354.278 653.037 354.176 653.632 354.176C654.277 354.176 654.839 354.269 655.319 354.456C655.804 354.642 656.239 354.907 656.626 355.249L655.892 356.076C655.564 355.787 655.21 355.578 654.832 355.449C654.459 355.316 654.079 355.249 653.692 355.249C653.204 355.249 652.788 355.356 652.446 355.569C652.104 355.778 651.932 356.098 651.932 356.529C651.932 356.787 652.001 357.007 652.139 357.189C652.277 357.367 652.508 357.531 652.832 357.682C653.161 357.833 653.61 357.993 654.179 358.162C654.672 358.309 655.121 358.489 655.526 358.702C655.935 358.911 656.261 359.196 656.506 359.556C656.75 359.911 656.872 360.38 656.872 360.962ZM673.062 358.889C673.062 359.845 672.937 360.627 672.689 361.236C672.44 361.845 672.109 362.316 671.695 362.649C671.286 362.978 670.835 363.207 670.342 363.336C669.849 363.465 669.355 363.529 668.862 363.529H666.695V354.342H668.715C669.262 354.342 669.793 354.402 670.309 354.522C670.824 354.642 671.289 354.865 671.702 355.189C672.12 355.509 672.451 355.967 672.695 356.562C672.94 357.158 673.062 357.933 673.062 358.889ZM671.662 358.889C671.662 358.12 671.582 357.502 671.422 357.036C671.266 356.569 671.057 356.218 670.795 355.982C670.533 355.747 670.244 355.589 669.929 355.509C669.617 355.429 669.306 355.389 668.995 355.389H668.015V362.496H669.009C669.333 362.496 669.653 362.445 669.969 362.342C670.284 362.24 670.569 362.058 670.822 361.796C671.08 361.533 671.284 361.167 671.435 360.696C671.586 360.225 671.662 359.622 671.662 358.889ZM679.353 361.242H675.873L675.18 363.529H673.853L676.813 354.342H678.48L681.447 363.529H680.047L679.353 361.242ZM676.18 360.182H679.047L677.62 355.409L676.18 360.182ZM686.285 355.442V363.529H684.965V355.442H682.138V354.342H689.158L689.018 355.442H686.285ZM695.349 361.242H691.869L691.176 363.529H689.849L692.809 354.342H694.476L697.443 363.529H696.043L695.349 361.242ZM692.176 360.182H695.043L693.616 355.409L692.176 360.182Z" fill="#7B00C7"/>
<path d="M554.397 359.529H494.397" stroke="#7B00C7" stroke-width="2"/>
<rect x="323.543" y="323.906" width="170.103" height="71.2449" rx="5.25" fill="#FDFDFD"/>
<rect x="323.543" y="323.906" width="170.103" height="71.2449" rx="5.25" stroke="#7B00C7" stroke-width="1.5"/>
<path d="M364.203 362.185H356.052M364.353 362.908L361.061 364.903M354.975 361.248C355.265 361.248 355.543 361.363 355.748 361.568C355.953 361.773 356.069 362.051 356.069 362.342C356.069 362.632 355.953 362.91 355.748 363.115C355.543 363.32 355.265 363.435 354.975 363.435C354.685 363.435 354.407 363.32 354.201 363.115C353.996 362.91 353.881 362.632 353.881 362.342C353.881 362.051 353.996 361.773 354.201 361.568C354.407 361.363 354.685 361.248 354.975 361.248ZM354.975 361.248V357.808M365.287 361.248C365.577 361.248 365.856 361.363 366.061 361.568C366.266 361.773 366.381 362.051 366.381 362.342C366.381 362.632 366.266 362.91 366.061 363.115C365.856 363.32 365.577 363.435 365.287 363.435C364.997 363.435 364.719 363.32 364.514 363.115C364.309 362.91 364.194 362.632 364.194 362.342C364.194 362.051 364.309 361.773 364.514 361.568C364.719 361.363 364.997 361.248 365.287 361.248ZM365.287 361.248V357.808M359.724 354.601L355.678 361.517M360.539 354.601L364.584 361.517M359.195 354.158L355.909 356.15M355.909 362.908L359.201 364.903M361.067 354.158L364.353 356.15M360.131 354.685C360.421 354.685 360.699 354.57 360.905 354.365C361.11 354.16 361.225 353.882 361.225 353.592C361.225 353.301 361.11 353.023 360.905 352.818C360.699 352.613 360.421 352.498 360.131 352.498C359.841 352.498 359.563 352.613 359.358 352.818C359.153 353.023 359.037 353.301 359.037 353.592C359.037 353.882 359.153 354.16 359.358 354.365C359.563 354.57 359.841 354.685 360.131 354.685ZM354.975 357.81C355.265 357.81 355.543 357.695 355.748 357.49C355.953 357.285 356.069 357.007 356.069 356.717C356.069 356.426 355.953 356.148 355.748 355.943C355.543 355.738 355.265 355.623 354.975 355.623C354.685 355.623 354.407 355.738 354.201 355.943C353.996 356.148 353.881 356.426 353.881 356.717C353.881 357.007 353.996 357.285 354.201 357.49C354.407 357.695 354.685 357.81 354.975 357.81ZM365.287 357.81C365.577 357.81 365.856 357.695 366.061 357.49C366.266 357.285 366.381 357.007 366.381 356.717C366.381 356.426 366.266 356.148 366.061 355.943C365.856 355.738 365.577 355.623 365.287 355.623C364.997 355.623 364.719 355.738 364.514 355.943C364.309 356.148 364.194 356.426 364.194 356.717C364.194 357.007 364.309 357.285 364.514 357.49C364.719 357.695 364.997 357.81 365.287 357.81ZM360.131 366.56C360.421 366.56 360.699 366.445 360.905 366.24C361.11 366.035 361.225 365.757 361.225 365.467C361.225 365.176 361.11 364.898 360.905 364.693C360.699 364.488 360.421 364.373 360.131 364.373C359.841 364.373 359.563 364.488 359.358 364.693C359.153 364.898 359.037 365.176 359.037 365.467C359.037 365.757 359.153 366.035 359.358 366.24C359.563 366.445 359.841 366.56 360.131 366.56Z" stroke="#7B00C7" stroke-linecap="round" stroke-linejoin="round"/>
<path d="M382.801 356.529V352.356H379.616V356.529H378.329V347.572H379.616V351.297H382.801V347.572H384.088V356.529H382.801ZM392.351 352.057C392.351 352.967 392.226 353.771 391.974 354.469C391.723 355.166 391.348 355.712 390.85 356.107C390.356 356.497 389.741 356.692 389.004 356.692C388.272 356.692 387.656 356.501 387.158 356.12C386.66 355.734 386.285 355.194 386.033 354.501C385.782 353.808 385.656 352.997 385.656 352.07C385.656 351.156 385.782 350.35 386.033 349.652C386.285 348.95 386.66 348.402 387.158 348.008C387.656 347.609 388.272 347.41 389.004 347.41C389.741 347.41 390.356 347.602 390.85 347.988C391.348 348.374 391.723 348.915 391.974 349.613C392.226 350.306 392.351 351.121 392.351 352.057ZM391.006 352.057C391.006 350.878 390.85 349.984 390.538 349.373C390.23 348.762 389.719 348.456 389.004 348.456C388.289 348.456 387.775 348.764 387.463 349.379C387.156 349.994 387.002 350.891 387.002 352.07C387.002 353.244 387.162 354.135 387.483 354.742C387.804 355.344 388.311 355.645 389.004 355.645C389.719 355.645 390.23 355.342 390.538 354.735C390.85 354.128 391.006 353.236 391.006 352.057ZM397.423 348.645V356.529H396.136V348.645H393.38V347.572H400.224L400.088 348.645H397.423ZM403.547 348.586V351.466H406.836V352.486H403.547V355.522H407.571V356.529H402.254V347.572H407.473L407.324 348.586H403.547ZM410.159 356.529V347.572H411.453V355.411H415.509L415.366 356.529H410.159ZM423.323 354.027C423.323 354.547 423.191 355.008 422.927 355.411C422.667 355.81 422.29 356.124 421.796 356.354C421.302 356.579 420.699 356.692 419.989 356.692C419.304 356.692 418.693 356.588 418.156 356.38C417.618 356.172 417.161 355.886 416.784 355.522L417.519 354.696C417.831 354.986 418.188 355.216 418.591 355.385C418.994 355.554 419.464 355.639 420.002 355.639C420.353 355.639 420.678 355.582 420.977 355.47C421.28 355.353 421.523 355.179 421.705 354.95C421.891 354.716 421.984 354.423 421.984 354.072C421.984 353.79 421.928 353.552 421.815 353.357C421.707 353.162 421.514 352.989 421.237 352.837C420.959 352.685 420.571 352.536 420.073 352.389C419.466 352.207 418.946 352.005 418.513 351.784C418.084 351.559 417.755 351.284 417.525 350.959C417.3 350.634 417.187 350.235 417.187 349.763C417.187 349.299 417.315 348.892 417.571 348.541C417.826 348.185 418.177 347.908 418.624 347.709C419.074 347.509 419.588 347.41 420.164 347.41C420.792 347.41 421.341 347.501 421.809 347.683C422.281 347.86 422.706 348.118 423.083 348.456L422.368 349.262C422.051 348.98 421.709 348.777 421.341 348.651C420.972 348.521 420.6 348.456 420.223 348.456C419.906 348.456 419.618 348.504 419.358 348.599C419.098 348.69 418.89 348.827 418.734 349.009C418.582 349.191 418.507 349.422 418.507 349.704C418.507 349.951 418.574 350.163 418.708 350.341C418.842 350.514 419.07 350.677 419.391 350.829C419.711 350.976 420.147 351.132 420.697 351.297C421.178 351.435 421.618 351.609 422.017 351.817C422.415 352.025 422.732 352.304 422.966 352.655C423.204 353.002 423.323 353.459 423.323 354.027ZM381.41 370.692C380.678 370.692 380.045 370.52 379.512 370.178C378.984 369.831 378.574 369.314 378.284 368.625C377.998 367.936 377.855 367.075 377.855 366.044C377.855 365.273 377.959 364.599 378.167 364.023C378.375 363.442 378.657 362.959 379.012 362.573C379.372 362.187 379.779 361.897 380.234 361.702C380.693 361.507 381.172 361.41 381.67 361.41C382.268 361.41 382.765 361.496 383.159 361.67C383.553 361.843 383.926 362.092 384.277 362.417L383.523 363.197C383.25 362.941 382.966 362.755 382.671 362.638C382.381 362.517 382.054 362.456 381.69 362.456C381.369 362.456 381.062 362.519 380.767 362.645C380.472 362.77 380.208 362.972 379.974 363.249C379.744 363.526 379.56 363.895 379.421 364.354C379.287 364.809 379.22 365.372 379.22 366.044C379.22 366.893 379.304 367.585 379.473 368.118C379.647 368.646 379.902 369.034 380.24 369.281C380.583 369.524 381.003 369.645 381.501 369.645C381.796 369.645 382.076 369.61 382.34 369.541C382.604 369.472 382.86 369.37 383.107 369.236V366.616H381.449L381.3 365.589H384.374V369.892C383.963 370.117 383.523 370.308 383.055 370.464C382.591 370.616 382.043 370.692 381.41 370.692ZM392.143 364.114C392.143 364.56 392.048 364.948 391.857 365.277C391.671 365.606 391.418 365.882 391.097 366.103C390.776 366.319 390.417 366.48 390.018 366.584L392.624 370.529H391.097L388.737 366.753H387.626V370.529H386.332V361.572H388.718C389.845 361.572 390.696 361.787 391.272 362.216C391.853 362.64 392.143 363.273 392.143 364.114ZM390.772 364.114C390.772 363.563 390.612 363.167 390.291 362.924C389.975 362.681 389.487 362.56 388.828 362.56H387.626V365.771H388.841C389.457 365.771 389.931 365.645 390.265 365.394C390.603 365.138 390.772 364.712 390.772 364.114ZM398.463 368.3H395.07L394.394 370.529H393.1L395.986 361.572H397.611L400.504 370.529H399.139L398.463 368.3ZM395.369 367.266H398.164L396.773 362.612L395.369 367.266ZM406.609 364.361C406.609 363.919 406.522 363.568 406.349 363.308C406.175 363.043 405.937 362.855 405.634 362.742C405.33 362.625 404.979 362.567 404.581 362.567H403.378V366.246H404.561C404.96 366.246 405.313 366.189 405.621 366.077C405.928 365.964 406.169 365.771 406.342 365.498C406.52 365.221 406.609 364.842 406.609 364.361ZM407.974 364.348C407.974 365.045 407.824 365.609 407.525 366.038C407.231 366.462 406.821 366.772 406.297 366.967C405.777 367.162 405.177 367.26 404.496 367.26H403.378V370.529H402.085V361.572H404.457C405.549 361.572 406.407 361.8 407.031 362.255C407.66 362.705 407.974 363.403 407.974 364.348ZM413.981 370.529V366.356H410.796V370.529H409.509V361.572H410.796V365.297H413.981V361.572H415.268V370.529H413.981ZM423.525 366.057C423.525 366.681 423.464 367.257 423.343 367.786C423.226 368.315 423.031 368.781 422.758 369.184C422.489 369.582 422.125 369.907 421.666 370.159C422.095 370.241 422.461 370.364 422.764 370.529C423.067 370.689 423.323 370.91 423.531 371.192C423.743 371.478 423.923 371.844 424.071 372.291L422.797 372.778C422.615 372.319 422.409 371.931 422.179 371.615C421.954 371.303 421.672 371.064 421.334 370.9C420.996 370.739 420.569 370.659 420.054 370.659C419.356 370.659 418.769 370.471 418.292 370.094C417.815 369.717 417.456 369.184 417.213 368.495C416.97 367.806 416.849 366.997 416.849 366.07C416.849 365.156 416.973 364.35 417.22 363.652C417.471 362.95 417.844 362.402 418.338 362.008C418.836 361.609 419.451 361.41 420.184 361.41C420.925 361.41 421.542 361.602 422.036 361.988C422.53 362.374 422.901 362.915 423.148 363.613C423.399 364.306 423.525 365.121 423.525 366.057ZM422.186 366.057C422.186 364.878 422.032 363.984 421.724 363.373C421.416 362.762 420.903 362.456 420.184 362.456C419.469 362.456 418.957 362.764 418.65 363.379C418.342 363.99 418.188 364.887 418.188 366.07C418.188 367.244 418.346 368.135 418.663 368.742C418.983 369.344 419.49 369.645 420.184 369.645C420.899 369.645 421.41 369.342 421.718 368.735C422.03 368.128 422.186 367.236 422.186 366.057ZM425.749 370.529V361.572H427.042V369.411H431.098L430.955 370.529H425.749ZM445.232 368.3H441.839L441.163 370.529H439.87L442.756 361.572H444.381L447.273 370.529H445.908L445.232 368.3ZM442.138 367.266H444.933L443.542 362.612L442.138 367.266ZM453.378 364.361C453.378 363.919 453.292 363.568 453.118 363.308C452.945 363.043 452.707 362.855 452.403 362.742C452.1 362.625 451.749 362.567 451.35 362.567H450.148V366.246H451.331C451.729 366.246 452.083 366.189 452.39 366.077C452.698 365.964 452.938 365.771 453.112 365.498C453.289 365.221 453.378 364.842 453.378 364.361ZM454.743 364.348C454.743 365.045 454.594 365.609 454.295 366.038C454 366.462 453.591 366.772 453.066 366.967C452.546 367.162 451.946 367.26 451.266 367.26H450.148V370.529H448.854V361.572H451.227C452.319 361.572 453.177 361.8 453.801 362.255C454.429 362.705 454.743 363.403 454.743 364.348ZM461.778 361.572V362.58H459.808V369.515H461.778V370.529H456.539V369.515H458.508V362.58H456.539V361.572H461.778Z" fill="#7B00C7"/>
<path d="M203.322 199.243H252.134C257.105 199.243 261.134 195.213 261.134 190.243V86.8219C261.134 81.8513 265.163 77.8219 270.134 77.8219H322.01" stroke="#467B95" stroke-width="2" stroke-dasharray="4 4"/>
<path d="M203.322 238.822H251.134C256.105 238.822 260.134 242.851 260.134 247.822V351.243C260.134 356.213 264.163 360.243 269.134 360.243H322.01" stroke="#467B95" stroke-width="2" stroke-dasharray="4 4"/>
<defs>
<clipPath id="clip0_451_355">
<rect width="16" height="16" fill="white" transform="translate(35.7239 220.284)"/>
</clipPath>
<clipPath id="clip1_451_355">
<rect width="13.3333" height="13.3333" fill="white" transform="translate(58.3905 221.618)"/>
</clipPath>
<clipPath id="clip2_451_355">
<rect width="16" height="16" fill="white" transform="translate(79.7239 220.284)"/>
</clipPath>
<clipPath id="clip3_451_355">
<rect width="16" height="16" fill="white" transform="translate(363.631 70.0392)"/>
</clipPath>
<clipPath id="clip4_451_355">
<rect width="16" height="16" fill="white" transform="translate(352.131 210.784)"/>
</clipPath>
</defs>
</svg>
