<svg width="819" height="328" viewBox="0 0 819 328" fill="none" xmlns="http://www.w3.org/2000/svg">
<path d="M198.278 169.568H318.396" stroke="#467B95" stroke-width="2" stroke-dasharray="4 4"/>
<rect x="-1" y="1" width="581.015" height="299.135" rx="7" transform="matrix(-1 0 0 1 815 19)" stroke="#B03900" stroke-width="2"/>
<rect x="626.147" y="39.75" width="170.103" height="71.2449" rx="5.25" fill="#FDFDFD"/>
<rect x="626.147" y="39.75" width="170.103" height="71.2449" rx="5.25" stroke="#AF9200" stroke-width="1.5"/>
<g clip-path="url(#clip0_451_290)">
<path d="M670.806 78.0288H662.655M670.956 78.7513L667.664 80.7463M661.578 77.0913C661.868 77.0913 662.146 77.2065 662.352 77.4117C662.557 77.6168 662.672 77.895 662.672 78.1851C662.672 78.4751 662.557 78.7533 662.352 78.9585C662.146 79.1636 661.868 79.2788 661.578 79.2788C661.288 79.2788 661.01 79.1636 660.805 78.9585C660.6 78.7533 660.484 78.4751 660.484 78.1851C660.484 77.895 660.6 77.6168 660.805 77.4117C661.01 77.2065 661.288 77.0913 661.578 77.0913ZM661.578 77.0913V73.6519M671.891 77.0913C672.181 77.0913 672.459 77.2065 672.664 77.4117C672.869 77.6168 672.984 77.895 672.984 78.1851C672.984 78.4751 672.869 78.7533 672.664 78.9585C672.459 79.1636 672.181 79.2788 671.891 79.2788C671.601 79.2788 671.322 79.1636 671.117 78.9585C670.912 78.7533 670.797 78.4751 670.797 78.1851C670.797 77.895 670.912 77.6168 671.117 77.4117C671.322 77.2065 671.601 77.0913 671.891 77.0913ZM671.891 77.0913V73.6519M666.327 70.4444L662.281 77.3601M667.142 70.4444L671.188 77.3607M665.799 70.0019L662.513 71.9938M662.513 78.7513L665.804 80.7463M667.67 70.0019L670.956 71.9938M666.734 70.5288C667.024 70.5288 667.303 70.4136 667.508 70.2085C667.713 70.0033 667.828 69.7251 667.828 69.4351C667.828 69.145 667.713 68.8668 667.508 68.6617C667.303 68.4565 667.024 68.3413 666.734 68.3413C666.444 68.3413 666.166 68.4565 665.961 68.6617C665.756 68.8668 665.641 69.145 665.641 69.4351C665.641 69.7251 665.756 70.0033 665.961 70.2085C666.166 70.4136 666.444 70.5288 666.734 70.5288ZM661.578 73.6538C661.868 73.6538 662.146 73.5386 662.352 73.3335C662.557 73.1283 662.672 72.8501 662.672 72.5601C662.672 72.27 662.557 71.9918 662.352 71.7867C662.146 71.5815 661.868 71.4663 661.578 71.4663C661.288 71.4663 661.01 71.5815 660.805 71.7867C660.6 71.9918 660.484 72.27 660.484 72.5601C660.484 72.8501 660.6 73.1283 660.805 73.3335C661.01 73.5386 661.288 73.6538 661.578 73.6538ZM671.891 73.6538C672.181 73.6538 672.459 73.5386 672.664 73.3335C672.869 73.1283 672.984 72.8501 672.984 72.5601C672.984 72.27 672.869 71.9918 672.664 71.7867C672.459 71.5815 672.181 71.4663 671.891 71.4663C671.601 71.4663 671.322 71.5815 671.117 71.7867C670.912 71.9918 670.797 72.27 670.797 72.5601C670.797 72.8501 670.912 73.1283 671.117 73.3335C671.322 73.5386 671.601 73.6538 671.891 73.6538ZM666.734 82.4038C667.024 82.4038 667.303 82.2886 667.508 82.0835C667.713 81.8783 667.828 81.6001 667.828 81.3101C667.828 81.02 667.713 80.7418 667.508 80.5367C667.303 80.3315 667.024 80.2163 666.734 80.2163C666.444 80.2163 666.166 80.3315 665.961 80.5367C665.756 80.7418 665.641 81.02 665.641 81.3101C665.641 81.6001 665.756 81.8783 665.961 82.0835C666.166 82.2886 666.444 82.4038 666.734 82.4038Z" stroke="#AF9200" stroke-linecap="round" stroke-linejoin="round"/>
</g>
<path d="M692.702 76.8701C692.702 77.3901 692.57 77.8516 692.305 78.2546C692.045 78.6532 691.668 78.9674 691.174 79.1971C690.68 79.4224 690.078 79.5351 689.367 79.5351C688.683 79.5351 688.072 79.4311 687.534 79.2231C686.997 79.0151 686.54 78.7291 686.163 78.3651L686.897 77.5396C687.209 77.8299 687.567 78.0596 687.97 78.2286C688.373 78.3976 688.843 78.4821 689.38 78.4821C689.731 78.4821 690.056 78.4257 690.355 78.3131C690.659 78.1961 690.901 78.0227 691.083 77.7931C691.27 77.5591 691.363 77.2666 691.363 76.9156C691.363 76.6339 691.306 76.3956 691.194 76.2006C691.085 76.0056 690.893 75.8322 690.615 75.6806C690.338 75.5289 689.95 75.3794 689.452 75.2321C688.845 75.0501 688.325 74.8486 687.892 74.6276C687.463 74.4022 687.133 74.1271 686.904 73.8021C686.678 73.4771 686.566 73.0784 686.566 72.6061C686.566 72.1424 686.694 71.7351 686.949 71.3841C687.205 71.0287 687.556 70.7514 688.002 70.5521C688.453 70.3527 688.966 70.2531 689.543 70.2531C690.171 70.2531 690.719 70.3441 691.187 70.5261C691.66 70.7037 692.084 70.9616 692.461 71.2996L691.746 72.1056C691.43 71.8239 691.088 71.6202 690.719 71.4946C690.351 71.3646 689.978 71.2996 689.601 71.2996C689.285 71.2996 688.997 71.3472 688.737 71.4426C688.477 71.5336 688.269 71.6701 688.113 71.8521C687.961 72.0341 687.885 72.2659 687.885 72.5476C687.885 72.7946 687.952 73.0069 688.087 73.1846C688.221 73.3579 688.449 73.5204 688.769 73.6721C689.09 73.8194 689.525 73.9754 690.076 74.1401C690.557 74.2787 690.997 74.4521 691.395 74.6601C691.794 74.8681 692.11 75.1476 692.344 75.4986C692.583 75.8452 692.702 76.3024 692.702 76.8701ZM700.38 70.4156V76.4541C700.38 77.0607 700.256 77.5959 700.009 78.0596C699.766 78.5189 699.418 78.8807 698.963 79.1451C698.512 79.4051 697.972 79.5351 697.344 79.5351C696.711 79.5351 696.17 79.4051 695.719 79.1451C695.268 78.8851 694.924 78.5232 694.686 78.0596C694.452 77.5959 694.335 77.0607 694.335 76.4541V70.4156H695.622V76.3566C695.622 77.0586 695.767 77.5851 696.057 77.9361C696.347 78.2871 696.776 78.4626 697.344 78.4626C697.92 78.4626 698.354 78.2871 698.644 77.9361C698.934 77.5851 699.08 77.0586 699.08 76.3566V70.4156H700.38ZM706.979 76.8246C706.979 76.3956 706.894 76.0641 706.725 75.8301C706.56 75.5917 706.337 75.4271 706.056 75.3361C705.778 75.2451 705.471 75.1996 705.133 75.1996H703.709V78.3391H705.074C705.291 78.3391 705.51 78.3196 705.731 78.2806C705.956 78.2416 706.162 78.1679 706.348 78.0596C706.539 77.9512 706.69 77.7974 706.803 77.5981C706.92 77.3987 706.979 77.1409 706.979 76.8246ZM706.628 72.7621C706.628 72.2767 706.476 71.9322 706.173 71.7286C705.874 71.5206 705.46 71.4166 704.931 71.4166H703.709V74.1856H705.035C705.555 74.1856 705.949 74.0729 706.218 73.8476C706.491 73.6222 706.628 73.2604 706.628 72.7621ZM708.331 76.8051C708.331 77.2991 708.233 77.7107 708.038 78.0401C707.847 78.3694 707.587 78.6316 707.258 78.8266C706.933 79.0216 706.567 79.1624 706.16 79.2491C705.757 79.3314 705.343 79.3726 704.918 79.3726H702.422V70.4156H704.73C705.133 70.4156 705.525 70.4524 705.906 70.5261C706.287 70.5954 706.63 70.7167 706.933 70.8901C707.241 71.0591 707.486 71.2909 707.668 71.5856C707.85 71.8759 707.941 72.2399 707.941 72.6776C707.941 73.0546 707.86 73.3774 707.7 73.6461C707.544 73.9104 707.34 74.1249 707.089 74.2896C706.838 74.4499 706.569 74.5626 706.283 74.6276C706.612 74.6839 706.933 74.7879 707.245 74.9396C707.561 75.0869 707.821 75.3101 708.025 75.6091C708.229 75.9037 708.331 76.3024 708.331 76.8051ZM713.148 79.5351C712.416 79.5351 711.783 79.3639 711.25 79.0216C710.722 78.6749 710.312 78.1571 710.022 77.4681C709.736 76.7791 709.593 75.9189 709.593 74.8876C709.593 74.1162 709.697 73.4424 709.905 72.8661C710.113 72.2854 710.395 71.8022 710.75 71.4166C711.11 71.0309 711.517 70.7406 711.972 70.5456C712.431 70.3506 712.91 70.2531 713.408 70.2531C714.006 70.2531 714.503 70.3397 714.897 70.5131C715.291 70.6864 715.664 70.9356 716.015 71.2606L715.261 72.0406C714.988 71.7849 714.704 71.5986 714.409 71.4816C714.119 71.3602 713.792 71.2996 713.428 71.2996C713.107 71.2996 712.8 71.3624 712.505 71.4881C712.21 71.6137 711.946 71.8152 711.712 72.0926C711.482 72.3699 711.298 72.7382 711.159 73.1976C711.025 73.6526 710.958 74.2159 710.958 74.8876C710.958 75.7369 711.042 76.4281 711.211 76.9611C711.385 77.4897 711.64 77.8776 711.978 78.1246C712.321 78.3672 712.741 78.4886 713.239 78.4886C713.534 78.4886 713.814 78.4539 714.078 78.3846C714.342 78.3152 714.598 78.2134 714.845 78.0791V75.4596H713.187L713.038 74.4326H716.112V78.7356C715.701 78.9609 715.261 79.1516 714.793 79.3076C714.329 79.4592 713.781 79.5351 713.148 79.5351ZM723.881 72.9571C723.881 73.4034 723.786 73.7912 723.595 74.1206C723.409 74.4499 723.156 74.7251 722.835 74.9461C722.514 75.1627 722.155 75.3231 721.756 75.4271L724.362 79.3726H722.835L720.475 75.5961H719.364V79.3726H718.07V70.4156H720.456C721.583 70.4156 722.434 70.6301 723.01 71.0591C723.591 71.4837 723.881 72.1164 723.881 72.9571ZM722.51 72.9571C722.51 72.4067 722.35 72.0102 722.029 71.7676C721.713 71.5249 721.225 71.4036 720.566 71.4036H719.364V74.6146H720.579C721.195 74.6146 721.669 74.4889 722.003 74.2376C722.341 73.9819 722.51 73.5551 722.51 72.9571ZM730.201 77.1431H726.808L726.132 79.3726H724.838L727.724 70.4156H729.349L732.242 79.3726H730.877L730.201 77.1431ZM727.107 76.1096H729.902L728.511 71.4556L727.107 76.1096ZM738.347 73.2041C738.347 72.7621 738.26 72.4111 738.087 72.1511C737.913 71.8867 737.675 71.6982 737.372 71.5856C737.068 71.4686 736.717 71.4101 736.319 71.4101H735.116V75.0891H736.299C736.698 75.0891 737.051 75.0327 737.359 74.9201C737.666 74.8074 737.907 74.6146 738.08 74.3416C738.258 74.0642 738.347 73.6851 738.347 73.2041ZM739.712 73.1911C739.712 73.8887 739.562 74.4521 739.263 74.8811C738.969 75.3057 738.559 75.6156 738.035 75.8106C737.515 76.0056 736.915 76.1031 736.234 76.1031H735.116V79.3726H733.823V70.4156H736.195C737.287 70.4156 738.145 70.6431 738.769 71.0981C739.398 71.5487 739.712 72.2464 739.712 73.1911ZM745.719 79.3726V75.1996H742.534V79.3726H741.247V70.4156H742.534V74.1401H745.719V70.4156H747.006V79.3726H745.719ZM761.381 77.1431H757.988L757.312 79.3726H756.018L758.904 70.4156H760.529L763.422 79.3726H762.057L761.381 77.1431ZM758.287 76.1096H761.082L759.691 71.4556L758.287 76.1096Z" fill="#AF9200"/>
<rect x="626.147" y="133.945" width="170.103" height="71.2449" rx="5.25" fill="#FDFDFD"/>
<rect x="626.147" y="133.945" width="170.103" height="71.2449" rx="5.25" stroke="#25855A" stroke-width="1.5"/>
<g clip-path="url(#clip1_451_290)">
<path d="M670.806 172.224H662.655M670.956 172.947L667.664 174.942M661.578 171.287C661.868 171.287 662.146 171.402 662.352 171.607C662.557 171.812 662.672 172.09 662.672 172.38C662.672 172.67 662.557 172.949 662.352 173.154C662.146 173.359 661.868 173.474 661.578 173.474C661.288 173.474 661.01 173.359 660.805 173.154C660.6 172.949 660.484 172.67 660.484 172.38C660.484 172.09 660.6 171.812 660.805 171.607C661.01 171.402 661.288 171.287 661.578 171.287ZM661.578 171.287V167.847M671.891 171.287C672.181 171.287 672.459 171.402 672.664 171.607C672.869 171.812 672.984 172.09 672.984 172.38C672.984 172.67 672.869 172.949 672.664 173.154C672.459 173.359 672.181 173.474 671.891 173.474C671.601 173.474 671.322 173.359 671.117 173.154C670.912 172.949 670.797 172.67 670.797 172.38C670.797 172.09 670.912 171.812 671.117 171.607C671.322 171.402 671.601 171.287 671.891 171.287ZM671.891 171.287V167.847M666.327 164.64L662.281 171.555M667.142 164.64L671.188 171.556M665.799 164.197L662.513 166.189M662.513 172.947L665.804 174.942M667.67 164.197L670.956 166.189M666.734 164.724C667.024 164.724 667.303 164.609 667.508 164.404C667.713 164.199 667.828 163.92 667.828 163.63C667.828 163.34 667.713 163.062 667.508 162.857C667.303 162.652 667.024 162.537 666.734 162.537C666.444 162.537 666.166 162.652 665.961 162.857C665.756 163.062 665.641 163.34 665.641 163.63C665.641 163.92 665.756 164.199 665.961 164.404C666.166 164.609 666.444 164.724 666.734 164.724ZM661.578 167.849C661.868 167.849 662.146 167.734 662.352 167.529C662.557 167.324 662.672 167.045 662.672 166.755C662.672 166.465 662.557 166.187 662.352 165.982C662.146 165.777 661.868 165.662 661.578 165.662C661.288 165.662 661.01 165.777 660.805 165.982C660.6 166.187 660.484 166.465 660.484 166.755C660.484 167.045 660.6 167.324 660.805 167.529C661.01 167.734 661.288 167.849 661.578 167.849ZM671.891 167.849C672.181 167.849 672.459 167.734 672.664 167.529C672.869 167.324 672.984 167.045 672.984 166.755C672.984 166.465 672.869 166.187 672.664 165.982C672.459 165.777 672.181 165.662 671.891 165.662C671.601 165.662 671.322 165.777 671.117 165.982C670.912 166.187 670.797 166.465 670.797 166.755C670.797 167.045 670.912 167.324 671.117 167.529C671.322 167.734 671.601 167.849 671.891 167.849ZM666.734 176.599C667.024 176.599 667.303 176.484 667.508 176.279C667.713 176.074 667.828 175.795 667.828 175.505C667.828 175.215 667.713 174.937 667.508 174.732C667.303 174.527 667.024 174.412 666.734 174.412C666.444 174.412 666.166 174.527 665.961 174.732C665.756 174.937 665.641 175.215 665.641 175.505C665.641 175.795 665.756 176.074 665.961 176.279C666.166 176.484 666.444 176.599 666.734 176.599Z" stroke="#25855A" stroke-linecap="round" stroke-linejoin="round"/>
</g>
<path d="M692.702 171.065C692.702 171.585 692.57 172.047 692.305 172.45C692.045 172.849 691.668 173.163 691.174 173.392C690.68 173.618 690.078 173.73 689.367 173.73C688.683 173.73 688.072 173.626 687.534 173.418C686.997 173.21 686.54 172.924 686.163 172.56L686.897 171.735C687.209 172.025 687.567 172.255 687.97 172.424C688.373 172.593 688.843 172.677 689.38 172.677C689.731 172.677 690.056 172.621 690.355 172.508C690.659 172.391 690.901 172.218 691.083 171.988C691.27 171.754 691.363 171.462 691.363 171.111C691.363 170.829 691.306 170.591 691.194 170.396C691.085 170.201 690.893 170.028 690.615 169.876C690.338 169.724 689.95 169.575 689.452 169.427C688.845 169.245 688.325 169.044 687.892 168.823C687.463 168.598 687.133 168.322 686.904 167.997C686.678 167.672 686.566 167.274 686.566 166.801C686.566 166.338 686.694 165.93 686.949 165.579C687.205 165.224 687.556 164.947 688.002 164.747C688.453 164.548 688.966 164.448 689.543 164.448C690.171 164.448 690.719 164.539 691.187 164.721C691.66 164.899 692.084 165.157 692.461 165.495L691.746 166.301C691.43 166.019 691.088 165.816 690.719 165.69C690.351 165.56 689.978 165.495 689.601 165.495C689.285 165.495 688.997 165.543 688.737 165.638C688.477 165.729 688.269 165.865 688.113 166.047C687.961 166.229 687.885 166.461 687.885 166.743C687.885 166.99 687.952 167.202 688.087 167.38C688.221 167.553 688.449 167.716 688.769 167.867C689.09 168.015 689.525 168.171 690.076 168.335C690.557 168.474 690.997 168.647 691.395 168.855C691.794 169.063 692.11 169.343 692.344 169.694C692.583 170.041 692.702 170.498 692.702 171.065ZM700.38 164.611V170.649C700.38 171.256 700.256 171.791 700.009 172.255C699.766 172.714 699.418 173.076 698.963 173.34C698.512 173.6 697.972 173.73 697.344 173.73C696.711 173.73 696.17 173.6 695.719 173.34C695.268 173.08 694.924 172.719 694.686 172.255C694.452 171.791 694.335 171.256 694.335 170.649V164.611H695.622V170.552C695.622 171.254 695.767 171.78 696.057 172.131C696.347 172.482 696.776 172.658 697.344 172.658C697.92 172.658 698.354 172.482 698.644 172.131C698.934 171.78 699.08 171.254 699.08 170.552V164.611H700.38ZM706.979 171.02C706.979 170.591 706.894 170.259 706.725 170.025C706.56 169.787 706.337 169.622 706.056 169.531C705.778 169.44 705.471 169.395 705.133 169.395H703.709V172.534H705.074C705.291 172.534 705.51 172.515 705.731 172.476C705.956 172.437 706.162 172.363 706.348 172.255C706.539 172.147 706.69 171.993 706.803 171.793C706.92 171.594 706.979 171.336 706.979 171.02ZM706.628 166.957C706.628 166.472 706.476 166.128 706.173 165.924C705.874 165.716 705.46 165.612 704.931 165.612H703.709V168.381H705.035C705.555 168.381 705.949 168.268 706.218 168.043C706.491 167.818 706.628 167.456 706.628 166.957ZM708.331 171C708.331 171.494 708.233 171.906 708.038 172.235C707.847 172.565 707.587 172.827 707.258 173.022C706.933 173.217 706.567 173.358 706.16 173.444C705.757 173.527 705.343 173.568 704.918 173.568H702.422V164.611H704.73C705.133 164.611 705.525 164.648 705.906 164.721C706.287 164.791 706.63 164.912 706.933 165.085C707.241 165.254 707.486 165.486 707.668 165.781C707.85 166.071 707.941 166.435 707.941 166.873C707.941 167.25 707.86 167.573 707.7 167.841C707.544 168.106 707.34 168.32 707.089 168.485C706.838 168.645 706.569 168.758 706.283 168.823C706.612 168.879 706.933 168.983 707.245 169.135C707.561 169.282 707.821 169.505 708.025 169.804C708.229 170.099 708.331 170.498 708.331 171ZM713.148 173.73C712.416 173.73 711.783 173.559 711.25 173.217C710.722 172.87 710.312 172.352 710.022 171.663C709.736 170.974 709.593 170.114 709.593 169.083C709.593 168.312 709.697 167.638 709.905 167.061C710.113 166.481 710.395 165.998 710.75 165.612C711.11 165.226 711.517 164.936 711.972 164.741C712.431 164.546 712.91 164.448 713.408 164.448C714.006 164.448 714.503 164.535 714.897 164.708C715.291 164.882 715.664 165.131 716.015 165.456L715.261 166.236C714.988 165.98 714.704 165.794 714.409 165.677C714.119 165.556 713.792 165.495 713.428 165.495C713.107 165.495 712.8 165.558 712.505 165.683C712.21 165.809 711.946 166.011 711.712 166.288C711.482 166.565 711.298 166.934 711.159 167.393C711.025 167.848 710.958 168.411 710.958 169.083C710.958 169.932 711.042 170.623 711.211 171.156C711.385 171.685 711.64 172.073 711.978 172.32C712.321 172.563 712.741 172.684 713.239 172.684C713.534 172.684 713.814 172.649 714.078 172.58C714.342 172.511 714.598 172.409 714.845 172.274V169.655H713.187L713.038 168.628H716.112V172.931C715.701 173.156 715.261 173.347 714.793 173.503C714.329 173.655 713.781 173.73 713.148 173.73ZM723.881 167.152C723.881 167.599 723.786 167.987 723.595 168.316C723.409 168.645 723.156 168.92 722.835 169.141C722.514 169.358 722.155 169.518 721.756 169.622L724.362 173.568H722.835L720.475 169.791H719.364V173.568H718.07V164.611H720.456C721.583 164.611 722.434 164.825 723.01 165.254C723.591 165.679 723.881 166.312 723.881 167.152ZM722.51 167.152C722.51 166.602 722.35 166.206 722.029 165.963C721.713 165.72 721.225 165.599 720.566 165.599H719.364V168.81H720.579C721.195 168.81 721.669 168.684 722.003 168.433C722.341 168.177 722.51 167.75 722.51 167.152ZM730.201 171.338H726.808L726.132 173.568H724.838L727.724 164.611H729.349L732.242 173.568H730.877L730.201 171.338ZM727.107 170.305H729.902L728.511 165.651L727.107 170.305ZM738.347 167.399C738.347 166.957 738.26 166.606 738.087 166.346C737.913 166.082 737.675 165.894 737.372 165.781C737.068 165.664 736.717 165.605 736.319 165.605H735.116V169.284H736.299C736.698 169.284 737.051 169.228 737.359 169.115C737.666 169.003 737.907 168.81 738.08 168.537C738.258 168.26 738.347 167.88 738.347 167.399ZM739.712 167.386C739.712 168.084 739.562 168.647 739.263 169.076C738.969 169.501 738.559 169.811 738.035 170.006C737.515 170.201 736.915 170.298 736.234 170.298H735.116V173.568H733.823V164.611H736.195C737.287 164.611 738.145 164.838 738.769 165.293C739.398 165.744 739.712 166.442 739.712 167.386ZM745.719 173.568V169.395H742.534V173.568H741.247V164.611H742.534V168.335H745.719V164.611H747.006V173.568H745.719ZM761.543 171.02C761.543 170.591 761.459 170.259 761.29 170.025C761.125 169.787 760.902 169.622 760.62 169.531C760.343 169.44 760.035 169.395 759.697 169.395H758.274V172.534H759.639C759.855 172.534 760.074 172.515 760.295 172.476C760.52 172.437 760.726 172.363 760.913 172.255C761.103 172.147 761.255 171.993 761.368 171.793C761.485 171.594 761.543 171.336 761.543 171.02ZM761.192 166.957C761.192 166.472 761.04 166.128 760.737 165.924C760.438 165.716 760.024 165.612 759.496 165.612H758.274V168.381H759.6C760.12 168.381 760.514 168.268 760.783 168.043C761.056 167.818 761.192 167.456 761.192 166.957ZM762.895 171C762.895 171.494 762.798 171.906 762.603 172.235C762.412 172.565 762.152 172.827 761.823 173.022C761.498 173.217 761.131 173.358 760.724 173.444C760.321 173.527 759.907 173.568 759.483 173.568H756.987V164.611H759.294C759.697 164.611 760.089 164.648 760.471 164.721C760.852 164.791 761.194 164.912 761.498 165.085C761.805 165.254 762.05 165.486 762.232 165.781C762.414 166.071 762.505 166.435 762.505 166.873C762.505 167.25 762.425 167.573 762.265 167.841C762.109 168.106 761.905 168.32 761.654 168.485C761.402 168.645 761.134 168.758 760.848 168.823C761.177 168.879 761.498 168.983 761.81 169.135C762.126 169.282 762.386 169.505 762.59 169.804C762.793 170.099 762.895 170.498 762.895 171Z" fill="#25855A"/>
<rect x="626.147" y="228.141" width="170.103" height="71.2449" rx="5.25" fill="#FDFDFD"/>
<rect x="626.147" y="228.141" width="170.103" height="71.2449" rx="5.25" stroke="#7B00C7" stroke-width="1.5"/>
<g clip-path="url(#clip2_451_290)">
<path d="M670.806 266.419H662.655M670.956 267.142L667.664 269.137M661.578 265.482C661.868 265.482 662.146 265.597 662.352 265.802C662.557 266.007 662.672 266.286 662.672 266.576C662.672 266.866 662.557 267.144 662.352 267.349C662.146 267.554 661.868 267.669 661.578 267.669C661.288 267.669 661.01 267.554 660.805 267.349C660.6 267.144 660.484 266.866 660.484 266.576C660.484 266.286 660.6 266.007 660.805 265.802C661.01 265.597 661.288 265.482 661.578 265.482ZM661.578 265.482V262.043M671.891 265.482C672.181 265.482 672.459 265.597 672.664 265.802C672.869 266.007 672.984 266.286 672.984 266.576C672.984 266.866 672.869 267.144 672.664 267.349C672.459 267.554 672.181 267.669 671.891 267.669C671.601 267.669 671.322 267.554 671.117 267.349C670.912 267.144 670.797 266.866 670.797 266.576C670.797 266.286 670.912 266.007 671.117 265.802C671.322 265.597 671.601 265.482 671.891 265.482ZM671.891 265.482V262.043M666.327 258.835L662.281 265.751M667.142 258.835L671.188 265.751M665.799 258.393L662.513 260.384M662.513 267.142L665.804 269.137M667.67 258.393L670.956 260.384M666.734 258.919C667.024 258.919 667.303 258.804 667.508 258.599C667.713 258.394 667.828 258.116 667.828 257.826C667.828 257.536 667.713 257.257 667.508 257.052C667.303 256.847 667.024 256.732 666.734 256.732C666.444 256.732 666.166 256.847 665.961 257.052C665.756 257.257 665.641 257.536 665.641 257.826C665.641 258.116 665.756 258.394 665.961 258.599C666.166 258.804 666.444 258.919 666.734 258.919ZM661.578 262.044C661.868 262.044 662.146 261.929 662.352 261.724C662.557 261.519 662.672 261.241 662.672 260.951C662.672 260.661 662.557 260.382 662.352 260.177C662.146 259.972 661.868 259.857 661.578 259.857C661.288 259.857 661.01 259.972 660.805 260.177C660.6 260.382 660.484 260.661 660.484 260.951C660.484 261.241 660.6 261.519 660.805 261.724C661.01 261.929 661.288 262.044 661.578 262.044ZM671.891 262.044C672.181 262.044 672.459 261.929 672.664 261.724C672.869 261.519 672.984 261.241 672.984 260.951C672.984 260.661 672.869 260.382 672.664 260.177C672.459 259.972 672.181 259.857 671.891 259.857C671.601 259.857 671.322 259.972 671.117 260.177C670.912 260.382 670.797 260.661 670.797 260.951C670.797 261.241 670.912 261.519 671.117 261.724C671.322 261.929 671.601 262.044 671.891 262.044ZM666.734 270.794C667.024 270.794 667.303 270.679 667.508 270.474C667.713 270.269 667.828 269.991 667.828 269.701C667.828 269.411 667.713 269.132 667.508 268.927C667.303 268.722 667.024 268.607 666.734 268.607C666.444 268.607 666.166 268.722 665.961 268.927C665.756 269.132 665.641 269.411 665.641 269.701C665.641 269.991 665.756 270.269 665.961 270.474C666.166 270.679 666.444 270.794 666.734 270.794Z" stroke="#7B00C7" stroke-linecap="round" stroke-linejoin="round"/>
</g>
<path d="M692.702 265.261C692.702 265.781 692.57 266.242 692.305 266.645C692.045 267.044 691.668 267.358 691.174 267.588C690.68 267.813 690.078 267.926 689.367 267.926C688.683 267.926 688.072 267.822 687.534 267.614C686.997 267.406 686.54 267.12 686.163 266.756L686.897 265.93C687.209 266.221 687.567 266.45 687.97 266.619C688.373 266.788 688.843 266.873 689.38 266.873C689.731 266.873 690.056 266.816 690.355 266.704C690.659 266.587 690.901 266.413 691.083 266.184C691.27 265.95 691.363 265.657 691.363 265.306C691.363 265.025 691.306 264.786 691.194 264.591C691.085 264.396 690.893 264.223 690.615 264.071C690.338 263.92 689.95 263.77 689.452 263.623C688.845 263.441 688.325 263.239 687.892 263.018C687.463 262.793 687.133 262.518 686.904 262.193C686.678 261.868 686.566 261.469 686.566 260.997C686.566 260.533 686.694 260.126 686.949 259.775C687.205 259.419 687.556 259.142 688.002 258.943C688.453 258.743 688.966 258.644 689.543 258.644C690.171 258.644 690.719 258.735 691.187 258.917C691.66 259.094 692.084 259.352 692.461 259.69L691.746 260.496C691.43 260.215 691.088 260.011 690.719 259.885C690.351 259.755 689.978 259.69 689.601 259.69C689.285 259.69 688.997 259.738 688.737 259.833C688.477 259.924 688.269 260.061 688.113 260.243C687.961 260.425 687.885 260.657 687.885 260.938C687.885 261.185 687.952 261.398 688.087 261.575C688.221 261.749 688.449 261.911 688.769 262.063C689.09 262.21 689.525 262.366 690.076 262.531C690.557 262.669 690.997 262.843 691.395 263.051C691.794 263.259 692.11 263.538 692.344 263.889C692.583 264.236 692.702 264.693 692.702 265.261ZM700.38 258.806V264.845C700.38 265.451 700.256 265.987 700.009 266.45C699.766 266.91 699.418 267.271 698.963 267.536C698.512 267.796 697.972 267.926 697.344 267.926C696.711 267.926 696.17 267.796 695.719 267.536C695.268 267.276 694.924 266.914 694.686 266.45C694.452 265.987 694.335 265.451 694.335 264.845V258.806H695.622V264.747C695.622 265.449 695.767 265.976 696.057 266.327C696.347 266.678 696.776 266.853 697.344 266.853C697.92 266.853 698.354 266.678 698.644 266.327C698.934 265.976 699.08 265.449 699.08 264.747V258.806H700.38ZM706.979 265.215C706.979 264.786 706.894 264.455 706.725 264.221C706.56 263.982 706.337 263.818 706.056 263.727C705.778 263.636 705.471 263.59 705.133 263.59H703.709V266.73H705.074C705.291 266.73 705.51 266.71 705.731 266.671C705.956 266.632 706.162 266.559 706.348 266.45C706.539 266.342 706.69 266.188 706.803 265.989C706.92 265.789 706.979 265.532 706.979 265.215ZM706.628 261.153C706.628 260.667 706.476 260.323 706.173 260.119C705.874 259.911 705.46 259.807 704.931 259.807H703.709V262.576H705.035C705.555 262.576 705.949 262.464 706.218 262.238C706.491 262.013 706.628 261.651 706.628 261.153ZM708.331 265.196C708.331 265.69 708.233 266.101 708.038 266.431C707.847 266.76 707.587 267.022 707.258 267.217C706.933 267.412 706.567 267.553 706.16 267.64C705.757 267.722 705.343 267.763 704.918 267.763H702.422V258.806H704.73C705.133 258.806 705.525 258.843 705.906 258.917C706.287 258.986 706.63 259.107 706.933 259.281C707.241 259.45 707.486 259.682 707.668 259.976C707.85 260.267 707.941 260.631 707.941 261.068C707.941 261.445 707.86 261.768 707.7 262.037C707.544 262.301 707.34 262.516 707.089 262.68C706.838 262.841 706.569 262.953 706.283 263.018C706.612 263.075 706.933 263.179 707.245 263.33C707.561 263.478 707.821 263.701 708.025 264C708.229 264.294 708.331 264.693 708.331 265.196ZM713.148 267.926C712.416 267.926 711.783 267.755 711.25 267.412C710.722 267.066 710.312 266.548 710.022 265.859C709.736 265.17 709.593 264.31 709.593 263.278C709.593 262.507 709.697 261.833 709.905 261.257C710.113 260.676 710.395 260.193 710.75 259.807C711.11 259.422 711.517 259.131 711.972 258.936C712.431 258.741 712.91 258.644 713.408 258.644C714.006 258.644 714.503 258.73 714.897 258.904C715.291 259.077 715.664 259.326 716.015 259.651L715.261 260.431C714.988 260.176 714.704 259.989 714.409 259.872C714.119 259.751 713.792 259.69 713.428 259.69C713.107 259.69 712.8 259.753 712.505 259.879C712.21 260.004 711.946 260.206 711.712 260.483C711.482 260.761 711.298 261.129 711.159 261.588C711.025 262.043 710.958 262.607 710.958 263.278C710.958 264.128 711.042 264.819 711.211 265.352C711.385 265.88 711.64 266.268 711.978 266.515C712.321 266.758 712.741 266.879 713.239 266.879C713.534 266.879 713.814 266.845 714.078 266.775C714.342 266.706 714.598 266.604 714.845 266.47V263.85H713.187L713.038 262.823H716.112V267.126C715.701 267.352 715.261 267.542 714.793 267.698C714.329 267.85 713.781 267.926 713.148 267.926ZM723.881 261.348C723.881 261.794 723.786 262.182 723.595 262.511C723.409 262.841 723.156 263.116 722.835 263.337C722.514 263.553 722.155 263.714 721.756 263.818L724.362 267.763H722.835L720.475 263.987H719.364V267.763H718.07V258.806H720.456C721.583 258.806 722.434 259.021 723.01 259.45C723.591 259.874 723.881 260.507 723.881 261.348ZM722.51 261.348C722.51 260.797 722.35 260.401 722.029 260.158C721.713 259.916 721.225 259.794 720.566 259.794H719.364V263.005H720.579C721.195 263.005 721.669 262.88 722.003 262.628C722.341 262.373 722.51 261.946 722.51 261.348ZM730.201 265.534H726.808L726.132 267.763H724.838L727.724 258.806H729.349L732.242 267.763H730.877L730.201 265.534ZM727.107 264.5H729.902L728.511 259.846L727.107 264.5ZM738.347 261.595C738.347 261.153 738.26 260.802 738.087 260.542C737.913 260.277 737.675 260.089 737.372 259.976C737.068 259.859 736.717 259.801 736.319 259.801H735.116V263.48H736.299C736.698 263.48 737.051 263.423 737.359 263.311C737.666 263.198 737.907 263.005 738.08 262.732C738.258 262.455 738.347 262.076 738.347 261.595ZM739.712 261.582C739.712 262.279 739.562 262.843 739.263 263.272C738.969 263.696 738.559 264.006 738.035 264.201C737.515 264.396 736.915 264.494 736.234 264.494H735.116V267.763H733.823V258.806H736.195C737.287 258.806 738.145 259.034 738.769 259.489C739.398 259.939 739.712 260.637 739.712 261.582ZM745.719 267.763V263.59H742.534V267.763H741.247V258.806H742.534V262.531H745.719V258.806H747.006V267.763H745.719ZM760.471 258.644C761.064 258.644 761.563 258.72 761.966 258.871C762.373 259.023 762.754 259.244 763.11 259.534L762.414 260.353C762.137 260.124 761.842 259.957 761.53 259.853C761.222 259.744 760.895 259.69 760.549 259.69C760.081 259.69 759.645 259.805 759.242 260.035C758.843 260.264 758.523 260.641 758.28 261.166C758.037 261.69 757.916 262.394 757.916 263.278C757.916 264.141 758.031 264.834 758.261 265.358C758.495 265.878 758.809 266.257 759.203 266.496C759.602 266.73 760.046 266.847 760.536 266.847C761.03 266.847 761.435 266.771 761.751 266.619C762.072 266.463 762.353 266.286 762.596 266.086L763.24 266.912C762.958 267.185 762.592 267.423 762.141 267.627C761.695 267.826 761.149 267.926 760.503 267.926C759.762 267.926 759.095 267.748 758.501 267.393C757.907 267.037 757.437 266.515 757.091 265.826C756.748 265.133 756.577 264.284 756.577 263.278C756.577 262.273 756.753 261.426 757.104 260.737C757.459 260.048 757.931 259.528 758.521 259.177C759.114 258.821 759.764 258.644 760.471 258.644Z" fill="#7B00C7"/>
<path d="M625.475 171.156H444.936" stroke="#25855A" stroke-width="2"/>
<path d="M625.397 77.2344H560.511C549.465 77.2344 540.511 86.1887 540.511 97.2344V134.685C540.511 145.731 531.557 154.685 520.511 154.685H441.985" stroke="#AF9200" stroke-width="2"/>
<path d="M625.397 261.901H560.511C549.465 261.901 540.511 252.947 540.511 241.901V207.038C540.511 195.992 531.557 187.038 520.511 187.038H440.985" stroke="#7B00C7" stroke-width="2"/>
<rect x="274.735" y="134.318" width="170.5" height="70.5" rx="35.25" fill="#FDFDFD"/>
<rect x="274.735" y="134.318" width="170.5" height="70.5" rx="35.25" stroke="#B03900" stroke-width="1.5"/>
<g clip-path="url(#clip3_451_290)">
<path d="M326.384 170.463C328.977 171.275 330.521 172.838 330.521 175.787M330.521 175.787V176.6M330.521 175.787C330.521 172.838 332.066 171.275 334.659 170.463M330.521 175.787V165.818M329.053 165.818C328.992 165.818 328.932 165.802 328.88 165.771C328.827 165.741 328.783 165.697 328.753 165.644C328.723 165.591 328.707 165.531 328.708 165.47C328.708 165.409 328.725 165.349 328.756 165.297L330.224 162.693C330.254 162.641 330.298 162.598 330.35 162.569C330.402 162.539 330.461 162.523 330.521 162.523C330.581 162.523 330.64 162.539 330.692 162.569C330.745 162.598 330.788 162.641 330.819 162.693L332.287 165.296C332.318 165.349 332.335 165.408 332.335 165.469C332.336 165.53 332.32 165.59 332.29 165.643C332.259 165.696 332.216 165.74 332.163 165.771C332.11 165.802 332.05 165.818 331.989 165.818H329.053ZM327.029 168.905C327.052 168.849 327.06 168.787 327.052 168.727C327.044 168.667 327.02 168.609 326.982 168.561C326.945 168.513 326.896 168.475 326.839 168.452C326.783 168.429 326.721 168.421 326.661 168.43L323.786 168.834C323.726 168.842 323.669 168.866 323.622 168.903C323.574 168.94 323.537 168.989 323.514 169.044C323.49 169.1 323.482 169.161 323.49 169.221C323.498 169.281 323.521 169.337 323.557 169.385L325.302 171.702C325.339 171.751 325.388 171.789 325.445 171.813C325.501 171.836 325.562 171.845 325.623 171.837C325.684 171.829 325.741 171.806 325.79 171.769C325.838 171.732 325.876 171.682 325.899 171.626L326.462 170.266L327.029 168.905ZM334.014 168.905C333.991 168.849 333.983 168.787 333.991 168.727C333.999 168.667 334.023 168.609 334.06 168.561C334.098 168.513 334.147 168.475 334.203 168.452C334.26 168.429 334.321 168.421 334.382 168.43L337.257 168.834C337.317 168.842 337.373 168.866 337.421 168.903C337.469 168.94 337.506 168.989 337.529 169.044C337.552 169.1 337.56 169.161 337.552 169.221C337.545 169.281 337.521 169.337 337.485 169.385L335.74 171.702C335.703 171.751 335.654 171.789 335.598 171.813C335.542 171.836 335.48 171.845 335.419 171.837C335.359 171.829 335.301 171.806 335.253 171.769C335.204 171.732 335.167 171.682 335.143 171.626L334.581 170.266L334.014 168.905Z" stroke="#B03900" stroke-linecap="round" stroke-linejoin="round"/>
</g>
<path d="M356.675 167.488C356.675 168.177 356.464 168.732 356.042 169.155C355.624 169.572 355.108 169.861 354.495 170.021L357.168 174.068H355.602L353.182 170.195H352.042V174.068H350.715V164.881H353.162C354.313 164.881 355.186 165.101 355.782 165.541C356.377 165.977 356.675 166.626 356.675 167.488ZM355.268 167.488C355.268 166.923 355.104 166.517 354.775 166.268C354.451 166.019 353.951 165.895 353.275 165.895H352.042V169.188H353.288C353.919 169.188 354.406 169.059 354.748 168.801C355.095 168.539 355.268 168.101 355.268 167.488ZM364.886 169.481C364.886 170.415 364.757 171.239 364.5 171.955C364.242 172.67 363.857 173.23 363.346 173.635C362.84 174.035 362.209 174.235 361.453 174.235C360.697 174.235 360.064 174.039 359.553 173.648C359.046 173.252 358.664 172.699 358.406 171.988C358.149 171.277 358.02 170.446 358.02 169.495C358.02 168.557 358.149 167.73 358.406 167.015C358.664 166.295 359.046 165.732 359.553 165.328C360.064 164.919 360.697 164.715 361.453 164.715C362.209 164.715 362.84 164.912 363.346 165.308C363.857 165.703 364.242 166.259 364.5 166.975C364.757 167.69 364.886 168.526 364.886 169.481ZM363.506 169.481C363.506 168.272 363.346 167.355 363.026 166.728C362.711 166.101 362.186 165.788 361.453 165.788C360.72 165.788 360.193 166.103 359.873 166.735C359.557 167.366 359.4 168.286 359.4 169.495C359.4 170.699 359.562 171.612 359.886 172.235C360.215 172.852 360.737 173.161 361.453 173.161C362.186 173.161 362.711 172.85 363.026 172.228C363.346 171.601 363.506 170.686 363.506 169.481ZM372.551 164.881V171.075C372.551 171.697 372.424 172.246 372.171 172.721C371.922 173.197 371.564 173.568 371.098 173.835C370.635 174.101 370.082 174.235 369.438 174.235C368.789 174.235 368.233 174.101 367.771 173.835C367.309 173.568 366.955 173.197 366.711 172.721C366.471 172.246 366.351 171.697 366.351 171.075V164.881H367.671V170.975C367.671 172.415 368.26 173.135 369.438 173.135C370.624 173.135 371.218 172.415 371.218 170.975V164.881H372.551ZM378.089 165.981V174.068H376.769V165.981H373.942V164.881H380.962L380.822 165.981H378.089ZM384.374 165.921V168.875H387.747V169.921H384.374V173.035H388.5V174.068H383.047V164.881H388.4L388.247 165.921H384.374ZM396.665 167.488C396.665 168.177 396.454 168.732 396.032 169.155C395.614 169.572 395.099 169.861 394.485 170.021L397.159 174.068H395.592L393.172 170.195H392.032V174.068H390.705V164.881H393.152C394.303 164.881 395.176 165.101 395.772 165.541C396.367 165.977 396.665 166.626 396.665 167.488ZM395.259 167.488C395.259 166.923 395.094 166.517 394.765 166.268C394.441 166.019 393.941 165.895 393.265 165.895H392.032V169.188H393.279C393.91 169.188 394.396 169.059 394.739 168.801C395.085 168.539 395.259 168.101 395.259 167.488Z" fill="#B03900"/>
<rect x="20.8696" y="134.318" width="180.5" height="70.5" rx="5.25" fill="#FDFDFD"/>
<rect x="20.8696" y="134.318" width="180.5" height="70.5" rx="5.25" stroke="#467B95" stroke-width="1.5"/>
<path d="M38.893 153.715C39.5019 153.715 40.013 153.792 40.4263 153.948C40.8441 154.103 41.2352 154.33 41.5996 154.628L40.8863 155.468C40.6019 155.232 40.2996 155.061 39.9796 154.955C39.6596 154.843 39.3241 154.788 38.973 154.788C38.4885 154.788 38.0419 154.906 37.633 155.141C37.2241 155.377 36.8952 155.763 36.6463 156.301C36.3974 156.839 36.273 157.561 36.273 158.468C36.273 159.352 36.3907 160.063 36.6263 160.601C36.8663 161.135 37.1885 161.523 37.593 161.768C38.0019 162.008 38.4574 162.128 38.9596 162.128C39.4619 162.128 39.8774 162.05 40.2063 161.895C40.5396 161.735 40.8285 161.552 41.073 161.348L41.733 162.195C41.4441 162.479 41.0685 162.723 40.6063 162.928C40.1485 163.132 39.5885 163.235 38.9263 163.235C38.1663 163.235 37.4819 163.052 36.873 162.688C36.2685 162.323 35.7885 161.788 35.433 161.081C35.0774 160.37 34.8996 159.499 34.8996 158.468C34.8996 157.437 35.0796 156.568 35.4396 155.861C35.8041 155.155 36.2885 154.621 36.893 154.261C37.5019 153.897 38.1685 153.715 38.893 153.715ZM43.831 163.068V153.881H45.1577V161.921H49.3177L49.171 163.068H43.831ZM56.8024 153.881V154.915H54.7824V162.028H56.8024V163.068H51.4291V162.028H53.4491V154.915H51.4291V153.881H56.8024ZM61.0404 154.921V157.875H64.4138V158.921H61.0404V162.035H65.1671V163.068H59.7138V153.881H65.0671L64.9138 154.921H61.0404ZM71.2785 163.068L68.1785 155.101C68.1874 155.257 68.2051 155.523 68.2318 155.901C68.2629 156.275 68.2918 156.706 68.3185 157.195C68.3451 157.679 68.3585 158.163 68.3585 158.648V163.068H67.1585V153.881H68.9118L72.0451 161.868C72.0363 161.717 72.0163 161.466 71.9851 161.115C71.954 160.759 71.9251 160.339 71.8985 159.855C71.8763 159.37 71.8651 158.852 71.8651 158.301V153.881H73.0651V163.068H71.2785ZM78.7499 154.981V163.068H77.4299V154.981H74.6032V153.881H81.6232L81.4832 154.981H78.7499ZM95.8126 160.781H92.3326L91.6393 163.068H90.3126L93.2726 153.881H94.9393L97.906 163.068H96.506L95.8126 160.781ZM92.6393 159.721H95.506L94.0793 154.948L92.6393 159.721ZM105.571 156.728C105.571 157.443 105.417 158.021 105.111 158.461C104.808 158.897 104.388 159.215 103.851 159.415C103.313 159.615 102.697 159.715 102.004 159.715H100.857V163.068H99.5307V153.881H101.964C103.084 153.881 103.964 154.115 104.604 154.581C105.248 155.043 105.571 155.759 105.571 156.728ZM104.171 156.741C104.171 156.066 103.975 155.59 103.584 155.315C103.197 155.039 102.7 154.901 102.091 154.901H100.857V158.675H102.071C102.48 158.675 102.842 158.617 103.157 158.501C103.473 158.386 103.72 158.188 103.897 157.908C104.08 157.628 104.171 157.239 104.171 156.741ZM113.569 156.728C113.569 157.443 113.415 158.021 113.109 158.461C112.806 158.897 112.386 159.215 111.849 159.415C111.311 159.615 110.695 159.715 110.002 159.715H108.855V163.068H107.529V153.881H109.962C111.082 153.881 111.962 154.115 112.602 154.581C113.246 155.043 113.569 155.759 113.569 156.728ZM112.169 156.741C112.169 156.066 111.973 155.59 111.582 155.315C111.195 155.039 110.698 154.901 110.089 154.901H108.855V158.675H110.069C110.478 158.675 110.84 158.617 111.155 158.501C111.471 158.386 111.718 158.188 111.895 157.908C112.078 157.628 112.169 157.239 112.169 156.741ZM115.813 163.068V153.881H117.14V161.921H121.3L121.153 163.068H115.813ZM128.785 153.881V154.915H126.765V162.028H128.785V163.068H123.411V162.028H125.431V154.915H123.411V153.881H128.785ZM134.87 153.715C135.478 153.715 135.99 153.792 136.403 153.948C136.821 154.103 137.212 154.33 137.576 154.628L136.863 155.468C136.578 155.232 136.276 155.061 135.956 154.955C135.636 154.843 135.301 154.788 134.95 154.788C134.465 154.788 134.018 154.906 133.61 155.141C133.201 155.377 132.872 155.763 132.623 156.301C132.374 156.839 132.25 157.561 132.25 158.468C132.25 159.352 132.367 160.063 132.603 160.601C132.843 161.135 133.165 161.523 133.57 161.768C133.978 162.008 134.434 162.128 134.936 162.128C135.438 162.128 135.854 162.05 136.183 161.895C136.516 161.735 136.805 161.552 137.05 161.348L137.71 162.195C137.421 162.479 137.045 162.723 136.583 162.928C136.125 163.132 135.565 163.235 134.903 163.235C134.143 163.235 133.458 163.052 132.85 162.688C132.245 162.323 131.765 161.788 131.41 161.081C131.054 160.37 130.876 159.499 130.876 158.468C130.876 157.437 131.056 156.568 131.416 155.861C131.781 155.155 132.265 154.621 132.87 154.261C133.478 153.897 134.145 153.715 134.87 153.715ZM143.801 160.781H140.321L139.628 163.068H138.301L141.261 153.881H142.928L145.894 163.068H144.494L143.801 160.781ZM140.628 159.721H143.494L142.068 154.948L140.628 159.721ZM150.732 154.981V163.068H149.412V154.981H146.586V153.881H153.606L153.466 154.981H150.732ZM160.777 153.881V154.915H158.757V162.028H160.777V163.068H155.404V162.028H157.424V154.915H155.404V153.881H160.777ZM169.522 158.481C169.522 159.415 169.393 160.239 169.135 160.955C168.877 161.67 168.493 162.23 167.982 162.635C167.475 163.035 166.844 163.235 166.088 163.235C165.333 163.235 164.699 163.039 164.188 162.648C163.682 162.252 163.299 161.699 163.042 160.988C162.784 160.277 162.655 159.446 162.655 158.495C162.655 157.557 162.784 156.73 163.042 156.015C163.299 155.295 163.682 154.732 164.188 154.328C164.699 153.919 165.333 153.715 166.088 153.715C166.844 153.715 167.475 153.912 167.982 154.308C168.493 154.703 168.877 155.259 169.135 155.975C169.393 156.69 169.522 157.526 169.522 158.481ZM168.142 158.481C168.142 157.272 167.982 156.355 167.662 155.728C167.346 155.101 166.822 154.788 166.088 154.788C165.355 154.788 164.828 155.103 164.508 155.735C164.193 156.366 164.035 157.286 164.035 158.495C164.035 159.699 164.197 160.612 164.522 161.235C164.851 161.852 165.373 162.161 166.088 162.161C166.822 162.161 167.346 161.85 167.662 161.228C167.982 160.601 168.142 159.686 168.142 158.481ZM175.253 163.068L172.153 155.101C172.162 155.257 172.18 155.523 172.206 155.901C172.238 156.275 172.266 156.706 172.293 157.195C172.32 157.679 172.333 158.163 172.333 158.648V163.068H171.133V153.881H172.886L176.02 161.868C176.011 161.717 175.991 161.466 175.96 161.115C175.929 160.759 175.9 160.339 175.873 159.855C175.851 159.37 175.84 158.852 175.84 158.301V153.881H177.04V163.068H175.253ZM185.304 160.501C185.304 161.035 185.169 161.508 184.898 161.921C184.631 162.33 184.242 162.652 183.731 162.888C183.224 163.119 182.609 163.235 181.884 163.235C181.182 163.235 180.556 163.128 180.004 162.915C179.453 162.701 178.984 162.408 178.598 162.035L179.351 161.188C179.671 161.486 180.038 161.721 180.451 161.895C180.864 162.068 181.347 162.155 181.898 162.155C182.258 162.155 182.591 162.097 182.898 161.981C183.209 161.861 183.458 161.683 183.644 161.448C183.836 161.208 183.931 160.908 183.931 160.548C183.931 160.263 183.873 160.021 183.758 159.821C183.647 159.617 183.449 159.437 183.164 159.281C182.88 159.126 182.482 158.972 181.971 158.821C181.349 158.639 180.816 158.432 180.371 158.201C179.931 157.966 179.593 157.683 179.358 157.355C179.127 157.021 179.011 156.612 179.011 156.128C179.011 155.652 179.142 155.235 179.404 154.875C179.667 154.51 180.027 154.226 180.484 154.021C180.942 153.817 181.469 153.715 182.064 153.715C182.709 153.715 183.271 153.808 183.751 153.995C184.236 154.181 184.671 154.446 185.058 154.788L184.324 155.615C183.996 155.326 183.642 155.117 183.264 154.988C182.891 154.855 182.511 154.788 182.124 154.788C181.636 154.788 181.22 154.895 180.878 155.108C180.536 155.317 180.364 155.637 180.364 156.068C180.364 156.326 180.433 156.546 180.571 156.728C180.709 156.906 180.94 157.07 181.264 157.221C181.593 157.372 182.042 157.532 182.611 157.701C183.104 157.848 183.553 158.028 183.958 158.241C184.367 158.45 184.693 158.735 184.938 159.095C185.182 159.45 185.304 159.919 185.304 160.501Z" fill="#467B95"/>
<g clip-path="url(#clip4_451_290)">
<path d="M45.391 178.982C45.7786 179.792 46.084 180.639 46.3028 181.509C48.0428 180.997 49.151 180.156 49.151 179.134C49.151 178.092 48.001 177.237 46.2016 176.729" stroke="#467B95" stroke-linecap="round" stroke-linejoin="round"/>
<path d="M38.8403 178.982C38.5031 178.258 38.2312 177.505 38.0278 176.732C36.2335 177.24 35.0903 178.094 35.0903 179.134C35.0903 180.154 36.1947 180.995 37.9297 181.509" stroke="#467B95" stroke-linecap="round" stroke-linejoin="round"/>
<path d="M40.3853 176.307C40.8935 175.567 41.4745 174.88 42.1197 174.255C40.8072 173.005 39.5241 172.466 38.6391 172.977C37.7366 173.497 37.5709 174.921 38.0309 176.733" stroke="#467B95" stroke-linecap="round" stroke-linejoin="round"/>
<path d="M43.6609 181.98C43.2024 182.634 42.6866 183.246 42.1196 183.808C43.4571 185.108 44.7696 185.673 45.6703 185.153C46.5534 184.643 46.729 183.267 46.3046 181.509" stroke="#467B95" stroke-linecap="round" stroke-linejoin="round"/>
<path d="M40.5715 181.98C39.6766 181.911 38.7909 181.752 37.9277 181.506C37.5002 183.269 37.6777 184.649 38.5602 185.16C39.4621 185.681 40.7777 185.113 42.1177 183.809" stroke="#467B95" stroke-linecap="round" stroke-linejoin="round"/>
<path d="M43.8471 176.307C44.6429 176.377 45.4308 176.518 46.2015 176.729C46.6584 174.921 46.4921 173.502 45.5915 172.979C44.7078 172.472 43.4284 173.005 42.1196 174.255" stroke="#467B95" stroke-linecap="round" stroke-linejoin="round"/>
<path d="M43.8472 176.307C43.296 176.254 42.7222 176.223 42.1197 176.223C41.5172 176.223 40.9391 176.254 40.3853 176.307C40.101 176.717 39.8228 177.152 39.5547 177.615C39.2866 178.079 39.0547 178.534 38.8403 178.982C39.0703 179.486 39.3316 180 39.6316 180.52C39.9316 181.04 40.2491 181.527 40.5691 181.98C41.597 182.067 42.6305 182.068 43.6585 181.98C44.3317 181.04 44.9115 180.036 45.3897 178.982C44.9532 178.048 44.4372 177.153 43.8472 176.307Z" stroke="#467B95" stroke-linecap="round" stroke-linejoin="round"/>
<path d="M41.1821 179.134C41.1821 179.383 41.2809 179.621 41.4567 179.797C41.6325 179.973 41.871 180.072 42.1196 180.072C42.3683 180.072 42.6067 179.973 42.7825 179.797C42.9584 179.621 43.0571 179.383 43.0571 179.134C43.0571 178.885 42.9584 178.647 42.7825 178.471C42.6067 178.295 42.3683 178.197 42.1196 178.197C41.871 178.197 41.6325 178.295 41.4567 178.471C41.2809 178.647 41.1821 178.885 41.1821 179.134Z" stroke="#467B95" stroke-linecap="round" stroke-linejoin="round"/>
</g>
<g clip-path="url(#clip5_451_290)">
<path d="M57.5936 173.209V184.927L69.3123 173.209H57.5936Z" stroke="#467B95" stroke-linecap="round" stroke-linejoin="round"/>
<path d="M63.453 179.068L69.3124 184.927H57.5936" stroke="#467B95" stroke-linecap="round" stroke-linejoin="round"/>
<path d="M63.453 173.209L57.7186 178.943" stroke="#467B95" stroke-linecap="round" stroke-linejoin="round"/>
</g>
<g clip-path="url(#clip6_451_290)">
<path d="M85.8133 178.443C83.3696 176.924 81.2008 173.543 81.2008 173.543C81.2008 173.543 82.9946 178.262 86.2883 181.362C85.2272 181.42 84.1662 181.245 83.1802 180.849C82.1941 180.453 81.3072 179.845 80.5821 179.068C80.1233 178.609 79.7186 178.1 79.3758 177.549C79.3537 177.522 79.3225 177.504 79.288 177.498C79.2535 177.492 79.218 177.499 79.1883 177.518C79.154 177.536 79.1264 177.564 79.1096 177.599C79.0927 177.634 79.0874 177.673 79.0946 177.712C79.5273 179.265 80.3616 180.677 81.5133 181.805C84.1758 184.468 87.8446 185.205 90.1758 183.68C90.6256 183.818 91.0886 183.908 91.5571 183.949C92.7696 184.574 92.7696 184.862 92.7696 184.862C92.9456 184.655 93.0661 184.408 93.1197 184.142C93.1733 183.876 93.1582 183.601 93.0758 183.343C93.1406 183.057 93.1153 182.758 93.0034 182.487C92.8915 182.217 92.6984 181.987 92.4508 181.83L91.8946 181.487C92.7383 179.187 91.8946 176.074 89.5508 173.737C89.3946 173.574 89.2321 173.424 89.0633 173.28C89.0348 173.255 88.9982 173.241 88.9602 173.241C88.9222 173.241 88.8856 173.255 88.8571 173.28C88.8279 173.304 88.8077 173.336 88.7997 173.373C88.7918 173.409 88.7966 173.447 88.8133 173.48C90.1321 175.574 90.3258 177.968 89.2508 179.593C87.2375 177.852 85.5047 175.812 84.1133 173.543" stroke="#467B95" stroke-linecap="round" stroke-linejoin="round"/>
</g>
<path d="M320.494 36.6618C320.494 37.3182 320.328 37.9008 319.994 38.4095C319.666 38.9128 319.187 39.3093 318.558 39.5993C317.934 39.8837 317.177 40.0259 316.285 40.0259C315.421 40.0259 314.65 39.8946 313.971 39.6321C313.293 39.3695 312.716 39.0085 312.24 38.549L313.167 37.507C313.561 37.8735 314.012 38.1634 314.521 38.3767C315.03 38.59 315.623 38.6967 316.302 38.6967C316.745 38.6967 317.155 38.6256 317.532 38.4834C317.915 38.3357 318.222 38.1169 318.451 37.827C318.687 37.5316 318.804 37.1623 318.804 36.7193C318.804 36.3692 318.733 36.0711 318.591 35.8249C318.454 35.5733 318.211 35.3517 317.861 35.1603C317.511 34.9688 317.021 34.7801 316.392 34.5941C315.626 34.3699 314.97 34.1155 314.423 33.8311C313.881 33.5411 313.465 33.1938 313.176 32.789C312.891 32.3787 312.749 31.8755 312.749 31.2793C312.749 30.694 312.91 30.1798 313.233 29.7367C313.556 29.2882 313.999 28.9381 314.562 28.6864C315.126 28.4348 315.774 28.309 316.507 28.309C317.3 28.309 317.992 28.4239 318.583 28.6536C319.179 28.8834 319.715 29.2088 320.191 29.63L319.288 30.6475C318.884 30.2919 318.449 30.0348 317.984 29.8762C317.524 29.7121 317.057 29.63 316.581 29.63C315.979 29.63 315.467 29.7613 315.046 30.0239C314.625 30.281 314.414 30.6748 314.414 31.2054C314.414 31.5227 314.499 31.7935 314.669 32.0177C314.838 32.2365 315.123 32.4389 315.522 32.6249C315.927 32.8109 316.479 33.0078 317.18 33.2157C317.787 33.3962 318.339 33.6177 318.837 33.8803C319.34 34.1374 319.742 34.4875 320.043 34.9305C320.344 35.3682 320.494 35.9452 320.494 36.6618ZM330.191 28.5141V36.1367C330.191 36.9025 330.035 37.5781 329.723 38.1634C329.417 38.7487 328.976 39.2054 328.402 39.5336C327.833 39.8618 327.152 40.0259 326.359 40.0259C325.56 40.0259 324.876 39.8618 324.307 39.5336C323.739 39.2054 323.304 38.7487 323.003 38.1634C322.707 37.5781 322.56 36.9025 322.56 36.1367V28.5141H324.184V36.0136C324.184 37.7859 324.909 38.6721 326.359 38.6721C327.819 38.6721 328.55 37.7859 328.55 36.0136V28.5141H330.191ZM340.486 32.0177C340.486 32.8984 340.297 33.6095 339.919 34.1511C339.547 34.6871 339.031 35.0782 338.369 35.3244C337.707 35.5705 336.949 35.6936 336.096 35.6936H334.685V39.8208H333.052V28.5141H336.047C337.425 28.5141 338.508 28.8013 339.296 29.3757C340.089 29.9446 340.486 30.8252 340.486 32.0177ZM338.763 32.0341C338.763 31.2027 338.522 30.6174 338.04 30.2782C337.565 29.9391 336.952 29.7695 336.203 29.7695H334.685V34.4136H336.178C336.681 34.4136 337.127 34.3425 337.515 34.2003C337.904 34.0581 338.207 33.8146 338.426 33.47C338.65 33.1254 338.763 32.6468 338.763 32.0341ZM344.742 29.7941V33.429H348.893V34.7172H344.742V38.549H349.821V39.8208H343.109V28.5141H349.698L349.509 29.7941H344.742ZM359.869 31.7223C359.869 32.5702 359.61 33.254 359.09 33.7736C358.576 34.2878 357.941 34.6434 357.186 34.8403L360.477 39.8208H358.548L355.57 35.0536H354.167V39.8208H352.534V28.5141H355.545C356.962 28.5141 358.037 28.7849 358.77 29.3264C359.503 29.8625 359.869 30.6611 359.869 31.7223ZM358.138 31.7223C358.138 31.0276 357.936 30.5271 357.531 30.2208C357.132 29.9145 356.516 29.7613 355.685 29.7613H354.167V33.8146H355.701C356.478 33.8146 357.077 33.656 357.498 33.3387C357.925 33.016 358.138 32.4772 358.138 31.7223ZM366.005 40.0259C364.621 40.0259 363.527 39.5364 362.722 38.5572C361.918 37.5781 361.516 36.1121 361.516 34.1593C361.516 33.1856 361.648 32.335 361.91 31.6075C362.173 30.8745 362.528 30.2646 362.977 29.7777C363.431 29.2854 363.945 28.9189 364.519 28.6782C365.099 28.4321 365.704 28.309 366.333 28.309C367.082 28.309 367.706 28.4184 368.203 28.6372C368.707 28.856 369.18 29.1705 369.623 29.5808L368.671 30.5654C367.998 29.9418 367.227 29.63 366.357 29.63C365.821 29.63 365.315 29.7723 364.839 30.0567C364.363 30.3411 363.978 30.8143 363.682 31.4762C363.387 32.1381 363.239 33.0324 363.239 34.1593C363.239 35.7729 363.483 36.9353 363.97 37.6464C364.456 38.3521 365.173 38.7049 366.119 38.7049C366.841 38.7049 367.517 38.5326 368.146 38.188V34.8813H366.054L365.865 33.5849H369.746V39.0167C369.226 39.3066 368.671 39.5473 368.08 39.7387C367.495 39.9302 366.803 40.0259 366.005 40.0259ZM379.557 31.7223C379.557 32.5702 379.297 33.254 378.778 33.7736C378.263 34.2878 377.629 34.6434 376.874 34.8403L380.164 39.8208H378.236L375.258 35.0536H373.854V39.8208H372.222V28.5141H375.233C376.65 28.5141 377.725 28.7849 378.458 29.3264C379.19 29.8625 379.557 30.6611 379.557 31.7223ZM377.826 31.7223C377.826 31.0276 377.623 30.5271 377.219 30.2208C376.819 29.9145 376.204 29.7613 375.372 29.7613H373.854V33.8146H375.389C376.166 33.8146 376.765 33.656 377.186 33.3387C377.612 33.016 377.826 32.4772 377.826 31.7223ZM387.538 37.0064H383.255L382.402 39.8208H380.769L384.412 28.5141H386.463L390.115 39.8208H388.392L387.538 37.0064ZM383.633 35.7018H387.161L385.405 29.827L383.633 35.7018ZM399.548 32.0177C399.548 32.8984 399.359 33.6095 398.982 34.1511C398.61 34.6871 398.093 35.0782 397.431 35.3244C396.769 35.5705 396.012 35.6936 395.158 35.6936H393.747V39.8208H392.114V28.5141H395.109C396.488 28.5141 397.571 28.8013 398.358 29.3757C399.151 29.9446 399.548 30.8252 399.548 32.0177ZM397.825 32.0341C397.825 31.2027 397.584 30.6174 397.103 30.2782C396.627 29.9391 396.014 29.7695 395.265 29.7695H393.747V34.4136H395.24C395.744 34.4136 396.189 34.3425 396.578 34.2003C396.966 34.0581 397.27 33.8146 397.489 33.47C397.713 33.1254 397.825 32.6468 397.825 32.0341ZM407.135 39.8208V34.5531H403.115V39.8208H401.49V28.5141H403.115V33.2157H407.135V28.5141H408.76V39.8208H407.135Z" fill="#B03900"/>
<defs>
<clipPath id="clip0_451_290">
<rect width="16" height="16" fill="white" transform="translate(658.734 67.3726)"/>
</clipPath>
<clipPath id="clip1_451_290">
<rect width="16" height="16" fill="white" transform="translate(658.734 161.568)"/>
</clipPath>
<clipPath id="clip2_451_290">
<rect width="16" height="16" fill="white" transform="translate(658.734 255.763)"/>
</clipPath>
<clipPath id="clip3_451_290">
<rect width="16" height="16" fill="white" transform="translate(322.521 161.568)"/>
</clipPath>
<clipPath id="clip4_451_290">
<rect width="16" height="16" fill="white" transform="translate(34.1196 171.068)"/>
</clipPath>
<clipPath id="clip5_451_290">
<rect width="13.3333" height="13.3333" fill="white" transform="translate(56.7863 172.401)"/>
</clipPath>
<clipPath id="clip6_451_290">
<rect width="16" height="16" fill="white" transform="translate(78.1196 171.068)"/>
</clipPath>
</defs>
</svg>
